ISO-10303-21;
HEADER;
FILE_DESCRIPTION (( 'STEP AP214' ),
    '1' );
FILE_NAME ('Walker_Brake_Knob.STEP',
    '2026-08-11T21:02:50',
    ( '' ),
    ( '' ),
    'SwSTEP 2.0',
    'SolidWorks 2023',
    '' );
FILE_SCHEMA (( 'AUTOMOTIVE_DESIGN' ));
ENDSEC;

DATA;
#1 = ORIENTED_EDGE ( 'NONE', *, *, #289, .T. ) ;
#2 = SURFACE_STYLE_USAGE ( .BOTH. , #505 ) ;
#3 = LINE ( 'NONE', #744, #158 ) ;
#4 = CARTESIAN_POINT ( 'NONE',  ( -12.39666562614562828, 29.39999999999999858, 5.928276230167820238 ) ) ;
#5 = EDGE_LOOP ( 'NONE', ( #209, #743 ) ) ;
#6 = FACE_OUTER_BOUND ( 'NONE', #529, .T. ) ;
#7 = AXIS2_PLACEMENT_3D ( 'NONE', #709, #50, #623 ) ;
#8 = DIRECTION ( 'NONE',  ( 0.000000000000000000, 0.000000000000000000, -1.000000000000000000 ) ) ;
#9 = VERTEX_POINT ( 'NONE', #1006 ) ;
#10 = DIRECTION ( 'NONE',  ( -0.000000000000000000, -1.000000000000000000, 0.000000000000000000 ) ) ;
#11 = VERTEX_POINT ( 'NONE', #763 ) ;
#12 = CARTESIAN_POINT ( 'NONE',  ( 12.39666562614570644, 29.39999999999999858, 5.928276230167703886 ) ) ;
#13 = TOROIDAL_SURFACE ( 'NONE', #671, 3.599999999999999645, 0.5000000000000000000 ) ;
#14 = CARTESIAN_POINT ( 'NONE',  ( 10.45000000000000107, 29.39999999999999858, 9.299999999999995381 ) ) ;
#15 = ADVANCED_FACE ( 'NONE', ( #926 ), #442, .F. ) ;
#16 = EDGE_LOOP ( 'NONE', ( #183, #365, #651 ) ) ;
#17 = AXIS2_PLACEMENT_3D ( 'NONE', #356, #922, #692 ) ;
#18 = MECHANICAL_DESIGN_GEOMETRIC_PRESENTATION_REPRESENTATION (  '', ( #485 ), #260 ) ;
#19 = CIRCLE ( 'NONE', #1047, 1.000000000000000222 ) ;
#20 = DIRECTION ( 'NONE',  ( -0.000000000000000000, -1.000000000000000000, -0.000000000000000000 ) ) ;
#21 = EDGE_CURVE ( 'NONE', #497, #253, #920, .T. ) ;
#22 = FACE_OUTER_BOUND ( 'NONE', #681, .T. ) ;
#23 = EDGE_LOOP ( 'NONE', ( #551, #445, #172, #392 ) ) ;
#24 = CARTESIAN_POINT ( 'NONE',  ( 12.21137835673193095, 29.39999999999999858, 4.695749375770170708 ) ) ;
#25 = VERTEX_POINT ( 'NONE', #686 ) ;
#26 = CARTESIAN_POINT ( 'NONE',  ( -1.543331252291397337, 29.39999999999999858, -12.87025033688150444 ) ) ;
#27 = EDGE_LOOP ( 'NONE', ( #972, #509, #524 ) ) ;
#28 = DIRECTION ( 'NONE',  ( 0.4999999999999928391, 0.000000000000000000, 0.8660254037844428154 ) ) ;
#29 = VECTOR ( 'NONE', #47, 1000.000000000000000 ) ;
#30 = ORIENTED_EDGE ( 'NONE', *, *, #571, .T. ) ;
#31 = EDGE_CURVE ( 'NONE', #771, #948, #808, .T. ) ;
#32 = CARTESIAN_POINT ( 'NONE',  ( 4.714890176717308529E-16, 28.89999999999999858, -3.599999999999999645 ) ) ;
#33 = DIRECTION ( 'NONE',  ( 0.000000000000000000, 1.000000000000000000, 0.000000000000000000 ) ) ;
#34 = EDGE_CURVE ( 'NONE', #191, #923, #186, .T. ) ;
#35 = DIRECTION ( 'NONE',  ( -0.4999999999999945044, -0.000000000000000000, 0.8660254037844418162 ) ) ;
#36 = ORIENTED_EDGE ( 'NONE', *, *, #1033, .F. ) ;
#37 = ORIENTED_EDGE ( 'NONE', *, *, #919, .F. ) ;
#38 = DIRECTION ( 'NONE',  ( -0.000000000000000000, -1.000000000000000000, 0.000000000000000000 ) ) ;
#39 = DIRECTION ( 'NONE',  ( 0.000000000000000000, 1.000000000000000000, 0.000000000000000000 ) ) ;
#40 = VERTEX_POINT ( 'NONE', #603 ) ;
#41 = EDGE_CURVE ( 'NONE', #379, #48, #958, .T. ) ;
#42 = DIRECTION ( 'NONE',  ( 0.000000000000000000, 1.000000000000000000, 0.000000000000000000 ) ) ;
#43 = CARTESIAN_POINT ( 'NONE',  ( 1.543331252291443967, 28.39999999999999858, -11.87025033688150089 ) ) ;
#44 = DIRECTION ( 'NONE',  ( 0.4999999999999953371, 5.606714411439509377E-15, -0.8660254037844413721 ) ) ;
#45 = ADVANCED_FACE ( 'NONE', ( #930 ), #521, .T. ) ;
#46 = CIRCLE ( 'NONE', #615, 2.850000000000000089 ) ;
#47 = DIRECTION ( 'NONE',  ( 0.000000000000000000, 1.000000000000000000, 0.000000000000000000 ) ) ;
#48 = VERTEX_POINT ( 'NONE', #198 ) ;
#49 = DIRECTION ( 'NONE',  ( -0.000000000000000000, -1.000000000000000000, -0.000000000000000000 ) ) ;
#50 = DIRECTION ( 'NONE',  ( 0.000000000000000000, 0.000000000000000000, 1.000000000000000000 ) ) ;
#51 = VECTOR ( 'NONE', #339, 999.9999999999998863 ) ;
#52 = EDGE_LOOP ( 'NONE', ( #984, #483, #852, #767 ) ) ;
#53 = DIRECTION ( 'NONE',  ( 0.4999999999999945044, 0.000000000000000000, -0.8660254037844418162 ) ) ;
#54 = CARTESIAN_POINT ( 'NONE',  ( 0.000000000000000000, 29.39999999999999858, 0.000000000000000000 ) ) ;
#55 = DIRECTION ( 'NONE',  ( 1.000000000000000000, 0.000000000000000000, 0.000000000000000000 ) ) ;
#56 = CIRCLE ( 'NONE', #764, 5.900000000000001243 ) ;
#57 = VERTEX_POINT ( 'NONE', #32 ) ;
#58 = CARTESIAN_POINT ( 'NONE',  ( 1.543331252291440414, 28.39999999999999858, -12.87025033688150089 ) ) ;
#59 = DIRECTION ( 'NONE',  ( -0.000000000000000000, -1.000000000000000000, -0.000000000000000000 ) ) ;
#60 = DIRECTION ( 'NONE',  ( -0.000000000000000000, -1.000000000000000000, -0.000000000000000000 ) ) ;
#61 = ADVANCED_FACE ( 'NONE', ( #363 ), #694, .F. ) ;
#62 = VERTEX_POINT ( 'NONE', #683 ) ;
#63 = CIRCLE ( 'NONE', #515, 33.96838235294108443 ) ;
#64 = SPHERICAL_SURFACE ( 'NONE', #7, 1.000000000000000000 ) ;
#65 = CARTESIAN_POINT ( 'NONE',  ( 0.000000000000000000, 11.50000000000000000, 0.000000000000000000 ) ) ;
#66 = CARTESIAN_POINT ( 'NONE',  ( 6.925345191141075949E-15, 29.39999999999999858, 7.600000000000023626 ) ) ;
#67 = EDGE_CURVE ( 'NONE', #905, #760, #430, .T. ) ;
#68 = ORIENTED_EDGE ( 'NONE', *, *, #67, .T. ) ;
#69 = AXIS2_PLACEMENT_3D ( 'NONE', #583, #748, #343 ) ;
#70 = CARTESIAN_POINT ( 'NONE',  ( 2.518087184339343310, 28.39999999999999858, -12.09352342737256691 ) ) ;
#71 = AXIS2_PLACEMENT_3D ( 'NONE', #742, #1070, #324 ) ;
#72 = DIRECTION ( 'NONE',  ( 0.000000000000000000, 0.000000000000000000, -1.000000000000000000 ) ) ;
#73 = ADVANCED_FACE ( 'NONE', ( #1008 ), #513, .T. ) ;
#74 = AXIS2_PLACEMENT_3D ( 'NONE', #439, #28, #766 ) ;
#75 = CIRCLE ( 'NONE', #240, 1.000000000000000888 ) ;
#76 = VERTEX_POINT ( 'NONE', #834 ) ;
#77 = DIRECTION ( 'NONE',  ( 1.000000000000000000, 0.000000000000000000, 7.381802025433449084E-16 ) ) ;
#78 = CARTESIAN_POINT ( 'NONE',  ( 6.925345191141075949E-15, 28.39999999999999858, 40.56838235294154060 ) ) ;
#79 = EDGE_CURVE ( 'NONE', #86, #90, #1004, .T. ) ;
#80 = EDGE_LOOP ( 'NONE', ( #230, #272, #980, #809 ) ) ;
#81 = CARTESIAN_POINT ( 'NONE',  ( 0.000000000000000000, 11.50000000000000000, 0.000000000000000000 ) ) ;
#82 = FACE_OUTER_BOUND ( 'NONE', #267, .T. ) ;
#83 = CARTESIAN_POINT ( 'NONE',  ( -2.349999999999908162, 18.50000000000000000, -12.87025033688150444 ) ) ;
#84 = AXIS2_PLACEMENT_3D ( 'NONE', #891, #387, #644 ) ;
#85 = CIRCLE ( 'NONE', #858, 0.9999999999999996669 ) ;
#86 = VERTEX_POINT ( 'NONE', #92 ) ;
#87 = CARTESIAN_POINT ( 'NONE',  ( -34.65421345289199451, 29.39999999999999858, -19.45447604380463957 ) ) ;
#88 = CARTESIAN_POINT ( 'NONE',  ( 4.563450569121071696E-14, 28.39999999999999858, -11.87025033688150799 ) ) ;
#89 = MECHANICAL_DESIGN_GEOMETRIC_PRESENTATION_REPRESENTATION (  '', ( #667 ), #639 ) ;
#90 = VERTEX_POINT ( 'NONE', #1021 ) ;
#91 = DIRECTION ( 'NONE',  ( -1.000000000000000000, -0.000000000000000000, -7.381802025433449084E-16 ) ) ;
#92 = CARTESIAN_POINT ( 'NONE',  ( 0.000000000000000000, 29.39999999999999858, 4.099999999999999645 ) ) ;
#93 = EDGE_LOOP ( 'NONE', ( #848, #714, #835, #432 ) ) ;
#94 = CARTESIAN_POINT ( 'NONE',  ( 9.987308970069813441, 28.39999999999999858, 8.101404372045442059 ) ) ;
#95 = CARTESIAN_POINT ( 'NONE',  ( 6.568132130230448951, 29.39999999999999858, 36.77626949948003698 ) ) ;
#96 = ORIENTED_EDGE ( 'NONE', *, *, #452, .F. ) ;
#97 = AXIS2_PLACEMENT_3D ( 'NONE', #987, #181, #318 ) ;
#98 = PLANE ( 'NONE',  #508 ) ;
#99 = ORIENTED_EDGE ( 'NONE', *, *, #1027, .F. ) ;
#100 = LINE ( 'NONE', #983, #959 ) ;
#101 = CARTESIAN_POINT ( 'NONE',  ( 10.45000000000000107, 18.50000000000000000, 9.299999999999995381 ) ) ;
#102 = ORIENTED_EDGE ( 'NONE', *, *, #346, .F. ) ;
#103 = LINE ( 'NONE', #250, #237 ) ;
#104 = VECTOR ( 'NONE', #682, 1000.000000000000000 ) ;
#105 = ORIENTED_EDGE ( 'NONE', *, *, #838, .T. ) ;
#106 = TOROIDAL_SURFACE ( 'NONE', #625, 33.96838235294151787, 1.000000000000000000 ) ;
#107 = CARTESIAN_POINT ( 'NONE',  ( -9.693291172392578758, 18.50000000000000000, 9.057204316934040378 ) ) ;
#108 = DIRECTION ( 'NONE',  ( -0.000000000000000000, -1.000000000000000000, 0.000000000000000000 ) ) ;
#109 = ORIENTED_EDGE ( 'NONE', *, *, #606, .F. ) ;
#110 = ADVANCED_FACE ( 'NONE', ( #609 ), #98, .F. ) ;
#111 = VERTEX_POINT ( 'NONE', #1015 ) ;
#112 = ADVANCED_FACE ( 'NONE', ( #751 ), #271, .F. ) ;
#113 = CARTESIAN_POINT ( 'NONE',  ( 34.65421345289194477, 18.50000000000000000, -19.45447604380481010 ) ) ;
#114 = CARTESIAN_POINT ( 'NONE',  ( 3.490243377569956554E-16, 11.50000000000000000, 2.850000000000000089 ) ) ;
#115 = ORIENTED_EDGE ( 'NONE', *, *, #519, .F. ) ;
#116 = VECTOR ( 'NONE', #269, 1000.000000000000000 ) ;
#117 = ORIENTED_EDGE ( 'NONE', *, *, #986, .F. ) ;
#118 = CARTESIAN_POINT ( 'NONE',  ( -10.85333437385424560, 28.39999999999999858, 8.601404372045447388 ) ) ;
#119 = CARTESIAN_POINT ( 'NONE',  ( -1.543331252291395561, 28.39999999999999858, -11.87025033688150977 ) ) ;
#120 = ORIENTED_EDGE ( 'NONE', *, *, #415, .T. ) ;
#121 = EDGE_CURVE ( 'NONE', #457, #201, #856, .T. ) ;
#122 = AXIS2_PLACEMENT_3D ( 'NONE', #908, #1005, #818 ) ;
#123 = PRESENTATION_STYLE_ASSIGNMENT (( #974 ) ) ;
#124 = AXIS2_PLACEMENT_3D ( 'NONE', #257, #594, #755 ) ;
#125 = CYLINDRICAL_SURFACE ( 'NONE', #525, 32.96838235294151076 ) ;
#126 = PRESENTATION_LAYER_ASSIGNMENT (  '', '', ( #485 ) ) ;
#127 = CARTESIAN_POINT ( 'NONE',  ( 0.000000000000000000, 11.50000000000000000, 0.000000000000000000 ) ) ;
#128 = ORIENTED_EDGE ( 'NONE', *, *, #1011, .F. ) ;
#129 = DIRECTION ( 'NONE',  ( 0.000000000000000000, 0.000000000000000000, -1.000000000000000000 ) ) ;
#130 = CARTESIAN_POINT ( 'NONE',  ( 11.53064022236126718, 28.39999999999999858, 5.428276230167699445 ) ) ;
#131 = EDGE_CURVE ( 'NONE', #720, #857, #1002, .T. ) ;
#132 = AXIS2_PLACEMENT_3D ( 'NONE', #443, #932, #523 ) ;
#133 = DIRECTION ( 'NONE',  ( 0.000000000000000000, -0.000000000000000000, 1.000000000000000000 ) ) ;
#134 = VERTEX_POINT ( 'NONE', #1029 ) ;
#135 = CARTESIAN_POINT ( 'NONE',  ( 0.000000000000000000, 0.000000000000000000, 0.000000000000000000 ) ) ;
#136 = PLANE ( 'NONE',  #176 ) ;
#137 = CIRCLE ( 'NONE', #673, 1.000000000000000000 ) ;
#138 = CARTESIAN_POINT ( 'NONE',  ( 0.000000000000000000, 29.39999999999999858, 3.599999999999999645 ) ) ;
#139 = ORIENTED_EDGE ( 'NONE', *, *, #533, .F. ) ;
#140 = CYLINDRICAL_SURFACE ( 'NONE', #876, 1.000000000000000888 ) ;
#141 = DIRECTION ( 'NONE',  ( 0.000000000000000000, 0.000000000000000000, -1.000000000000000000 ) ) ;
#142 = ADVANCED_FACE ( 'NONE', ( #394 ), #404, .F. ) ;
#143 = ADVANCED_FACE ( 'NONE', ( #722, #476 ), #282, .T. ) ;
#144 = ORIENTED_EDGE ( 'NONE', *, *, #619, .F. ) ;
#145 = EDGE_CURVE ( 'NONE', #401, #703, #154, .T. ) ;
#146 = CARTESIAN_POINT ( 'NONE',  ( 7.225416114969385180E-16, 18.50000000000000000, 5.900000000000001243 ) ) ;
#147 = SURFACE_STYLE_FILL_AREA ( #888 ) ;
#148 = EDGE_LOOP ( 'NONE', ( #283, #799, #1, #478 ) ) ;
#149 = CIRCLE ( 'NONE', #752, 5.900000000000001243 ) ;
#150 = EDGE_CURVE ( 'NONE', #720, #191, #934, .T. ) ;
#151 = CARTESIAN_POINT ( 'NONE',  ( -1.543331252291397337, 28.39999999999999858, -12.87025033688150444 ) ) ;
#152 = DIRECTION ( 'NONE',  ( 1.000000000000000000, -0.000000000000000000, 1.224646799147353207E-16 ) ) ;
#153 = MANIFOLD_SOLID_BREP ( 'Bolt', #310 ) ;
#154 = CIRCLE ( 'NONE', #320, 1.000000000000000000 ) ;
#155 = ORIENTED_EDGE ( 'NONE', *, *, #488, .T. ) ;
#156 = AXIS2_PLACEMENT_3D ( 'NONE', #618, #978, #72 ) ;
#157 = EDGE_CURVE ( 'NONE', #855, #201, #715, .T. ) ;
#158 = VECTOR ( 'NONE', #1068, 1000.000000000000000 ) ;
#159 = CARTESIAN_POINT ( 'NONE',  ( -34.65421345289199451, 29.39999999999999858, -19.45447604380463957 ) ) ;
#160 = CIRCLE ( 'NONE', #296, 32.96838235294151076 ) ;
#161 = ORIENTED_EDGE ( 'NONE', *, *, #377, .T. ) ;
#162 = DIRECTION ( 'NONE',  ( 0.000000000000000000, -0.000000000000000000, 1.000000000000000000 ) ) ;
#163 = CYLINDRICAL_SURFACE ( 'NONE', #1054, 2.850000000000000089 ) ;
#164 = CARTESIAN_POINT ( 'NONE',  ( 0.000000000000000000, 29.39999999999999858, 0.000000000000000000 ) ) ;
#165 = ORIENTED_EDGE ( 'NONE', *, *, #544, .F. ) ;
#166 = FILL_AREA_STYLE ('',( #906 ) ) ;
#167 = DIRECTION ( 'NONE',  ( -0.000000000000000000, -1.000000000000000000, 0.000000000000000000 ) ) ;
#168 = DIRECTION ( 'NONE',  ( 0.000000000000000000, 0.000000000000000000, -1.000000000000000000 ) ) ;
#169 = AXIS2_PLACEMENT_3D ( 'NONE', #81, #981, #236 ) ;
#170 = TOROIDAL_SURFACE ( 'NONE', #249, 33.96838235294114128, 1.000000000000000000 ) ;
#171 = LINE ( 'NONE', #12, #710 ) ;
#172 = ORIENTED_EDGE ( 'NONE', *, *, #679, .F. ) ;
#173 = DIRECTION ( 'NONE',  ( -0.000000000000000000, 1.000000000000000000, -0.000000000000000000 ) ) ;
#174 = DIRECTION ( 'NONE',  ( -6.018531076210111340E-30, -1.734723475976805517E-15, 1.000000000000000000 ) ) ;
#175 = DIRECTION ( 'NONE',  ( 0.000000000000000000, 0.000000000000000000, -1.000000000000000000 ) ) ;
#176 = AXIS2_PLACEMENT_3D ( 'NONE', #65, #966, #717 ) ;
#177 =( NAMED_UNIT ( * ) SI_UNIT ( $, .STERADIAN. ) SOLID_ANGLE_UNIT ( ) );
#178 = CARTESIAN_POINT ( 'NONE',  ( 10.85333437385425448, 29.39999999999999858, 8.601404372045440283 ) ) ;
#179 = VERTEX_POINT ( 'NONE', #892 ) ;
#180 = EDGE_CURVE ( 'NONE', #379, #457, #723, .T. ) ;
#181 = DIRECTION ( 'NONE',  ( -0.000000000000000000, -1.000000000000000000, 0.000000000000000000 ) ) ;
#182 = CARTESIAN_POINT ( 'NONE',  ( -1.543331252291398004, 18.50000000000000000, -11.87025033688150444 ) ) ;
#183 = ORIENTED_EDGE ( 'NONE', *, *, #21, .T. ) ;
#184 =( NAMED_UNIT ( * ) PLANE_ANGLE_UNIT ( ) SI_UNIT ( $, .RADIAN. ) );
#185 = ORIENTED_EDGE ( 'NONE', *, *, #454, .F. ) ;
#186 = LINE ( 'NONE', #678, #258 ) ;
#187 = CARTESIAN_POINT ( 'NONE',  ( -34.65421345289199451, 28.39999999999999858, -19.45447604380463957 ) ) ;
#188 = EDGE_CURVE ( 'NONE', #57, #90, #863, .T. ) ;
#189 = ORIENTED_EDGE ( 'NONE', *, *, #289, .F. ) ;
#190 = AXIS2_PLACEMENT_3D ( 'NONE', #247, #1061, #739 ) ;
#191 = VERTEX_POINT ( 'NONE', #234 ) ;
#192 = DIRECTION ( 'NONE',  ( 0.2940177976772234136, 0.000000000000000000, -0.9557999448885918792 ) ) ;
#193 = AXIS2_PLACEMENT_3D ( 'NONE', #702, #944, #730 ) ;
#194 = LINE ( 'NONE', #680, #487 ) ;
#195 = EDGE_CURVE ( 'NONE', #62, #370, #433, .T. ) ;
#196 = ORIENTED_EDGE ( 'NONE', *, *, #640, .T. ) ;
#197 = ORIENTED_EDGE ( 'NONE', *, *, #530, .F. ) ;
#198 = CARTESIAN_POINT ( 'NONE',  ( -9.693291172392576982, 28.39999999999999858, 9.057204316934043931 ) ) ;
#199 = FACE_OUTER_BOUND ( 'NONE', #464, .T. ) ;
#200 = DIRECTION ( 'NONE',  ( 0.4999999999999945044, 0.000000000000000000, -0.8660254037844418162 ) ) ;
#201 = VERTEX_POINT ( 'NONE', #480 ) ;
#202 = DIRECTION ( 'NONE',  ( -0.000000000000000000, -1.000000000000000000, -0.000000000000000000 ) ) ;
#203 = ORIENTED_EDGE ( 'NONE', *, *, #844, .F. ) ;
#204 = DIRECTION ( 'NONE',  ( 0.8660254037844428154, 0.000000000000000000, -0.4999999999999928391 ) ) ;
#205 = DIRECTION ( 'NONE',  ( -0.000000000000000000, -1.000000000000000000, -0.000000000000000000 ) ) ;
#206 = ORIENTED_EDGE ( 'NONE', *, *, #650, .T. ) ;
#207 = AXIS2_PLACEMENT_3D ( 'NONE', #127, #860, #280 ) ;
#208 = CARTESIAN_POINT ( 'NONE',  ( -9.987308970069802783, 18.50000000000000000, 8.101404372045452718 ) ) ;
#209 = ORIENTED_EDGE ( 'NONE', *, *, #225, .T. ) ;
#210 = DIRECTION ( 'NONE',  ( 0.000000000000000000, 0.000000000000000000, -1.000000000000000000 ) ) ;
#211 = DIRECTION ( 'NONE',  ( 1.000000000000000000, -0.000000000000000000, -1.951563910473916659E-15 ) ) ;
#212 = CIRCLE ( 'NONE', #342, 3.599999999999999645 ) ;
#213 = CIRCLE ( 'NONE', #414, 32.96838235294114128 ) ;
#214 = ORIENTED_EDGE ( 'NONE', *, *, #844, .T. ) ;
#215 = DIRECTION ( 'NONE',  ( 0.000000000000000000, -0.000000000000000000, 1.000000000000000000 ) ) ;
#216 = ADVANCED_FACE ( 'NONE', ( #805 ), #806, .F. ) ;
#217 = AXIS2_PLACEMENT_3D ( 'NONE', #43, #859, #1019 ) ;
#218 = DIRECTION ( 'NONE',  ( -0.000000000000000000, -1.000000000000000000, -0.000000000000000000 ) ) ;
#219 = CARTESIAN_POINT ( 'NONE',  ( 2.518087184339344642, 18.50000000000000000, -12.09352342737256691 ) ) ;
#220 = FACE_OUTER_BOUND ( 'NONE', #1032, .T. ) ;
#221 = AXIS2_PLACEMENT_3D ( 'NONE', #228, #627, #629 ) ;
#222 = AXIS2_PLACEMENT_3D ( 'NONE', #375, #38, #1036 ) ;
#223 = ORIENTED_EDGE ( 'NONE', *, *, #947, .F. ) ;
#224 = CYLINDRICAL_SURFACE ( 'NONE', #597, 0.9999999999999995559 ) ;
#225 = EDGE_CURVE ( 'NONE', #9, #57, #212, .T. ) ;
#226 = EDGE_CURVE ( 'NONE', #179, #11, #568, .T. ) ;
#227 = ORIENTED_EDGE ( 'NONE', *, *, #590, .F. ) ;
#228 = CARTESIAN_POINT ( 'NONE',  ( 34.65421345289194477, 28.39999999999999858, -19.45447604380481010 ) ) ;
#229 = DIRECTION ( 'NONE',  ( 0.000000000000000000, 0.000000000000000000, 1.000000000000000000 ) ) ;
#230 = ORIENTED_EDGE ( 'NONE', *, *, #566, .T. ) ;
#231 = FACE_OUTER_BOUND ( 'NONE', #942, .T. ) ;
#232 = EDGE_CURVE ( 'NONE', #179, #48, #952, .T. ) ;
#233 = ORIENTED_EDGE ( 'NONE', *, *, #41, .T. ) ;
#234 = CARTESIAN_POINT ( 'NONE',  ( 1.543331252291447298, 29.39999999999999858, -11.87025033688150621 ) ) ;
#235 = ORIENTED_EDGE ( 'NONE', *, *, #830, .T. ) ;
#236 = DIRECTION ( 'NONE',  ( 0.000000000000000000, 0.000000000000000000, 1.000000000000000000 ) ) ;
#237 = VECTOR ( 'NONE', #331, 1000.000000000000000 ) ;
#238 = CYLINDRICAL_SURFACE ( 'NONE', #695, 1.000000000000000000 ) ;
#239 = DIRECTION ( 'NONE',  ( 0.4999999999999927836, -0.000000000000000000, 0.8660254037844428154 ) ) ;
#240 = AXIS2_PLACEMENT_3D ( 'NONE', #660, #837, #591 ) ;
#241 = ORIENTED_EDGE ( 'NONE', *, *, #21, .F. ) ;
#242 = CARTESIAN_POINT ( 'NONE',  ( 34.65421345289194477, 29.39999999999999858, -19.45447604380481010 ) ) ;
#243 = DIRECTION ( 'NONE',  ( -0.000000000000000000, -1.000000000000000000, 0.000000000000000000 ) ) ;
#244 = DIRECTION ( 'NONE',  ( -0.000000000000000000, -1.000000000000000000, -0.000000000000000000 ) ) ;
#245 = DIRECTION ( 'NONE',  ( 0.000000000000000000, 0.000000000000000000, 1.000000000000000000 ) ) ;
#246 = ORIENTED_EDGE ( 'NONE', *, *, #991, .T. ) ;
#247 = CARTESIAN_POINT ( 'NONE',  ( 0.000000000000000000, 0.000000000000000000, 0.000000000000000000 ) ) ;
#248 = DIRECTION ( 'NONE',  ( 0.000000000000000000, 0.000000000000000000, -1.000000000000000000 ) ) ;
#249 = AXIS2_PLACEMENT_3D ( 'NONE', #971, #108, #616 ) ;
#250 = CARTESIAN_POINT ( 'NONE',  ( 0.000000000000000000, 11.50000000000000000, -2.850000000000000089 ) ) ;
#251 = ADVANCED_FACE ( 'NONE', ( #6 ), #336, .T. ) ;
#252 = ADVANCED_FACE ( 'NONE', ( #516 ), #13, .F. ) ;
#253 = VERTEX_POINT ( 'NONE', #669 ) ;
#254 = VECTOR ( 'NONE', #486, 1000.000000000000000 ) ;
#255 = DIRECTION ( 'NONE',  ( -1.000000000000000000, -6.938893903907229955E-15, 0.000000000000000000 ) ) ;
#256 = AXIS2_PLACEMENT_3D ( 'NONE', #506, #518, #990 ) ;
#257 = CARTESIAN_POINT ( 'NONE',  ( 0.000000000000000000, 28.89999999999999858, 0.000000000000000000 ) ) ;
#258 = VECTOR ( 'NONE', #1010, 1000.000000000000000 ) ;
#259 = CARTESIAN_POINT ( 'NONE',  ( 1.543331252291440192, 29.39999999999999858, -12.87025033688150089 ) ) ;
#260 =( GEOMETRIC_REPRESENTATION_CONTEXT ( 3 ) GLOBAL_UNCERTAINTY_ASSIGNED_CONTEXT ( ( #421 ) ) GLOBAL_UNIT_ASSIGNED_CONTEXT ( ( #718, #783, #553 ) ) REPRESENTATION_CONTEXT ( 'NONE', 'WORKASPACE' ) );
#261 = ORIENTED_EDGE ( 'NONE', *, *, #532, .F. ) ;
#262 = ADVANCED_FACE ( 'NONE', ( #998 ), #577, .T. ) ;
#263 = EDGE_CURVE ( 'NONE', #111, #948, #759, .T. ) ;
#264 = CARTESIAN_POINT ( 'NONE',  ( 6.925345191141075949E-15, 28.39999999999999858, 40.56838235294154060 ) ) ;
#265 = ORIENTED_EDGE ( 'NONE', *, *, #131, .F. ) ;
#266 = FACE_OUTER_BOUND ( 'NONE', #784, .T. ) ;
#267 = EDGE_LOOP ( 'NONE', ( #794, #754, #842, #643 ) ) ;
#268 = EDGE_CURVE ( 'NONE', #781, #25, #1052, .T. ) ;
#269 = DIRECTION ( 'NONE',  ( -0.000000000000000000, -1.000000000000000000, -0.000000000000000000 ) ) ;
#270 = ORIENTED_EDGE ( 'NONE', *, *, #79, .F. ) ;
#271 = CYLINDRICAL_SURFACE ( 'NONE', #654, 32.96838235294151076 ) ;
#272 = ORIENTED_EDGE ( 'NONE', *, *, #650, .F. ) ;
#273 = DIRECTION ( 'NONE',  ( 1.000000000000000000, -0.000000000000000000, 7.381802025433449084E-16 ) ) ;
#274 = ORIENTED_EDGE ( 'NONE', *, *, #121, .T. ) ;
#275 = AXIS2_PLACEMENT_3D ( 'NONE', #419, #999, #429 ) ;
#276 = DIRECTION ( 'NONE',  ( 0.000000000000000000, -1.000000000000000000, 0.000000000000000000 ) ) ;
#277 = ORIENTED_EDGE ( 'NONE', *, *, #947, .T. ) ;
#278 = CARTESIAN_POINT ( 'NONE',  ( -10.44999999999999751, 29.39999999999999858, 9.299999999999998934 ) ) ;
#279 = CARTESIAN_POINT ( 'NONE',  ( 6.925345191141075949E-15, 29.39999999999999858, 40.56838235294154060 ) ) ;
#280 = DIRECTION ( 'NONE',  ( 0.000000000000000000, 0.000000000000000000, 1.000000000000000000 ) ) ;
#281 = ORIENTED_EDGE ( 'NONE', *, *, #1065, .F. ) ;
#282 = PLANE ( 'NONE',  #193 ) ;
#283 = ORIENTED_EDGE ( 'NONE', *, *, #389, .T. ) ;
#284 = DIRECTION ( 'NONE',  ( 0.2232730904910612824, -0.000000000000000000, 0.9747559320479001199 ) ) ;
#285 = ORIENTED_EDGE ( 'NONE', *, *, #1045, .T. ) ;
#286 = PRODUCT ( 'Walker_Brake_Knob', 'Walker_Brake_Knob', '', ( #732 ) ) ;
#287 = CIRCLE ( 'NONE', #928, 0.9999999999999993339 ) ;
#288 = DIRECTION ( 'NONE',  ( 0.4999999999999979461, -0.000000000000000000, 0.8660254037844398178 ) ) ;
#289 = EDGE_CURVE ( 'NONE', #857, #548, #741, .T. ) ;
#290 = ORIENTED_EDGE ( 'NONE', *, *, #991, .F. ) ;
#291 = DIRECTION ( 'NONE',  ( -0.8660254037844413721, 0.000000000000000000, -0.4999999999999953926 ) ) ;
#292 = FACE_OUTER_BOUND ( 'NONE', #148, .T. ) ;
#293 = AXIS2_PLACEMENT_3D ( 'NONE', #884, #42, #305 ) ;
#294 = CIRCLE ( 'NONE', #898, 32.96838235294151076 ) ;
#295 = ADVANCED_FACE ( 'NONE', ( #502 ), #319, .T. ) ;
#296 = AXIS2_PLACEMENT_3D ( 'NONE', #769, #850, #611 ) ;
#297 = DIRECTION ( 'NONE',  ( 0.000000000000000000, 0.000000000000000000, -1.000000000000000000 ) ) ;
#298 = ADVANCED_FACE ( 'NONE', ( #921 ), #916, .T. ) ;
#299 = DIRECTION ( 'NONE',  ( 0.000000000000000000, 0.000000000000000000, 1.000000000000000000 ) ) ;
#300 = FACE_OUTER_BOUND ( 'NONE', #938, .T. ) ;
#301 = CARTESIAN_POINT ( 'NONE',  ( 9.693291172392585864, 29.39999999999999858, 9.057204316934033272 ) ) ;
#302 = CIRCLE ( 'NONE', #719, 1.000000000000000888 ) ;
#303 = ORIENTED_EDGE ( 'NONE', *, *, #263, .F. ) ;
#304 = FACE_OUTER_BOUND ( 'NONE', #23, .T. ) ;
#305 = DIRECTION ( 'NONE',  ( 0.000000000000000000, 0.000000000000000000, 1.000000000000000000 ) ) ;
#306 = VECTOR ( 'NONE', #630, 1000.000000000000000 ) ;
#307 = PRODUCT_RELATED_PRODUCT_CATEGORY ( 'part', '', ( #286 ) ) ;
#308 = ORIENTED_EDGE ( 'NONE', *, *, #188, .T. ) ;
#309 = DIRECTION ( 'NONE',  ( 0.7325268543975301805, -3.362999051213589722E-15, 0.6807381343706694343 ) ) ;
#310 = CLOSED_SHELL ( 'NONE', ( #251, #924, #881, #827 ) ) ;
#311 = DIRECTION ( 'NONE',  ( 0.8660254037844397068, 0.000000000000000000, -0.4999999999999980571 ) ) ;
#312 = ORIENTED_EDGE ( 'NONE', *, *, #1028, .F. ) ;
#313 = DIRECTION ( 'NONE',  ( 0.000000000000000000, 0.000000000000000000, 1.000000000000000000 ) ) ;
#314 = SHAPE_DEFINITION_REPRESENTATION ( #367, #405 ) ;
#315 = EDGE_LOOP ( 'NONE', ( #1020, #593, #277, #579 ) ) ;
#316 = AXIS2_PLACEMENT_3D ( 'NONE', #479, #965, #466 ) ;
#317 = EDGE_CURVE ( 'NONE', #589, #548, #711, .T. ) ;
#318 = DIRECTION ( 'NONE',  ( 0.000000000000000000, 0.000000000000000000, -1.000000000000000000 ) ) ;
#319 = CYLINDRICAL_SURFACE ( 'NONE', #810, 5.900000000000001243 ) ;
#320 = AXIS2_PLACEMENT_3D ( 'NONE', #208, #538, #141 ) ;
#321 = ORIENTED_EDGE ( 'NONE', *, *, #1011, .T. ) ;
#322 = FACE_OUTER_BOUND ( 'NONE', #413, .T. ) ;
#323 = DIRECTION ( 'NONE',  ( -7.381802025433417530E-16, 0.000000000000000000, 1.000000000000000000 ) ) ;
#324 = DIRECTION ( 'NONE',  ( -0.8660254037844429265, 0.000000000000000000, 0.4999999999999926725 ) ) ;
#325 = EDGE_LOOP ( 'NONE', ( #697, #155, #312 ) ) ;
#326 = UNCERTAINTY_MEASURE_WITH_UNIT (LENGTH_MEASURE( 1.000000000000000082E-05 ), #825, 'distance_accuracy_value', 'NONE');
#327 = ADVANCED_FACE ( 'NONE', ( #507 ), #106, .T. ) ;
#328 =( LENGTH_UNIT ( ) NAMED_UNIT ( * ) SI_UNIT ( .MILLI., .METRE. ) );
#329 = DIRECTION ( 'NONE',  ( 0.000000000000000000, 0.000000000000000000, -1.000000000000000000 ) ) ;
#330 = CARTESIAN_POINT ( 'NONE',  ( 0.000000000000000000, 18.50000000000000000, 0.000000000000000000 ) ) ;
#331 = DIRECTION ( 'NONE',  ( -0.000000000000000000, -1.000000000000000000, -0.000000000000000000 ) ) ;
#332 = EDGE_CURVE ( 'NONE', #781, #720, #75, .T. ) ;
#333 = ORIENTED_EDGE ( 'NONE', *, *, #830, .F. ) ;
#334 = VECTOR ( 'NONE', #776, 1000.000000000000000 ) ;
#335 = CARTESIAN_POINT ( 'NONE',  ( -10.85333437385424560, 29.39999999999999858, 8.601404372045447388 ) ) ;
#336 = CYLINDRICAL_SURFACE ( 'NONE', #69, 2.850000000000000089 ) ;
#337 = DIRECTION ( 'NONE',  ( -0.000000000000000000, -1.000000000000000000, -0.000000000000000000 ) ) ;
#338 = ADVANCED_FACE ( 'NONE', ( #736, #989 ), #418, .F. ) ;
#339 = DIRECTION ( 'NONE',  ( -0.4999999999999928391, -0.000000000000000000, -0.8660254037844428154 ) ) ;
#340 = ORIENTED_EDGE ( 'NONE', *, *, #750, .F. ) ;
#341 = CARTESIAN_POINT ( 'NONE',  ( 34.65421345289194477, 29.39999999999999858, -19.45447604380481010 ) ) ;
#342 = AXIS2_PLACEMENT_3D ( 'NONE', #801, #399, #313 ) ;
#343 = DIRECTION ( 'NONE',  ( 0.000000000000000000, 0.000000000000000000, -1.000000000000000000 ) ) ;
#344 = VERTEX_POINT ( 'NONE', #993 ) ;
#345 = CARTESIAN_POINT ( 'NONE',  ( -34.65421345289199451, 18.50000000000000000, -19.45447604380463957 ) ) ;
#346 = EDGE_CURVE ( 'NONE', #786, #379, #925, .T. ) ;
#347 = AXIS2_PLACEMENT_3D ( 'NONE', #849, #352, #1023 ) ;
#348 = CARTESIAN_POINT ( 'NONE',  ( 6.925345191141075949E-15, 29.39999999999999858, 40.56838235294154060 ) ) ;
#349 = COLOUR_RGB ( '',0.7921568627450980005, 0.8196078431372548767, 0.9333333333333333481 ) ;
#350 = AXIS2_PLACEMENT_3D ( 'NONE', #88, #655, #323 ) ;
#351 = ORIENTED_EDGE ( 'NONE', *, *, #67, .F. ) ;
#352 = DIRECTION ( 'NONE',  ( 0.000000000000000000, 1.000000000000000000, 0.000000000000000000 ) ) ;
#353 = DIRECTION ( 'NONE',  ( 0.2232730904910603109, -5.989093851427106724E-15, -0.9747559320479003420 ) ) ;
#354 = LINE ( 'NONE', #114, #334 ) ;
#355 = ORIENTED_EDGE ( 'NONE', *, *, #346, .T. ) ;
#356 = CARTESIAN_POINT ( 'NONE',  ( 0.000000000000000000, 29.39999999999999858, 0.000000000000000000 ) ) ;
#357 = ORIENTED_EDGE ( 'NONE', *, *, #317, .F. ) ;
#358 = DIRECTION ( 'NONE',  ( 0.000000000000000000, 1.000000000000000000, -0.000000000000000000 ) ) ;
#359 = CARTESIAN_POINT ( 'NONE',  ( 0.000000000000000000, 11.50000000000000000, 0.000000000000000000 ) ) ;
#360 = EDGE_LOOP ( 'NONE', ( #707, #733, #684, #585 ) ) ;
#361 = CIRCLE ( 'NONE', #820, 1.000000000000000888 ) ;
#362 = ORIENTED_EDGE ( 'NONE', *, *, #1059, .F. ) ;
#363 = FACE_OUTER_BOUND ( 'NONE', #861, .T. ) ;
#364 = CARTESIAN_POINT ( 'NONE',  ( 6.925345191141075949E-15, 29.39999999999999858, 40.56838235294154060 ) ) ;
#365 = ORIENTED_EDGE ( 'NONE', *, *, #793, .T. ) ;
#366 = CIRCLE ( 'NONE', #883, 1.000000000000000888 ) ;
#367 = PRODUCT_DEFINITION_SHAPE ( 'NONE', 'NONE',  #997 ) ;
#368 = EDGE_LOOP ( 'NONE', ( #475, #105, #115, #233 ) ) ;
#369 = DIRECTION ( 'NONE',  ( 0.000000000000000000, 0.000000000000000000, -1.000000000000000000 ) ) ;
#370 = VERTEX_POINT ( 'NONE', #843 ) ;
#371 = EDGE_CURVE ( 'NONE', #701, #703, #100, .T. ) ;
#372 = DIRECTION ( 'NONE',  ( 0.000000000000000000, -1.000000000000000000, 0.000000000000000000 ) ) ;
#373 = CARTESIAN_POINT ( 'NONE',  ( -1.543331252291397560, 18.50000000000000000, -12.87025033688150444 ) ) ;
#374 = ORIENTED_EDGE ( 'NONE', *, *, #814, .F. ) ;
#375 = CARTESIAN_POINT ( 'NONE',  ( 6.925345191141075949E-15, 28.39999999999999858, 40.56838235294154060 ) ) ;
#376 = VECTOR ( 'NONE', #200, 1000.000000000000000 ) ;
#377 = EDGE_CURVE ( 'NONE', #444, #900, #56, .T. ) ;
#378 = DIRECTION ( 'NONE',  ( -1.000000000000000000, 0.000000000000000000, 0.000000000000000000 ) ) ;
#379 = VERTEX_POINT ( 'NONE', #460 ) ;
#380 = FACE_OUTER_BOUND ( 'NONE', #5, .T. ) ;
#381 = FACE_OUTER_BOUND ( 'NONE', #80, .T. ) ;
#382 = ADVANCED_FACE ( 'NONE', ( #542 ), #699, .T. ) ;
#383 = VECTOR ( 'NONE', #1030, 1000.000000000000000 ) ;
#384 = CYLINDRICAL_SURFACE ( 'NONE', #468, 1.000000000000000000 ) ;
#385 = CARTESIAN_POINT ( 'NONE',  ( 0.000000000000000000, 0.000000000000000000, 0.000000000000000000 ) ) ;
#386 = ORIENTED_EDGE ( 'NONE', *, *, #910, .T. ) ;
#387 = DIRECTION ( 'NONE',  ( -0.000000000000000000, -1.000000000000000000, -0.000000000000000000 ) ) ;
#388 = SURFACE_SIDE_STYLE ('',( #147 ) ) ;
#389 = EDGE_CURVE ( 'NONE', #771, #720, #194, .T. ) ;
#390 = VECTOR ( 'NONE', #49, 1000.000000000000000 ) ;
#391 = DIRECTION ( 'NONE',  ( 0.000000000000000000, 1.000000000000000000, 0.000000000000000000 ) ) ;
#392 = ORIENTED_EDGE ( 'NONE', *, *, #268, .F. ) ;
#393 = CARTESIAN_POINT ( 'NONE',  ( 0.000000000000000000, 11.50000000000000000, -2.850000000000000089 ) ) ;
#394 = FACE_OUTER_BOUND ( 'NONE', #52, .T. ) ;
#395 = AXIS2_PLACEMENT_3D ( 'NONE', #187, #1063, #587 ) ;
#396 = PRESENTATION_LAYER_ASSIGNMENT (  '', '', ( #667 ) ) ;
#397 = VERTEX_POINT ( 'NONE', #1024 ) ;
#398 = FACE_OUTER_BOUND ( 'NONE', #1003, .T. ) ;
#399 = DIRECTION ( 'NONE',  ( 0.000000000000000000, 1.000000000000000000, 0.000000000000000000 ) ) ;
#400 = APPLICATION_PROTOCOL_DEFINITION ( 'draft international standard', 'automotive_design', 1998, #846 ) ;
#401 = VERTEX_POINT ( 'NONE', #107 ) ;
#402 = CARTESIAN_POINT ( 'NONE',  ( -2.349999999999908162, 29.39999999999999858, -12.87025033688150444 ) ) ;
#403 = DIRECTION ( 'NONE',  ( 1.776356839400250465E-15, 0.000000000000000000, -1.000000000000000000 ) ) ;
#404 = CYLINDRICAL_SURFACE ( 'NONE', #790, 32.96838235294114128 ) ;
#405 = ADVANCED_BREP_SHAPE_REPRESENTATION ( 'Walker_Brake_Knob', ( #153, #873, #493 ), #563 ) ;
#406 = ORIENTED_EDGE ( 'NONE', *, *, #606, .T. ) ;
#407 = AXIS2_PLACEMENT_3D ( 'NONE', #130, #309, #1044 ) ;
#408 = AXIS2_PLACEMENT_3D ( 'NONE', #364, #780, #369 ) ;
#409 = DIRECTION ( 'NONE',  ( 0.000000000000000000, 0.000000000000000000, 1.000000000000000000 ) ) ;
#410 = DIRECTION ( 'NONE',  ( 0.000000000000000000, 1.000000000000000000, 0.000000000000000000 ) ) ;
#411 = DIRECTION ( 'NONE',  ( 0.000000000000000000, 0.000000000000000000, 1.000000000000000000 ) ) ;
#412 = ADVANCED_FACE ( 'NONE', ( #762 ), #125, .F. ) ;
#413 = EDGE_LOOP ( 'NONE', ( #828, #139, #677, #1026 ) ) ;
#414 = AXIS2_PLACEMENT_3D ( 'NONE', #345, #578, #909 ) ;
#415 = EDGE_CURVE ( 'NONE', #401, #11, #160, .T. ) ;
#416 = CARTESIAN_POINT ( 'NONE',  ( 1.543331252291439304, 18.50000000000000000, -12.87025033688150089 ) ) ;
#417 = DIRECTION ( 'NONE',  ( 0.000000000000000000, 0.000000000000000000, 1.000000000000000000 ) ) ;
#418 = PLANE ( 'NONE',  #440 ) ;
#419 = CARTESIAN_POINT ( 'NONE',  ( 9.987308970069813441, 18.50000000000000000, 8.101404372045445612 ) ) ;
#420 = ORIENTED_EDGE ( 'NONE', *, *, #495, .F. ) ;
#421 = UNCERTAINTY_MEASURE_WITH_UNIT (LENGTH_MEASURE( 1.000000000000000082E-05 ), #718, 'distance_accuracy_value', 'NONE');
#422 = DIRECTION ( 'NONE',  ( 0.4999999999999928391, 0.000000000000000000, 0.8660254037844428154 ) ) ;
#423 = ORIENTED_EDGE ( 'NONE', *, *, #195, .T. ) ;
#424 = DIRECTION ( 'NONE',  ( -1.000000000000000000, -3.469446951953611033E-15, 0.000000000000000000 ) ) ;
#425 = CIRCLE ( 'NONE', #649, 1.000000000000000888 ) ;
#426 = DIRECTION ( 'NONE',  ( 0.000000000000000000, 0.000000000000000000, -1.000000000000000000 ) ) ;
#427 = EDGE_CURVE ( 'NONE', #62, #656, #901, .T. ) ;
#428 = EDGE_LOOP ( 'NONE', ( #953, #531, #777, #355, #575, #1051, #853 ) ) ;
#429 = DIRECTION ( 'NONE',  ( 0.000000000000000000, 0.000000000000000000, -1.000000000000000000 ) ) ;
#430 = LINE ( 'NONE', #178, #641 ) ;
#431 = VECTOR ( 'NONE', #372, 1000.000000000000000 ) ;
#432 = ORIENTED_EDGE ( 'NONE', *, *, #919, .T. ) ;
#433 = CIRCLE ( 'NONE', #156, 1.000000000000000000 ) ;
#434 = CARTESIAN_POINT ( 'NONE',  ( -2.518087184339296236, 29.39999999999999858, -12.09352342737256336 ) ) ;
#435 = AXIS2_PLACEMENT_3D ( 'NONE', #501, #823, #417 ) ;
#436 = CARTESIAN_POINT ( 'NONE',  ( 3.490243377569956554E-16, 11.50000000000000000, 2.850000000000000089 ) ) ;
#437 = ORIENTED_EDGE ( 'NONE', *, *, #332, .F. ) ;
#438 = DIRECTION ( 'NONE',  ( 0.000000000000000000, -1.000000000000000000, -0.000000000000000000 ) ) ;
#439 = CARTESIAN_POINT ( 'NONE',  ( 6.568132130230450727, 28.39999999999999858, 36.77626949948003698 ) ) ;
#440 = AXIS2_PLACEMENT_3D ( 'NONE', #745, #833, #665 ) ;
#441 = ORIENTED_EDGE ( 'NONE', *, *, #793, .F. ) ;
#442 = CYLINDRICAL_SURFACE ( 'NONE', #782, 32.96838235294108443 ) ;
#443 = CARTESIAN_POINT ( 'NONE',  ( -11.53064022236118547, 28.39999999999999858, 5.428276230167829119 ) ) ;
#444 = VERTEX_POINT ( 'NONE', #621 ) ;
#445 = ORIENTED_EDGE ( 'NONE', *, *, #867, .F. ) ;
#446 = DIRECTION ( 'NONE',  ( -0.000000000000000000, -1.000000000000000000, -0.000000000000000000 ) ) ;
#447 = DIRECTION ( 'NONE',  ( 0.000000000000000000, 0.000000000000000000, -1.000000000000000000 ) ) ;
#448 = ORIENTED_EDGE ( 'NONE', *, *, #785, .F. ) ;
#449 = CIRCLE ( 'NONE', #408, 33.96838235294151787 ) ;
#450 = CARTESIAN_POINT ( 'NONE',  ( -10.44999999999999751, 28.39999999999999858, 9.299999999999998934 ) ) ;
#451 = ORIENTED_EDGE ( 'NONE', *, *, #145, .T. ) ;
#452 = EDGE_CURVE ( 'NONE', #548, #771, #614, .T. ) ;
#453 = CARTESIAN_POINT ( 'NONE',  ( -9.987308970069802783, 28.39999999999999858, 8.101404372045452718 ) ) ;
#454 = EDGE_CURVE ( 'NONE', #444, #612, #937, .T. ) ;
#455 = AXIS2_PLACEMENT_3D ( 'NONE', #813, #904, #824 ) ;
#456 = CARTESIAN_POINT ( 'NONE',  ( 0.000000000000000000, 11.50000000000000000, -5.900000000000001243 ) ) ;
#457 = VERTEX_POINT ( 'NONE', #118 ) ;
#458 = AXIS2_PLACEMENT_3D ( 'NONE', #662, #337, #666 ) ;
#459 = AXIS2_PLACEMENT_3D ( 'NONE', #773, #596, #527 ) ;
#460 = CARTESIAN_POINT ( 'NONE',  ( -9.987308970069804559, 29.39999999999999858, 8.101404372045447388 ) ) ;
#461 = SPHERICAL_SURFACE ( 'NONE', #788, 1.000000000000000000 ) ;
#462 = EDGE_CURVE ( 'NONE', #781, #191, #19, .T. ) ;
#463 = LINE ( 'NONE', #1050, #29 ) ;
#464 = EDGE_LOOP ( 'NONE', ( #610, #512, #241, #117 ) ) ;
#465 = CARTESIAN_POINT ( 'NONE',  ( -9.693291172392580535, 29.39999999999999858, 9.057204316934033272 ) ) ;
#466 = DIRECTION ( 'NONE',  ( 0.000000000000000000, 0.000000000000000000, 1.000000000000000000 ) ) ;
#467 = ADVANCED_FACE ( 'NONE', ( #199 ), #774, .T. ) ;
#468 = AXIS2_PLACEMENT_3D ( 'NONE', #792, #547, #716 ) ;
#469 = ORIENTED_EDGE ( 'NONE', *, *, #960, .T. ) ;
#470 = DIRECTION ( 'NONE',  ( -0.8660254037844422603, 0.000000000000000000, -0.4999999999999937272 ) ) ;
#471 = CYLINDRICAL_SURFACE ( 'NONE', #807, 1.000000000000000000 ) ;
#472 = ORIENTED_EDGE ( 'NONE', *, *, #960, .F. ) ;
#473 = DIRECTION ( 'NONE',  ( 0.6807381343706748744, 0.000000000000000000, 0.7325268543975251845 ) ) ;
#474 = CARTESIAN_POINT ( 'NONE',  ( 0.000000000000000000, 29.39999999999999858, 0.000000000000000000 ) ) ;
#475 = ORIENTED_EDGE ( 'NONE', *, *, #232, .F. ) ;
#476 = FACE_OUTER_BOUND ( 'NONE', #992, .T. ) ;
#477 = TOROIDAL_SURFACE ( 'NONE', #221, 33.96838235294108443, 1.000000000000000000 ) ;
#478 = ORIENTED_EDGE ( 'NONE', *, *, #452, .T. ) ;
#479 = CARTESIAN_POINT ( 'NONE',  ( 0.000000000000000000, 18.50000000000000000, 0.000000000000000000 ) ) ;
#480 = CARTESIAN_POINT ( 'NONE',  ( -12.39666562614562828, 28.39999999999999858, 5.928276230167820238 ) ) ;
#481 = EDGE_CURVE ( 'NONE', #457, #48, #361, .T. ) ;
#482 = AXIS2_PLACEMENT_3D ( 'NONE', #54, #567, #636 ) ;
#483 = ORIENTED_EDGE ( 'NONE', *, *, #530, .T. ) ;
#484 = AXIS2_PLACEMENT_3D ( 'NONE', #94, #936, #424 ) ;
#485 = STYLED_ITEM ( 'NONE', ( #123 ), #153 ) ;
#486 = DIRECTION ( 'NONE',  ( -0.000000000000000000, -1.000000000000000000, -0.000000000000000000 ) ) ;
#487 = VECTOR ( 'NONE', #273, 1000.000000000000000 ) ;
#488 = EDGE_CURVE ( 'NONE', #76, #537, #911, .T. ) ;
#489 = ORIENTED_EDGE ( 'NONE', *, *, #1025, .F. ) ;
#490 = DIRECTION ( 'NONE',  ( 0.000000000000000000, 0.000000000000000000, -1.000000000000000000 ) ) ;
#491 = DIRECTION ( 'NONE',  ( 0.000000000000000000, 0.000000000000000000, -1.000000000000000000 ) ) ;
#492 = DIRECTION ( 'NONE',  ( -3.611118645726064982E-29, 5.204170427930416550E-15, 1.000000000000000000 ) ) ;
#493 = AXIS2_PLACEMENT_3D ( 'NONE', #385, #880, #55 ) ;
#494 = DIRECTION ( 'NONE',  ( 4.513898307157575623E-30, 8.673617379884027583E-16, -1.000000000000000000 ) ) ;
#495 = EDGE_CURVE ( 'NONE', #948, #923, #580, .T. ) ;
#496 = ADVANCED_FACE ( 'NONE', ( #696 ), #775, .F. ) ;
#497 = VERTEX_POINT ( 'NONE', #534 ) ;
#498 = AXIS2_PLACEMENT_3D ( 'NONE', #581, #914, #162 ) ;
#499 = AXIS2_PLACEMENT_3D ( 'NONE', #528, #353, #854 ) ;
#500 = SURFACE_STYLE_FILL_AREA ( #166 ) ;
#501 = CARTESIAN_POINT ( 'NONE',  ( -11.53064022236118724, 28.39999999999999858, 5.428276230167829119 ) ) ;
#502 = FACE_OUTER_BOUND ( 'NONE', #360, .T. ) ;
#503 = DIRECTION ( 'NONE',  ( -0.000000000000000000, -1.000000000000000000, -0.000000000000000000 ) ) ;
#504 = ORIENTED_EDGE ( 'NONE', *, *, #157, .F. ) ;
#505 = SURFACE_SIDE_STYLE ('',( #500 ) ) ;
#506 = CARTESIAN_POINT ( 'NONE',  ( 6.925345191141075949E-15, 29.39999999999999858, 40.56838235294154060 ) ) ;
#507 = FACE_OUTER_BOUND ( 'NONE', #368, .T. ) ;
#508 = AXIS2_PLACEMENT_3D ( 'NONE', #14, #847, #758 ) ;
#509 = ORIENTED_EDGE ( 'NONE', *, *, #481, .T. ) ;
#510 = CARTESIAN_POINT ( 'NONE',  ( 6.925345191141075949E-15, 28.39999999999999858, 6.600000000000022737 ) ) ;
#511 = DIRECTION ( 'NONE',  ( 0.000000000000000000, 1.000000000000000000, 0.000000000000000000 ) ) ;
#512 = ORIENTED_EDGE ( 'NONE', *, *, #899, .F. ) ;
#513 = CYLINDRICAL_SURFACE ( 'NONE', #74, 1.000000000000000222 ) ;
#514 = ORIENTED_EDGE ( 'NONE', *, *, #389, .F. ) ;
#515 = AXIS2_PLACEMENT_3D ( 'NONE', #242, #836, #490 ) ;
#516 = FACE_OUTER_BOUND ( 'NONE', #1009, .T. ) ;
#517 = ORIENTED_EDGE ( 'NONE', *, *, #1028, .T. ) ;
#518 = DIRECTION ( 'NONE',  ( -0.000000000000000000, -1.000000000000000000, 0.000000000000000000 ) ) ;
#519 = EDGE_CURVE ( 'NONE', #379, #626, #449, .T. ) ;
#520 = ORIENTED_EDGE ( 'NONE', *, *, #188, .F. ) ;
#521 = SPHERICAL_SURFACE ( 'NONE', #484, 1.000000000000000000 ) ;
#522 = DIRECTION ( 'NONE',  ( 0.4999999999999953926, 0.000000000000000000, -0.8660254037844414832 ) ) ;
#523 = DIRECTION ( 'NONE',  ( -1.000000000000000000, 3.469446951953616950E-15, 0.000000000000000000 ) ) ;
#524 = ORIENTED_EDGE ( 'NONE', *, *, #41, .F. ) ;
#525 = AXIS2_PLACEMENT_3D ( 'NONE', #279, #20, #210 ) ;
#526 = ORIENTED_EDGE ( 'NONE', *, *, #785, .T. ) ;
#527 = DIRECTION ( 'NONE',  ( 0.2940177976772252455, 0.000000000000000000, 0.9557999448885913241 ) ) ;
#528 = CARTESIAN_POINT ( 'NONE',  ( -1.543331252291392008, 28.39999999999999858, -11.87025033688150266 ) ) ;
#529 = EDGE_LOOP ( 'NONE', ( #144, #196, #890, #99 ) ) ;
#530 = EDGE_CURVE ( 'NONE', #948, #589, #871, .T. ) ;
#531 = ORIENTED_EDGE ( 'NONE', *, *, #34, .T. ) ;
#532 = EDGE_CURVE ( 'NONE', #857, #656, #302, .T. ) ;
#533 = EDGE_CURVE ( 'NONE', #48, #401, #708, .T. ) ;
#534 = CARTESIAN_POINT ( 'NONE',  ( 9.987308970069809888, 29.39999999999999858, 8.101404372045440283 ) ) ;
#535 = COLOUR_RGB ( '',0.7921568627450980005, 0.8196078431372548767, 0.9333333333333333481 ) ;
#536 = LINE ( 'NONE', #101, #376 ) ;
#537 = VERTEX_POINT ( 'NONE', #787 ) ;
#538 = DIRECTION ( 'NONE',  ( -0.000000000000000000, -1.000000000000000000, 0.000000000000000000 ) ) ;
#539 = CARTESIAN_POINT ( 'NONE',  ( 9.987308970069809888, 28.39999999999999858, 8.101404372045440283 ) ) ;
#540 = ORIENTED_EDGE ( 'NONE', *, *, #954, .F. ) ;
#541 = ADVANCED_FACE ( 'NONE', ( #380 ), #1040, .T. ) ;
#542 = FACE_OUTER_BOUND ( 'NONE', #1018, .T. ) ;
#543 = CLOSED_SHELL ( 'NONE', ( #216, #327, #646, #412, #757, #295, #496, #112, #110, #15, #795, #142, #61, #338, #143, #731, #637, #912, #73, #561, #713, #976, #262, #690, #467, #298, #1038, #45, #382, #685, #724, #670, #896, #541, #252 ) ) ;
#544 = EDGE_CURVE ( 'NONE', #397, #111, #463, .T. ) ;
#545 = ORIENTED_EDGE ( 'NONE', *, *, #371, .F. ) ;
#546 = DIRECTION ( 'NONE',  ( 0.000000000000000000, 0.000000000000000000, 1.000000000000000000 ) ) ;
#547 = DIRECTION ( 'NONE',  ( -0.000000000000000000, -1.000000000000000000, -0.000000000000000000 ) ) ;
#548 = VERTEX_POINT ( 'NONE', #373 ) ;
#549 = CARTESIAN_POINT ( 'NONE',  ( -12.39666562614562828, 18.50000000000000000, 5.928276230167820238 ) ) ;
#550 = AXIS2_PLACEMENT_3D ( 'NONE', #138, #378, #299 ) ;
#551 = ORIENTED_EDGE ( 'NONE', *, *, #462, .T. ) ;
#552 = DIRECTION ( 'NONE',  ( 0.7325268543975249624, -0.000000000000000000, -0.6807381343706750965 ) ) ;
#553 =( NAMED_UNIT ( * ) SI_UNIT ( $, .STERADIAN. ) SOLID_ANGLE_UNIT ( ) );
#554 = CARTESIAN_POINT ( 'NONE',  ( 0.000000000000000000, 28.89999999999999858, 0.000000000000000000 ) ) ;
#555 = ORIENTED_EDGE ( 'NONE', *, *, #462, .F. ) ;
#556 = DIRECTION ( 'NONE',  ( -0.000000000000000000, -1.000000000000000000, -0.000000000000000000 ) ) ;
#557 = CARTESIAN_POINT ( 'NONE',  ( 10.85333437385425448, 28.39999999999999858, 8.601404372045440283 ) ) ;
#558 = CARTESIAN_POINT ( 'NONE',  ( -9.987308970069804559, 28.39999999999999858, 8.101404372045447388 ) ) ;
#559 = EDGE_CURVE ( 'NONE', #9, #86, #995, .T. ) ;
#560 = ORIENTED_EDGE ( 'NONE', *, *, #31, .F. ) ;
#561 = ADVANCED_FACE ( 'NONE', ( #633 ), #170, .T. ) ;
#562 = FACE_OUTER_BOUND ( 'NONE', #325, .T. ) ;
#563 =( GEOMETRIC_REPRESENTATION_CONTEXT ( 3 ) GLOBAL_UNCERTAINTY_ASSIGNED_CONTEXT ( ( #326 ) ) GLOBAL_UNIT_ASSIGNED_CONTEXT ( ( #825, #184, #177 ) ) REPRESENTATION_CONTEXT ( 'NONE', 'WORKASPACE' ) );
#564 = CIRCLE ( 'NONE', #802, 0.9999999999999991118 ) ;
#565 = ORIENTED_EDGE ( 'NONE', *, *, #31, .T. ) ;
#566 = EDGE_CURVE ( 'NONE', #497, #905, #85, .T. ) ;
#567 = DIRECTION ( 'NONE',  ( 0.000000000000000000, 1.000000000000000000, 0.000000000000000000 ) ) ;
#568 = LINE ( 'NONE', #66, #254 ) ;
#569 = CIRCLE ( 'NONE', #256, 33.96838235294151787 ) ;
#570 = EDGE_LOOP ( 'NONE', ( #526, #540, #420, #303 ) ) ;
#571 = EDGE_CURVE ( 'NONE', #746, #620, #688, .T. ) ;
#572 = LINE ( 'NONE', #335, #841 ) ;
#573 = CARTESIAN_POINT ( 'NONE',  ( -9.987308970069802783, 29.39999999999999858, 8.101404372045452718 ) ) ;
#574 = CARTESIAN_POINT ( 'NONE',  ( 0.000000000000000000, 18.50000000000000000, 0.000000000000000000 ) ) ;
#575 = ORIENTED_EDGE ( 'NONE', *, *, #519, .T. ) ;
#576 = CARTESIAN_POINT ( 'NONE',  ( -2.518087184339292683, 28.39999999999999858, -12.09352342737256336 ) ) ;
#577 = SPHERICAL_SURFACE ( 'NONE', #584, 1.000000000000000000 ) ;
#578 = DIRECTION ( 'NONE',  ( -0.000000000000000000, -1.000000000000000000, 0.000000000000000000 ) ) ;
#579 = ORIENTED_EDGE ( 'NONE', *, *, #879, .T. ) ;
#580 = CIRCLE ( 'NONE', #499, 1.000000000000000222 ) ;
#581 = CARTESIAN_POINT ( 'NONE',  ( 0.000000000000000000, 0.000000000000000000, 0.000000000000000000 ) ) ;
#582 = SPHERICAL_SURFACE ( 'NONE', #725, 1.000000000000000000 ) ;
#583 = CARTESIAN_POINT ( 'NONE',  ( 0.000000000000000000, 11.50000000000000000, 0.000000000000000000 ) ) ;
#584 = AXIS2_PLACEMENT_3D ( 'NONE', #674, #492, #255 ) ;
#585 = ORIENTED_EDGE ( 'NONE', *, *, #765, .T. ) ;
#586 = CIRCLE ( 'NONE', #124, 3.599999999999999645 ) ;
#587 = DIRECTION ( 'NONE',  ( -2.736125169415436549E-15, 0.000000000000000000, -1.000000000000000000 ) ) ;
#588 = CARTESIAN_POINT ( 'NONE',  ( 11.53064022236126540, 28.39999999999999858, 5.428276230167709215 ) ) ;
#589 = VERTEX_POINT ( 'NONE', #592 ) ;
#590 = EDGE_CURVE ( 'NONE', #771, #923, #564, .T. ) ;
#591 = DIRECTION ( 'NONE',  ( 0.000000000000000000, 0.000000000000000000, 1.000000000000000000 ) ) ;
#592 = CARTESIAN_POINT ( 'NONE',  ( -2.518087184339296236, 18.50000000000000000, -12.09352342737256336 ) ) ;
#593 = ORIENTED_EDGE ( 'NONE', *, *, #226, .T. ) ;
#594 = DIRECTION ( 'NONE',  ( 0.000000000000000000, 1.000000000000000000, 0.000000000000000000 ) ) ;
#595 = EDGE_LOOP ( 'NONE', ( #663, #374 ) ) ;
#596 = DIRECTION ( 'NONE',  ( 0.9557999448885914351, 1.279298747785324166E-16, -0.2940177976772253010 ) ) ;
#597 = AXIS2_PLACEMENT_3D ( 'NONE', #712, #53, #470 ) ;
#598 = CARTESIAN_POINT ( 'NONE',  ( 1.543331252291439748, 18.50000000000000000, -11.87025033688150089 ) ) ;
#599 = SPHERICAL_SURFACE ( 'NONE', #132, 1.000000000000000000 ) ;
#600 = ORIENTED_EDGE ( 'NONE', *, *, #121, .F. ) ;
#601 = LINE ( 'NONE', #4, #104 ) ;
#602 = ORIENTED_EDGE ( 'NONE', *, *, #195, .F. ) ;
#603 = CARTESIAN_POINT ( 'NONE',  ( 0.000000000000000000, 0.000000000000000000, -2.850000000000000089 ) ) ;
#604 = CIRCLE ( 'NONE', #71, 0.9999999999999998890 ) ;
#605 = DIRECTION ( 'NONE',  ( 0.000000000000000000, 0.000000000000000000, 1.000000000000000000 ) ) ;
#606 = EDGE_CURVE ( 'NONE', #760, #370, #536, .T. ) ;
#607 = FACE_OUTER_BOUND ( 'NONE', #753, .T. ) ;
#608 = ORIENTED_EDGE ( 'NONE', *, *, #79, .T. ) ;
#609 = FACE_OUTER_BOUND ( 'NONE', #675, .T. ) ;
#610 = ORIENTED_EDGE ( 'NONE', *, *, #838, .F. ) ;
#611 = DIRECTION ( 'NONE',  ( 0.000000000000000000, 0.000000000000000000, -1.000000000000000000 ) ) ;
#612 = VERTEX_POINT ( 'NONE', #456 ) ;
#613 = DIRECTION ( 'NONE',  ( 0.000000000000000000, 0.000000000000000000, -1.000000000000000000 ) ) ;
#614 = LINE ( 'NONE', #26, #383 ) ;
#615 = AXIS2_PLACEMENT_3D ( 'NONE', #135, #721, #872 ) ;
#616 = DIRECTION ( 'NONE',  ( 0.000000000000000000, 0.000000000000000000, -1.000000000000000000 ) ) ;
#617 = ORIENTED_EDGE ( 'NONE', *, *, #180, .F. ) ;
#618 = CARTESIAN_POINT ( 'NONE',  ( 11.53064022236126007, 18.50000000000000000, 5.428276230167707439 ) ) ;
#619 = EDGE_CURVE ( 'NONE', #620, #746, #1064, .T. ) ;
#620 = VERTEX_POINT ( 'NONE', #436 ) ;
#621 = CARTESIAN_POINT ( 'NONE',  ( 0.000000000000000000, 18.50000000000000000, -5.900000000000001243 ) ) ;
#622 = AXIS2_PLACEMENT_3D ( 'NONE', #558, #288, #311 ) ;
#623 = DIRECTION ( 'NONE',  ( -1.000000000000000000, 0.000000000000000000, 0.000000000000000000 ) ) ;
#624 = VECTOR ( 'NONE', #410, 1000.000000000000000 ) ;
#625 = AXIS2_PLACEMENT_3D ( 'NONE', #264, #10, #426 ) ;
#626 = VERTEX_POINT ( 'NONE', #1031 ) ;
#627 = DIRECTION ( 'NONE',  ( -0.000000000000000000, -1.000000000000000000, 0.000000000000000000 ) ) ;
#628 = ORIENTED_EDGE ( 'NONE', *, *, #427, .F. ) ;
#629 = DIRECTION ( 'NONE',  ( 0.000000000000000000, 0.000000000000000000, -1.000000000000000000 ) ) ;
#630 = DIRECTION ( 'NONE',  ( 0.000000000000000000, 1.000000000000000000, 0.000000000000000000 ) ) ;
#631 = CIRCLE ( 'NONE', #705, 1.000000000000000000 ) ;
#632 = AXIS2_PLACEMENT_3D ( 'NONE', #554, #391, #133 ) ;
#633 = FACE_OUTER_BOUND ( 'NONE', #570, .T. ) ;
#634 = ORIENTED_EDGE ( 'NONE', *, *, #533, .T. ) ;
#635 = FACE_OUTER_BOUND ( 'NONE', #1066, .T. ) ;
#636 = DIRECTION ( 'NONE',  ( 0.000000000000000000, 0.000000000000000000, 1.000000000000000000 ) ) ;
#637 = ADVANCED_FACE ( 'NONE', ( #607 ), #461, .T. ) ;
#638 = DIRECTION ( 'NONE',  ( 1.224646799147352468E-16, 0.000000000000000000, -1.000000000000000000 ) ) ;
#639 =( GEOMETRIC_REPRESENTATION_CONTEXT ( 3 ) GLOBAL_UNCERTAINTY_ASSIGNED_CONTEXT ( ( #1067 ) ) GLOBAL_UNIT_ASSIGNED_CONTEXT ( ( #328, #729, #878 ) ) REPRESENTATION_CONTEXT ( 'NONE', 'WORKASPACE' ) );
#640 = EDGE_CURVE ( 'NONE', #620, #344, #354, .T. ) ;
#641 = VECTOR ( 'NONE', #276, 1000.000000000000000 ) ;
#642 = CARTESIAN_POINT ( 'NONE',  ( 9.987308970069813441, 28.39999999999999858, 8.101404372045443836 ) ) ;
#643 = ORIENTED_EDGE ( 'NONE', *, *, #747, .T. ) ;
#644 = DIRECTION ( 'NONE',  ( 0.000000000000000000, 0.000000000000000000, -1.000000000000000000 ) ) ;
#645 = FILL_AREA_STYLE_COLOUR ( '', #349 ) ;
#646 = ADVANCED_FACE ( 'NONE', ( #22 ), #599, .T. ) ;
#647 = EDGE_LOOP ( 'NONE', ( #161, #870 ) ) ;
#648 = DIRECTION ( 'NONE',  ( 1.000000000000000000, -7.589415207398519994E-15, 6.505213034913020688E-16 ) ) ;
#649 = AXIS2_PLACEMENT_3D ( 'NONE', #789, #968, #957 ) ;
#650 = EDGE_CURVE ( 'NONE', #537, #905, #851, .T. ) ;
#651 = ORIENTED_EDGE ( 'NONE', *, *, #566, .F. ) ;
#652 = DIRECTION ( 'NONE',  ( -1.000000000000000000, 0.000000000000000000, 0.000000000000000000 ) ) ;
#653 = CARTESIAN_POINT ( 'NONE',  ( 0.000000000000000000, 11.50000000000000000, 0.000000000000000000 ) ) ;
#654 = AXIS2_PLACEMENT_3D ( 'NONE', #348, #202, #8 ) ;
#655 = DIRECTION ( 'NONE',  ( -1.000000000000000000, 0.000000000000000000, -7.381802025433449084E-16 ) ) ;
#656 = VERTEX_POINT ( 'NONE', #219 ) ;
#657 = PRODUCT_DEFINITION_CONTEXT ( 'detailed design', #734, 'design' ) ;
#658 = FACE_OUTER_BOUND ( 'NONE', #595, .T. ) ;
#659 = LINE ( 'NONE', #817, #624 ) ;
#660 = CARTESIAN_POINT ( 'NONE',  ( 1.543331252291443967, 28.39999999999999858, -11.87025033688150089 ) ) ;
#661 = AXIS2_PLACEMENT_3D ( 'NONE', #113, #704, #447 ) ;
#662 = CARTESIAN_POINT ( 'NONE',  ( 1.543331252291439748, 29.39999999999999858, -11.87025033688150089 ) ) ;
#663 = ORIENTED_EDGE ( 'NONE', *, *, #747, .F. ) ;
#664 = FACE_OUTER_BOUND ( 'NONE', #27, .T. ) ;
#665 = DIRECTION ( 'NONE',  ( 0.000000000000000000, -0.000000000000000000, -1.000000000000000000 ) ) ;
#666 = DIRECTION ( 'NONE',  ( 0.000000000000000000, 0.000000000000000000, -1.000000000000000000 ) ) ;
#667 = STYLED_ITEM ( 'NONE', ( #822 ), #873 ) ;
#668 = ORIENTED_EDGE ( 'NONE', *, *, #1025, .T. ) ;
#669 = CARTESIAN_POINT ( 'NONE',  ( 9.693291172392585864, 28.39999999999999858, 9.057204316934033272 ) ) ;
#670 = ADVANCED_FACE ( 'NONE', ( #562 ), #64, .T. ) ;
#671 = AXIS2_PLACEMENT_3D ( 'NONE', #164, #511, #411 ) ;
#672 = EDGE_LOOP ( 'NONE', ( #30, #803 ) ) ;
#673 = AXIS2_PLACEMENT_3D ( 'NONE', #588, #438, #245 ) ;
#674 = CARTESIAN_POINT ( 'NONE',  ( -1.543331252291388678, 28.39999999999999858, -11.87025033688150444 ) ) ;
#675 = EDGE_LOOP ( 'NONE', ( #406, #321, #206, #68 ) ) ;
#676 = AXIS2_PLACEMENT_3D ( 'NONE', #182, #1069, #175 ) ;
#677 = ORIENTED_EDGE ( 'NONE', *, *, #481, .F. ) ;
#678 = CARTESIAN_POINT ( 'NONE',  ( 4.563450569121071696E-14, 29.39999999999999858, -11.87025033688150799 ) ) ;
#679 = EDGE_CURVE ( 'NONE', #25, #76, #687, .T. ) ;
#680 = CARTESIAN_POINT ( 'NONE',  ( -2.349999999999908162, 28.39999999999999858, -12.87025033688150444 ) ) ;
#681 = EDGE_LOOP ( 'NONE', ( #469, #929, #448 ) ) ;
#682 = DIRECTION ( 'NONE',  ( 0.000000000000000000, -1.000000000000000000, 0.000000000000000000 ) ) ;
#683 = CARTESIAN_POINT ( 'NONE',  ( 12.21137835673193095, 18.50000000000000000, 4.695749375770170708 ) ) ;
#684 = ORIENTED_EDGE ( 'NONE', *, *, #454, .T. ) ;
#685 = ADVANCED_FACE ( 'NONE', ( #381 ), #224, .T. ) ;
#686 = CARTESIAN_POINT ( 'NONE',  ( 12.21137835673193628, 28.39999999999999858, 4.695749375770168932 ) ) ;
#687 = CIRCLE ( 'NONE', #407, 0.9999999999999997780 ) ;
#688 = CIRCLE ( 'NONE', #207, 2.850000000000000089 ) ;
#689 = DIRECTION ( 'NONE',  ( 0.000000000000000000, 1.000000000000000000, 0.000000000000000000 ) ) ;
#690 = ADVANCED_FACE ( 'NONE', ( #231 ), #384, .T. ) ;
#691 = EDGE_LOOP ( 'NONE', ( #565, #738, #227 ) ) ;
#692 = DIRECTION ( 'NONE',  ( 0.000000000000000000, 0.000000000000000000, 1.000000000000000000 ) ) ;
#693 = ORIENTED_EDGE ( 'NONE', *, *, #765, .F. ) ;
#694 = PLANE ( 'NONE',  #869 ) ;
#695 = AXIS2_PLACEMENT_3D ( 'NONE', #573, #982, #740 ) ;
#696 = FACE_OUTER_BOUND ( 'NONE', #698, .T. ) ;
#697 = ORIENTED_EDGE ( 'NONE', *, *, #679, .T. ) ;
#698 = EDGE_LOOP ( 'NONE', ( #693, #203 ) ) ;
#699 = SPHERICAL_SURFACE ( 'NONE', #217, 1.000000000000000000 ) ;
#700 = DIRECTION ( 'NONE',  ( 0.000000000000000000, 0.000000000000000000, 1.000000000000000000 ) ) ;
#701 = VERTEX_POINT ( 'NONE', #549 ) ;
#702 = CARTESIAN_POINT ( 'NONE',  ( 6.925345191141075949E-15, 18.50000000000000000, 40.56838235294154060 ) ) ;
#703 = VERTEX_POINT ( 'NONE', #1042 ) ;
#704 = DIRECTION ( 'NONE',  ( -0.000000000000000000, -1.000000000000000000, 0.000000000000000000 ) ) ;
#705 = AXIS2_PLACEMENT_3D ( 'NONE', #510, #652, #409 ) ;
#706 = CARTESIAN_POINT ( 'NONE',  ( -11.53064022236118547, 28.39999999999999858, 5.428276230167829119 ) ) ;
#707 = ORIENTED_EDGE ( 'NONE', *, *, #910, .F. ) ;
#708 = LINE ( 'NONE', #465, #390 ) ;
#709 = CARTESIAN_POINT ( 'NONE',  ( 11.53064022236126540, 28.39999999999999858, 5.428276230167708327 ) ) ;
#710 = VECTOR ( 'NONE', #840, 1000.000000000000000 ) ;
#711 = CIRCLE ( 'NONE', #676, 1.000000000000000888 ) ;
#712 = CARTESIAN_POINT ( 'NONE',  ( -6.568132130230489807, 28.39999999999999858, 36.77626949947998725 ) ) ;
#713 = ADVANCED_FACE ( 'NONE', ( #398 ), #140, .T. ) ;
#714 = ORIENTED_EDGE ( 'NONE', *, *, #1065, .T. ) ;
#715 = CIRCLE ( 'NONE', #293, 1.000000000000000000 ) ;
#716 = DIRECTION ( 'NONE',  ( 0.000000000000000000, 0.000000000000000000, -1.000000000000000000 ) ) ;
#717 = DIRECTION ( 'NONE',  ( 0.000000000000000000, -0.000000000000000000, 1.000000000000000000 ) ) ;
#718 =( LENGTH_UNIT ( ) NAMED_UNIT ( * ) SI_UNIT ( .MILLI., .METRE. ) );
#719 = AXIS2_PLACEMENT_3D ( 'NONE', #598, #931, #129 ) ;
#720 = VERTEX_POINT ( 'NONE', #58 ) ;
#721 = DIRECTION ( 'NONE',  ( 0.000000000000000000, 1.000000000000000000, 0.000000000000000000 ) ) ;
#722 = FACE_BOUND ( 'NONE', #647, .T. ) ;
#723 = CIRCLE ( 'NONE', #622, 0.9999999999999995559 ) ;
#724 = ADVANCED_FACE ( 'NONE', ( #304 ), #477, .T. ) ;
#725 = AXIS2_PLACEMENT_3D ( 'NONE', #915, #174, #832 ) ;
#726 = AXIS2_PLACEMENT_3D ( 'NONE', #539, #946, #192 ) ;
#727 = ORIENTED_EDGE ( 'NONE', *, *, #226, .F. ) ;
#728 = CARTESIAN_POINT ( 'NONE',  ( -11.53064022236117836, 28.39999999999999858, 5.428276230167832672 ) ) ;
#729 =( NAMED_UNIT ( * ) PLANE_ANGLE_UNIT ( ) SI_UNIT ( $, .RADIAN. ) );
#730 = DIRECTION ( 'NONE',  ( 0.000000000000000000, -0.000000000000000000, -1.000000000000000000 ) ) ;
#731 = ADVANCED_FACE ( 'NONE', ( #635 ), #877, .T. ) ;
#732 = PRODUCT_CONTEXT ( 'NONE', #846, 'mechanical' ) ;
#733 = ORIENTED_EDGE ( 'NONE', *, *, #377, .F. ) ;
#734 = APPLICATION_CONTEXT ( 'automotive_design' ) ;
#735 = CARTESIAN_POINT ( 'NONE',  ( 7.225416114969385180E-16, 18.50000000000000000, 5.900000000000001243 ) ) ;
#736 = FACE_BOUND ( 'NONE', #815, .T. ) ;
#737 = AXIS2_PLACEMENT_3D ( 'NONE', #359, #39, #700 ) ;
#738 = ORIENTED_EDGE ( 'NONE', *, *, #495, .T. ) ;
#739 = DIRECTION ( 'NONE',  ( 0.000000000000000000, 0.000000000000000000, 1.000000000000000000 ) ) ;
#740 = DIRECTION ( 'NONE',  ( 0.000000000000000000, 0.000000000000000000, -1.000000000000000000 ) ) ;
#741 = LINE ( 'NONE', #83, #1000 ) ;
#742 = CARTESIAN_POINT ( 'NONE',  ( -11.53064022236118547, 28.39999999999999858, 5.428276230167827343 ) ) ;
#743 = ORIENTED_EDGE ( 'NONE', *, *, #1059, .T. ) ;
#744 = CARTESIAN_POINT ( 'NONE',  ( -6.568132130230491583, 29.39999999999999858, 36.77626949947998725 ) ) ;
#745 = CARTESIAN_POINT ( 'NONE',  ( 6.925345191141075949E-15, 29.39999999999999858, 40.56838235294154060 ) ) ;
#746 = VERTEX_POINT ( 'NONE', #393 ) ;
#747 = EDGE_CURVE ( 'NONE', #40, #344, #46, .T. ) ;
#748 = DIRECTION ( 'NONE',  ( -0.000000000000000000, -1.000000000000000000, -0.000000000000000000 ) ) ;
#749 = DIRECTION ( 'NONE',  ( 0.000000000000000000, 1.000000000000000000, 8.673617379884027583E-16 ) ) ;
#750 = EDGE_CURVE ( 'NONE', #900, #444, #819, .T. ) ;
#751 = FACE_OUTER_BOUND ( 'NONE', #1056, .T. ) ;
#752 = AXIS2_PLACEMENT_3D ( 'NONE', #1048, #1053, #973 ) ;
#753 = EDGE_LOOP ( 'NONE', ( #918, #772, #489 ) ) ;
#754 = ORIENTED_EDGE ( 'NONE', *, *, #571, .F. ) ;
#755 = DIRECTION ( 'NONE',  ( 0.000000000000000000, 0.000000000000000000, 1.000000000000000000 ) ) ;
#756 = AXIS2_PLACEMENT_3D ( 'NONE', #1057, #648, #862 ) ;
#757 = ADVANCED_FACE ( 'NONE', ( #300 ), #804, .T. ) ;
#758 = DIRECTION ( 'NONE',  ( -0.4999999999999945044, 0.000000000000000000, 0.8660254037844418162 ) ) ;
#759 = CIRCLE ( 'NONE', #395, 32.96838235294114128 ) ;
#760 = VERTEX_POINT ( 'NONE', #882 ) ;
#761 = CIRCLE ( 'NONE', #482, 4.099999999999999645 ) ;
#762 = FACE_OUTER_BOUND ( 'NONE', #315, .T. ) ;
#763 = CARTESIAN_POINT ( 'NONE',  ( 6.925345191141075949E-15, 18.50000000000000000, 7.600000000000023626 ) ) ;
#764 = AXIS2_PLACEMENT_3D ( 'NONE', #574, #689, #546 ) ;
#765 = EDGE_CURVE ( 'NONE', #612, #845, #149, .T. ) ;
#766 = DIRECTION ( 'NONE',  ( 0.8660254037844425934, 0.000000000000000000, -0.4999999999999933942 ) ) ;
#767 = ORIENTED_EDGE ( 'NONE', *, *, #544, .T. ) ;
#768 = DIRECTION ( 'NONE',  ( 0.000000000000000000, 0.000000000000000000, -1.000000000000000000 ) ) ;
#769 = CARTESIAN_POINT ( 'NONE',  ( 6.925345191141075949E-15, 18.50000000000000000, 40.56838235294154060 ) ) ;
#770 = CARTESIAN_POINT ( 'NONE',  ( 10.45000000000000107, 28.39999999999999858, 9.299999999999995381 ) ) ;
#771 = VERTEX_POINT ( 'NONE', #151 ) ;
#772 = ORIENTED_EDGE ( 'NONE', *, *, #157, .T. ) ;
#773 = CARTESIAN_POINT ( 'NONE',  ( -9.987308970069802783, 28.39999999999999858, 8.101404372045452718 ) ) ;
#774 = TOROIDAL_SURFACE ( 'NONE', #222, 33.96838235294151787, 1.000000000000000000 ) ;
#775 = PLANE ( 'NONE',  #964 ) ;
#776 = DIRECTION ( 'NONE',  ( -0.000000000000000000, -1.000000000000000000, -0.000000000000000000 ) ) ;
#777 = ORIENTED_EDGE ( 'NONE', *, *, #954, .T. ) ;
#778 = ORIENTED_EDGE ( 'NONE', *, *, #232, .T. ) ;
#779 = CIRCLE ( 'NONE', #955, 32.96838235294151076 ) ;
#780 = DIRECTION ( 'NONE',  ( -0.000000000000000000, -1.000000000000000000, 0.000000000000000000 ) ) ;
#781 = VERTEX_POINT ( 'NONE', #70 ) ;
#782 = AXIS2_PLACEMENT_3D ( 'NONE', #341, #446, #768 ) ;
#783 =( NAMED_UNIT ( * ) PLANE_ANGLE_UNIT ( ) SI_UNIT ( $, .RADIAN. ) );
#784 = EDGE_LOOP ( 'NONE', ( #261, #265, #437, #37 ) ) ;
#785 = EDGE_CURVE ( 'NONE', #111, #786, #287, .T. ) ;
#786 = VERTEX_POINT ( 'NONE', #796 ) ;
#787 = CARTESIAN_POINT ( 'NONE',  ( 12.39666562614570644, 28.39999999999999858, 5.928276230167703886 ) ) ;
#788 = AXIS2_PLACEMENT_3D ( 'NONE', #706, #950, #1037 ) ;
#789 = CARTESIAN_POINT ( 'NONE',  ( 9.987308970069811664, 28.39999999999999858, 8.101404372045442059 ) ) ;
#790 = AXIS2_PLACEMENT_3D ( 'NONE', #159, #60, #613 ) ;
#791 = ORIENTED_EDGE ( 'NONE', *, *, #590, .T. ) ;
#792 = CARTESIAN_POINT ( 'NONE',  ( 9.987308970069813441, 29.39999999999999858, 8.101404372045445612 ) ) ;
#793 = EDGE_CURVE ( 'NONE', #253, #905, #425, .T. ) ;
#794 = ORIENTED_EDGE ( 'NONE', *, *, #640, .F. ) ;
#795 = ADVANCED_FACE ( 'NONE', ( #292 ), #811, .F. ) ;
#796 = CARTESIAN_POINT ( 'NONE',  ( -11.53064022236118369, 29.39999999999999858, 5.428276230167827343 ) ) ;
#797 = CARTESIAN_POINT ( 'NONE',  ( 11.53064022236126007, 29.39999999999999858, 5.428276230167707439 ) ) ;
#798 = CARTESIAN_POINT ( 'NONE',  ( 4.408728476930471151E-16, 29.39999999999999858, -3.599999999999999645 ) ) ;
#799 = ORIENTED_EDGE ( 'NONE', *, *, #131, .T. ) ;
#800 = CARTESIAN_POINT ( 'NONE',  ( -11.53064022236118724, 29.39999999999999858, 5.428276230167828231 ) ) ;
#801 = CARTESIAN_POINT ( 'NONE',  ( 0.000000000000000000, 28.89999999999999858, 0.000000000000000000 ) ) ;
#802 = AXIS2_PLACEMENT_3D ( 'NONE', #119, #211, #941 ) ;
#803 = ORIENTED_EDGE ( 'NONE', *, *, #619, .T. ) ;
#804 = CYLINDRICAL_SURFACE ( 'NONE', #84, 5.900000000000001243 ) ;
#805 = FACE_OUTER_BOUND ( 'NONE', #967, .T. ) ;
#806 = TOROIDAL_SURFACE ( 'NONE', #1039, 3.599999999999999645, 0.5000000000000000000 ) ;
#807 = AXIS2_PLACEMENT_3D ( 'NONE', #797, #59, #1049 ) ;
#808 = CIRCLE ( 'NONE', #347, 1.000000000000000888 ) ;
#809 = ORIENTED_EDGE ( 'NONE', *, *, #943, .F. ) ;
#810 = AXIS2_PLACEMENT_3D ( 'NONE', #330, #244, #168 ) ;
#811 = PLANE ( 'NONE',  #963 ) ;
#812 = FACE_OUTER_BOUND ( 'NONE', #672, .T. ) ;
#813 = CARTESIAN_POINT ( 'NONE',  ( 6.925345191141075949E-15, 28.39999999999999858, 40.56838235294154060 ) ) ;
#814 = EDGE_CURVE ( 'NONE', #344, #40, #893, .T. ) ;
#815 = EDGE_LOOP ( 'NONE', ( #270, #975 ) ) ;
#816 = CARTESIAN_POINT ( 'NONE',  ( 7.225416114969385180E-16, 11.50000000000000000, 5.900000000000001243 ) ) ;
#817 = CARTESIAN_POINT ( 'NONE',  ( 2.518087184339344642, 29.39999999999999858, -12.09352342737256691 ) ) ;
#818 = DIRECTION ( 'NONE',  ( 0.000000000000000000, 0.000000000000000000, -1.000000000000000000 ) ) ;
#819 = CIRCLE ( 'NONE', #316, 5.900000000000001243 ) ;
#820 = AXIS2_PLACEMENT_3D ( 'NONE', #453, #358, #605 ) ;
#821 = ORIENTED_EDGE ( 'NONE', *, *, #879, .F. ) ;
#822 = PRESENTATION_STYLE_ASSIGNMENT (( #2 ) ) ;
#823 = DIRECTION ( 'NONE',  ( 0.000000000000000000, 1.000000000000000000, 0.000000000000000000 ) ) ;
#824 = DIRECTION ( 'NONE',  ( 0.000000000000000000, 0.000000000000000000, -1.000000000000000000 ) ) ;
#825 =( LENGTH_UNIT ( ) NAMED_UNIT ( * ) SI_UNIT ( .MILLI., .METRE. ) );
#826 = AXIS2_PLACEMENT_3D ( 'NONE', #87, #167, #248 ) ;
#827 = ADVANCED_FACE ( 'NONE', ( #658 ), #831, .F. ) ;
#828 = ORIENTED_EDGE ( 'NONE', *, *, #145, .F. ) ;
#829 = EDGE_CURVE ( 'NONE', #703, #457, #572, .T. ) ;
#830 = EDGE_CURVE ( 'NONE', #701, #397, #1034, .T. ) ;
#831 = PLANE ( 'NONE',  #498 ) ;
#832 = DIRECTION ( 'NONE',  ( -1.000000000000000000, 3.469446951953616950E-15, 0.000000000000000000 ) ) ;
#833 = DIRECTION ( 'NONE',  ( 0.000000000000000000, -1.000000000000000000, 0.000000000000000000 ) ) ;
#834 = CARTESIAN_POINT ( 'NONE',  ( 11.53064022236126362, 29.39999999999999858, 5.428276230167708327 ) ) ;
#835 = ORIENTED_EDGE ( 'NONE', *, *, #427, .T. ) ;
#836 = DIRECTION ( 'NONE',  ( -0.000000000000000000, -1.000000000000000000, 0.000000000000000000 ) ) ;
#837 = DIRECTION ( 'NONE',  ( 0.000000000000000000, 1.000000000000000000, 0.000000000000000000 ) ) ;
#838 = EDGE_CURVE ( 'NONE', #179, #626, #631, .T. ) ;
#839 = ORIENTED_EDGE ( 'NONE', *, *, #225, .F. ) ;
#840 = DIRECTION ( 'NONE',  ( -0.000000000000000000, 1.000000000000000000, -0.000000000000000000 ) ) ;
#841 = VECTOR ( 'NONE', #173, 1000.000000000000000 ) ;
#842 = ORIENTED_EDGE ( 'NONE', *, *, #1027, .T. ) ;
#843 = CARTESIAN_POINT ( 'NONE',  ( 12.39666562614570644, 18.50000000000000000, 5.928276230167703886 ) ) ;
#844 = EDGE_CURVE ( 'NONE', #845, #612, #979, .T. ) ;
#845 = VERTEX_POINT ( 'NONE', #816 ) ;
#846 = APPLICATION_CONTEXT ( 'automotive_design' ) ;
#847 = DIRECTION ( 'NONE',  ( -0.8660254037844418162, 0.000000000000000000, -0.4999999999999945044 ) ) ;
#848 = ORIENTED_EDGE ( 'NONE', *, *, #268, .T. ) ;
#849 = CARTESIAN_POINT ( 'NONE',  ( -1.543331252291398004, 28.39999999999999858, -11.87025033688150444 ) ) ;
#850 = DIRECTION ( 'NONE',  ( -0.000000000000000000, -1.000000000000000000, 0.000000000000000000 ) ) ;
#851 = LINE ( 'NONE', #770, #945 ) ;
#852 = ORIENTED_EDGE ( 'NONE', *, *, #1033, .T. ) ;
#853 = ORIENTED_EDGE ( 'NONE', *, *, #943, .T. ) ;
#854 = DIRECTION ( 'NONE',  ( -0.9747559320479003420, 0.000000000000000000, -0.2232730904910603109 ) ) ;
#855 = VERTEX_POINT ( 'NONE', #902 ) ;
#856 = LINE ( 'NONE', #450, #51 ) ;
#857 = VERTEX_POINT ( 'NONE', #416 ) ;
#858 = AXIS2_PLACEMENT_3D ( 'NONE', #642, #44, #868 ) ;
#859 = DIRECTION ( 'NONE',  ( 1.000000000000000000, -3.252606517456510147E-15, 1.128474576789393906E-29 ) ) ;
#860 = DIRECTION ( 'NONE',  ( 0.000000000000000000, 1.000000000000000000, 0.000000000000000000 ) ) ;
#861 = EDGE_LOOP ( 'NONE', ( #274, #246, #935, #913 ) ) ;
#862 = DIRECTION ( 'NONE',  ( 7.589415207398524727E-15, 1.000000000000000000, 0.000000000000000000 ) ) ;
#863 = CIRCLE ( 'NONE', #897, 0.5000000000000000000 ) ;
#864 = ORIENTED_EDGE ( 'NONE', *, *, #34, .F. ) ;
#865 = VECTOR ( 'NONE', #503, 1000.000000000000000 ) ;
#866 = CARTESIAN_POINT ( 'NONE',  ( 1.543331252291447298, 28.39999999999999858, -11.87025033688150621 ) ) ;
#867 = EDGE_CURVE ( 'NONE', #76, #191, #63, .T. ) ;
#868 = DIRECTION ( 'NONE',  ( 0.8660254037844413721, -3.469446951953615372E-15, 0.4999999999999953926 ) ) ;
#869 = AXIS2_PLACEMENT_3D ( 'NONE', #278, #204, #927 ) ;
#870 = ORIENTED_EDGE ( 'NONE', *, *, #750, .T. ) ;
#871 = LINE ( 'NONE', #434, #116 ) ;
#872 = DIRECTION ( 'NONE',  ( 0.000000000000000000, 0.000000000000000000, 1.000000000000000000 ) ) ;
#873 = MANIFOLD_SOLID_BREP ( 'Knob Cap', #543 ) ;
#874 = EDGE_CURVE ( 'NONE', #90, #86, #761, .T. ) ;
#875 = ORIENTED_EDGE ( 'NONE', *, *, #1045, .F. ) ;
#876 = AXIS2_PLACEMENT_3D ( 'NONE', #886, #556, #297 ) ;
#877 = CYLINDRICAL_SURFACE ( 'NONE', #1016, 1.000000000000000000 ) ;
#878 =( NAMED_UNIT ( * ) SI_UNIT ( $, .STERADIAN. ) SOLID_ANGLE_UNIT ( ) );
#879 = EDGE_CURVE ( 'NONE', #134, #253, #895, .T. ) ;
#880 = DIRECTION ( 'NONE',  ( 0.000000000000000000, 0.000000000000000000, 1.000000000000000000 ) ) ;
#881 = ADVANCED_FACE ( 'NONE', ( #812 ), #136, .T. ) ;
#882 = CARTESIAN_POINT ( 'NONE',  ( 10.85333437385425448, 18.50000000000000000, 8.601404372045440283 ) ) ;
#883 = AXIS2_PLACEMENT_3D ( 'NONE', #1007, #494, #749 ) ;
#884 = CARTESIAN_POINT ( 'NONE',  ( -11.53064022236118724, 28.39999999999999858, 5.428276230167829119 ) ) ;
#885 = ORIENTED_EDGE ( 'NONE', *, *, #150, .T. ) ;
#886 = CARTESIAN_POINT ( 'NONE',  ( -1.543331252291398004, 29.39999999999999858, -11.87025033688150444 ) ) ;
#887 = LINE ( 'NONE', #146, #1001 ) ;
#888 = FILL_AREA_STYLE ('',( #645 ) ) ;
#889 = PRODUCT_DEFINITION_FORMATION_WITH_SPECIFIED_SOURCE ( 'ANY', '', #286, .NOT_KNOWN. ) ;
#890 = ORIENTED_EDGE ( 'NONE', *, *, #814, .T. ) ;
#891 = CARTESIAN_POINT ( 'NONE',  ( 0.000000000000000000, 18.50000000000000000, 0.000000000000000000 ) ) ;
#892 = CARTESIAN_POINT ( 'NONE',  ( 6.925345191141075949E-15, 28.39999999999999858, 7.600000000000023626 ) ) ;
#893 = CIRCLE ( 'NONE', #190, 2.850000000000000089 ) ;
#894 = ORIENTED_EDGE ( 'NONE', *, *, #532, .T. ) ;
#895 = LINE ( 'NONE', #301, #306 ) ;
#896 = ADVANCED_FACE ( 'NONE', ( #220 ), #471, .T. ) ;
#897 = AXIS2_PLACEMENT_3D ( 'NONE', #798, #152, #638 ) ;
#898 = AXIS2_PLACEMENT_3D ( 'NONE', #988, #243, #329 ) ;
#899 = EDGE_CURVE ( 'NONE', #253, #179, #779, .T. ) ;
#900 = VERTEX_POINT ( 'NONE', #735 ) ;
#901 = CIRCLE ( 'NONE', #661, 32.96838235294108443 ) ;
#902 = CARTESIAN_POINT ( 'NONE',  ( -12.53064022236118547, 28.39999999999999858, 5.428276230167829119 ) ) ;
#903 = DIRECTION ( 'NONE',  ( -0.000000000000000000, -1.000000000000000000, -0.000000000000000000 ) ) ;
#904 = DIRECTION ( 'NONE',  ( 0.000000000000000000, 1.000000000000000000, -0.000000000000000000 ) ) ;
#905 = VERTEX_POINT ( 'NONE', #557 ) ;
#906 = FILL_AREA_STYLE_COLOUR ( '', #535 ) ;
#907 = CARTESIAN_POINT ( 'NONE',  ( -1.543331252291395561, 29.39999999999999858, -11.87025033688150977 ) ) ;
#908 = CARTESIAN_POINT ( 'NONE',  ( 34.65421345289194477, 28.39999999999999858, -19.45447604380481010 ) ) ;
#909 = DIRECTION ( 'NONE',  ( 0.000000000000000000, 0.000000000000000000, -1.000000000000000000 ) ) ;
#910 = EDGE_CURVE ( 'NONE', #900, #845, #887, .T. ) ;
#911 = CIRCLE ( 'NONE', #1017, 0.9999999999999996669 ) ;
#912 = ADVANCED_FACE ( 'NONE', ( #322 ), #238, .T. ) ;
#913 = ORIENTED_EDGE ( 'NONE', *, *, #829, .T. ) ;
#914 = DIRECTION ( 'NONE',  ( 0.000000000000000000, 1.000000000000000000, 0.000000000000000000 ) ) ;
#915 = CARTESIAN_POINT ( 'NONE',  ( -9.987308970069808112, 28.39999999999999858, 8.101404372045445612 ) ) ;
#916 = CYLINDRICAL_SURFACE ( 'NONE', #350, 1.000000000000000888 ) ;
#917 = CIRCLE ( 'NONE', #826, 33.96838235294114128 ) ;
#918 = ORIENTED_EDGE ( 'NONE', *, *, #1055, .F. ) ;
#919 = EDGE_CURVE ( 'NONE', #656, #781, #659, .T. ) ;
#920 = CIRCLE ( 'NONE', #726, 1.000000000000000222 ) ;
#921 = FACE_OUTER_BOUND ( 'NONE', #1013, .T. ) ;
#922 = DIRECTION ( 'NONE',  ( 0.000000000000000000, 1.000000000000000000, 0.000000000000000000 ) ) ;
#923 = VERTEX_POINT ( 'NONE', #907 ) ;
#924 = ADVANCED_FACE ( 'NONE', ( #82 ), #163, .T. ) ;
#925 = LINE ( 'NONE', #95, #1043 ) ;
#926 = FACE_OUTER_BOUND ( 'NONE', #93, .T. ) ;
#927 = DIRECTION ( 'NONE',  ( -0.4999999999999927836, 0.000000000000000000, -0.8660254037844427044 ) ) ;
#928 = AXIS2_PLACEMENT_3D ( 'NONE', #728, #552, #473 ) ;
#929 = ORIENTED_EDGE ( 'NONE', *, *, #1055, .T. ) ;
#930 = FACE_OUTER_BOUND ( 'NONE', #16, .T. ) ;
#931 = DIRECTION ( 'NONE',  ( -0.000000000000000000, -1.000000000000000000, 0.000000000000000000 ) ) ;
#932 = DIRECTION ( 'NONE',  ( -3.009265538105055670E-30, -8.673617379884027583E-16, 1.000000000000000000 ) ) ;
#933 = ORIENTED_EDGE ( 'NONE', *, *, #150, .F. ) ;
#934 = CIRCLE ( 'NONE', #756, 1.000000000000000888 ) ;
#935 = ORIENTED_EDGE ( 'NONE', *, *, #371, .T. ) ;
#936 = DIRECTION ( 'NONE',  ( 6.018531076210100830E-30, -1.734723475976805517E-15, 1.000000000000000000 ) ) ;
#937 = LINE ( 'NONE', #940, #985 ) ;
#938 = EDGE_LOOP ( 'NONE', ( #340, #386, #214, #185 ) ) ;
#939 = ORIENTED_EDGE ( 'NONE', *, *, #415, .F. ) ;
#940 = CARTESIAN_POINT ( 'NONE',  ( 0.000000000000000000, 18.50000000000000000, -5.900000000000001243 ) ) ;
#941 = DIRECTION ( 'NONE',  ( 1.951563910473909559E-15, 0.000000000000000000, 1.000000000000000000 ) ) ;
#942 = EDGE_LOOP ( 'NONE', ( #875, #351, #441, #821 ) ) ;
#943 = EDGE_CURVE ( 'NONE', #497, #76, #3, .T. ) ;
#944 = DIRECTION ( 'NONE',  ( 0.000000000000000000, -1.000000000000000000, 0.000000000000000000 ) ) ;
#945 = VECTOR ( 'NONE', #35, 1000.000000000000000 ) ;
#946 = DIRECTION ( 'NONE',  ( 0.9557999448885921012, -0.000000000000000000, 0.2940177976772232471 ) ) ;
#947 = EDGE_CURVE ( 'NONE', #11, #134, #294, .T. ) ;
#948 = VERTEX_POINT ( 'NONE', #576 ) ;
#949 = DIRECTION ( 'NONE',  ( -0.9747559320478998979, 0.000000000000000000, 0.2232730904910620318 ) ) ;
#950 = DIRECTION ( 'NONE',  ( -3.009265538105055670E-30, -8.673617379884027583E-16, 1.000000000000000000 ) ) ;
#951 = DIRECTION ( 'NONE',  ( 0.000000000000000000, 1.000000000000000000, 0.000000000000000000 ) ) ;
#952 = CIRCLE ( 'NONE', #455, 32.96838235294151076 ) ;
#953 = ORIENTED_EDGE ( 'NONE', *, *, #867, .T. ) ;
#954 = EDGE_CURVE ( 'NONE', #923, #786, #917, .T. ) ;
#955 = AXIS2_PLACEMENT_3D ( 'NONE', #78, #970, #403 ) ;
#956 = CARTESIAN_POINT ( 'NONE',  ( 0.000000000000000000, 11.50000000000000000, 0.000000000000000000 ) ) ;
#957 = DIRECTION ( 'NONE',  ( 0.000000000000000000, 0.000000000000000000, 1.000000000000000000 ) ) ;
#958 = CIRCLE ( 'NONE', #459, 0.9999999999999998890 ) ;
#959 = VECTOR ( 'NONE', #239, 1000.000000000000000 ) ;
#960 = EDGE_CURVE ( 'NONE', #111, #855, #1041, .T. ) ;
#961 = DIRECTION ( 'NONE',  ( 0.000000000000000000, 0.000000000000000000, -1.000000000000000000 ) ) ;
#962 = ORIENTED_EDGE ( 'NONE', *, *, #559, .F. ) ;
#963 = AXIS2_PLACEMENT_3D ( 'NONE', #402, #977, #77 ) ;
#964 = AXIS2_PLACEMENT_3D ( 'NONE', #956, #33, #215 ) ;
#965 = DIRECTION ( 'NONE',  ( 0.000000000000000000, 1.000000000000000000, 0.000000000000000000 ) ) ;
#966 = DIRECTION ( 'NONE',  ( 0.000000000000000000, 1.000000000000000000, 0.000000000000000000 ) ) ;
#967 = EDGE_LOOP ( 'NONE', ( #362, #308, #1022, #962 ) ) ;
#968 = DIRECTION ( 'NONE',  ( 0.000000000000000000, 1.000000000000000000, -0.000000000000000000 ) ) ;
#969 = CIRCLE ( 'NONE', #275, 1.000000000000000000 ) ;
#970 = DIRECTION ( 'NONE',  ( 0.000000000000000000, 1.000000000000000000, -0.000000000000000000 ) ) ;
#971 = CARTESIAN_POINT ( 'NONE',  ( -34.65421345289199451, 28.39999999999999858, -19.45447604380463957 ) ) ;
#972 = ORIENTED_EDGE ( 'NONE', *, *, #180, .T. ) ;
#973 = DIRECTION ( 'NONE',  ( 0.000000000000000000, 0.000000000000000000, 1.000000000000000000 ) ) ;
#974 = SURFACE_STYLE_USAGE ( .BOTH. , #388 ) ;
#975 = ORIENTED_EDGE ( 'NONE', *, *, #874, .F. ) ;
#976 = ADVANCED_FACE ( 'NONE', ( #664 ), #582, .T. ) ;
#977 = DIRECTION ( 'NONE',  ( -7.381802025433449084E-16, 0.000000000000000000, 1.000000000000000000 ) ) ;
#978 = DIRECTION ( 'NONE',  ( -0.000000000000000000, -1.000000000000000000, 0.000000000000000000 ) ) ;
#979 = CIRCLE ( 'NONE', #169, 5.900000000000001243 ) ;
#980 = ORIENTED_EDGE ( 'NONE', *, *, #488, .F. ) ;
#981 = DIRECTION ( 'NONE',  ( 0.000000000000000000, 1.000000000000000000, 0.000000000000000000 ) ) ;
#982 = DIRECTION ( 'NONE',  ( -0.000000000000000000, -1.000000000000000000, -0.000000000000000000 ) ) ;
#983 = CARTESIAN_POINT ( 'NONE',  ( -10.44999999999999751, 18.50000000000000000, 9.299999999999998934 ) ) ;
#984 = ORIENTED_EDGE ( 'NONE', *, *, #263, .T. ) ;
#985 = VECTOR ( 'NONE', #205, 1000.000000000000000 ) ;
#986 = EDGE_CURVE ( 'NONE', #626, #497, #569, .T. ) ;
#987 = CARTESIAN_POINT ( 'NONE',  ( -11.53064022236118724, 18.50000000000000000, 5.428276230167828231 ) ) ;
#988 = CARTESIAN_POINT ( 'NONE',  ( 6.925345191141075949E-15, 18.50000000000000000, 40.56838235294154060 ) ) ;
#989 = FACE_OUTER_BOUND ( 'NONE', #428, .T. ) ;
#990 = DIRECTION ( 'NONE',  ( 0.000000000000000000, 0.000000000000000000, -1.000000000000000000 ) ) ;
#991 = EDGE_CURVE ( 'NONE', #201, #701, #601, .T. ) ;
#992 = EDGE_LOOP ( 'NONE', ( #628, #423, #109, #285, #223, #939, #451, #545, #235, #36, #1060, #189, #894 ) ) ;
#993 = CARTESIAN_POINT ( 'NONE',  ( 3.490243377569956554E-16, 0.000000000000000000, 2.850000000000000089 ) ) ;
#994 = CYLINDRICAL_SURFACE ( 'NONE', #458, 1.000000000000000888 ) ;
#995 = CIRCLE ( 'NONE', #550, 0.5000000000000000000 ) ;
#996 = EDGE_LOOP ( 'NONE', ( #668, #600, #617, #102 ) ) ;
#997 = PRODUCT_DEFINITION ( 'UNKNOWN', '', #889, #657 ) ;
#998 = FACE_OUTER_BOUND ( 'NONE', #691, .T. ) ;
#999 = DIRECTION ( 'NONE',  ( -0.000000000000000000, -1.000000000000000000, 0.000000000000000000 ) ) ;
#1000 = VECTOR ( 'NONE', #91, 1000.000000000000000 ) ;
#1001 = VECTOR ( 'NONE', #1062, 1000.000000000000000 ) ;
#1002 = LINE ( 'NONE', #259, #431 ) ;
#1003 = EDGE_LOOP ( 'NONE', ( #357, #197, #560, #96 ) ) ;
#1004 = CIRCLE ( 'NONE', #17, 4.099999999999999645 ) ;
#1005 = DIRECTION ( 'NONE',  ( 0.000000000000000000, 1.000000000000000000, -0.000000000000000000 ) ) ;
#1006 = CARTESIAN_POINT ( 'NONE',  ( 0.000000000000000000, 28.89999999999999858, 3.599999999999999645 ) ) ;
#1007 = CARTESIAN_POINT ( 'NONE',  ( -11.53064022236118547, 28.39999999999999858, 5.428276230167829119 ) ) ;
#1008 = FACE_OUTER_BOUND ( 'NONE', #996, .T. ) ;
#1009 = EDGE_LOOP ( 'NONE', ( #520, #839, #1035, #608 ) ) ;
#1010 = DIRECTION ( 'NONE',  ( -1.000000000000000000, 0.000000000000000000, -7.381802025433449084E-16 ) ) ;
#1011 = EDGE_CURVE ( 'NONE', #370, #537, #171, .T. ) ;
#1012 = CARTESIAN_POINT ( 'NONE',  ( 11.53064022236126362, 28.39999999999999858, 5.428276230167708327 ) ) ;
#1013 = EDGE_LOOP ( 'NONE', ( #791, #864, #933, #514 ) ) ;
#1014 = LINE ( 'NONE', #24, #865 ) ;
#1015 = CARTESIAN_POINT ( 'NONE',  ( -12.21137835673185990, 28.39999999999999858, 4.695749375770301270 ) ) ;
#1016 = AXIS2_PLACEMENT_3D ( 'NONE', #800, #218, #961 ) ;
#1017 = AXIS2_PLACEMENT_3D ( 'NONE', #1012, #522, #291 ) ;
#1018 = EDGE_LOOP ( 'NONE', ( #1046, #885, #555 ) ) ;
#1019 = DIRECTION ( 'NONE',  ( 0.000000000000000000, 3.469446951953611033E-15, 1.000000000000000000 ) ) ;
#1020 = ORIENTED_EDGE ( 'NONE', *, *, #899, .T. ) ;
#1021 = CARTESIAN_POINT ( 'NONE',  ( 5.021051876504146399E-16, 29.39999999999999858, -4.099999999999999645 ) ) ;
#1022 = ORIENTED_EDGE ( 'NONE', *, *, #874, .T. ) ;
#1023 = DIRECTION ( 'NONE',  ( 0.000000000000000000, 0.000000000000000000, 1.000000000000000000 ) ) ;
#1024 = CARTESIAN_POINT ( 'NONE',  ( -12.21137835673185812, 18.50000000000000000, 4.695749375770303047 ) ) ;
#1025 = EDGE_CURVE ( 'NONE', #786, #201, #604, .T. ) ;
#1026 = ORIENTED_EDGE ( 'NONE', *, *, #829, .F. ) ;
#1027 = EDGE_CURVE ( 'NONE', #746, #40, #103, .T. ) ;
#1028 = EDGE_CURVE ( 'NONE', #25, #537, #137, .T. ) ;
#1029 = CARTESIAN_POINT ( 'NONE',  ( 9.693291172392585864, 18.50000000000000000, 9.057204316934033272 ) ) ;
#1030 = DIRECTION ( 'NONE',  ( -0.000000000000000000, 1.000000000000000000, -0.000000000000000000 ) ) ;
#1031 = CARTESIAN_POINT ( 'NONE',  ( 6.925345191141075949E-15, 29.39999999999999858, 6.600000000000022737 ) ) ;
#1032 = EDGE_LOOP ( 'NONE', ( #517, #128, #602, #281 ) ) ;
#1033 = EDGE_CURVE ( 'NONE', #589, #397, #213, .T. ) ;
#1034 = CIRCLE ( 'NONE', #97, 1.000000000000000000 ) ;
#1035 = ORIENTED_EDGE ( 'NONE', *, *, #559, .T. ) ;
#1036 = DIRECTION ( 'NONE',  ( 0.000000000000000000, 0.000000000000000000, -1.000000000000000000 ) ) ;
#1037 = DIRECTION ( 'NONE',  ( -1.000000000000000000, 3.469446951953616950E-15, 0.000000000000000000 ) ) ;
#1038 = ADVANCED_FACE ( 'NONE', ( #266 ), #994, .T. ) ;
#1039 = AXIS2_PLACEMENT_3D ( 'NONE', #474, #951, #229 ) ;
#1040 = PLANE ( 'NONE',  #632 ) ;
#1041 = CIRCLE ( 'NONE', #435, 1.000000000000000000 ) ;
#1042 = CARTESIAN_POINT ( 'NONE',  ( -10.85333437385424560, 18.50000000000000000, 8.601404372045447388 ) ) ;
#1043 = VECTOR ( 'NONE', #422, 999.9999999999998863 ) ;
#1044 = DIRECTION ( 'NONE',  ( 0.6807381343706694343, 0.000000000000000000, -0.7325268543975300695 ) ) ;
#1045 = EDGE_CURVE ( 'NONE', #760, #134, #969, .T. ) ;
#1046 = ORIENTED_EDGE ( 'NONE', *, *, #332, .T. ) ;
#1047 = AXIS2_PLACEMENT_3D ( 'NONE', #866, #284, #949 ) ;
#1048 = CARTESIAN_POINT ( 'NONE',  ( 0.000000000000000000, 11.50000000000000000, 0.000000000000000000 ) ) ;
#1049 = DIRECTION ( 'NONE',  ( 0.000000000000000000, 0.000000000000000000, -1.000000000000000000 ) ) ;
#1050 = CARTESIAN_POINT ( 'NONE',  ( -12.21137835673185812, 29.39999999999999858, 4.695749375770303047 ) ) ;
#1051 = ORIENTED_EDGE ( 'NONE', *, *, #986, .T. ) ;
#1052 = CIRCLE ( 'NONE', #122, 32.96838235294108443 ) ;
#1053 = DIRECTION ( 'NONE',  ( 0.000000000000000000, 1.000000000000000000, 0.000000000000000000 ) ) ;
#1054 = AXIS2_PLACEMENT_3D ( 'NONE', #653, #903, #491 ) ;
#1055 = EDGE_CURVE ( 'NONE', #855, #786, #366, .T. ) ;
#1056 = EDGE_LOOP ( 'NONE', ( #727, #778, #634, #120 ) ) ;
#1057 = CARTESIAN_POINT ( 'NONE',  ( 1.543331252291439748, 28.39999999999999858, -11.87025033688150089 ) ) ;
#1058 = APPLICATION_PROTOCOL_DEFINITION ( 'draft international standard', 'automotive_design', 1998, #734 ) ;
#1059 = EDGE_CURVE ( 'NONE', #57, #9, #586, .T. ) ;
#1060 = ORIENTED_EDGE ( 'NONE', *, *, #317, .T. ) ;
#1061 = DIRECTION ( 'NONE',  ( 0.000000000000000000, 1.000000000000000000, 0.000000000000000000 ) ) ;
#1062 = DIRECTION ( 'NONE',  ( -0.000000000000000000, -1.000000000000000000, -0.000000000000000000 ) ) ;
#1063 = DIRECTION ( 'NONE',  ( 0.000000000000000000, 1.000000000000000000, -0.000000000000000000 ) ) ;
#1064 = CIRCLE ( 'NONE', #737, 2.850000000000000089 ) ;
#1065 = EDGE_CURVE ( 'NONE', #25, #62, #1014, .T. ) ;
#1066 = EDGE_LOOP ( 'NONE', ( #472, #165, #333, #290, #504 ) ) ;
#1067 = UNCERTAINTY_MEASURE_WITH_UNIT (LENGTH_MEASURE( 1.000000000000000082E-05 ), #328, 'distance_accuracy_value', 'NONE');
#1068 = DIRECTION ( 'NONE',  ( 0.4999999999999945044, 0.000000000000000000, -0.8660254037844418162 ) ) ;
#1069 = DIRECTION ( 'NONE',  ( -0.000000000000000000, -1.000000000000000000, 0.000000000000000000 ) ) ;
#1070 = DIRECTION ( 'NONE',  ( 0.4999999999999927836, -8.673617379883902352E-16, 0.8660254037844430375 ) ) ;
ENDSEC;
END-ISO-10303-21;
