ISO-10303-21;
HEADER;
FILE_DESCRIPTION (( 'STEP AP214' ),
    '1' );
FILE_NAME ('Walker_Brake_Silver_Piece.STEP',
    '2026-08-11T21:02:41',
    ( '' ),
    ( '' ),
    'SwSTEP 2.0',
    'SolidWorks 2023',
    '' );
FILE_SCHEMA (( 'AUTOMOTIVE_DESIGN' ));
ENDSEC;

DATA;
#1 = ORIENTED_EDGE ( 'NONE', *, *, #159, .F. ) ;
#2 = EDGE_LOOP ( 'NONE', ( #183, #354, #408, #350 ) ) ;
#3 = DIRECTION ( 'NONE',  ( -0.000000000000000000, -1.000000000000000000, -0.000000000000000000 ) ) ;
#4 = EDGE_CURVE ( 'NONE', #5, #436, #239, .T. ) ;
#5 = VERTEX_POINT ( 'NONE', #527 ) ;
#6 = VECTOR ( 'NONE', #636, 1000.000000000000000 ) ;
#7 = VERTEX_POINT ( 'NONE', #15 ) ;
#8 = CARTESIAN_POINT ( 'NONE',  ( -15.00000000000000355, 0.000000000000000000, -9.999999999999998224 ) ) ;
#9 = VECTOR ( 'NONE', #195, 1000.000000000000000 ) ;
#10 = PLANE ( 'NONE',  #260 ) ;
#11 = SHAPE_DEFINITION_REPRESENTATION ( #202, #298 ) ;
#12 = CARTESIAN_POINT ( 'NONE',  ( -11.27592803942836497, 12.50000000000000000, 30.98307920228045376 ) ) ;
#13 = DIRECTION ( 'NONE',  ( 1.000000000000000000, 0.000000000000000000, 0.000000000000000000 ) ) ;
#14 = ADVANCED_FACE ( 'NONE', ( #130, #124 ), #583, .F. ) ;
#15 = CARTESIAN_POINT ( 'NONE',  ( 14.99999999999999289, 6.250000000000000888, 4.500000000000000000 ) ) ;
#16 = ORIENTED_EDGE ( 'NONE', *, *, #219, .F. ) ;
#17 = FACE_OUTER_BOUND ( 'NONE', #501, .T. ) ;
#18 = DIRECTION ( 'NONE',  ( 1.000000000000000000, 0.000000000000000000, 0.000000000000000000 ) ) ;
#19 = EDGE_CURVE ( 'NONE', #610, #396, #333, .T. ) ;
#20 = VERTEX_POINT ( 'NONE', #629 ) ;
#21 =( NAMED_UNIT ( * ) PLANE_ANGLE_UNIT ( ) SI_UNIT ( $, .RADIAN. ) );
#22 = LINE ( 'NONE', #528, #539 ) ;
#23 = AXIS2_PLACEMENT_3D ( 'NONE', #212, #369, #566 ) ;
#24 = CYLINDRICAL_SURFACE ( 'NONE', #612, 4.500000000000000000 ) ;
#25 = VECTOR ( 'NONE', #502, 1000.000000000000000 ) ;
#26 = VERTEX_POINT ( 'NONE', #375 ) ;
#27 = DIRECTION ( 'NONE',  ( -0.000000000000000000, -1.000000000000000000, -0.000000000000000000 ) ) ;
#28 = CIRCLE ( 'NONE', #346, 2.000000000000000000 ) ;
#29 = LINE ( 'NONE', #121, #459 ) ;
#30 = ORIENTED_EDGE ( 'NONE', *, *, #630, .F. ) ;
#31 = CARTESIAN_POINT ( 'NONE',  ( -13.35000000000000853, 12.50000000000000000, 10.00000000000000178 ) ) ;
#32 = ORIENTED_EDGE ( 'NONE', *, *, #19, .T. ) ;
#33 = DIRECTION ( 'NONE',  ( -0.000000000000000000, -1.000000000000000000, 0.000000000000000000 ) ) ;
#34 = FACE_OUTER_BOUND ( 'NONE', #571, .T. ) ;
#35 = VECTOR ( 'NONE', #517, 1000.000000000000000 ) ;
#36 = ORIENTED_EDGE ( 'NONE', *, *, #97, .T. ) ;
#37 = CARTESIAN_POINT ( 'NONE',  ( -15.00000000000000355, 6.250000000000000000, 0.000000000000000000 ) ) ;
#38 = EDGE_CURVE ( 'NONE', #624, #93, #179, .T. ) ;
#39 = EDGE_CURVE ( 'NONE', #190, #5, #242, .T. ) ;
#40 = EDGE_LOOP ( 'NONE', ( #309, #498, #272, #321 ) ) ;
#41 = LINE ( 'NONE', #495, #379 ) ;
#42 = PLANE ( 'NONE',  #112 ) ;
#43 = VECTOR ( 'NONE', #70, 1000.000000000000000 ) ;
#44 = ORIENTED_EDGE ( 'NONE', *, *, #139, .F. ) ;
#45 = DIRECTION ( 'NONE',  ( -0.000000000000000000, -1.000000000000000000, -0.000000000000000000 ) ) ;
#46 = ORIENTED_EDGE ( 'NONE', *, *, #605, .T. ) ;
#47 = DIRECTION ( 'NONE',  ( -1.000000000000000000, 0.000000000000000000, 8.673617379884036705E-17 ) ) ;
#48 = CARTESIAN_POINT ( 'NONE',  ( 9.349999999999990763, -1.264180188355557054E-15, 36.00000000000000711 ) ) ;
#49 = ADVANCED_FACE ( 'NONE', ( #227 ), #176, .T. ) ;
#50 = DIRECTION ( 'NONE',  ( 1.000000000000000000, 0.000000000000000000, -1.051347561198069149E-15 ) ) ;
#51 = CARTESIAN_POINT ( 'NONE',  ( 13.34999999999999254, 12.50000000000000000, 12.00000000000000178 ) ) ;
#52 = VERTEX_POINT ( 'NONE', #215 ) ;
#53 = DIRECTION ( 'NONE',  ( 0.000000000000000000, -0.2696299255199710587, -0.9629640197141817737 ) ) ;
#54 = ORIENTED_EDGE ( 'NONE', *, *, #530, .F. ) ;
#55 = ORIENTED_EDGE ( 'NONE', *, *, #4, .T. ) ;
#56 = AXIS2_PLACEMENT_3D ( 'NONE', #577, #72, #126 ) ;
#57 = DIRECTION ( 'NONE',  ( 0.000000000000000000, -0.2696299255199717249, -0.9629640197141814406 ) ) ;
#58 = VECTOR ( 'NONE', #460, 1000.000000000000000 ) ;
#59 =( BOUNDED_CURVE ( )  B_SPLINE_CURVE ( 3, ( #330, #77, #479, #229 ),
 .UNSPECIFIED., .F., .F. ) 
 B_SPLINE_CURVE_WITH_KNOTS ( ( 4, 4 ),
 ( 1.570796326794896558, 2.868583950503082569 ),
 .UNSPECIFIED. ) 
 CURVE ( )  GEOMETRIC_REPRESENTATION_ITEM ( )  RATIONAL_B_SPLINE_CURVE ( ( 1.000000000000000000, 0.8645018409172096074, 0.8645018409172096074, 1.000000000000000000 ) ) 
 REPRESENTATION_ITEM ( '' )  );
#60 = DIRECTION ( 'NONE',  ( 0.000000000000000000, 0.000000000000000000, -1.000000000000000000 ) ) ;
#61 = VECTOR ( 'NONE', #449, 1000.000000000000000 ) ;
#62 = DIRECTION ( 'NONE',  ( 0.000000000000000000, 0.000000000000000000, -1.000000000000000000 ) ) ;
#63 = ADVANCED_FACE ( 'NONE', ( #634 ), #516, .T. ) ;
#64 = SURFACE_STYLE_FILL_AREA ( #364 ) ;
#65 = CARTESIAN_POINT ( 'NONE',  ( -15.00000000000000355, 0.000000000000000000, -9.999999999999998224 ) ) ;
#66 = DIRECTION ( 'NONE',  ( -1.000000000000000000, 0.000000000000000000, 0.000000000000000000 ) ) ;
#67 = LINE ( 'NONE', #469, #193 ) ;
#68 = EDGE_CURVE ( 'NONE', #88, #619, #29, .T. ) ;
#69 = VECTOR ( 'NONE', #81, 1000.000000000000000 ) ;
#70 = DIRECTION ( 'NONE',  ( 8.673617379884034239E-17, 0.000000000000000000, 1.000000000000000000 ) ) ;
#71 = ORIENTED_EDGE ( 'NONE', *, *, #115, .F. ) ;
#72 = DIRECTION ( 'NONE',  ( 1.000000000000000000, 0.000000000000000000, 0.000000000000000000 ) ) ;
#73 = DIRECTION ( 'NONE',  ( 0.000000000000000000, 0.000000000000000000, -1.000000000000000000 ) ) ;
#74 = ORIENTED_EDGE ( 'NONE', *, *, #94, .F. ) ;
#75 = CARTESIAN_POINT ( 'NONE',  ( -13.35000000000000675, 12.50000000000000000, 12.00000000000000178 ) ) ;
#76 = FACE_OUTER_BOUND ( 'NONE', #444, .T. ) ;
#77 = CARTESIAN_POINT ( 'NONE',  ( 10.28202873390386252, 11.93676998712913573, 32.65770440360383731 ) ) ;
#78 = DIRECTION ( 'NONE',  ( 1.000000000000000000, 0.000000000000000000, 0.000000000000000000 ) ) ;
#79 = AXIS2_PLACEMENT_3D ( 'NONE', #118, #614, #558 ) ;
#80 = ORIENTED_EDGE ( 'NONE', *, *, #504, .F. ) ;
#81 = DIRECTION ( 'NONE',  ( 1.000000000000000000, 0.000000000000000000, 0.000000000000000000 ) ) ;
#82 = DIRECTION ( 'NONE',  ( 1.000000000000000000, 0.000000000000000000, 0.000000000000000000 ) ) ;
#83 = EDGE_LOOP ( 'NONE', ( #125, #122, #131, #457 ) ) ;
#84 =( BOUNDED_CURVE ( )  B_SPLINE_CURVE ( 3, ( #208, #410, #218, #409 ),
 .UNSPECIFIED., .F., .F. ) 
 B_SPLINE_CURVE_WITH_KNOTS ( ( 4, 4 ),
 ( 4.712388980384689674, 6.010176604092875685 ),
 .UNSPECIFIED. ) 
 CURVE ( )  GEOMETRIC_REPRESENTATION_ITEM ( )  RATIONAL_B_SPLINE_CURVE ( ( 1.000000000000000000, 0.8645018409172096074, 0.8645018409172096074, 1.000000000000000000 ) ) 
 REPRESENTATION_ITEM ( '' )  );
#85 = LINE ( 'NONE', #652, #61 ) ;
#86 =( GEOMETRIC_REPRESENTATION_CONTEXT ( 3 ) GLOBAL_UNCERTAINTY_ASSIGNED_CONTEXT ( ( #237 ) ) GLOBAL_UNIT_ASSIGNED_CONTEXT ( ( #512, #21, #465 ) ) REPRESENTATION_CONTEXT ( 'NONE', 'WORKASPACE' ) );
#87 = CIRCLE ( 'NONE', #23, 2.000000000000000000 ) ;
#88 = VERTEX_POINT ( 'NONE', #618 ) ;
#89 = CARTESIAN_POINT ( 'NONE',  ( 11.34999999999999076, 17.28344044569596605, 29.08371587748558085 ) ) ;
#90 = CARTESIAN_POINT ( 'NONE',  ( 11.27592803942835253, 12.50000000000000000, 30.98307920228045376 ) ) ;
#91 = ORIENTED_EDGE ( 'NONE', *, *, #206, .T. ) ;
#92 = DIRECTION ( 'NONE',  ( 1.000000000000000000, 0.000000000000000000, -8.673617379884035472E-17 ) ) ;
#93 = VERTEX_POINT ( 'NONE', #275 ) ;
#94 = EDGE_CURVE ( 'NONE', #640, #610, #360, .T. ) ;
#95 = DIRECTION ( 'NONE',  ( 0.000000000000000000, 1.000000000000000000, 0.000000000000000000 ) ) ;
#96 = VECTOR ( 'NONE', #137, 1000.000000000000000 ) ;
#97 = EDGE_CURVE ( 'NONE', #608, #20, #415, .T. ) ;
#98 = PRODUCT ( 'Walker_Brake_Silver_Piece', 'Walker_Brake_Silver_Piece', '', ( #620 ) ) ;
#99 = ORIENTED_EDGE ( 'NONE', *, *, #341, .F. ) ;
#100 = DIRECTION ( 'NONE',  ( 0.000000000000000000, 0.000000000000000000, 1.000000000000000000 ) ) ;
#101 = ORIENTED_EDGE ( 'NONE', *, *, #485, .T. ) ;
#102 = LINE ( 'NONE', #555, #314 ) ;
#103 = VERTEX_POINT ( 'NONE', #167 ) ;
#104 = CARTESIAN_POINT ( 'NONE',  ( -15.00000000000000178, 12.50000000000000000, 10.00000000000000355 ) ) ;
#105 = VERTEX_POINT ( 'NONE', #470 ) ;
#106 = ADVANCED_FACE ( 'NONE', ( #574 ), #24, .T. ) ;
#107 = EDGE_CURVE ( 'NONE', #436, #168, #59, .T. ) ;
#108 = CYLINDRICAL_SURFACE ( 'NONE', #199, 4.500000000000000000 ) ;
#109 = AXIS2_PLACEMENT_3D ( 'NONE', #128, #274, #481 ) ;
#110 = CARTESIAN_POINT ( 'NONE',  ( 9.349999999999990763, 11.03925985103994201, 32.90900724170881375 ) ) ;
#111 = CIRCLE ( 'NONE', #280, 4.500000000000000000 ) ;
#112 = AXIS2_PLACEMENT_3D ( 'NONE', #51, #95, #293 ) ;
#113 = DIRECTION ( 'NONE',  ( -1.051347561198069149E-15, 0.000000000000000000, -1.000000000000000000 ) ) ;
#114 = FACE_OUTER_BOUND ( 'NONE', #588, .T. ) ;
#115 = EDGE_CURVE ( 'NONE', #190, #520, #420, .T. ) ;
#116 = CLOSED_SHELL ( 'NONE', ( #367, #106, #400, #220, #14, #653, #627, #276, #395, #569, #340, #308, #570, #305, #416, #63, #257, #617, #49, #389, #581 ) ) ;
#117 = LINE ( 'NONE', #163, #35 ) ;
#118 = CARTESIAN_POINT ( 'NONE',  ( 24.00000000000000000, 6.250000000000000000, 0.000000000000000000 ) ) ;
#119 = LINE ( 'NONE', #572, #407 ) ;
#120 = DIRECTION ( 'NONE',  ( -3.897778013544765747E-17, -0.9629640197141816627, 0.2696299255199710587 ) ) ;
#121 = CARTESIAN_POINT ( 'NONE',  ( -11.35000000000000497, 17.28344044569596605, 29.08371587748558085 ) ) ;
#122 = ORIENTED_EDGE ( 'NONE', *, *, #160, .F. ) ;
#123 = CARTESIAN_POINT ( 'NONE',  ( -9.350000000000003197, 0.000000000000000000, 36.00000000000000711 ) ) ;
#124 = FACE_OUTER_BOUND ( 'NONE', #40, .T. ) ;
#125 = ORIENTED_EDGE ( 'NONE', *, *, #159, .T. ) ;
#126 = DIRECTION ( 'NONE',  ( 0.000000000000000000, 0.000000000000000000, -1.000000000000000000 ) ) ;
#127 = CARTESIAN_POINT ( 'NONE',  ( 13.34999999999999254, 10.50000000000000000, 30.98307920228045376 ) ) ;
#128 = CARTESIAN_POINT ( 'NONE',  ( 13.34999999999999254, 12.50000000000000000, 12.00000000000000178 ) ) ;
#129 = VERTEX_POINT ( 'NONE', #301 ) ;
#130 = FACE_BOUND ( 'NONE', #650, .T. ) ;
#131 = ORIENTED_EDGE ( 'NONE', *, *, #209, .F. ) ;
#132 = DIRECTION ( 'NONE',  ( 0.000000000000000000, 1.000000000000000000, 0.000000000000000000 ) ) ;
#133 = VERTEX_POINT ( 'NONE', #390 ) ;
#134 = EDGE_CURVE ( 'NONE', #520, #494, #493, .T. ) ;
#135 = CARTESIAN_POINT ( 'NONE',  ( -15.00000000000000355, 12.50000000000000000, -9.999999999999998224 ) ) ;
#136 = VERTEX_POINT ( 'NONE', #535 ) ;
#137 = DIRECTION ( 'NONE',  ( 1.445602896647339163E-16, 0.000000000000000000, 1.000000000000000000 ) ) ;
#138 = CARTESIAN_POINT ( 'NONE',  ( 11.34999999999998899, 12.50000000000000000, 30.42307920228045504 ) ) ;
#139 = EDGE_CURVE ( 'NONE', #255, #190, #295, .T. ) ;
#140 = MECHANICAL_DESIGN_GEOMETRIC_PRESENTATION_REPRESENTATION (  '', ( #622 ), #86 ) ;
#141 = ORIENTED_EDGE ( 'NONE', *, *, #39, .T. ) ;
#142 = DIRECTION ( 'NONE',  ( -5.782411586589358625E-17, 0.000000000000000000, 1.000000000000000000 ) ) ;
#143 = DIRECTION ( 'NONE',  ( -1.445602896647339410E-16, 0.000000000000000000, -1.000000000000000000 ) ) ;
#144 = ORIENTED_EDGE ( 'NONE', *, *, #230, .F. ) ;
#145 = FACE_OUTER_BOUND ( 'NONE', #529, .T. ) ;
#146 = ORIENTED_EDGE ( 'NONE', *, *, #553, .F. ) ;
#147 = CARTESIAN_POINT ( 'NONE',  ( -11.35000000000000675, 12.50000000000000000, 12.00000000000000178 ) ) ;
#148 = ORIENTED_EDGE ( 'NONE', *, *, #252, .F. ) ;
#149 = FACE_OUTER_BOUND ( 'NONE', #186, .T. ) ;
#150 = ORIENTED_EDGE ( 'NONE', *, *, #443, .T. ) ;
#151 = CARTESIAN_POINT ( 'NONE',  ( 11.34999999999999076, 12.50000000000000000, 30.61267437118129919 ) ) ;
#152 =( BOUNDED_CURVE ( )  B_SPLINE_CURVE ( 3, ( #123, #486, #428, #323 ),
 .UNSPECIFIED., .F., .T. ) 
 B_SPLINE_CURVE_WITH_KNOTS ( ( 4, 4 ),
 ( 1.501201360645240464E-16, 1.570796326794896780 ),
 .UNSPECIFIED. ) 
 CURVE ( )  GEOMETRIC_REPRESENTATION_ITEM ( )  RATIONAL_B_SPLINE_CURVE ( ( 1.000000000000000000, 0.8047378541243649375, 0.8047378541243649375, 1.000000000000000000 ) ) 
 REPRESENTATION_ITEM ( '' )  );
#153 = EDGE_CURVE ( 'NONE', #396, #422, #297, .T. ) ;
#154 = EDGE_CURVE ( 'NONE', #591, #203, #241, .T. ) ;
#155 = ORIENTED_EDGE ( 'NONE', *, *, #94, .T. ) ;
#156 = AXIS2_PLACEMENT_3D ( 'NONE', #318, #532, #73 ) ;
#157 = PRODUCT_RELATED_PRODUCT_CATEGORY ( 'part', '', ( #98 ) ) ;
#158 = LINE ( 'NONE', #361, #651 ) ;
#159 = EDGE_CURVE ( 'NONE', #302, #591, #598, .T. ) ;
#160 = EDGE_CURVE ( 'NONE', #586, #591, #290, .T. ) ;
#161 = CARTESIAN_POINT ( 'NONE',  ( -15.00000000000000355, 12.50000000000000000, -9.999999999999998224 ) ) ;
#162 = VECTOR ( 'NONE', #247, 1000.000000000000000 ) ;
#163 = CARTESIAN_POINT ( 'NONE',  ( 14.99999999999999467, 0.000000000000000000, -9.999999999999996447 ) ) ;
#164 = CARTESIAN_POINT ( 'NONE',  ( 13.34999999999999432, 0.000000000000000000, 10.00000000000000178 ) ) ;
#165 = CARTESIAN_POINT ( 'NONE',  ( -15.00000000000000178, 12.50000000000000000, 10.00000000000000355 ) ) ;
#166 = DIRECTION ( 'NONE',  ( -0.000000000000000000, -1.000000000000000000, -0.000000000000000000 ) ) ;
#167 = CARTESIAN_POINT ( 'NONE',  ( 14.99999999999999645, 0.000000000000000000, 10.00000000000000178 ) ) ;
#168 = VERTEX_POINT ( 'NONE', #398 ) ;
#169 = CARTESIAN_POINT ( 'NONE',  ( 14.99999999999999467, 12.50000000000000000, -9.999999999999996447 ) ) ;
#170 = VECTOR ( 'NONE', #466, 1000.000000000000000 ) ;
#171 = CARTESIAN_POINT ( 'NONE',  ( 11.34999999999998899, 0.000000000000000000, 33.92307920228045504 ) ) ;
#172 = AXIS2_PLACEMENT_3D ( 'NONE', #317, #413, #60 ) ;
#173 = ORIENTED_EDGE ( 'NONE', *, *, #68, .F. ) ;
#174 = CARTESIAN_POINT ( 'NONE',  ( -24.00000000000000000, 6.250000000000000000, -4.500000000000000000 ) ) ;
#175 = DIRECTION ( 'NONE',  ( 0.000000000000000000, 0.000000000000000000, 1.000000000000000000 ) ) ;
#176 = CYLINDRICAL_SURFACE ( 'NONE', #156, 4.500000000000000000 ) ;
#177 = DIRECTION ( 'NONE',  ( -1.000000000000000000, 0.000000000000000000, 8.673617379884036705E-17 ) ) ;
#178 = ORIENTED_EDGE ( 'NONE', *, *, #230, .T. ) ;
#179 = LINE ( 'NONE', #524, #438 ) ;
#180 = ORIENTED_EDGE ( 'NONE', *, *, #107, .T. ) ;
#181 = CARTESIAN_POINT ( 'NONE',  ( -9.350000000000003197, 5.622906513706283626E-16, 36.00000000000000711 ) ) ;
#182 = EDGE_CURVE ( 'NONE', #399, #168, #41, .T. ) ;
#183 = ORIENTED_EDGE ( 'NONE', *, *, #134, .T. ) ;
#184 = LINE ( 'NONE', #344, #197 ) ;
#185 = ORIENTED_EDGE ( 'NONE', *, *, #325, .T. ) ;
#186 = EDGE_LOOP ( 'NONE', ( #348, #251, #80, #185 ) ) ;
#187 = FILL_AREA_STYLE_COLOUR ( '', #256 ) ;
#188 = CARTESIAN_POINT ( 'NONE',  ( 11.34999999999999254, 0.000000000000000000, 12.00000000000000178 ) ) ;
#189 = EDGE_CURVE ( 'NONE', #203, #88, #240, .T. ) ;
#190 = VERTEX_POINT ( 'NONE', #440 ) ;
#191 = LINE ( 'NONE', #592, #226 ) ;
#192 = CARTESIAN_POINT ( 'NONE',  ( -24.00000000000000000, 6.250000000000000000, 0.000000000000000000 ) ) ;
#193 = VECTOR ( 'NONE', #335, 1000.000000000000000 ) ;
#194 = ORIENTED_EDGE ( 'NONE', *, *, #209, .T. ) ;
#195 = DIRECTION ( 'NONE',  ( -0.000000000000000000, -1.000000000000000000, -0.000000000000000000 ) ) ;
#196 = ORIENTED_EDGE ( 'NONE', *, *, #154, .F. ) ;
#197 = VECTOR ( 'NONE', #548, 1000.000000000000000 ) ;
#198 = DIRECTION ( 'NONE',  ( 0.000000000000000000, 0.9629640197141817737, -0.2696299255199710587 ) ) ;
#199 = AXIS2_PLACEMENT_3D ( 'NONE', #365, #373, #261 ) ;
#200 = ORIENTED_EDGE ( 'NONE', *, *, #411, .T. ) ;
#201 = DIRECTION ( 'NONE',  ( -1.000000000000000000, 0.000000000000000000, -0.000000000000000000 ) ) ;
#202 = PRODUCT_DEFINITION_SHAPE ( 'NONE', 'NONE',  #271 ) ;
#203 = VERTEX_POINT ( 'NONE', #644 ) ;
#204 = ORIENTED_EDGE ( 'NONE', *, *, #491, .T. ) ;
#205 = FACE_OUTER_BOUND ( 'NONE', #471, .T. ) ;
#206 = EDGE_CURVE ( 'NONE', #494, #103, #85, .T. ) ;
#207 = ORIENTED_EDGE ( 'NONE', *, *, #557, .T. ) ;
#208 = CARTESIAN_POINT ( 'NONE',  ( -9.350000000000003197, 11.03925985103994201, 32.90900724170881375 ) ) ;
#209 = EDGE_CURVE ( 'NONE', #20, #586, #191, .T. ) ;
#210 = AXIS2_PLACEMENT_3D ( 'NONE', #490, #33, #392 ) ;
#211 = CARTESIAN_POINT ( 'NONE',  ( -13.35000000000000675, 12.50000000000000000, 12.00000000000000178 ) ) ;
#212 = CARTESIAN_POINT ( 'NONE',  ( 13.34999999999999254, 12.50000000000000000, 12.00000000000000178 ) ) ;
#213 = APPLICATION_CONTEXT ( 'automotive_design' ) ;
#214 = DIRECTION ( 'NONE',  ( 1.000000000000000000, 0.000000000000000000, 0.000000000000000000 ) ) ;
#215 = CARTESIAN_POINT ( 'NONE',  ( -9.350000000000003197, 11.03925985103994201, 32.90900724170881375 ) ) ;
#216 = ORIENTED_EDGE ( 'NONE', *, *, #107, .F. ) ;
#217 = DIRECTION ( 'NONE',  ( -0.000000000000000000, -1.000000000000000000, -0.000000000000000000 ) ) ;
#218 = CARTESIAN_POINT ( 'NONE',  ( -11.02462520132339208, 12.50000000000000000, 31.91510793618433084 ) ) ;
#219 = EDGE_CURVE ( 'NONE', #289, #520, #589, .T. ) ;
#220 = ADVANCED_FACE ( 'NONE', ( #145 ), #434, .F. ) ;
#221 = PRODUCT_DEFINITION_CONTEXT ( 'detailed design', #441, 'design' ) ;
#222 = ORIENTED_EDGE ( 'NONE', *, *, #530, .T. ) ;
#223 = SURFACE_SIDE_STYLE ('',( #64 ) ) ;
#224 = CARTESIAN_POINT ( 'NONE',  ( -24.00000000000000000, 6.250000000000000000, -4.500000000000000000 ) ) ;
#225 = AXIS2_PLACEMENT_3D ( 'NONE', #563, #631, #423 ) ;
#226 = VECTOR ( 'NONE', #50, 1000.000000000000000 ) ;
#227 = FACE_OUTER_BOUND ( 'NONE', #554, .T. ) ;
#228 = DIRECTION ( 'NONE',  ( 0.000000000000000000, 0.000000000000000000, -1.000000000000000000 ) ) ;
#229 = CARTESIAN_POINT ( 'NONE',  ( 11.27592803942835253, 12.50000000000000000, 30.98307920228045376 ) ) ;
#230 = EDGE_CURVE ( 'NONE', #255, #289, #184, .T. ) ;
#231 = ORIENTED_EDGE ( 'NONE', *, *, #153, .F. ) ;
#232 = LINE ( 'NONE', #431, #6 ) ;
#233 = ORIENTED_EDGE ( 'NONE', *, *, #353, .F. ) ;
#234 = CARTESIAN_POINT ( 'NONE',  ( 11.34999999999999254, 12.50000000000000000, 12.00000000000000178 ) ) ;
#235 = PLANE ( 'NONE',  #225 ) ;
#236 = VERTEX_POINT ( 'NONE', #245 ) ;
#237 = UNCERTAINTY_MEASURE_WITH_UNIT (LENGTH_MEASURE( 1.000000000000000082E-05 ), #512, 'distance_accuracy_value', 'NONE');
#238 = DIRECTION ( 'NONE',  ( 1.000000000000000000, 0.000000000000000000, -8.673617379884035472E-17 ) ) ;
#239 = LINE ( 'NONE', #48, #483 ) ;
#240 = LINE ( 'NONE', #587, #96 ) ;
#241 = CIRCLE ( 'NONE', #210, 2.000000000000000000 ) ;
#242 =( BOUNDED_CURVE ( )  B_SPLINE_CURVE ( 3, ( #171, #326, #429, #579 ),
 .UNSPECIFIED., .F., .T. ) 
 B_SPLINE_CURVE_WITH_KNOTS ( ( 4, 4 ),
 ( 4.712388980384693227, 6.283185307179586232 ),
 .UNSPECIFIED. ) 
 CURVE ( )  GEOMETRIC_REPRESENTATION_ITEM ( )  RATIONAL_B_SPLINE_CURVE ( ( 1.000000000000000000, 0.8047378541243658256, 0.8047378541243658256, 1.000000000000000000 ) ) 
 REPRESENTATION_ITEM ( '' )  );
#243 = DIRECTION ( 'NONE',  ( 0.000000000000000000, 0.000000000000000000, -1.000000000000000000 ) ) ;
#244 = ORIENTED_EDGE ( 'NONE', *, *, #604, .F. ) ;
#245 = CARTESIAN_POINT ( 'NONE',  ( 13.34999999999999432, 12.50000000000000000, 10.00000000000000178 ) ) ;
#246 = EDGE_LOOP ( 'NONE', ( #144, #382, #547, #16 ) ) ;
#247 = DIRECTION ( 'NONE',  ( 1.000000000000000000, 0.000000000000000000, 0.000000000000000000 ) ) ;
#248 = DIRECTION ( 'NONE',  ( 3.897778013544765747E-17, 0.9629640197141817737, -0.2696299255199710587 ) ) ;
#249 = DIRECTION ( 'NONE',  ( -3.897778013544765747E-17, -0.9629640197141817737, 0.2696299255199710587 ) ) ;
#250 = CARTESIAN_POINT ( 'NONE',  ( 14.99999999999999289, 6.250000000000000000, 0.000000000000000000 ) ) ;
#251 = ORIENTED_EDGE ( 'NONE', *, *, #68, .T. ) ;
#252 = EDGE_CURVE ( 'NONE', #608, #489, #638, .T. ) ;
#253 = DIRECTION ( 'NONE',  ( 3.897778013544765747E-17, -0.9629640197141816627, 0.2696299255199710587 ) ) ;
#254 = EDGE_CURVE ( 'NONE', #422, #396, #111, .T. ) ;
#255 = VERTEX_POINT ( 'NONE', #603 ) ;
#256 = COLOUR_RGB ( '',0.7921568627450980005, 0.8196078431372548767, 0.9333333333333333481 ) ;
#257 = ADVANCED_FACE ( 'NONE', ( #393 ), #590, .T. ) ;
#258 = ORIENTED_EDGE ( 'NONE', *, *, #456, .F. ) ;
#259 = LINE ( 'NONE', #8, #58 ) ;
#260 = AXIS2_PLACEMENT_3D ( 'NONE', #362, #621, #515 ) ;
#261 = DIRECTION ( 'NONE',  ( 0.000000000000000000, 0.000000000000000000, -1.000000000000000000 ) ) ;
#262 = AXIS2_PLACEMENT_3D ( 'NONE', #127, #66, #568 ) ;
#263 = APPLICATION_PROTOCOL_DEFINITION ( 'draft international standard', 'automotive_design', 1998, #213 ) ;
#264 = PLANE ( 'NONE',  #626 ) ;
#265 = LINE ( 'NONE', #419, #170 ) ;
#266 = CARTESIAN_POINT ( 'NONE',  ( -15.00000000000000355, 12.50000000000000000, -9.999999999999998224 ) ) ;
#267 = DIRECTION ( 'NONE',  ( -1.000000000000000000, 0.000000000000000000, 8.673617379884036705E-17 ) ) ;
#268 = EDGE_CURVE ( 'NONE', #168, #255, #334, .T. ) ;
#269 = EDGE_CURVE ( 'NONE', #619, #399, #464, .T. ) ;
#270 = DIRECTION ( 'NONE',  ( 1.000000000000000000, 0.000000000000000000, 0.000000000000000000 ) ) ;
#271 = PRODUCT_DEFINITION ( 'UNKNOWN', '', #607, #221 ) ;
#272 = ORIENTED_EDGE ( 'NONE', *, *, #97, .F. ) ;
#273 =( LENGTH_UNIT ( ) NAMED_UNIT ( * ) SI_UNIT ( .MILLI., .METRE. ) );
#274 = DIRECTION ( 'NONE',  ( -0.000000000000000000, -1.000000000000000000, -0.000000000000000000 ) ) ;
#275 = CARTESIAN_POINT ( 'NONE',  ( 14.99999999999999467, 12.50000000000000000, -9.999999999999996447 ) ) ;
#276 = ADVANCED_FACE ( 'NONE', ( #149 ), #545, .F. ) ;
#277 = EDGE_LOOP ( 'NONE', ( #448, #207 ) ) ;
#278 = DIRECTION ( 'NONE',  ( 0.000000000000000000, 0.000000000000000000, -1.000000000000000000 ) ) ;
#279 = VECTOR ( 'NONE', #27, 1000.000000000000000 ) ;
#280 = AXIS2_PLACEMENT_3D ( 'NONE', #37, #238, #641 ) ;
#281 = EDGE_CURVE ( 'NONE', #20, #302, #402, .T. ) ;
#282 = DIRECTION ( 'NONE',  ( 0.000000000000000000, 0.000000000000000000, -1.000000000000000000 ) ) ;
#283 = VECTOR ( 'NONE', #166, 1000.000000000000000 ) ;
#284 = EDGE_LOOP ( 'NONE', ( #180, #336, #388, #332 ) ) ;
#285 = CARTESIAN_POINT ( 'NONE',  ( -13.35000000000000853, 0.000000000000000000, 10.00000000000000178 ) ) ;
#286 = EDGE_LOOP ( 'NONE', ( #551, #403, #430, #146 ) ) ;
#287 = DIRECTION ( 'NONE',  ( -8.673617379884036705E-17, -0.000000000000000000, -1.000000000000000000 ) ) ;
#288 = CARTESIAN_POINT ( 'NONE',  ( -24.00000000000000000, 6.250000000000000888, 4.500000000000000000 ) ) ;
#289 = VERTEX_POINT ( 'NONE', #352 ) ;
#290 = LINE ( 'NONE', #445, #9 ) ;
#291 = ORIENTED_EDGE ( 'NONE', *, *, #643, .F. ) ;
#292 = DIRECTION ( 'NONE',  ( 0.000000000000000000, 0.000000000000000000, -1.000000000000000000 ) ) ;
#293 = DIRECTION ( 'NONE',  ( 0.000000000000000000, -0.000000000000000000, 1.000000000000000000 ) ) ;
#294 = ORIENTED_EDGE ( 'NONE', *, *, #374, .T. ) ;
#295 = LINE ( 'NONE', #89, #324 ) ;
#296 = ORIENTED_EDGE ( 'NONE', *, *, #374, .F. ) ;
#297 = CIRCLE ( 'NONE', #633, 4.500000000000000000 ) ;
#298 = ADVANCED_BREP_SHAPE_REPRESENTATION ( 'Walker_Brake_Silver_Piece', ( #628, #356 ), #454 ) ;
#299 = LINE ( 'NONE', #347, #542 ) ;
#300 = ORIENTED_EDGE ( 'NONE', *, *, #611, .T. ) ;
#301 = CARTESIAN_POINT ( 'NONE',  ( -9.350000000000003197, 0.000000000000000000, 36.00000000000000711 ) ) ;
#302 = VERTEX_POINT ( 'NONE', #649 ) ;
#303 = CARTESIAN_POINT ( 'NONE',  ( -9.350000000000003197, -0.5392598510399415623, 34.07407196057164356 ) ) ;
#304 = ORIENTED_EDGE ( 'NONE', *, *, #39, .F. ) ;
#305 = ADVANCED_FACE ( 'NONE', ( #654 ), #550, .F. ) ;
#306 = CARTESIAN_POINT ( 'NONE',  ( -24.33075498574717344, 0.000000000000000000, 36.00000000000000711 ) ) ;
#307 = ORIENTED_EDGE ( 'NONE', *, *, #643, .T. ) ;
#308 = ADVANCED_FACE ( 'NONE', ( #358 ), #42, .T. ) ;
#309 = ORIENTED_EDGE ( 'NONE', *, *, #456, .T. ) ;
#310 = CARTESIAN_POINT ( 'NONE',  ( 13.34999999999999432, 12.50000000000000000, 10.00000000000000178 ) ) ;
#311 = VECTOR ( 'NONE', #625, 1000.000000000000000 ) ;
#312 = AXIS2_PLACEMENT_3D ( 'NONE', #349, #142, #488 ) ;
#313 = LINE ( 'NONE', #310, #283 ) ;
#314 = VECTOR ( 'NONE', #442, 1000.000000000000000 ) ;
#315 = DIRECTION ( 'NONE',  ( 0.000000000000000000, 0.000000000000000000, 1.000000000000000000 ) ) ;
#316 = DIRECTION ( 'NONE',  ( 8.673617379884036705E-17, 0.000000000000000000, 1.000000000000000000 ) ) ;
#317 = CARTESIAN_POINT ( 'NONE',  ( -24.00000000000000000, 6.250000000000000000, 0.000000000000000000 ) ) ;
#318 = CARTESIAN_POINT ( 'NONE',  ( -24.00000000000000000, 6.250000000000000000, 0.000000000000000000 ) ) ;
#319 = DIRECTION ( 'NONE',  ( -0.000000000000000000, -1.000000000000000000, 0.000000000000000000 ) ) ;
#320 = CARTESIAN_POINT ( 'NONE',  ( -15.00000000000000355, 12.50000000000000000, -9.999999999999998224 ) ) ;
#321 = ORIENTED_EDGE ( 'NONE', *, *, #252, .T. ) ;
#322 = DIRECTION ( 'NONE',  ( 1.000000000000000000, 0.000000000000000000, 0.000000000000000000 ) ) ;
#323 = CARTESIAN_POINT ( 'NONE',  ( -11.35000000000000320, 0.000000000000000000, 33.92307920228045504 ) ) ;
#324 = VECTOR ( 'NONE', #249, 999.9999999999998863 ) ;
#325 = EDGE_CURVE ( 'NONE', #136, #203, #299, .T. ) ;
#326 = CARTESIAN_POINT ( 'NONE',  ( 11.34999999999998899, 0.000000000000000000, 35.13971123760981641 ) ) ;
#327 = ORIENTED_EDGE ( 'NONE', *, *, #604, .T. ) ;
#328 =( NAMED_UNIT ( * ) SI_UNIT ( $, .STERADIAN. ) SOLID_ANGLE_UNIT ( ) );
#329 = PLANE ( 'NONE',  #559 ) ;
#330 = CARTESIAN_POINT ( 'NONE',  ( 9.349999999999990763, 11.03925985103994201, 32.90900724170881375 ) ) ;
#331 = PLANE ( 'NONE',  #371 ) ;
#332 = ORIENTED_EDGE ( 'NONE', *, *, #605, .F. ) ;
#333 = LINE ( 'NONE', #370, #69 ) ;
#334 =( BOUNDED_CURVE ( )  B_SPLINE_CURVE ( 3, ( #90, #552, #151, #138 ),
 .UNSPECIFIED., .F., .F. ) 
 B_SPLINE_CURVE_WITH_KNOTS ( ( 4, 4 ),
 ( 1.297787623708185345, 1.570796326794895004 ),
 .UNSPECIFIED. ) 
 CURVE ( )  GEOMETRIC_REPRESENTATION_ITEM ( )  RATIONAL_B_SPLINE_CURVE ( ( 1.000000000000000000, 0.9937984925984919560, 0.9937984925984919560, 1.000000000000000000 ) ) 
 REPRESENTATION_ITEM ( '' )  );
#335 = DIRECTION ( 'NONE',  ( -1.000000000000000000, -0.000000000000000000, -5.782411586589357392E-17 ) ) ;
#336 = ORIENTED_EDGE ( 'NONE', *, *, #182, .F. ) ;
#337 = DIRECTION ( 'NONE',  ( -0.000000000000000000, -1.000000000000000000, -0.000000000000000000 ) ) ;
#338 = EDGE_LOOP ( 'NONE', ( #417, #173, #54, #384, #584 ) ) ;
#339 = CARTESIAN_POINT ( 'NONE',  ( -15.00000000000000178, 0.000000000000000000, 10.00000000000000355 ) ) ;
#340 = ADVANCED_FACE ( 'NONE', ( #205 ), #447, .F. ) ;
#341 = EDGE_CURVE ( 'NONE', #496, #7, #425, .T. ) ;
#342 = CIRCLE ( 'NONE', #474, 4.500000000000000000 ) ;
#343 = ORIENTED_EDGE ( 'NONE', *, *, #182, .T. ) ;
#344 = CARTESIAN_POINT ( 'NONE',  ( 11.34999999999999254, 12.50000000000000000, 12.00000000000000178 ) ) ;
#345 = ORIENTED_EDGE ( 'NONE', *, *, #511, .T. ) ;
#346 = AXIS2_PLACEMENT_3D ( 'NONE', #211, #319, #62 ) ;
#347 = CARTESIAN_POINT ( 'NONE',  ( -11.35000000000000675, 12.50000000000000000, 12.00000000000000178 ) ) ;
#348 = ORIENTED_EDGE ( 'NONE', *, *, #189, .T. ) ;
#349 = CARTESIAN_POINT ( 'NONE',  ( -15.00000000000000355, 12.50000000000000000, -9.999999999999998224 ) ) ;
#350 = ORIENTED_EDGE ( 'NONE', *, *, #219, .T. ) ;
#351 = AXIS2_PLACEMENT_3D ( 'NONE', #383, #270, #282 ) ;
#352 = CARTESIAN_POINT ( 'NONE',  ( 11.34999999999999254, 12.50000000000000000, 12.00000000000000178 ) ) ;
#353 = EDGE_CURVE ( 'NONE', #7, #105, #406, .T. ) ;
#354 = ORIENTED_EDGE ( 'NONE', *, *, #411, .F. ) ;
#355 = DIRECTION ( 'NONE',  ( 0.000000000000000000, -0.2696299255199710587, -0.9629640197141816627 ) ) ;
#356 = AXIS2_PLACEMENT_3D ( 'NONE', #427, #315, #322 ) ;
#357 = ORIENTED_EDGE ( 'NONE', *, *, #4, .F. ) ;
#358 = FACE_OUTER_BOUND ( 'NONE', #487, .T. ) ;
#359 = EDGE_LOOP ( 'NONE', ( #639, #534, #475, #405 ) ) ;
#360 = CIRCLE ( 'NONE', #351, 4.500000000000000000 ) ;
#361 = CARTESIAN_POINT ( 'NONE',  ( -24.00000000000000000, 6.250000000000000000, -4.500000000000000000 ) ) ;
#362 = CARTESIAN_POINT ( 'NONE',  ( 11.34999999999999254, 12.50000000000000000, 12.00000000000000178 ) ) ;
#363 = CIRCLE ( 'NONE', #79, 4.500000000000000000 ) ;
#364 = FILL_AREA_STYLE ('',( #187 ) ) ;
#365 = CARTESIAN_POINT ( 'NONE',  ( -24.00000000000000000, 6.250000000000000000, 0.000000000000000000 ) ) ;
#366 = EDGE_CURVE ( 'NONE', #236, #624, #102, .T. ) ;
#367 = ADVANCED_FACE ( 'NONE', ( #404 ), #540, .T. ) ;
#368 = FACE_OUTER_BOUND ( 'NONE', #359, .T. ) ;
#369 = DIRECTION ( 'NONE',  ( -0.000000000000000000, -1.000000000000000000, -0.000000000000000000 ) ) ;
#370 = CARTESIAN_POINT ( 'NONE',  ( -24.00000000000000000, 6.250000000000000888, 4.500000000000000000 ) ) ;
#371 = AXIS2_PLACEMENT_3D ( 'NONE', #381, #82, #278 ) ;
#372 = ORIENTED_EDGE ( 'NONE', *, *, #461, .F. ) ;
#373 = DIRECTION ( 'NONE',  ( 1.000000000000000000, 0.000000000000000000, 0.000000000000000000 ) ) ;
#374 = EDGE_CURVE ( 'NONE', #610, #640, #597, .T. ) ;
#375 = CARTESIAN_POINT ( 'NONE',  ( 14.99999999999999467, 0.000000000000000000, -9.999999999999996447 ) ) ;
#376 = ORIENTED_EDGE ( 'NONE', *, *, #485, .F. ) ;
#377 = FACE_OUTER_BOUND ( 'NONE', #83, .T. ) ;
#378 = CARTESIAN_POINT ( 'NONE',  ( 14.99999999999999289, 6.250000000000000000, 0.000000000000000000 ) ) ;
#379 = VECTOR ( 'NONE', #387, 1000.000000000000000 ) ;
#380 = DIRECTION ( 'NONE',  ( 0.000000000000000000, 0.000000000000000000, -1.000000000000000000 ) ) ;
#381 = CARTESIAN_POINT ( 'NONE',  ( 24.00000000000000000, 6.250000000000000000, 0.000000000000000000 ) ) ;
#382 = ORIENTED_EDGE ( 'NONE', *, *, #139, .T. ) ;
#383 = CARTESIAN_POINT ( 'NONE',  ( -24.00000000000000000, 6.250000000000000000, 0.000000000000000000 ) ) ;
#384 = ORIENTED_EDGE ( 'NONE', *, *, #611, .F. ) ;
#385 = CARTESIAN_POINT ( 'NONE',  ( -15.00000000000000355, 12.50000000000000000, -9.999999999999998224 ) ) ;
#386 = ORIENTED_EDGE ( 'NONE', *, *, #366, .T. ) ;
#387 = DIRECTION ( 'NONE',  ( 1.000000000000000000, -0.000000000000000000, 0.000000000000000000 ) ) ;
#388 = ORIENTED_EDGE ( 'NONE', *, *, #484, .F. ) ;
#389 = ADVANCED_FACE ( 'NONE', ( #17 ), #108, .T. ) ;
#390 = CARTESIAN_POINT ( 'NONE',  ( 24.00000000000000000, 6.250000000000000000, -4.500000000000000000 ) ) ;
#391 = ORIENTED_EDGE ( 'NONE', *, *, #630, .T. ) ;
#392 = DIRECTION ( 'NONE',  ( 0.000000000000000000, 0.000000000000000000, -1.000000000000000000 ) ) ;
#393 = FACE_OUTER_BOUND ( 'NONE', #338, .T. ) ;
#394 = CIRCLE ( 'NONE', #56, 4.500000000000000000 ) ;
#395 = ADVANCED_FACE ( 'NONE', ( #458 ), #10, .F. ) ;
#396 = VERTEX_POINT ( 'NONE', #616 ) ;
#397 = AXIS2_PLACEMENT_3D ( 'NONE', #306, #53, #198 ) ;
#398 = CARTESIAN_POINT ( 'NONE',  ( 11.27592803942835253, 12.50000000000000000, 30.98307920228045376 ) ) ;
#399 = VERTEX_POINT ( 'NONE', #12 ) ;
#400 = ADVANCED_FACE ( 'NONE', ( #510, #613 ), #264, .F. ) ;
#401 = AXIS2_PLACEMENT_3D ( 'NONE', #507, #120, #57 ) ;
#402 = LINE ( 'NONE', #104, #25 ) ;
#403 = ORIENTED_EDGE ( 'NONE', *, *, #353, .T. ) ;
#404 = FACE_OUTER_BOUND ( 'NONE', #286, .T. ) ;
#405 = ORIENTED_EDGE ( 'NONE', *, *, #160, .T. ) ;
#406 = LINE ( 'NONE', #609, #162 ) ;
#407 = VECTOR ( 'NONE', #217, 1000.000000000000000 ) ;
#408 = ORIENTED_EDGE ( 'NONE', *, *, #505, .F. ) ;
#409 = CARTESIAN_POINT ( 'NONE',  ( -11.27592803942836497, 12.50000000000000000, 30.98307920228045376 ) ) ;
#410 = CARTESIAN_POINT ( 'NONE',  ( -10.28202873390387140, 11.93676998712913573, 32.65770440360383731 ) ) ;
#411 = EDGE_CURVE ( 'NONE', #236, #494, #313, .T. ) ;
#412 =( NAMED_UNIT ( * ) PLANE_ANGLE_UNIT ( ) SI_UNIT ( $, .RADIAN. ) );
#413 = DIRECTION ( 'NONE',  ( 1.000000000000000000, 0.000000000000000000, 0.000000000000000000 ) ) ;
#414 = LINE ( 'NONE', #161, #561 ) ;
#415 = LINE ( 'NONE', #320, #43 ) ;
#416 = ADVANCED_FACE ( 'NONE', ( #114 ), #562, .T. ) ;
#417 = ORIENTED_EDGE ( 'NONE', *, *, #269, .F. ) ;
#418 = SURFACE_STYLE_USAGE ( .BOTH. , #223 ) ;
#419 = CARTESIAN_POINT ( 'NONE',  ( -11.35000000000000675, 12.50000000000000000, 12.00000000000000178 ) ) ;
#420 = LINE ( 'NONE', #188, #523 ) ;
#421 = PRESENTATION_LAYER_ASSIGNMENT (  '', '', ( #622 ) ) ;
#422 = VERTEX_POINT ( 'NONE', #513 ) ;
#423 = DIRECTION ( 'NONE',  ( 0.000000000000000000, 0.000000000000000000, -1.000000000000000000 ) ) ;
#424 = CYLINDRICAL_SURFACE ( 'NONE', #109, 2.000000000000000000 ) ;
#425 = CIRCLE ( 'NONE', #478, 4.500000000000000000 ) ;
#426 = CARTESIAN_POINT ( 'NONE',  ( -24.00000000000000000, 6.250000000000000000, 0.000000000000000000 ) ) ;
#427 = CARTESIAN_POINT ( 'NONE',  ( 0.000000000000000000, 0.000000000000000000, 0.000000000000000000 ) ) ;
#428 = CARTESIAN_POINT ( 'NONE',  ( -11.35000000000000320, 0.000000000000000000, 35.13971123760982351 ) ) ;
#429 = CARTESIAN_POINT ( 'NONE',  ( 10.52157287525379559, 0.000000000000000000, 36.00000000000000000 ) ) ;
#430 = ORIENTED_EDGE ( 'NONE', *, *, #491, .F. ) ;
#431 = CARTESIAN_POINT ( 'NONE',  ( -11.35000000000000142, 11.03925985103994201, 32.90900724170881375 ) ) ;
#432 = ORIENTED_EDGE ( 'NONE', *, *, #38, .T. ) ;
#433 = AXIS2_PLACEMENT_3D ( 'NONE', #165, #113, #576 ) ;
#434 = PLANE ( 'NONE',  #312 ) ;
#435 = CARTESIAN_POINT ( 'NONE',  ( 11.34999999999999254, 0.000000000000000000, 12.00000000000000178 ) ) ;
#436 = VERTEX_POINT ( 'NONE', #110 ) ;
#437 = DIRECTION ( 'NONE',  ( -0.000000000000000000, -1.000000000000000000, -0.000000000000000000 ) ) ;
#438 = VECTOR ( 'NONE', #287, 1000.000000000000000 ) ;
#439 = EDGE_LOOP ( 'NONE', ( #46, #300, #327, #55 ) ) ;
#440 = CARTESIAN_POINT ( 'NONE',  ( 11.34999999999998899, 0.000000000000000000, 33.92307920228045504 ) ) ;
#441 = APPLICATION_CONTEXT ( 'automotive_design' ) ;
#442 = DIRECTION ( 'NONE',  ( 1.000000000000000000, 0.000000000000000000, 0.000000000000000000 ) ) ;
#443 = EDGE_CURVE ( 'NONE', #586, #136, #28, .T. ) ;
#444 = EDGE_LOOP ( 'NONE', ( #204, #575 ) ) ;
#445 = CARTESIAN_POINT ( 'NONE',  ( -13.35000000000000853, 12.50000000000000000, 10.00000000000000178 ) ) ;
#446 = EDGE_LOOP ( 'NONE', ( #155, #32, #582, #376 ) ) ;
#447 = PLANE ( 'NONE',  #450 ) ;
#448 = ORIENTED_EDGE ( 'NONE', *, *, #341, .T. ) ;
#449 = DIRECTION ( 'NONE',  ( 1.000000000000000000, 0.000000000000000000, 0.000000000000000000 ) ) ;
#450 = AXIS2_PLACEMENT_3D ( 'NONE', #497, #243, #201 ) ;
#451 = CARTESIAN_POINT ( 'NONE',  ( -11.27592803942836497, 12.50000000000000000, 30.98307920228045376 ) ) ;
#452 = ORIENTED_EDGE ( 'NONE', *, *, #461, .T. ) ;
#453 = ORIENTED_EDGE ( 'NONE', *, *, #268, .T. ) ;
#454 =( GEOMETRIC_REPRESENTATION_CONTEXT ( 3 ) GLOBAL_UNCERTAINTY_ASSIGNED_CONTEXT ( ( #567 ) ) GLOBAL_UNIT_ASSIGNED_CONTEXT ( ( #273, #412, #328 ) ) REPRESENTATION_CONTEXT ( 'NONE', 'WORKASPACE' ) );
#455 = VECTOR ( 'NONE', #585, 999.9999999999998863 ) ;
#456 = EDGE_CURVE ( 'NONE', #489, #302, #259, .T. ) ;
#457 = ORIENTED_EDGE ( 'NONE', *, *, #281, .T. ) ;
#458 = FACE_OUTER_BOUND ( 'NONE', #246, .T. ) ;
#459 = VECTOR ( 'NONE', #467, 999.9999999999998863 ) ;
#460 = DIRECTION ( 'NONE',  ( 8.673617379884034239E-17, 0.000000000000000000, 1.000000000000000000 ) ) ;
#461 = EDGE_CURVE ( 'NONE', #93, #608, #414, .T. ) ;
#462 = APPLICATION_PROTOCOL_DEFINITION ( 'draft international standard', 'automotive_design', 1998, #441 ) ;
#463 = DIRECTION ( 'NONE',  ( -1.000000000000000000, -0.000000000000000000, -5.782411586589357392E-17 ) ) ;
#464 =( BOUNDED_CURVE ( )  B_SPLINE_CURVE ( 3, ( #645, #500, #600, #451 ),
 .UNSPECIFIED., .F., .T. ) 
 B_SPLINE_CURVE_WITH_KNOTS ( ( 4, 4 ),
 ( 4.712388980384689674, 4.985397683471399333 ),
 .UNSPECIFIED. ) 
 CURVE ( )  GEOMETRIC_REPRESENTATION_ITEM ( )  RATIONAL_B_SPLINE_CURVE ( ( 1.000000000000000000, 0.9937984925984919560, 0.9937984925984919560, 1.000000000000000000 ) ) 
 REPRESENTATION_ITEM ( '' )  );
#465 =( NAMED_UNIT ( * ) SI_UNIT ( $, .STERADIAN. ) SOLID_ANGLE_UNIT ( ) );
#466 = DIRECTION ( 'NONE',  ( 1.445602896647339163E-16, 0.000000000000000000, 1.000000000000000000 ) ) ;
#467 = DIRECTION ( 'NONE',  ( -3.897778013544765747E-17, 0.9629640197141817737, -0.2696299255199710587 ) ) ;
#468 = PLANE ( 'NONE',  #433 ) ;
#469 = CARTESIAN_POINT ( 'NONE',  ( -15.00000000000000355, 0.000000000000000000, -9.999999999999998224 ) ) ;
#470 = CARTESIAN_POINT ( 'NONE',  ( 24.00000000000000000, 6.250000000000000888, 4.500000000000000000 ) ) ;
#471 = EDGE_LOOP ( 'NONE', ( #91, #537, #541, #200 ) ) ;
#472 = CARTESIAN_POINT ( 'NONE',  ( 14.99999999999999645, 12.50000000000000000, 10.00000000000000178 ) ) ;
#473 = LINE ( 'NONE', #580, #279 ) ;
#474 = AXIS2_PLACEMENT_3D ( 'NONE', #378, #177, #175 ) ;
#475 = ORIENTED_EDGE ( 'NONE', *, *, #443, .F. ) ;
#476 = FACE_OUTER_BOUND ( 'NONE', #648, .T. ) ;
#477 = VECTOR ( 'NONE', #45, 1000.000000000000000 ) ;
#478 = AXIS2_PLACEMENT_3D ( 'NONE', #250, #47, #492 ) ;
#479 = CARTESIAN_POINT ( 'NONE',  ( 11.02462520132337964, 12.50000000000000000, 31.91510793618433084 ) ) ;
#480 = ORIENTED_EDGE ( 'NONE', *, *, #509, .T. ) ;
#481 = DIRECTION ( 'NONE',  ( 0.000000000000000000, 0.000000000000000000, -1.000000000000000000 ) ) ;
#482 = ORIENTED_EDGE ( 'NONE', *, *, #504, .T. ) ;
#483 = VECTOR ( 'NONE', #248, 999.9999999999998863 ) ;
#484 = EDGE_CURVE ( 'NONE', #52, #399, #84, .T. ) ;
#485 = EDGE_CURVE ( 'NONE', #640, #422, #158, .T. ) ;
#486 = CARTESIAN_POINT ( 'NONE',  ( -10.52157287525380980, 0.000000000000000000, 36.00000000000000711 ) ) ;
#487 = EDGE_LOOP ( 'NONE', ( #482, #601, #343, #453, #178, #549, #386, #432, #452, #36, #194, #150 ) ) ;
#488 = DIRECTION ( 'NONE',  ( 1.000000000000000000, 0.000000000000000000, 5.782411586589358625E-17 ) ) ;
#489 = VERTEX_POINT ( 'NONE', #65 ) ;
#490 = CARTESIAN_POINT ( 'NONE',  ( -13.35000000000000675, 0.000000000000000000, 12.00000000000000178 ) ) ;
#491 = EDGE_CURVE ( 'NONE', #133, #105, #363, .T. ) ;
#492 = DIRECTION ( 'NONE',  ( 0.000000000000000000, 0.000000000000000000, 1.000000000000000000 ) ) ;
#493 = CIRCLE ( 'NONE', #546, 2.000000000000000000 ) ;
#494 = VERTEX_POINT ( 'NONE', #164 ) ;
#495 = CARTESIAN_POINT ( 'NONE',  ( 11.34999999999998899, 12.50000000000000000, 30.98307920228045376 ) ) ;
#496 = VERTEX_POINT ( 'NONE', #518 ) ;
#497 = CARTESIAN_POINT ( 'NONE',  ( 13.34999999999999432, 12.50000000000000000, 10.00000000000000178 ) ) ;
#498 = ORIENTED_EDGE ( 'NONE', *, *, #281, .F. ) ;
#499 = DIRECTION ( 'NONE',  ( 1.000000000000000000, 0.000000000000000000, -1.051347561198069149E-15 ) ) ;
#500 = CARTESIAN_POINT ( 'NONE',  ( -11.35000000000000320, 12.50000000000000000, 30.61267437118129919 ) ) ;
#501 = EDGE_LOOP ( 'NONE', ( #233, #99, #606, #503 ) ) ;
#502 = DIRECTION ( 'NONE',  ( -0.000000000000000000, -1.000000000000000000, -0.000000000000000000 ) ) ;
#503 = ORIENTED_EDGE ( 'NONE', *, *, #536, .F. ) ;
#504 = EDGE_CURVE ( 'NONE', #136, #619, #265, .T. ) ;
#505 = EDGE_CURVE ( 'NONE', #289, #236, #87, .T. ) ;
#506 = ORIENTED_EDGE ( 'NONE', *, *, #254, .T. ) ;
#507 = CARTESIAN_POINT ( 'NONE',  ( 9.349999999999990763, 17.28344044569596605, 29.08371587748558085 ) ) ;
#508 = AXIS2_PLACEMENT_3D ( 'NONE', #147, #594, #143 ) ;
#509 = EDGE_CURVE ( 'NONE', #26, #489, #67, .T. ) ;
#510 = FACE_BOUND ( 'NONE', #277, .T. ) ;
#511 = EDGE_CURVE ( 'NONE', #624, #103, #473, .T. ) ;
#512 =( LENGTH_UNIT ( ) NAMED_UNIT ( * ) SI_UNIT ( .MILLI., .METRE. ) );
#513 = CARTESIAN_POINT ( 'NONE',  ( -15.00000000000000355, 6.250000000000000000, -4.500000000000000000 ) ) ;
#514 = DIRECTION ( 'NONE',  ( -0.000000000000000000, -1.000000000000000000, -0.000000000000000000 ) ) ;
#515 = DIRECTION ( 'NONE',  ( -1.445602896647339410E-16, 0.000000000000000000, 1.000000000000000000 ) ) ;
#516 = CYLINDRICAL_SURFACE ( 'NONE', #262, 2.000000000000001776 ) ;
#517 = DIRECTION ( 'NONE',  ( -8.673617379884036705E-17, -0.000000000000000000, -1.000000000000000000 ) ) ;
#518 = CARTESIAN_POINT ( 'NONE',  ( 14.99999999999999289, 6.250000000000000000, -4.500000000000000000 ) ) ;
#519 = DIRECTION ( 'NONE',  ( 1.000000000000000000, 0.000000000000000000, -8.673617379884035472E-17 ) ) ;
#520 = VERTEX_POINT ( 'NONE', #435 ) ;
#521 = CARTESIAN_POINT ( 'NONE',  ( -11.35000000000000320, 12.50000000000000000, 30.42307920228045504 ) ) ;
#522 = LINE ( 'NONE', #224, #311 ) ;
#523 = VECTOR ( 'NONE', #543, 1000.000000000000000 ) ;
#524 = CARTESIAN_POINT ( 'NONE',  ( 14.99999999999999467, 12.50000000000000000, -9.999999999999996447 ) ) ;
#525 = ORIENTED_EDGE ( 'NONE', *, *, #206, .F. ) ;
#526 = CARTESIAN_POINT ( 'NONE',  ( 13.34999999999999254, 0.000000000000000000, 12.00000000000000178 ) ) ;
#527 = CARTESIAN_POINT ( 'NONE',  ( 9.349999999999990763, 0.000000000000000000, 36.00000000000000711 ) ) ;
#528 = CARTESIAN_POINT ( 'NONE',  ( -11.35000000000000320, 0.000000000000000000, 36.00000000000000711 ) ) ;
#529 = EDGE_LOOP ( 'NONE', ( #480, #148, #372, #307 ) ) ;
#530 = EDGE_CURVE ( 'NONE', #129, #88, #152, .T. ) ;
#531 = AXIS2_PLACEMENT_3D ( 'NONE', #192, #214, #564 ) ;
#532 = DIRECTION ( 'NONE',  ( 1.000000000000000000, 0.000000000000000000, 0.000000000000000000 ) ) ;
#533 = FACE_OUTER_BOUND ( 'NONE', #2, .T. ) ;
#534 = ORIENTED_EDGE ( 'NONE', *, *, #325, .F. ) ;
#535 = CARTESIAN_POINT ( 'NONE',  ( -11.35000000000000675, 12.50000000000000000, 12.00000000000000178 ) ) ;
#536 = EDGE_CURVE ( 'NONE', #105, #133, #394, .T. ) ;
#537 = ORIENTED_EDGE ( 'NONE', *, *, #511, .F. ) ;
#538 = CARTESIAN_POINT ( 'NONE',  ( 13.34999999999999254, 0.000000000000000000, 12.00000000000000178 ) ) ;
#539 = VECTOR ( 'NONE', #78, 1000.000000000000000 ) ;
#540 = CYLINDRICAL_SURFACE ( 'NONE', #531, 4.500000000000000000 ) ;
#541 = ORIENTED_EDGE ( 'NONE', *, *, #366, .F. ) ;
#542 = VECTOR ( 'NONE', #3, 1000.000000000000000 ) ;
#543 = DIRECTION ( 'NONE',  ( 1.445602896647339163E-16, -0.000000000000000000, -1.000000000000000000 ) ) ;
#544 = ORIENTED_EDGE ( 'NONE', *, *, #268, .F. ) ;
#545 = PLANE ( 'NONE',  #508 ) ;
#546 = AXIS2_PLACEMENT_3D ( 'NONE', #538, #437, #100 ) ;
#547 = ORIENTED_EDGE ( 'NONE', *, *, #115, .T. ) ;
#548 = DIRECTION ( 'NONE',  ( 1.445602896647339163E-16, -0.000000000000000000, -1.000000000000000000 ) ) ;
#549 = ORIENTED_EDGE ( 'NONE', *, *, #505, .T. ) ;
#550 = PLANE ( 'NONE',  #397 ) ;
#551 = ORIENTED_EDGE ( 'NONE', *, *, #557, .F. ) ;
#552 = CARTESIAN_POINT ( 'NONE',  ( 11.32515527170972902, 12.50000000000000000, 30.80050587631730608 ) ) ;
#553 = EDGE_CURVE ( 'NONE', #496, #133, #522, .T. ) ;
#554 = EDGE_LOOP ( 'NONE', ( #556, #294, #101, #231 ) ) ;
#555 = CARTESIAN_POINT ( 'NONE',  ( 13.34999999999999432, 12.50000000000000000, 10.00000000000000178 ) ) ;
#556 = ORIENTED_EDGE ( 'NONE', *, *, #19, .F. ) ;
#557 = EDGE_CURVE ( 'NONE', #7, #496, #342, .T. ) ;
#558 = DIRECTION ( 'NONE',  ( 0.000000000000000000, 0.000000000000000000, -1.000000000000000000 ) ) ;
#559 = AXIS2_PLACEMENT_3D ( 'NONE', #526, #132, #632 ) ;
#560 = VECTOR ( 'NONE', #337, 1000.000000000000000 ) ;
#561 = VECTOR ( 'NONE', #463, 1000.000000000000000 ) ;
#562 = CYLINDRICAL_SURFACE ( 'NONE', #401, 2.000000000000000888 ) ;
#563 = CARTESIAN_POINT ( 'NONE',  ( -24.00000000000000000, 6.250000000000000000, 0.000000000000000000 ) ) ;
#564 = DIRECTION ( 'NONE',  ( 0.000000000000000000, 0.000000000000000000, -1.000000000000000000 ) ) ;
#565 = CYLINDRICAL_SURFACE ( 'NONE', #593, 2.000000000000000000 ) ;
#566 = DIRECTION ( 'NONE',  ( 0.000000000000000000, 0.000000000000000000, 1.000000000000000000 ) ) ;
#567 = UNCERTAINTY_MEASURE_WITH_UNIT (LENGTH_MEASURE( 1.000000000000000082E-05 ), #273, 'distance_accuracy_value', 'NONE');
#568 = DIRECTION ( 'NONE',  ( 0.000000000000000000, 0.000000000000000000, 1.000000000000000000 ) ) ;
#569 = ADVANCED_FACE ( 'NONE', ( #533 ), #424, .F. ) ;
#570 = ADVANCED_FACE ( 'NONE', ( #476 ), #329, .F. ) ;
#571 = EDGE_LOOP ( 'NONE', ( #74, #296 ) ) ;
#572 = CARTESIAN_POINT ( 'NONE',  ( 14.99999999999999467, 12.50000000000000000, -9.999999999999996447 ) ) ;
#573 = LINE ( 'NONE', #181, #455 ) ;
#574 = FACE_OUTER_BOUND ( 'NONE', #446, .T. ) ;
#575 = ORIENTED_EDGE ( 'NONE', *, *, #536, .T. ) ;
#576 = DIRECTION ( 'NONE',  ( -1.000000000000000000, 0.000000000000000000, 1.051347561198069149E-15 ) ) ;
#577 = CARTESIAN_POINT ( 'NONE',  ( 24.00000000000000000, 6.250000000000000000, 0.000000000000000000 ) ) ;
#578 = VECTOR ( 'NONE', #499, 1000.000000000000000 ) ;
#579 = CARTESIAN_POINT ( 'NONE',  ( 9.349999999999990763, 0.000000000000000000, 36.00000000000000711 ) ) ;
#580 = CARTESIAN_POINT ( 'NONE',  ( 14.99999999999999645, 12.50000000000000000, 10.00000000000000178 ) ) ;
#581 = ADVANCED_FACE ( 'NONE', ( #76 ), #331, .T. ) ;
#582 = ORIENTED_EDGE ( 'NONE', *, *, #254, .F. ) ;
#583 = PLANE ( 'NONE',  #602 ) ;
#584 = ORIENTED_EDGE ( 'NONE', *, *, #484, .T. ) ;
#585 = DIRECTION ( 'NONE',  ( 3.897778013544765747E-17, -0.9629640197141817737, 0.2696299255199710587 ) ) ;
#586 = VERTEX_POINT ( 'NONE', #31 ) ;
#587 = CARTESIAN_POINT ( 'NONE',  ( -11.35000000000000675, 0.000000000000000000, 12.00000000000000178 ) ) ;
#588 = EDGE_LOOP ( 'NONE', ( #44, #544, #216, #357, #304 ) ) ;
#589 = LINE ( 'NONE', #234, #477 ) ;
#590 = CYLINDRICAL_SURFACE ( 'NONE', #595, 2.000000000000000444 ) ;
#591 = VERTEX_POINT ( 'NONE', #285 ) ;
#592 = CARTESIAN_POINT ( 'NONE',  ( -15.00000000000000178, 12.50000000000000000, 10.00000000000000355 ) ) ;
#593 = AXIS2_PLACEMENT_3D ( 'NONE', #75, #514, #228 ) ;
#594 = DIRECTION ( 'NONE',  ( 1.000000000000000000, 0.000000000000000000, -1.445602896647339410E-16 ) ) ;
#595 = AXIS2_PLACEMENT_3D ( 'NONE', #303, #253, #355 ) ;
#596 = EDGE_LOOP ( 'NONE', ( #391, #291, #646, #345 ) ) ;
#597 = CIRCLE ( 'NONE', #172, 4.500000000000000000 ) ;
#598 = LINE ( 'NONE', #339, #578 ) ;
#599 = ORIENTED_EDGE ( 'NONE', *, *, #153, .T. ) ;
#600 = CARTESIAN_POINT ( 'NONE',  ( -11.32515527170974146, 12.50000000000000000, 30.80050587631730608 ) ) ;
#601 = ORIENTED_EDGE ( 'NONE', *, *, #269, .T. ) ;
#602 = AXIS2_PLACEMENT_3D ( 'NONE', #266, #519, #623 ) ;
#603 = CARTESIAN_POINT ( 'NONE',  ( 11.34999999999998899, 12.50000000000000000, 30.42307920228045504 ) ) ;
#604 = EDGE_CURVE ( 'NONE', #129, #5, #22, .T. ) ;
#605 = EDGE_CURVE ( 'NONE', #436, #52, #232, .T. ) ;
#606 = ORIENTED_EDGE ( 'NONE', *, *, #553, .T. ) ;
#607 = PRODUCT_DEFINITION_FORMATION_WITH_SPECIFIED_SOURCE ( 'ANY', '', #98, .NOT_KNOWN. ) ;
#608 = VERTEX_POINT ( 'NONE', #385 ) ;
#609 = CARTESIAN_POINT ( 'NONE',  ( -24.00000000000000000, 6.250000000000000888, 4.500000000000000000 ) ) ;
#610 = VERTEX_POINT ( 'NONE', #288 ) ;
#611 = EDGE_CURVE ( 'NONE', #52, #129, #573, .T. ) ;
#612 = AXIS2_PLACEMENT_3D ( 'NONE', #426, #18, #380 ) ;
#613 = FACE_OUTER_BOUND ( 'NONE', #596, .T. ) ;
#614 = DIRECTION ( 'NONE',  ( 1.000000000000000000, 0.000000000000000000, 0.000000000000000000 ) ) ;
#615 = PRESENTATION_STYLE_ASSIGNMENT (( #418 ) ) ;
#616 = CARTESIAN_POINT ( 'NONE',  ( -15.00000000000000355, 6.250000000000000888, 4.500000000000000000 ) ) ;
#617 = ADVANCED_FACE ( 'NONE', ( #34 ), #235, .F. ) ;
#618 = CARTESIAN_POINT ( 'NONE',  ( -11.35000000000000320, 0.000000000000000000, 33.92307920228045504 ) ) ;
#619 = VERTEX_POINT ( 'NONE', #521 ) ;
#620 = PRODUCT_CONTEXT ( 'NONE', #213, 'mechanical' ) ;
#621 = DIRECTION ( 'NONE',  ( -1.000000000000000000, 0.000000000000000000, -1.445602896647339410E-16 ) ) ;
#622 = STYLED_ITEM ( 'NONE', ( #615 ), #628 ) ;
#623 = DIRECTION ( 'NONE',  ( -8.673617379884035472E-17, 0.000000000000000000, -1.000000000000000000 ) ) ;
#624 = VERTEX_POINT ( 'NONE', #472 ) ;
#625 = DIRECTION ( 'NONE',  ( 1.000000000000000000, 0.000000000000000000, 0.000000000000000000 ) ) ;
#626 = AXIS2_PLACEMENT_3D ( 'NONE', #169, #267, #316 ) ;
#627 = ADVANCED_FACE ( 'NONE', ( #368 ), #565, .F. ) ;
#628 = MANIFOLD_SOLID_BREP ( 'Boss-Extrude2', #116 ) ;
#629 = CARTESIAN_POINT ( 'NONE',  ( -15.00000000000000178, 12.50000000000000000, 10.00000000000000355 ) ) ;
#630 = EDGE_CURVE ( 'NONE', #103, #26, #117, .T. ) ;
#631 = DIRECTION ( 'NONE',  ( 1.000000000000000000, 0.000000000000000000, 0.000000000000000000 ) ) ;
#632 = DIRECTION ( 'NONE',  ( 0.000000000000000000, -0.000000000000000000, 1.000000000000000000 ) ) ;
#633 = AXIS2_PLACEMENT_3D ( 'NONE', #647, #92, #292 ) ;
#634 = FACE_OUTER_BOUND ( 'NONE', #284, .T. ) ;
#635 = ORIENTED_EDGE ( 'NONE', *, *, #189, .F. ) ;
#636 = DIRECTION ( 'NONE',  ( -1.000000000000000000, -0.000000000000000000, -0.000000000000000000 ) ) ;
#637 = ORIENTED_EDGE ( 'NONE', *, *, #134, .F. ) ;
#638 = LINE ( 'NONE', #135, #560 ) ;
#639 = ORIENTED_EDGE ( 'NONE', *, *, #154, .T. ) ;
#640 = VERTEX_POINT ( 'NONE', #174 ) ;
#641 = DIRECTION ( 'NONE',  ( 0.000000000000000000, 0.000000000000000000, -1.000000000000000000 ) ) ;
#642 = ORIENTED_EDGE ( 'NONE', *, *, #509, .F. ) ;
#643 = EDGE_CURVE ( 'NONE', #93, #26, #119, .T. ) ;
#644 = CARTESIAN_POINT ( 'NONE',  ( -11.35000000000000675, 0.000000000000000000, 12.00000000000000178 ) ) ;
#645 = CARTESIAN_POINT ( 'NONE',  ( -11.35000000000000320, 12.50000000000000000, 30.42307920228045504 ) ) ;
#646 = ORIENTED_EDGE ( 'NONE', *, *, #38, .F. ) ;
#647 = CARTESIAN_POINT ( 'NONE',  ( -15.00000000000000355, 6.250000000000000000, 0.000000000000000000 ) ) ;
#648 = EDGE_LOOP ( 'NONE', ( #244, #222, #635, #196, #1, #258, #642, #30, #525, #637, #71, #141 ) ) ;
#649 = CARTESIAN_POINT ( 'NONE',  ( -15.00000000000000178, 0.000000000000000000, 10.00000000000000355 ) ) ;
#650 = EDGE_LOOP ( 'NONE', ( #506, #599 ) ) ;
#651 = VECTOR ( 'NONE', #13, 1000.000000000000000 ) ;
#652 = CARTESIAN_POINT ( 'NONE',  ( 13.34999999999999432, 0.000000000000000000, 10.00000000000000178 ) ) ;
#653 = ADVANCED_FACE ( 'NONE', ( #377 ), #468, .F. ) ;
#654 = FACE_OUTER_BOUND ( 'NONE', #439, .T. ) ;
ENDSEC;
END-ISO-10303-21;
