ISO-10303-21;
HEADER;
FILE_DESCRIPTION (( 'STEP AP214' ),
    '1' );
FILE_NAME ('Walker_Front_to_Center_Beam.STEP',
    '2026-08-11T21:04:11',
    ( '' ),
    ( '' ),
    'SwSTEP 2.0',
    'SolidWorks 2023',
    '' );
FILE_SCHEMA (( 'AUTOMOTIVE_DESIGN' ));
ENDSEC;

DATA;
#1 = DIRECTION ( 'NONE',  ( 1.000000000000000000, 0.000000000000000000, 0.000000000000000000 ) ) ;
#2 = ORIENTED_EDGE ( 'NONE', *, *, #207, .F. ) ;
#3 = CIRCLE ( 'NONE', #68, 7.999999999999992895 ) ;
#4 = DIRECTION ( 'NONE',  ( -1.000000000000000000, -0.000000000000000000, -0.000000000000000000 ) ) ;
#5 = ORIENTED_EDGE ( 'NONE', *, *, #239, .T. ) ;
#6 = CIRCLE ( 'NONE', #60, 7.999999999999992895 ) ;
#7 = CARTESIAN_POINT ( 'NONE',  ( 0.000000000000000000, -8.100000000000006750, 97.00000000000000000 ) ) ;
#8 = ORIENTED_EDGE ( 'NONE', *, *, #442, .T. ) ;
#9 = LINE ( 'NONE', #214, #335 ) ;
#10 = ADVANCED_BREP_SHAPE_REPRESENTATION ( 'Walker_Front_to_Center_Beam', ( #426, #324 ), #318 ) ;
#11 = VERTEX_POINT ( 'NONE', #191 ) ;
#12 = DIRECTION ( 'NONE',  ( 1.000000000000000000, 0.000000000000000000, 0.000000000000000000 ) ) ;
#13 = VERTEX_POINT ( 'NONE', #266 ) ;
#14 = CIRCLE ( 'NONE', #411, 3.000000000000002665 ) ;
#15 = ORIENTED_EDGE ( 'NONE', *, *, #283, .T. ) ;
#16 = EDGE_CURVE ( 'NONE', #424, #264, #336, .T. ) ;
#17 = DIRECTION ( 'NONE',  ( -1.000000000000000000, -0.000000000000000000, -0.000000000000000000 ) ) ;
#18 = EDGE_LOOP ( 'NONE', ( #118, #67 ) ) ;
#19 = AXIS2_PLACEMENT_3D ( 'NONE', #321, #1, #187 ) ;
#20 = ORIENTED_EDGE ( 'NONE', *, *, #265, .F. ) ;
#21 = CYLINDRICAL_SURFACE ( 'NONE', #172, 8.000000000000007105 ) ;
#22 = CARTESIAN_POINT ( 'NONE',  ( 3.000000000000000000, 0.09999999999998204769, -96.99999999999992895 ) ) ;
#23 = LINE ( 'NONE', #391, #437 ) ;
#24 = DIRECTION ( 'NONE',  ( 1.000000000000000000, 0.000000000000000000, 0.000000000000000000 ) ) ;
#25 = EDGE_CURVE ( 'NONE', #297, #462, #269, .T. ) ;
#26 = EDGE_CURVE ( 'NONE', #149, #261, #84, .T. ) ;
#27 = AXIS2_PLACEMENT_3D ( 'NONE', #310, #235, #277 ) ;
#28 = CARTESIAN_POINT ( 'NONE',  ( 0.000000000000000000, -0.1000000000000098033, 97.00000000000005684 ) ) ;
#29 = DIRECTION ( 'NONE',  ( 0.000000000000000000, 0.000000000000000000, -1.000000000000000000 ) ) ;
#30 = CARTESIAN_POINT ( 'NONE',  ( 3.000000000000000000, -8.100000000000010303, -96.99999999999985789 ) ) ;
#31 = DIRECTION ( 'NONE',  ( 1.000000000000000000, 0.000000000000000000, -0.000000000000000000 ) ) ;
#32 = DIRECTION ( 'NONE',  ( 0.000000000000000000, -1.000000000000000000, 0.000000000000000000 ) ) ;
#33 = AXIS2_PLACEMENT_3D ( 'NONE', #180, #249, #41 ) ;
#34 = DIRECTION ( 'NONE',  ( 0.000000000000000000, 0.000000000000000000, 1.000000000000000000 ) ) ;
#35 = ORIENTED_EDGE ( 'NONE', *, *, #16, .T. ) ;
#36 = DIRECTION ( 'NONE',  ( -1.000000000000000000, -0.000000000000000000, -0.000000000000000000 ) ) ;
#37 = ORIENTED_EDGE ( 'NONE', *, *, #345, .T. ) ;
#38 = AXIS2_PLACEMENT_3D ( 'NONE', #390, #473, #438 ) ;
#39 = CARTESIAN_POINT ( 'NONE',  ( 3.000000000000000000, 0.09999999999998240852, -99.99999999999994316 ) ) ;
#40 = EDGE_LOOP ( 'NONE', ( #37, #439, #188, #248 ) ) ;
#41 = DIRECTION ( 'NONE',  ( 0.000000000000000000, 0.000000000000000000, -1.000000000000000000 ) ) ;
#42 = ORIENTED_EDGE ( 'NONE', *, *, #396, .T. ) ;
#43 = CARTESIAN_POINT ( 'NONE',  ( 3.000000000000000000, 0.09999999999993174071, -104.9999999999999289 ) ) ;
#44 = ORIENTED_EDGE ( 'NONE', *, *, #274, .T. ) ;
#45 = ADVANCED_FACE ( 'NONE', ( #47 ), #234, .T. ) ;
#46 = EDGE_LOOP ( 'NONE', ( #461, #42, #369, #70 ) ) ;
#47 = FACE_OUTER_BOUND ( 'NONE', #270, .T. ) ;
#48 = ORIENTED_EDGE ( 'NONE', *, *, #207, .T. ) ;
#49 = ORIENTED_EDGE ( 'NONE', *, *, #306, .T. ) ;
#50 = EDGE_CURVE ( 'NONE', #258, #190, #459, .T. ) ;
#51 = CIRCLE ( 'NONE', #137, 7.999999999999992895 ) ;
#52 = DIRECTION ( 'NONE',  ( 0.000000000000000000, 0.000000000000000000, -1.000000000000000000 ) ) ;
#53 = AXIS2_PLACEMENT_3D ( 'NONE', #132, #24, #96 ) ;
#54 = DIRECTION ( 'NONE',  ( -0.000000000000000000, 1.000000000000000000, 0.000000000000000000 ) ) ;
#55 = CARTESIAN_POINT ( 'NONE',  ( 3.000000000000000000, 0.09999999999991092403, 105.0000000000000568 ) ) ;
#56 = ORIENTED_EDGE ( 'NONE', *, *, #469, .T. ) ;
#57 = EDGE_CURVE ( 'NONE', #122, #286, #373, .T. ) ;
#58 = LINE ( 'NONE', #428, #457 ) ;
#59 = LINE ( 'NONE', #279, #204 ) ;
#60 = AXIS2_PLACEMENT_3D ( 'NONE', #312, #31, #139 ) ;
#61 = PLANE ( 'NONE',  #80 ) ;
#62 = DIRECTION ( 'NONE',  ( 0.000000000000000000, 0.000000000000000000, -1.000000000000000000 ) ) ;
#63 = CARTESIAN_POINT ( 'NONE',  ( 3.000000000000000000, 8.099999999999981881, -96.99999999999987210 ) ) ;
#64 = DIRECTION ( 'NONE',  ( 1.000000000000000000, 0.000000000000000000, 0.000000000000000000 ) ) ;
#65 = DIRECTION ( 'NONE',  ( -1.000000000000000000, -0.000000000000000000, -0.000000000000000000 ) ) ;
#66 =( NAMED_UNIT ( * ) SI_UNIT ( $, .STERADIAN. ) SOLID_ANGLE_UNIT ( ) );
#67 = ORIENTED_EDGE ( 'NONE', *, *, #57, .F. ) ;
#68 = AXIS2_PLACEMENT_3D ( 'NONE', #471, #432, #135 ) ;
#69 = FACE_OUTER_BOUND ( 'NONE', #363, .T. ) ;
#70 = ORIENTED_EDGE ( 'NONE', *, *, #25, .F. ) ;
#71 = CYLINDRICAL_SURFACE ( 'NONE', #148, 7.999999999999992895 ) ;
#72 = VERTEX_POINT ( 'NONE', #344 ) ;
#73 = CARTESIAN_POINT ( 'NONE',  ( 0.000000000000000000, 0.09999999999991092403, 105.0000000000000568 ) ) ;
#74 = ADVANCED_FACE ( 'NONE', ( #379 ), #21, .T. ) ;
#75 = VERTEX_POINT ( 'NONE', #463 ) ;
#76 = DIRECTION ( 'NONE',  ( -1.000000000000000000, -0.000000000000000000, -0.000000000000000000 ) ) ;
#77 = ORIENTED_EDGE ( 'NONE', *, *, #292, .T. ) ;
#78 = CARTESIAN_POINT ( 'NONE',  ( 3.000000000000000000, 0.09999999999998204769, -96.99999999999992895 ) ) ;
#79 = ORIENTED_EDGE ( 'NONE', *, *, #442, .F. ) ;
#80 = AXIS2_PLACEMENT_3D ( 'NONE', #436, #98, #129 ) ;
#81 = DIRECTION ( 'NONE',  ( 1.000000000000000000, 0.000000000000000000, 0.000000000000000000 ) ) ;
#82 = ORIENTED_EDGE ( 'NONE', *, *, #228, .F. ) ;
#83 = CARTESIAN_POINT ( 'NONE',  ( 3.000000000000000000, 8.099999999999981881, 96.99999999999998579 ) ) ;
#84 = LINE ( 'NONE', #83, #422 ) ;
#85 = VECTOR ( 'NONE', #94, 1000.000000000000000 ) ;
#86 = EDGE_LOOP ( 'NONE', ( #119, #367, #194, #44 ) ) ;
#87 = ORIENTED_EDGE ( 'NONE', *, *, #469, .F. ) ;
#88 = LINE ( 'NONE', #30, #284 ) ;
#89 = ORIENTED_EDGE ( 'NONE', *, *, #145, .T. ) ;
#90 = VECTOR ( 'NONE', #275, 1000.000000000000000 ) ;
#91 = PRODUCT_RELATED_PRODUCT_CATEGORY ( 'part', '', ( #365 ) ) ;
#92 = DIRECTION ( 'NONE',  ( 0.000000000000000000, 0.000000000000000000, -1.000000000000000000 ) ) ;
#93 = FACE_OUTER_BOUND ( 'NONE', #163, .T. ) ;
#94 = DIRECTION ( 'NONE',  ( -0.000000000000000000, 1.000000000000000000, -0.000000000000000000 ) ) ;
#95 = DIRECTION ( 'NONE',  ( -1.000000000000000000, -0.000000000000000000, -0.000000000000000000 ) ) ;
#96 = DIRECTION ( 'NONE',  ( 0.000000000000000000, 0.000000000000000000, -1.000000000000000000 ) ) ;
#97 = DIRECTION ( 'NONE',  ( 0.000000000000000000, 0.000000000000000000, 1.000000000000000000 ) ) ;
#98 = DIRECTION ( 'NONE',  ( 0.000000000000000000, 0.000000000000000000, -1.000000000000000000 ) ) ;
#99 = CARTESIAN_POINT ( 'NONE',  ( 0.000000000000000000, 0.09999999999998204769, -93.99999999999992895 ) ) ;
#100 = ORIENTED_EDGE ( 'NONE', *, *, #402, .T. ) ;
#101 = FACE_BOUND ( 'NONE', #450, .T. ) ;
#102 = DIRECTION ( 'NONE',  ( 1.000000000000000000, 0.000000000000000000, 0.000000000000000000 ) ) ;
#103 = VERTEX_POINT ( 'NONE', #349 ) ;
#104 = DIRECTION ( 'NONE',  ( 0.000000000000000000, 0.000000000000000000, -1.000000000000000000 ) ) ;
#105 = EDGE_LOOP ( 'NONE', ( #100, #360, #8, #288, #48, #376, #342, #113 ) ) ;
#106 = ADVANCED_FACE ( 'NONE', ( #315 ), #352, .F. ) ;
#107 = DIRECTION ( 'NONE',  ( 0.000000000000000000, 0.000000000000000000, -1.000000000000000000 ) ) ;
#108 = CARTESIAN_POINT ( 'NONE',  ( 0.000000000000000000, 0.000000000000000000, 0.000000000000000000 ) ) ;
#109 = ORIENTED_EDGE ( 'NONE', *, *, #345, .F. ) ;
#110 = CARTESIAN_POINT ( 'NONE',  ( 3.000000000000000000, -0.1000000000000098033, 97.00000000000005684 ) ) ;
#111 = ORIENTED_EDGE ( 'NONE', *, *, #121, .F. ) ;
#112 = PLANE ( 'NONE',  #343 ) ;
#113 = ORIENTED_EDGE ( 'NONE', *, *, #206, .T. ) ;
#114 = CIRCLE ( 'NONE', #213, 3.000000000000002665 ) ;
#115 = FACE_OUTER_BOUND ( 'NONE', #295, .T. ) ;
#116 = DIRECTION ( 'NONE',  ( -1.000000000000000000, -0.000000000000000000, -0.000000000000000000 ) ) ;
#117 = AXIS2_PLACEMENT_3D ( 'NONE', #240, #389, #92 ) ;
#118 = ORIENTED_EDGE ( 'NONE', *, *, #385, .F. ) ;
#119 = ORIENTED_EDGE ( 'NONE', *, *, #380, .T. ) ;
#120 = VECTOR ( 'NONE', #32, 1000.000000000000000 ) ;
#121 = EDGE_CURVE ( 'NONE', #325, #190, #88, .T. ) ;
#122 = VERTEX_POINT ( 'NONE', #166 ) ;
#123 = EDGE_CURVE ( 'NONE', #122, #456, #134, .T. ) ;
#124 = DIRECTION ( 'NONE',  ( 1.000000000000000000, 0.000000000000000000, 0.000000000000000000 ) ) ;
#125 = LINE ( 'NONE', #434, #405 ) ;
#126 = ADVANCED_FACE ( 'NONE', ( #168 ), #431, .F. ) ;
#127 = FILL_AREA_STYLE ('',( #209 ) ) ;
#128 = PRODUCT_DEFINITION_CONTEXT ( 'detailed design', #195, 'design' ) ;
#129 = DIRECTION ( 'NONE',  ( -1.000000000000000000, 0.000000000000000000, -0.000000000000000000 ) ) ;
#130 = DIRECTION ( 'NONE',  ( 0.000000000000000000, 0.000000000000000000, 1.000000000000000000 ) ) ;
#131 = VECTOR ( 'NONE', #308, 1000.000000000000000 ) ;
#132 = CARTESIAN_POINT ( 'NONE',  ( 0.000000000000000000, -0.1000000000000098033, 97.00000000000005684 ) ) ;
#133 = DIRECTION ( 'NONE',  ( 0.000000000000000000, 0.000000000000000000, -1.000000000000000000 ) ) ;
#134 = LINE ( 'NONE', #245, #131 ) ;
#135 = DIRECTION ( 'NONE',  ( 0.000000000000000000, 0.000000000000000000, -1.000000000000000000 ) ) ;
#136 = EDGE_CURVE ( 'NONE', #453, #325, #125, .T. ) ;
#137 = AXIS2_PLACEMENT_3D ( 'NONE', #141, #81, #455 ) ;
#138 = DIRECTION ( 'NONE',  ( 0.000000000000000000, -0.000000000000000000, -1.000000000000000000 ) ) ;
#139 = DIRECTION ( 'NONE',  ( 0.000000000000000000, 0.000000000000000000, 1.000000000000000000 ) ) ;
#140 = VECTOR ( 'NONE', #17, 1000.000000000000000 ) ;
#141 = CARTESIAN_POINT ( 'NONE',  ( 0.000000000000000000, 0.09999999999998204769, 97.00000000000005684 ) ) ;
#142 = ORIENTED_EDGE ( 'NONE', *, *, #123, .T. ) ;
#143 = LINE ( 'NONE', #366, #327 ) ;
#144 = ORIENTED_EDGE ( 'NONE', *, *, #121, .T. ) ;
#145 = EDGE_CURVE ( 'NONE', #456, #223, #262, .T. ) ;
#146 = PRESENTATION_LAYER_ASSIGNMENT (  '', '', ( #161 ) ) ;
#147 = CARTESIAN_POINT ( 'NONE',  ( 0.000000000000000000, 0.09999999999998240852, -99.99999999999994316 ) ) ;
#148 = AXIS2_PLACEMENT_3D ( 'NONE', #110, #221, #323 ) ;
#149 = VERTEX_POINT ( 'NONE', #63 ) ;
#150 = CARTESIAN_POINT ( 'NONE',  ( 3.000000000000000000, -0.1000000000000098033, 100.0000000000000568 ) ) ;
#151 = AXIS2_PLACEMENT_3D ( 'NONE', #358, #54, #465 ) ;
#152 = ORIENTED_EDGE ( 'NONE', *, *, #385, .T. ) ;
#153 = DIRECTION ( 'NONE',  ( -1.000000000000000000, -0.000000000000000000, -0.000000000000000000 ) ) ;
#154 = ORIENTED_EDGE ( 'NONE', *, *, #193, .F. ) ;
#155 = DIRECTION ( 'NONE',  ( -0.000000000000000000, 0.000000000000000000, 1.000000000000000000 ) ) ;
#156 = ORIENTED_EDGE ( 'NONE', *, *, #311, .F. ) ;
#157 = AXIS2_PLACEMENT_3D ( 'NONE', #43, #155, #263 ) ;
#158 = ORIENTED_EDGE ( 'NONE', *, *, #123, .F. ) ;
#159 = DIRECTION ( 'NONE',  ( -1.000000000000000000, -0.000000000000000000, -0.000000000000000000 ) ) ;
#160 = EDGE_CURVE ( 'NONE', #13, #11, #395, .T. ) ;
#161 = STYLED_ITEM ( 'NONE', ( #203 ), #426 ) ;
#162 = ORIENTED_EDGE ( 'NONE', *, *, #387, .T. ) ;
#163 = EDGE_LOOP ( 'NONE', ( #56, #307, #331, #401 ) ) ;
#164 = AXIS2_PLACEMENT_3D ( 'NONE', #28, #433, #355 ) ;
#165 = UNCERTAINTY_MEASURE_WITH_UNIT (LENGTH_MEASURE( 1.000000000000000082E-05 ), #350, 'distance_accuracy_value', 'NONE');
#166 = CARTESIAN_POINT ( 'NONE',  ( 3.000000000000000000, -0.1000000000000094424, 94.00000000000005684 ) ) ;
#167 = DIRECTION ( 'NONE',  ( 1.000000000000000000, 0.000000000000000000, -0.000000000000000000 ) ) ;
#168 = FACE_OUTER_BOUND ( 'NONE', #46, .T. ) ;
#169 =( LENGTH_UNIT ( ) NAMED_UNIT ( * ) SI_UNIT ( .MILLI., .METRE. ) );
#170 = CARTESIAN_POINT ( 'NONE',  ( 0.000000000000000000, -8.100000000000010303, -96.99999999999985789 ) ) ;
#171 = LINE ( 'NONE', #309, #197 ) ;
#172 = AXIS2_PLACEMENT_3D ( 'NONE', #299, #116, #470 ) ;
#173 = CARTESIAN_POINT ( 'NONE',  ( 3.000000000000000000, -0.1000000000000098033, 97.00000000000005684 ) ) ;
#174 = DIRECTION ( 'NONE',  ( 0.000000000000000000, -1.000000000000000000, 0.000000000000000000 ) ) ;
#175 = CYLINDRICAL_SURFACE ( 'NONE', #38, 7.999999999999992895 ) ;
#176 = AXIS2_PLACEMENT_3D ( 'NONE', #361, #285, #34 ) ;
#177 = FACE_OUTER_BOUND ( 'NONE', #211, .T. ) ;
#178 = APPLICATION_PROTOCOL_DEFINITION ( 'draft international standard', 'automotive_design', 1998, #195 ) ;
#179 = CLOSED_SHELL ( 'NONE', ( #126, #224, #341, #257, #452, #106, #45, #212, #243, #230, #74, #357, #334, #421 ) ) ;
#180 = CARTESIAN_POINT ( 'NONE',  ( 3.000000000000000000, -0.1000000000000098033, -96.99999999999991473 ) ) ;
#181 = VERTEX_POINT ( 'NONE', #281 ) ;
#182 = CARTESIAN_POINT ( 'NONE',  ( 3.000000000000000000, -8.100000000000010303, -96.99999999999985789 ) ) ;
#183 = VERTEX_POINT ( 'NONE', #208 ) ;
#184 = DIRECTION ( 'NONE',  ( -1.000000000000000000, -0.000000000000000000, 0.000000000000000000 ) ) ;
#185 = CIRCLE ( 'NONE', #244, 3.000000000000002665 ) ;
#186 = ORIENTED_EDGE ( 'NONE', *, *, #25, .T. ) ;
#187 = DIRECTION ( 'NONE',  ( 0.000000000000000000, 0.000000000000000000, -1.000000000000000000 ) ) ;
#188 = ORIENTED_EDGE ( 'NONE', *, *, #443, .F. ) ;
#189 = PLANE ( 'NONE',  #157 ) ;
#190 = VERTEX_POINT ( 'NONE', #170 ) ;
#191 = CARTESIAN_POINT ( 'NONE',  ( 0.000000000000000000, 0.09999999999993174071, -104.9999999999999289 ) ) ;
#192 = CARTESIAN_POINT ( 'NONE',  ( 3.000000000000000000, 0.09999999999998204769, 97.00000000000005684 ) ) ;
#193 = EDGE_CURVE ( 'NONE', #223, #456, #364, .T. ) ;
#194 = ORIENTED_EDGE ( 'NONE', *, *, #26, .F. ) ;
#195 = APPLICATION_CONTEXT ( 'automotive_design' ) ;
#196 = CARTESIAN_POINT ( 'NONE',  ( 3.000000000000000000, -0.1000000000000098033, 97.00000000000005684 ) ) ;
#197 = VECTOR ( 'NONE', #319, 1000.000000000000000 ) ;
#198 = ORIENTED_EDGE ( 'NONE', *, *, #387, .F. ) ;
#199 = AXIS2_PLACEMENT_3D ( 'NONE', #192, #420, #383 ) ;
#200 = CARTESIAN_POINT ( 'NONE',  ( 0.000000000000000000, 8.099999999999981881, -96.99999999999987210 ) ) ;
#201 = ORIENTED_EDGE ( 'NONE', *, *, #326, .F. ) ;
#202 = CARTESIAN_POINT ( 'NONE',  ( 3.000000000000000000, 0.09999999999993174071, -104.9999999999999289 ) ) ;
#203 = PRESENTATION_STYLE_ASSIGNMENT (( #393 ) ) ;
#204 = VECTOR ( 'NONE', #238, 1000.000000000000000 ) ;
#205 = DIRECTION ( 'NONE',  ( 0.000000000000000000, 0.000000000000000000, 1.000000000000000000 ) ) ;
#206 = EDGE_CURVE ( 'NONE', #181, #13, #346, .T. ) ;
#207 = EDGE_CURVE ( 'NONE', #424, #453, #301, .T. ) ;
#208 = CARTESIAN_POINT ( 'NONE',  ( 0.000000000000000000, 0.09999999999991196487, 105.0000000000000568 ) ) ;
#209 = FILL_AREA_STYLE_COLOUR ( '', #233 ) ;
#210 = PLANE ( 'NONE',  #151 ) ;
#211 = EDGE_LOOP ( 'NONE', ( #226, #156, #2, #35 ) ) ;
#212 = ADVANCED_FACE ( 'NONE', ( #472 ), #61, .F. ) ;
#213 = AXIS2_PLACEMENT_3D ( 'NONE', #296, #447, #107 ) ;
#214 = CARTESIAN_POINT ( 'NONE',  ( 3.000000000000000000, 8.099999999999981881, -96.99999999999987210 ) ) ;
#215 = ORIENTED_EDGE ( 'NONE', *, *, #381, .F. ) ;
#216 = CARTESIAN_POINT ( 'NONE',  ( 0.000000000000000000, 0.09999999999998204769, -96.99999999999992895 ) ) ;
#217 = ORIENTED_EDGE ( 'NONE', *, *, #193, .T. ) ;
#218 = PLANE ( 'NONE',  #384 ) ;
#219 = SHAPE_DEFINITION_REPRESENTATION ( #289, #10 ) ;
#220 = ORIENTED_EDGE ( 'NONE', *, *, #418, .T. ) ;
#221 = DIRECTION ( 'NONE',  ( -1.000000000000000000, -0.000000000000000000, -0.000000000000000000 ) ) ;
#222 = CIRCLE ( 'NONE', #305, 3.000000000000002665 ) ;
#223 = VERTEX_POINT ( 'NONE', #247 ) ;
#224 = ADVANCED_FACE ( 'NONE', ( #271 ), #398, .F. ) ;
#225 = LINE ( 'NONE', #73, #120 ) ;
#226 = ORIENTED_EDGE ( 'NONE', *, *, #326, .T. ) ;
#227 = ORIENTED_EDGE ( 'NONE', *, *, #145, .F. ) ;
#228 = EDGE_CURVE ( 'NONE', #72, #183, #58, .T. ) ;
#229 = DIRECTION ( 'NONE',  ( -0.000000000000000000, -0.000000000000000000, 1.000000000000000000 ) ) ;
#230 = ADVANCED_FACE ( 'NONE', ( #237 ), #210, .F. ) ;
#231 = DIRECTION ( 'NONE',  ( 0.000000000000000000, 0.000000000000000000, -1.000000000000000000 ) ) ;
#232 = VERTEX_POINT ( 'NONE', #200 ) ;
#233 = COLOUR_RGB ( '',0.7921568627450980005, 0.8196078431372548767, 0.9333333333333333481 ) ;
#234 = CYLINDRICAL_SURFACE ( 'NONE', #199, 7.999999999999992895 ) ;
#235 = DIRECTION ( 'NONE',  ( -1.000000000000000000, -0.000000000000000000, -0.000000000000000000 ) ) ;
#236 = DIRECTION ( 'NONE',  ( 0.000000000000000000, -1.000000000000000000, 0.000000000000000000 ) ) ;
#237 = FACE_OUTER_BOUND ( 'NONE', #338, .T. ) ;
#238 = DIRECTION ( 'NONE',  ( -1.000000000000000000, -0.000000000000000000, -0.000000000000000000 ) ) ;
#239 = EDGE_CURVE ( 'NONE', #181, #75, #23, .T. ) ;
#240 = CARTESIAN_POINT ( 'NONE',  ( 3.000000000000000000, -0.1000000000000098033, 97.00000000000005684 ) ) ;
#241 = MECHANICAL_DESIGN_GEOMETRIC_PRESENTATION_REPRESENTATION (  '', ( #161 ), #417 ) ;
#242 = CARTESIAN_POINT ( 'NONE',  ( 0.000000000000000000, 0.09999999999998204769, -96.99999999999992895 ) ) ;
#243 = ADVANCED_FACE ( 'NONE', ( #177 ), #71, .T. ) ;
#244 = AXIS2_PLACEMENT_3D ( 'NONE', #242, #466, #62 ) ;
#245 = CARTESIAN_POINT ( 'NONE',  ( 3.000000000000000000, -0.1000000000000094424, 94.00000000000005684 ) ) ;
#246 =( NAMED_UNIT ( * ) PLANE_ANGLE_UNIT ( ) SI_UNIT ( $, .RADIAN. ) );
#247 = CARTESIAN_POINT ( 'NONE',  ( 0.000000000000000000, -0.1000000000000098033, 100.0000000000000568 ) ) ;
#248 = ORIENTED_EDGE ( 'NONE', *, *, #228, .T. ) ;
#249 = DIRECTION ( 'NONE',  ( 1.000000000000000000, 0.000000000000000000, 0.000000000000000000 ) ) ;
#250 = ORIENTED_EDGE ( 'NONE', *, *, #347, .T. ) ;
#251 = FACE_BOUND ( 'NONE', #253, .T. ) ;
#252 = DIRECTION ( 'NONE',  ( 0.000000000000000000, 0.000000000000000000, 1.000000000000000000 ) ) ;
#253 = EDGE_LOOP ( 'NONE', ( #217, #89 ) ) ;
#254 = FACE_BOUND ( 'NONE', #18, .T. ) ;
#255 = ORIENTED_EDGE ( 'NONE', *, *, #136, .F. ) ;
#256 = FACE_OUTER_BOUND ( 'NONE', #382, .T. ) ;
#257 = ADVANCED_FACE ( 'NONE', ( #251, #256, #101 ), #218, .T. ) ;
#258 = VERTEX_POINT ( 'NONE', #7 ) ;
#259 = FACE_BOUND ( 'NONE', #337, .T. ) ;
#260 = VECTOR ( 'NONE', #76, 1000.000000000000000 ) ;
#261 = VERTEX_POINT ( 'NONE', #294 ) ;
#262 = CIRCLE ( 'NONE', #53, 3.000000000000002665 ) ;
#263 = DIRECTION ( 'NONE',  ( 1.000000000000000000, 0.000000000000000000, 0.000000000000000000 ) ) ;
#264 = VERTEX_POINT ( 'NONE', #368 ) ;
#265 = EDGE_CURVE ( 'NONE', #286, #223, #444, .T. ) ;
#266 = CARTESIAN_POINT ( 'NONE',  ( 3.000000000000000000, 0.09999999999993174071, -104.9999999999999289 ) ) ;
#267 = ORIENTED_EDGE ( 'NONE', *, *, #57, .T. ) ;
#268 = AXIS2_PLACEMENT_3D ( 'NONE', #330, #400, #290 ) ;
#269 = LINE ( 'NONE', #304, #378 ) ;
#270 = EDGE_LOOP ( 'NONE', ( #250, #82, #79, #15 ) ) ;
#271 = FACE_OUTER_BOUND ( 'NONE', #333, .T. ) ;
#272 = CYLINDRICAL_SURFACE ( 'NONE', #425, 3.000000000000002665 ) ;
#273 = DIRECTION ( 'NONE',  ( -1.000000000000000000, -0.000000000000000000, -0.000000000000000000 ) ) ;
#274 = EDGE_CURVE ( 'NONE', #149, #232, #9, .T. ) ;
#275 = DIRECTION ( 'NONE',  ( -1.000000000000000000, -0.000000000000000000, -0.000000000000000000 ) ) ;
#276 = SURFACE_SIDE_STYLE ('',( #314 ) ) ;
#277 = DIRECTION ( 'NONE',  ( 0.000000000000000000, 0.000000000000000000, 1.000000000000000000 ) ) ;
#278 = VECTOR ( 'NONE', #236, 1000.000000000000000 ) ;
#279 = CARTESIAN_POINT ( 'NONE',  ( 3.000000000000000000, 0.09999999999998240852, -99.99999999999994316 ) ) ;
#280 = CIRCLE ( 'NONE', #268, 7.999999999999992895 ) ;
#281 = CARTESIAN_POINT ( 'NONE',  ( 3.000000000000000000, -0.1000000000000098033, -104.9999999999999289 ) ) ;
#282 = EDGE_LOOP ( 'NONE', ( #49, #302, #475, #144 ) ) ;
#283 = EDGE_CURVE ( 'NONE', #261, #103, #320, .T. ) ;
#284 = VECTOR ( 'NONE', #392, 1000.000000000000000 ) ;
#285 = DIRECTION ( 'NONE',  ( -1.000000000000000000, -0.000000000000000000, -0.000000000000000000 ) ) ;
#286 = VERTEX_POINT ( 'NONE', #408 ) ;
#287 = CYLINDRICAL_SURFACE ( 'NONE', #176, 3.000000000000002665 ) ;
#288 = ORIENTED_EDGE ( 'NONE', *, *, #443, .T. ) ;
#289 = PRODUCT_DEFINITION_SHAPE ( 'NONE', 'NONE',  #427 ) ;
#290 = DIRECTION ( 'NONE',  ( 0.000000000000000000, 0.000000000000000000, -1.000000000000000000 ) ) ;
#291 = ORIENTED_EDGE ( 'NONE', *, *, #311, .T. ) ;
#292 = EDGE_CURVE ( 'NONE', #303, #462, #222, .T. ) ;
#293 = AXIS2_PLACEMENT_3D ( 'NONE', #317, #174, #138 ) ;
#294 = CARTESIAN_POINT ( 'NONE',  ( 3.000000000000000000, 8.099999999999981881, 96.99999999999998579 ) ) ;
#295 = EDGE_LOOP ( 'NONE', ( #162, #375, #448, #5 ) ) ;
#296 = CARTESIAN_POINT ( 'NONE',  ( 3.000000000000000000, 0.09999999999998204769, -96.99999999999992895 ) ) ;
#297 = VERTEX_POINT ( 'NONE', #371 ) ;
#298 = CARTESIAN_POINT ( 'NONE',  ( 3.000000000000000000, 0.09999999999998204769, -96.99999999999992895 ) ) ;
#299 = CARTESIAN_POINT ( 'NONE',  ( 3.000000000000000000, -0.1000000000000098033, -96.99999999999991473 ) ) ;
#300 = EDGE_CURVE ( 'NONE', #325, #181, #370, .T. ) ;
#301 = CIRCLE ( 'NONE', #117, 7.999999999999992895 ) ;
#302 = ORIENTED_EDGE ( 'NONE', *, *, #239, .F. ) ;
#303 = VERTEX_POINT ( 'NONE', #147 ) ;
#304 = CARTESIAN_POINT ( 'NONE',  ( 3.000000000000000000, 0.09999999999998204769, -93.99999999999992895 ) ) ;
#305 = AXIS2_PLACEMENT_3D ( 'NONE', #216, #440, #104 ) ;
#306 = EDGE_CURVE ( 'NONE', #190, #75, #351, .T. ) ;
#307 = ORIENTED_EDGE ( 'NONE', *, *, #274, .F. ) ;
#308 = DIRECTION ( 'NONE',  ( -1.000000000000000000, -0.000000000000000000, -0.000000000000000000 ) ) ;
#309 = CARTESIAN_POINT ( 'NONE',  ( 0.000000000000000000, 0.09999999999993174071, -104.9999999999999289 ) ) ;
#310 = CARTESIAN_POINT ( 'NONE',  ( 3.000000000000000000, 0.09999999999998204769, -96.99999999999992895 ) ) ;
#311 = EDGE_CURVE ( 'NONE', #453, #258, #143, .T. ) ;
#312 = CARTESIAN_POINT ( 'NONE',  ( 3.000000000000000000, 0.09999999999998204769, -96.99999999999992895 ) ) ;
#313 = CARTESIAN_POINT ( 'NONE',  ( 3.000000000000000000, 0.09999999999993174071, -104.9999999999999289 ) ) ;
#314 = SURFACE_STYLE_FILL_AREA ( #127 ) ;
#315 = FACE_OUTER_BOUND ( 'NONE', #86, .T. ) ;
#316 = CARTESIAN_POINT ( 'NONE',  ( 3.000000000000000000, -0.1000000000000098033, 97.00000000000005684 ) ) ;
#317 = CARTESIAN_POINT ( 'NONE',  ( 3.000000000000000000, 8.099999999999981881, 96.99999999999998579 ) ) ;
#318 =( GEOMETRIC_REPRESENTATION_CONTEXT ( 3 ) GLOBAL_UNCERTAINTY_ASSIGNED_CONTEXT ( ( #386 ) ) GLOBAL_UNIT_ASSIGNED_CONTEXT ( ( #169, #246, #362 ) ) REPRESENTATION_CONTEXT ( 'NONE', 'WORKASPACE' ) );
#319 = DIRECTION ( 'NONE',  ( -0.000000000000000000, 1.000000000000000000, -0.000000000000000000 ) ) ;
#320 = LINE ( 'NONE', #449, #260 ) ;
#321 = CARTESIAN_POINT ( 'NONE',  ( 0.000000000000000000, -0.1000000000000098033, -96.99999999999991473 ) ) ;
#322 = ORIENTED_EDGE ( 'NONE', *, *, #339, .F. ) ;
#323 = DIRECTION ( 'NONE',  ( 0.000000000000000000, 0.000000000000000000, 1.000000000000000000 ) ) ;
#324 = AXIS2_PLACEMENT_3D ( 'NONE', #108, #252, #102 ) ;
#325 = VERTEX_POINT ( 'NONE', #182 ) ;
#326 = EDGE_CURVE ( 'NONE', #264, #258, #280, .T. ) ;
#327 = VECTOR ( 'NONE', #36, 1000.000000000000000 ) ;
#328 = DIRECTION ( 'NONE',  ( 0.000000000000000000, 0.000000000000000000, 1.000000000000000000 ) ) ;
#329 = VERTEX_POINT ( 'NONE', #39 ) ;
#330 = CARTESIAN_POINT ( 'NONE',  ( 0.000000000000000000, -0.1000000000000098033, 97.00000000000005684 ) ) ;
#331 = ORIENTED_EDGE ( 'NONE', *, *, #402, .F. ) ;
#332 = DIRECTION ( 'NONE',  ( -0.000000000000000000, -0.000000000000000000, 1.000000000000000000 ) ) ;
#333 = EDGE_LOOP ( 'NONE', ( #152, #142, #154, #20 ) ) ;
#334 = ADVANCED_FACE ( 'NONE', ( #69 ), #287, .F. ) ;
#335 = VECTOR ( 'NONE', #4, 1000.000000000000000 ) ;
#336 = LINE ( 'NONE', #416, #140 ) ;
#337 = EDGE_LOOP ( 'NONE', ( #215, #322 ) ) ;
#338 = EDGE_LOOP ( 'NONE', ( #377, #111, #255, #291 ) ) ;
#339 = EDGE_CURVE ( 'NONE', #329, #297, #114, .T. ) ;
#340 = PRODUCT_DEFINITION_FORMATION_WITH_SPECIFIED_SOURCE ( 'ANY', '', #365, .NOT_KNOWN. ) ;
#341 = ADVANCED_FACE ( 'NONE', ( #451, #254, #259 ), #112, .F. ) ;
#342 = ORIENTED_EDGE ( 'NONE', *, *, #300, .T. ) ;
#343 = AXIS2_PLACEMENT_3D ( 'NONE', #78, #474, #406 ) ;
#344 = CARTESIAN_POINT ( 'NONE',  ( 3.000000000000000000, 0.09999999999991196487, 105.0000000000000568 ) ) ;
#345 = EDGE_CURVE ( 'NONE', #183, #264, #225, .T. ) ;
#346 = LINE ( 'NONE', #313, #85 ) ;
#347 = EDGE_CURVE ( 'NONE', #103, #183, #51, .T. ) ;
#348 = CIRCLE ( 'NONE', #409, 7.999999999999992895 ) ;
#349 = CARTESIAN_POINT ( 'NONE',  ( 0.000000000000000000, 8.099999999999981881, 96.99999999999998579 ) ) ;
#350 =( LENGTH_UNIT ( ) NAMED_UNIT ( * ) SI_UNIT ( .MILLI., .METRE. ) );
#351 = CIRCLE ( 'NONE', #19, 8.000000000000007105 ) ;
#352 = PLANE ( 'NONE',  #293 ) ;
#353 = FACE_OUTER_BOUND ( 'NONE', #446, .T. ) ;
#354 = AXIS2_PLACEMENT_3D ( 'NONE', #173, #65, #205 ) ;
#355 = DIRECTION ( 'NONE',  ( 0.000000000000000000, 0.000000000000000000, -1.000000000000000000 ) ) ;
#356 = CARTESIAN_POINT ( 'NONE',  ( 0.000000000000000000, -0.1000000000000094424, 94.00000000000005684 ) ) ;
#357 = ADVANCED_FACE ( 'NONE', ( #115 ), #189, .F. ) ;
#358 = CARTESIAN_POINT ( 'NONE',  ( 3.000000000000000000, -8.100000000000010303, 97.00000000000000000 ) ) ;
#359 = PRODUCT_CONTEXT ( 'NONE', #460, 'mechanical' ) ;
#360 = ORIENTED_EDGE ( 'NONE', *, *, #26, .T. ) ;
#361 = CARTESIAN_POINT ( 'NONE',  ( 3.000000000000000000, -0.1000000000000098033, 97.00000000000005684 ) ) ;
#362 =( NAMED_UNIT ( * ) SI_UNIT ( $, .STERADIAN. ) SOLID_ANGLE_UNIT ( ) );
#363 = EDGE_LOOP ( 'NONE', ( #158, #267, #372, #227 ) ) ;
#364 = CIRCLE ( 'NONE', #164, 3.000000000000002665 ) ;
#365 = PRODUCT ( 'Walker_Front_to_Center_Beam', 'Walker_Front_to_Center_Beam', '', ( #359 ) ) ;
#366 = CARTESIAN_POINT ( 'NONE',  ( 3.000000000000000000, -8.100000000000006750, 97.00000000000000000 ) ) ;
#367 = ORIENTED_EDGE ( 'NONE', *, *, #283, .F. ) ;
#368 = CARTESIAN_POINT ( 'NONE',  ( 0.000000000000000000, -0.09999999999995949629, 105.0000000000000568 ) ) ;
#369 = ORIENTED_EDGE ( 'NONE', *, *, #418, .F. ) ;
#370 = CIRCLE ( 'NONE', #33, 8.000000000000007105 ) ;
#371 = CARTESIAN_POINT ( 'NONE',  ( 3.000000000000000000, 0.09999999999998204769, -93.99999999999992895 ) ) ;
#372 = ORIENTED_EDGE ( 'NONE', *, *, #265, .T. ) ;
#373 = CIRCLE ( 'NONE', #388, 3.000000000000002665 ) ;
#374 = CARTESIAN_POINT ( 'NONE',  ( 0.000000000000000000, 8.099999999999981881, 96.99999999999998579 ) ) ;
#375 = ORIENTED_EDGE ( 'NONE', *, *, #160, .F. ) ;
#376 = ORIENTED_EDGE ( 'NONE', *, *, #136, .T. ) ;
#377 = ORIENTED_EDGE ( 'NONE', *, *, #50, .T. ) ;
#378 = VECTOR ( 'NONE', #159, 1000.000000000000000 ) ;
#379 = FACE_OUTER_BOUND ( 'NONE', #282, .T. ) ;
#380 = EDGE_CURVE ( 'NONE', #232, #103, #414, .T. ) ;
#381 = EDGE_CURVE ( 'NONE', #297, #329, #429, .T. ) ;
#382 = EDGE_LOOP ( 'NONE', ( #87, #198, #410, #458, #201, #109, #413, #404 ) ) ;
#383 = DIRECTION ( 'NONE',  ( 0.000000000000000000, 0.000000000000000000, 1.000000000000000000 ) ) ;
#384 = AXIS2_PLACEMENT_3D ( 'NONE', #403, #184, #328 ) ;
#385 = EDGE_CURVE ( 'NONE', #286, #122, #14, .T. ) ;
#386 = UNCERTAINTY_MEASURE_WITH_UNIT (LENGTH_MEASURE( 1.000000000000000082E-05 ), #169, 'distance_accuracy_value', 'NONE');
#387 = EDGE_CURVE ( 'NONE', #75, #11, #171, .T. ) ;
#388 = AXIS2_PLACEMENT_3D ( 'NONE', #196, #124, #52 ) ;
#389 = DIRECTION ( 'NONE',  ( 1.000000000000000000, 0.000000000000000000, 0.000000000000000000 ) ) ;
#390 = CARTESIAN_POINT ( 'NONE',  ( 3.000000000000000000, 0.09999999999998204769, -96.99999999999992895 ) ) ;
#391 = CARTESIAN_POINT ( 'NONE',  ( 3.000000000000000000, -0.1000000000000098033, -104.9999999999999289 ) ) ;
#392 = DIRECTION ( 'NONE',  ( -1.000000000000000000, -0.000000000000000000, -0.000000000000000000 ) ) ;
#393 = SURFACE_STYLE_USAGE ( .BOTH. , #276 ) ;
#394 = AXIS2_PLACEMENT_3D ( 'NONE', #298, #12, #133 ) ;
#395 = LINE ( 'NONE', #202, #90 ) ;
#396 = EDGE_CURVE ( 'NONE', #329, #303, #59, .T. ) ;
#397 = CARTESIAN_POINT ( 'NONE',  ( 0.000000000000000000, 0.09999999999998204769, -96.99999999999992895 ) ) ;
#398 = CYLINDRICAL_SURFACE ( 'NONE', #354, 3.000000000000002665 ) ;
#399 =( NAMED_UNIT ( * ) PLANE_ANGLE_UNIT ( ) SI_UNIT ( $, .RADIAN. ) );
#400 = DIRECTION ( 'NONE',  ( 1.000000000000000000, 0.000000000000000000, 0.000000000000000000 ) ) ;
#401 = ORIENTED_EDGE ( 'NONE', *, *, #160, .T. ) ;
#402 = EDGE_CURVE ( 'NONE', #13, #149, #6, .T. ) ;
#403 = CARTESIAN_POINT ( 'NONE',  ( 0.000000000000000000, 0.09999999999998204769, -96.99999999999992895 ) ) ;
#404 = ORIENTED_EDGE ( 'NONE', *, *, #380, .F. ) ;
#405 = VECTOR ( 'NONE', #467, 1000.000000000000000 ) ;
#406 = DIRECTION ( 'NONE',  ( 0.000000000000000000, 0.000000000000000000, 1.000000000000000000 ) ) ;
#407 = ORIENTED_EDGE ( 'NONE', *, *, #339, .T. ) ;
#408 = CARTESIAN_POINT ( 'NONE',  ( 3.000000000000000000, -0.1000000000000098033, 100.0000000000000568 ) ) ;
#409 = AXIS2_PLACEMENT_3D ( 'NONE', #397, #167, #97 ) ;
#410 = ORIENTED_EDGE ( 'NONE', *, *, #306, .F. ) ;
#411 = AXIS2_PLACEMENT_3D ( 'NONE', #316, #64, #29 ) ;
#412 = DIRECTION ( 'NONE',  ( -1.000000000000000000, -0.000000000000000000, -0.000000000000000000 ) ) ;
#413 = ORIENTED_EDGE ( 'NONE', *, *, #347, .F. ) ;
#414 = LINE ( 'NONE', #374, #419 ) ;
#415 = ORIENTED_EDGE ( 'NONE', *, *, #292, .F. ) ;
#416 = CARTESIAN_POINT ( 'NONE',  ( 3.000000000000000000, -0.09999999999995949629, 105.0000000000000568 ) ) ;
#417 =( GEOMETRIC_REPRESENTATION_CONTEXT ( 3 ) GLOBAL_UNCERTAINTY_ASSIGNED_CONTEXT ( ( #165 ) ) GLOBAL_UNIT_ASSIGNED_CONTEXT ( ( #350, #399, #66 ) ) REPRESENTATION_CONTEXT ( 'NONE', 'WORKASPACE' ) );
#418 = EDGE_CURVE ( 'NONE', #462, #303, #185, .T. ) ;
#419 = VECTOR ( 'NONE', #332, 1000.000000000000000 ) ;
#420 = DIRECTION ( 'NONE',  ( -1.000000000000000000, -0.000000000000000000, -0.000000000000000000 ) ) ;
#421 = ADVANCED_FACE ( 'NONE', ( #353 ), #272, .F. ) ;
#422 = VECTOR ( 'NONE', #229, 1000.000000000000000 ) ;
#423 = CARTESIAN_POINT ( 'NONE',  ( 0.000000000000000000, -8.100000000000010303, 97.00000000000000000 ) ) ;
#424 = VERTEX_POINT ( 'NONE', #464 ) ;
#425 = AXIS2_PLACEMENT_3D ( 'NONE', #22, #95, #130 ) ;
#426 = MANIFOLD_SOLID_BREP ( 'Boss-Extrude1', #179 ) ;
#427 = PRODUCT_DEFINITION ( 'UNKNOWN', '', #340, #128 ) ;
#428 = CARTESIAN_POINT ( 'NONE',  ( 3.000000000000000000, 0.09999999999991196487, 105.0000000000000568 ) ) ;
#429 = CIRCLE ( 'NONE', #394, 3.000000000000002665 ) ;
#430 = VECTOR ( 'NONE', #231, 1000.000000000000000 ) ;
#431 = CYLINDRICAL_SURFACE ( 'NONE', #27, 3.000000000000002665 ) ;
#432 = DIRECTION ( 'NONE',  ( 1.000000000000000000, 0.000000000000000000, 0.000000000000000000 ) ) ;
#433 = DIRECTION ( 'NONE',  ( 1.000000000000000000, 0.000000000000000000, 0.000000000000000000 ) ) ;
#434 = CARTESIAN_POINT ( 'NONE',  ( 3.000000000000000000, -8.100000000000010303, 97.00000000000000000 ) ) ;
#435 = LINE ( 'NONE', #55, #278 ) ;
#436 = CARTESIAN_POINT ( 'NONE',  ( 3.000000000000000000, 0.09999999999991092403, 105.0000000000000568 ) ) ;
#437 = VECTOR ( 'NONE', #153, 1000.000000000000000 ) ;
#438 = DIRECTION ( 'NONE',  ( 0.000000000000000000, 0.000000000000000000, 1.000000000000000000 ) ) ;
#439 = ORIENTED_EDGE ( 'NONE', *, *, #16, .F. ) ;
#440 = DIRECTION ( 'NONE',  ( 1.000000000000000000, 0.000000000000000000, 0.000000000000000000 ) ) ;
#441 = ORIENTED_EDGE ( 'NONE', *, *, #396, .F. ) ;
#442 = EDGE_CURVE ( 'NONE', #261, #72, #3, .T. ) ;
#443 = EDGE_CURVE ( 'NONE', #72, #424, #435, .T. ) ;
#444 = LINE ( 'NONE', #150, #454 ) ;
#445 = APPLICATION_PROTOCOL_DEFINITION ( 'draft international standard', 'automotive_design', 1998, #460 ) ;
#446 = EDGE_LOOP ( 'NONE', ( #441, #407, #186, #415 ) ) ;
#447 = DIRECTION ( 'NONE',  ( 1.000000000000000000, 0.000000000000000000, 0.000000000000000000 ) ) ;
#448 = ORIENTED_EDGE ( 'NONE', *, *, #206, .F. ) ;
#449 = CARTESIAN_POINT ( 'NONE',  ( 3.000000000000000000, 8.099999999999981881, 96.99999999999998579 ) ) ;
#450 = EDGE_LOOP ( 'NONE', ( #220, #77 ) ) ;
#451 = FACE_OUTER_BOUND ( 'NONE', #105, .T. ) ;
#452 = ADVANCED_FACE ( 'NONE', ( #93 ), #175, .T. ) ;
#453 = VERTEX_POINT ( 'NONE', #468 ) ;
#454 = VECTOR ( 'NONE', #412, 1000.000000000000000 ) ;
#455 = DIRECTION ( 'NONE',  ( 0.000000000000000000, 0.000000000000000000, -1.000000000000000000 ) ) ;
#456 = VERTEX_POINT ( 'NONE', #356 ) ;
#457 = VECTOR ( 'NONE', #273, 1000.000000000000000 ) ;
#458 = ORIENTED_EDGE ( 'NONE', *, *, #50, .F. ) ;
#459 = LINE ( 'NONE', #423, #430 ) ;
#460 = APPLICATION_CONTEXT ( 'automotive_design' ) ;
#461 = ORIENTED_EDGE ( 'NONE', *, *, #381, .T. ) ;
#462 = VERTEX_POINT ( 'NONE', #99 ) ;
#463 = CARTESIAN_POINT ( 'NONE',  ( 0.000000000000000000, -0.1000000000000098033, -104.9999999999999289 ) ) ;
#464 = CARTESIAN_POINT ( 'NONE',  ( 3.000000000000000000, -0.09999999999995949629, 105.0000000000000568 ) ) ;
#465 = DIRECTION ( 'NONE',  ( 0.000000000000000000, -0.000000000000000000, 1.000000000000000000 ) ) ;
#466 = DIRECTION ( 'NONE',  ( 1.000000000000000000, 0.000000000000000000, 0.000000000000000000 ) ) ;
#467 = DIRECTION ( 'NONE',  ( 0.000000000000000000, 0.000000000000000000, -1.000000000000000000 ) ) ;
#468 = CARTESIAN_POINT ( 'NONE',  ( 3.000000000000000000, -8.100000000000006750, 97.00000000000000000 ) ) ;
#469 = EDGE_CURVE ( 'NONE', #11, #232, #348, .T. ) ;
#470 = DIRECTION ( 'NONE',  ( 0.000000000000000000, 0.000000000000000000, 1.000000000000000000 ) ) ;
#471 = CARTESIAN_POINT ( 'NONE',  ( 3.000000000000000000, 0.09999999999998204769, 97.00000000000005684 ) ) ;
#472 = FACE_OUTER_BOUND ( 'NONE', #40, .T. ) ;
#473 = DIRECTION ( 'NONE',  ( -1.000000000000000000, -0.000000000000000000, -0.000000000000000000 ) ) ;
#474 = DIRECTION ( 'NONE',  ( -1.000000000000000000, -0.000000000000000000, 0.000000000000000000 ) ) ;
#475 = ORIENTED_EDGE ( 'NONE', *, *, #300, .F. ) ;
ENDSEC;
END-ISO-10303-21;
