ISO-10303-21;
HEADER;
FILE_DESCRIPTION (( 'STEP AP214' ),
    '1' );
FILE_NAME ('Walker_Front_Straight_Tubing.STEP',
    '2026-08-11T21:04:01',
    ( '' ),
    ( '' ),
    'SwSTEP 2.0',
    'SolidWorks 2023',
    '' );
FILE_SCHEMA (( 'AUTOMOTIVE_DESIGN' ));
ENDSEC;

DATA;
#1 = CYLINDRICAL_SURFACE ( 'NONE', #104, 12.69999999999998863 ) ;
#2 = EDGE_LOOP ( 'NONE', ( #46, #83, #67, #112 ) ) ;
#3 =( LENGTH_UNIT ( ) NAMED_UNIT ( * ) SI_UNIT ( .MILLI., .METRE. ) );
#4 = CIRCLE ( 'NONE', #68, 12.69999999999998863 ) ;
#5 = EDGE_CURVE ( 'NONE', #94, #58, #77, .T. ) ;
#6 = MANIFOLD_SOLID_BREP ( 'Boss-Extrude3', #115 ) ;
#7 = DIRECTION ( 'NONE',  ( 1.000000000000000000, 0.000000000000000000, 0.000000000000000000 ) ) ;
#8 = UNCERTAINTY_MEASURE_WITH_UNIT (LENGTH_MEASURE( 1.000000000000000082E-05 ), #3, 'distance_accuracy_value', 'NONE');
#9 = CIRCLE ( 'NONE', #79, 12.69999999999998863 ) ;
#10 = ORIENTED_EDGE ( 'NONE', *, *, #5, .T. ) ;
#11 = ORIENTED_EDGE ( 'NONE', *, *, #73, .F. ) ;
#12 = ADVANCED_FACE ( 'NONE', ( #96 ), #88, .T. ) ;
#13 = PRODUCT_RELATED_PRODUCT_CATEGORY ( 'part', '', ( #66 ) ) ;
#14 = EDGE_LOOP ( 'NONE', ( #120, #47 ) ) ;
#15 = STYLED_ITEM ( 'NONE', ( #40 ), #6 ) ;
#16 = CARTESIAN_POINT ( 'NONE',  ( -190.0000000000000000, 0.000000000000000000, 0.000000000000000000 ) ) ;
#17 = EDGE_CURVE ( 'NONE', #34, #94, #4, .T. ) ;
#18 =( NAMED_UNIT ( * ) PLANE_ANGLE_UNIT ( ) SI_UNIT ( $, .RADIAN. ) );
#19 = SURFACE_STYLE_USAGE ( .BOTH. , #105 ) ;
#20 = DIRECTION ( 'NONE',  ( 1.000000000000000000, 0.000000000000000000, 0.000000000000000000 ) ) ;
#21 = DIRECTION ( 'NONE',  ( 1.000000000000000000, 0.000000000000000000, 0.000000000000000000 ) ) ;
#22 = CIRCLE ( 'NONE', #85, 12.69999999999998863 ) ;
#23 = PRODUCT_DEFINITION_FORMATION_WITH_SPECIFIED_SOURCE ( 'ANY', '', #66, .NOT_KNOWN. ) ;
#24 = CARTESIAN_POINT ( 'NONE',  ( 190.0000000000000000, 0.000000000000000000, 0.000000000000000000 ) ) ;
#25 = EDGE_LOOP ( 'NONE', ( #11, #102, #10, #56 ) ) ;
#26 =( NAMED_UNIT ( * ) SI_UNIT ( $, .STERADIAN. ) SOLID_ANGLE_UNIT ( ) );
#27 = CIRCLE ( 'NONE', #124, 12.69999999999998863 ) ;
#28 = DIRECTION ( 'NONE',  ( 1.000000000000000000, 0.000000000000000000, 0.000000000000000000 ) ) ;
#29 = SURFACE_STYLE_FILL_AREA ( #123 ) ;
#30 = DIRECTION ( 'NONE',  ( 1.000000000000000000, 0.000000000000000000, 0.000000000000000000 ) ) ;
#31 = CARTESIAN_POINT ( 'NONE',  ( 0.000000000000000000, 0.000000000000000000, 0.000000000000000000 ) ) ;
#32 =( NAMED_UNIT ( * ) PLANE_ANGLE_UNIT ( ) SI_UNIT ( $, .RADIAN. ) );
#33 = AXIS2_PLACEMENT_3D ( 'NONE', #107, #21, #63 ) ;
#34 = VERTEX_POINT ( 'NONE', #36 ) ;
#35 = EDGE_CURVE ( 'NONE', #58, #45, #9, .T. ) ;
#36 = CARTESIAN_POINT ( 'NONE',  ( -190.0000000000000000, 1.555301434917137249E-15, 12.69999999999998863 ) ) ;
#37 = MECHANICAL_DESIGN_GEOMETRIC_PRESENTATION_REPRESENTATION (  '', ( #15 ), #50 ) ;
#38 = CARTESIAN_POINT ( 'NONE',  ( 190.0000000000000000, 1.555301434917137249E-15, 12.69999999999998863 ) ) ;
#39 = EDGE_CURVE ( 'NONE', #45, #58, #22, .T. ) ;
#40 = PRESENTATION_STYLE_ASSIGNMENT (( #19 ) ) ;
#41 = APPLICATION_CONTEXT ( 'automotive_design' ) ;
#42 = DIRECTION ( 'NONE',  ( 0.000000000000000000, 0.000000000000000000, -1.000000000000000000 ) ) ;
#43 = DIRECTION ( 'NONE',  ( 1.000000000000000000, 0.000000000000000000, 0.000000000000000000 ) ) ;
#44 = EDGE_CURVE ( 'NONE', #94, #34, #27, .T. ) ;
#45 = VERTEX_POINT ( 'NONE', #38 ) ;
#46 = ORIENTED_EDGE ( 'NONE', *, *, #17, .F. ) ;
#47 = ORIENTED_EDGE ( 'NONE', *, *, #17, .T. ) ;
#48 = DIRECTION ( 'NONE',  ( 0.000000000000000000, 0.000000000000000000, 1.000000000000000000 ) ) ;
#49 = CARTESIAN_POINT ( 'NONE',  ( -175.0000000000000000, 1.555301434917137249E-15, 12.69999999999998863 ) ) ;
#50 =( GEOMETRIC_REPRESENTATION_CONTEXT ( 3 ) GLOBAL_UNCERTAINTY_ASSIGNED_CONTEXT ( ( #106 ) ) GLOBAL_UNIT_ASSIGNED_CONTEXT ( ( #70, #18, #26 ) ) REPRESENTATION_CONTEXT ( 'NONE', 'WORKASPACE' ) );
#51 = SHAPE_DEFINITION_REPRESENTATION ( #75, #122 ) ;
#52 = CARTESIAN_POINT ( 'NONE',  ( -175.0000000000000000, 0.000000000000000000, 0.000000000000000000 ) ) ;
#53 = APPLICATION_PROTOCOL_DEFINITION ( 'draft international standard', 'automotive_design', 1998, #41 ) ;
#54 = APPLICATION_CONTEXT ( 'automotive_design' ) ;
#55 = PRODUCT_CONTEXT ( 'NONE', #41, 'mechanical' ) ;
#56 = ORIENTED_EDGE ( 'NONE', *, *, #39, .F. ) ;
#57 = PRESENTATION_LAYER_ASSIGNMENT (  '', '', ( #15 ) ) ;
#58 = VERTEX_POINT ( 'NONE', #121 ) ;
#59 =( GEOMETRIC_REPRESENTATION_CONTEXT ( 3 ) GLOBAL_UNCERTAINTY_ASSIGNED_CONTEXT ( ( #8 ) ) GLOBAL_UNIT_ASSIGNED_CONTEXT ( ( #3, #32, #101 ) ) REPRESENTATION_CONTEXT ( 'NONE', 'WORKASPACE' ) );
#60 = DIRECTION ( 'NONE',  ( -1.000000000000000000, 0.000000000000000000, 0.000000000000000000 ) ) ;
#61 = CARTESIAN_POINT ( 'NONE',  ( -190.0000000000000000, 0.000000000000000000, 0.000000000000000000 ) ) ;
#62 = PRODUCT_DEFINITION_CONTEXT ( 'detailed design', #54, 'design' ) ;
#63 = DIRECTION ( 'NONE',  ( 0.000000000000000000, 0.000000000000000000, -1.000000000000000000 ) ) ;
#64 = ORIENTED_EDGE ( 'NONE', *, *, #35, .T. ) ;
#65 = DIRECTION ( 'NONE',  ( 1.000000000000000000, 0.000000000000000000, 0.000000000000000000 ) ) ;
#66 = PRODUCT ( 'Walker_Front_Straight_Tubing', 'Walker_Front_Straight_Tubing', '', ( #55 ) ) ;
#67 = ORIENTED_EDGE ( 'NONE', *, *, #35, .F. ) ;
#68 = AXIS2_PLACEMENT_3D ( 'NONE', #86, #97, #95 ) ;
#69 = LINE ( 'NONE', #49, #98 ) ;
#70 =( LENGTH_UNIT ( ) NAMED_UNIT ( * ) SI_UNIT ( .MILLI., .METRE. ) );
#71 = FACE_OUTER_BOUND ( 'NONE', #25, .T. ) ;
#72 = DIRECTION ( 'NONE',  ( 0.000000000000000000, 0.000000000000000000, -1.000000000000000000 ) ) ;
#73 = EDGE_CURVE ( 'NONE', #34, #45, #69, .T. ) ;
#74 = EDGE_LOOP ( 'NONE', ( #64, #91 ) ) ;
#75 = PRODUCT_DEFINITION_SHAPE ( 'NONE', 'NONE',  #84 ) ;
#76 = ADVANCED_FACE ( 'NONE', ( #81 ), #1, .T. ) ;
#77 = LINE ( 'NONE', #113, #108 ) ;
#78 = DIRECTION ( 'NONE',  ( 0.000000000000000000, 0.000000000000000000, 1.000000000000000000 ) ) ;
#79 = AXIS2_PLACEMENT_3D ( 'NONE', #90, #7, #42 ) ;
#80 = DIRECTION ( 'NONE',  ( 0.000000000000000000, 0.000000000000000000, -1.000000000000000000 ) ) ;
#81 = FACE_OUTER_BOUND ( 'NONE', #2, .T. ) ;
#82 = DIRECTION ( 'NONE',  ( 0.000000000000000000, 0.000000000000000000, -1.000000000000000000 ) ) ;
#83 = ORIENTED_EDGE ( 'NONE', *, *, #73, .T. ) ;
#84 = PRODUCT_DEFINITION ( 'UNKNOWN', '', #23, #62 ) ;
#85 = AXIS2_PLACEMENT_3D ( 'NONE', #114, #87, #80 ) ;
#86 = CARTESIAN_POINT ( 'NONE',  ( -190.0000000000000000, 0.000000000000000000, 0.000000000000000000 ) ) ;
#87 = DIRECTION ( 'NONE',  ( 1.000000000000000000, 0.000000000000000000, 0.000000000000000000 ) ) ;
#88 = PLANE ( 'NONE',  #93 ) ;
#89 = FILL_AREA_STYLE_COLOUR ( '', #103 ) ;
#90 = CARTESIAN_POINT ( 'NONE',  ( 190.0000000000000000, 0.000000000000000000, 0.000000000000000000 ) ) ;
#91 = ORIENTED_EDGE ( 'NONE', *, *, #39, .T. ) ;
#92 = PLANE ( 'NONE',  #111 ) ;
#93 = AXIS2_PLACEMENT_3D ( 'NONE', #61, #125, #78 ) ;
#94 = VERTEX_POINT ( 'NONE', #118 ) ;
#95 = DIRECTION ( 'NONE',  ( 0.000000000000000000, 0.000000000000000000, 1.000000000000000000 ) ) ;
#96 = FACE_OUTER_BOUND ( 'NONE', #14, .T. ) ;
#97 = DIRECTION ( 'NONE',  ( -1.000000000000000000, 0.000000000000000000, 0.000000000000000000 ) ) ;
#98 = VECTOR ( 'NONE', #30, 1000.000000000000000 ) ;
#99 = ADVANCED_FACE ( 'NONE', ( #119 ), #92, .T. ) ;
#100 = DIRECTION ( 'NONE',  ( 0.000000000000000000, 0.000000000000000000, 1.000000000000000000 ) ) ;
#101 =( NAMED_UNIT ( * ) SI_UNIT ( $, .STERADIAN. ) SOLID_ANGLE_UNIT ( ) );
#102 = ORIENTED_EDGE ( 'NONE', *, *, #44, .F. ) ;
#103 = COLOUR_RGB ( '',0.7921568627450980005, 0.8196078431372548767, 0.9333333333333333481 ) ;
#104 = AXIS2_PLACEMENT_3D ( 'NONE', #52, #43, #72 ) ;
#105 = SURFACE_SIDE_STYLE ('',( #29 ) ) ;
#106 = UNCERTAINTY_MEASURE_WITH_UNIT (LENGTH_MEASURE( 1.000000000000000082E-05 ), #70, 'distance_accuracy_value', 'NONE');
#107 = CARTESIAN_POINT ( 'NONE',  ( -175.0000000000000000, 0.000000000000000000, 0.000000000000000000 ) ) ;
#108 = VECTOR ( 'NONE', #28, 1000.000000000000000 ) ;
#109 = APPLICATION_PROTOCOL_DEFINITION ( 'draft international standard', 'automotive_design', 1998, #54 ) ;
#110 = CYLINDRICAL_SURFACE ( 'NONE', #33, 12.69999999999998863 ) ;
#111 = AXIS2_PLACEMENT_3D ( 'NONE', #24, #65, #82 ) ;
#112 = ORIENTED_EDGE ( 'NONE', *, *, #5, .F. ) ;
#113 = CARTESIAN_POINT ( 'NONE',  ( -175.0000000000000000, 0.000000000000000000, -12.69999999999998863 ) ) ;
#114 = CARTESIAN_POINT ( 'NONE',  ( 190.0000000000000000, 0.000000000000000000, 0.000000000000000000 ) ) ;
#115 = CLOSED_SHELL ( 'NONE', ( #76, #117, #99, #12 ) ) ;
#116 = AXIS2_PLACEMENT_3D ( 'NONE', #31, #100, #20 ) ;
#117 = ADVANCED_FACE ( 'NONE', ( #71 ), #110, .T. ) ;
#118 = CARTESIAN_POINT ( 'NONE',  ( -190.0000000000000000, 0.000000000000000000, -12.69999999999998863 ) ) ;
#119 = FACE_OUTER_BOUND ( 'NONE', #74, .T. ) ;
#120 = ORIENTED_EDGE ( 'NONE', *, *, #44, .T. ) ;
#121 = CARTESIAN_POINT ( 'NONE',  ( 190.0000000000000000, 0.000000000000000000, -12.69999999999998863 ) ) ;
#122 = ADVANCED_BREP_SHAPE_REPRESENTATION ( 'Walker_Front_Straight_Tubing', ( #6, #116 ), #59 ) ;
#123 = FILL_AREA_STYLE ('',( #89 ) ) ;
#124 = AXIS2_PLACEMENT_3D ( 'NONE', #16, #60, #48 ) ;
#125 = DIRECTION ( 'NONE',  ( -1.000000000000000000, 0.000000000000000000, 0.000000000000000000 ) ) ;
ENDSEC;
END-ISO-10303-21;
