ISO-10303-21;
HEADER;
FILE_DESCRIPTION (( 'STEP AP214' ),
    '1' );
FILE_NAME ('Walker_Rear_Central_Main_Tubing.STEP',
    '2026-08-11T21:05:54',
    ( '' ),
    ( '' ),
    'SwSTEP 2.0',
    'SolidWorks 2023',
    '' );
FILE_SCHEMA (( 'AUTOMOTIVE_DESIGN' ));
ENDSEC;

DATA;
#1 = ORIENTED_EDGE ( 'NONE', *, *, #41, .F. ) ;
#2 = CARTESIAN_POINT ( 'NONE',  ( 124.0676482327824459, -9.568012509455346759, 8.591763379898512909 ) ) ;
#3 = CARTESIAN_POINT ( 'NONE',  ( 209.5723358707319335, 0.000000000000000000, 30.78181289930967779 ) ) ;
#4 = CARTESIAN_POINT ( 'NONE',  ( -126.3577177514551408, -7.439487757861694028, -12.70000000000000107 ) ) ;
#5 = VERTEX_POINT ( 'NONE', #236 ) ;
#6 = EDGE_CURVE ( 'NONE', #188, #212, #274, .T. ) ;
#7 = CARTESIAN_POINT ( 'NONE',  ( -122.5912972561591232, 0.000000000000000000, -0.8766961019533930921 ) ) ;
#8 =( BOUNDED_CURVE ( )  B_SPLINE_CURVE ( 3, ( #431, #129, #327, #535 ),
 .UNSPECIFIED., .F., .T. ) 
 B_SPLINE_CURVE_WITH_KNOTS ( ( 4, 4 ),
 ( 4.712388980384689674, 6.283185307179586232 ),
 .UNSPECIFIED. ) 
 CURVE ( )  GEOMETRIC_REPRESENTATION_ITEM ( )  RATIONAL_B_SPLINE_CURVE ( ( 1.000000000000000000, 0.8047378541243649375, 0.8047378541243649375, 1.000000000000000000 ) ) 
 REPRESENTATION_ITEM ( '' )  );
#9 = CARTESIAN_POINT ( 'NONE',  ( -123.5891131580885229, 0.000000000000000000, 13.00153689607044427 ) ) ;
#10 = CARTESIAN_POINT ( 'NONE',  ( -123.6169305984706028, 11.41517859766087639, 5.628020320475985550 ) ) ;
#11 = ORIENTED_EDGE ( 'NONE', *, *, #443, .T. ) ;
#12 = CARTESIAN_POINT ( 'NONE',  ( -124.1735216229820224, -12.70000000000000107, 7.616123982023869310 ) ) ;
#13 = CARTESIAN_POINT ( 'NONE',  ( -125.4016489007919688, 12.69999999999999929, -1.623247636417481488 ) ) ;
#14 = CARTESIAN_POINT ( 'NONE',  ( -125.0000000000000000, -12.69999999999999929, 2.042315765089328633E-15 ) ) ;
#15 = CARTESIAN_POINT ( 'NONE',  ( 127.5632879204972028, 0.000000000000000000, 0.000000000000000000 ) ) ;
#16 = CYLINDRICAL_SURFACE ( 'NONE', #465, 12.69999999999999574 ) ;
#17 = EDGE_CURVE ( 'NONE', #322, #5, #485, .T. ) ;
#18 = CARTESIAN_POINT ( 'NONE',  ( 126.5450116078284140, 11.09708713384311096, -6.244101342461708448 ) ) ;
#19 = DIRECTION ( 'NONE',  ( -0.3420201433256622181, 0.000000000000000000, -0.9396926207859107594 ) ) ;
#20 = ORIENTED_EDGE ( 'NONE', *, *, #17, .F. ) ;
#21 = CARTESIAN_POINT ( 'NONE',  ( -128.0678184680834590, 1.555301434917138827E-15, -12.39846310392955786 ) ) ;
#22 = ORIENTED_EDGE ( 'NONE', *, *, #79, .T. ) ;
#23 = CARTESIAN_POINT ( 'NONE',  ( 124.4128080442644233, -12.28447540811185590, 3.330131063050192353 ) ) ;
#24 =( BOUNDED_CURVE ( )  B_SPLINE_CURVE ( 3, ( #9, #634, #519, #368 ),
 .UNSPECIFIED., .F., .F. ) 
 B_SPLINE_CURVE_WITH_KNOTS ( ( 4, 4 ),
 ( 0.000000000000000000, 1.570796326794896780 ),
 .UNSPECIFIED. ) 
 CURVE ( )  GEOMETRIC_REPRESENTATION_ITEM ( )  RATIONAL_B_SPLINE_CURVE ( ( 1.000000000000000000, 0.8047378541243649375, 0.8047378541243649375, 1.000000000000000000 ) ) 
 REPRESENTATION_ITEM ( '' )  );
#25 = CARTESIAN_POINT ( 'NONE',  ( -123.5891131580885229, -7.439487757861690476, 13.00153689607043894 ) ) ;
#26 = CARTESIAN_POINT ( 'NONE',  ( -124.5453901673152473, -12.05136152812577421, 4.189298771094802198 ) ) ;
#27 = ADVANCED_FACE ( 'NONE', ( #135 ), #553, .F. ) ;
#28 = CARTESIAN_POINT ( 'NONE',  ( -128.0678184680831748, 1.662426107851439960, -12.39846310392965911 ) ) ;
#29 = LINE ( 'NONE', #229, #96 ) ;
#30 = ORIENTED_EDGE ( 'NONE', *, *, #520, .F. ) ;
#31 = CARTESIAN_POINT ( 'NONE',  ( -126.0857218668309514, -7.804743346934890802, -10.15576889520342085 ) ) ;
#32 = VECTOR ( 'NONE', #539, 1000.000000000000114 ) ;
#33 = ORIENTED_EDGE ( 'NONE', *, *, #605, .T. ) ;
#34 = CARTESIAN_POINT ( 'NONE',  ( -127.9879713644518660, 3.324198135662964848, -12.07576429417226116 ) ) ;
#35 = CARTESIAN_POINT ( 'NONE',  ( -123.6611726451110229, 4.092138861606295031, 12.33749776029788947 ) ) ;
#36 = CARTESIAN_POINT ( 'NONE',  ( -127.9879713644648831, -3.324198135660402453, -12.07576429416864450 ) ) ;
#37 = CARTESIAN_POINT ( 'NONE',  ( -124.0676482327821191, -9.568012509453849290, 8.591763379900015707 ) ) ;
#38 = CARTESIAN_POINT ( 'NONE',  ( 122.0384134336445214, 4.092138861606192002, 12.05136152812213801 ) ) ;
#39 = SURFACE_SIDE_STYLE ('',( #406 ) ) ;
#40 = CARTESIAN_POINT ( 'NONE',  ( -123.6234715526650518, 10.05236397203039544, 7.806680757576878626 ) ) ;
#41 = EDGE_CURVE ( 'NONE', #212, #463, #341, .T. ) ;
#42 = CARTESIAN_POINT ( 'NONE',  ( 123.6342380476027358, 3.292888619631958669, 12.58570417398638952 ) ) ;
#43 = CARTESIAN_POINT ( 'NONE',  ( -123.2113835903129342, -7.686576404856528377, 10.14374772648322676 ) ) ;
#44 = CARTESIAN_POINT ( 'NONE',  ( 122.2915083765997508, 6.364613562081368414, 11.02146130735593843 ) ) ;
#45 = CARTESIAN_POINT ( 'NONE',  ( 125.4016489008311623, -12.69999999999998153, -1.623247636408035710 ) ) ;
#46 = CARTESIAN_POINT ( 'NONE',  ( -123.5982078586678625, 1.662405559577215586, 12.91772784658205175 ) ) ;
#47 = APPLICATION_PROTOCOL_DEFINITION ( 'draft international standard', 'automotive_design', 1998, #249 ) ;
#48 =( BOUNDED_CURVE ( )  B_SPLINE_CURVE ( 3, ( #362, #218, #571, #631 ),
 .UNSPECIFIED., .F., .F. ) 
 B_SPLINE_CURVE_WITH_KNOTS ( ( 4, 4 ),
 ( 4.712388980384686121, 6.283185307179586232 ),
 .UNSPECIFIED. ) 
 CURVE ( )  GEOMETRIC_REPRESENTATION_ITEM ( )  RATIONAL_B_SPLINE_CURVE ( ( 1.000000000000000000, 0.8047378541243641603, 0.8047378541243641603, 1.000000000000000000 ) ) 
 REPRESENTATION_ITEM ( '' )  );
#49 = DIRECTION ( 'NONE',  ( 0.3420201433256631618, 0.000000000000000000, 0.9396926207859104263 ) ) ;
#50 = CARTESIAN_POINT ( 'NONE',  ( 125.6837724291605127, 11.09708713384109835, -6.395961046504773151 ) ) ;
#51 = ORIENTED_EDGE ( 'NONE', *, *, #520, .T. ) ;
#52 = CARTESIAN_POINT ( 'NONE',  ( 124.0676482327902335, 9.568012509456195858, 8.591763379900454467 ) ) ;
#53 = SURFACE_STYLE_USAGE ( .BOTH. , #39 ) ;
#54 = EDGE_CURVE ( 'NONE', #132, #531, #628, .T. ) ;
#55 = CARTESIAN_POINT ( 'NONE',  ( 126.9510648052401791, 6.454645456949740456, -11.06503835882121223 ) ) ;
#56 = ORIENTED_EDGE ( 'NONE', *, *, #54, .F. ) ;
#57 =( NAMED_UNIT ( * ) SI_UNIT ( $, .STERADIAN. ) SOLID_ANGLE_UNIT ( ) );
#58 = CARTESIAN_POINT ( 'NONE',  ( 123.5891131580886793, 7.439487757861716233, 13.00153689607046381 ) ) ;
#59 = DIRECTION ( 'NONE',  ( 0.9396926207859104263, 0.000000000000000000, -0.3420201433256631063 ) ) ;
#60 = CARTESIAN_POINT ( 'NONE',  ( -128.0678184680834590, 7.439487757861694917, -12.39846310392955075 ) ) ;
#61 = ORIENTED_EDGE ( 'NONE', *, *, #343, .T. ) ;
#62 = CARTESIAN_POINT ( 'NONE',  ( 124.2705454100421179, 12.03659355671555353, 4.136942554270749639 ) ) ;
#63 = FACE_OUTER_BOUND ( 'NONE', #312, .T. ) ;
#64 = CARTESIAN_POINT ( 'NONE',  ( -126.3577177514552119, 1.555301434917138433E-15, -12.69999999999999929 ) ) ;
#65 = EDGE_LOOP ( 'NONE', ( #30, #547, #56, #586 ) ) ;
#66 = CARTESIAN_POINT ( 'NONE',  ( 121.8790124414603468, 7.439487757861710016, 12.70000000000002238 ) ) ;
#67 = CARTESIAN_POINT ( 'NONE',  ( -126.3577177514552119, 1.555301434917138433E-15, -12.69999999999999929 ) ) ;
#68 = EDGE_CURVE ( 'NONE', #630, #188, #600, .T. ) ;
#69 = CARTESIAN_POINT ( 'NONE',  ( -125.0000000000000000, 12.69999999999999929, 2.332952152375707649E-15 ) ) ;
#70 = CARTESIAN_POINT ( 'NONE',  ( 125.0000000000000000, -12.69999999999999929, -5.153704740332072143E-14 ) ) ;
#71 = ORIENTED_EDGE ( 'NONE', *, *, #242, .F. ) ;
#72 = CARTESIAN_POINT ( 'NONE',  ( -125.0000000000000000, 12.69999999999999929, -1.141191126616864601E-15 ) ) ;
#73 = ORIENTED_EDGE ( 'NONE', *, *, #242, .T. ) ;
#74 = CARTESIAN_POINT ( 'NONE',  ( -125.0000000000000000, 12.69999999999999929, -7.053389886352355529E-16 ) ) ;
#75 = VERTEX_POINT ( 'NONE', #375 ) ;
#76 = CARTESIAN_POINT ( 'NONE',  ( -127.6806180197930587, 6.395961046410349127, -10.83360829846147411 ) ) ;
#77 =( BOUNDED_CURVE ( )  B_SPLINE_CURVE ( 3, ( #377, #583, #438, #640 ),
 .UNSPECIFIED., .F., .T. ) 
 B_SPLINE_CURVE_WITH_KNOTS ( ( 4, 4 ),
 ( 1.570796326794902109, 3.141592653589793116 ),
 .UNSPECIFIED. ) 
 CURVE ( )  GEOMETRIC_REPRESENTATION_ITEM ( )  RATIONAL_B_SPLINE_CURVE ( ( 1.000000000000000000, 0.8047378541243662697, 0.8047378541243662697, 1.000000000000000000 ) ) 
 REPRESENTATION_ITEM ( '' )  );
#78 = DIRECTION ( 'NONE',  ( -1.000000000000000000, -0.000000000000000000, -0.000000000000000000 ) ) ;
#79 = EDGE_CURVE ( 'NONE', #480, #75, #391, .T. ) ;
#80 = CARTESIAN_POINT ( 'NONE',  ( -124.9076566246796602, -12.69999999999999929, 0.8509582526267701619 ) ) ;
#81 = CARTESIAN_POINT ( 'NONE',  ( -127.2393526549834633, -1.682775252955529766, -12.69999999999999929 ) ) ;
#82 = ORIENTED_EDGE ( 'NONE', *, *, #563, .F. ) ;
#83 = CARTESIAN_POINT ( 'NONE',  ( 124.6341816357999619, -12.29381143839457735, 3.371071880548013322 ) ) ;
#84 = CARTESIAN_POINT ( 'NONE',  ( -125.0000000000000000, 12.69999999999999929, 2.332952152375707649E-15 ) ) ;
#85 = ORIENTED_EDGE ( 'NONE', *, *, #425, .F. ) ;
#86 = CARTESIAN_POINT ( 'NONE',  ( -125.5796351931371788, -12.37717190309706439, -3.287274532875137822 ) ) ;
#87 = ADVANCED_FACE ( 'NONE', ( #513 ), #626, .T. ) ;
#88 = CARTESIAN_POINT ( 'NONE',  ( -124.1393734289682698, -10.09786684512650368, 7.930804785093236831 ) ) ;
#89 = AXIS2_PLACEMENT_3D ( 'NONE', #306, #511, #49 ) ;
#90 = CARTESIAN_POINT ( 'NONE',  ( -126.9510648052401365, 6.454645456950124149, -11.06503835882388564 ) ) ;
#91 = CARTESIAN_POINT ( 'NONE',  ( -122.7606473450025391, -0.8210384831031823927, 12.69999999999999218 ) ) ;
#92 = CARTESIAN_POINT ( 'NONE',  ( 123.0962294487738546, 10.09786684512612531, 7.746870356620431330 ) ) ;
#93 = CARTESIAN_POINT ( 'NONE',  ( -123.3038604418087942, -8.334135319010336218, 9.619285439887132583 ) ) ;
#94 =( BOUNDED_CURVE ( )  B_SPLINE_CURVE ( 3, ( #273, #166, #529, #69 ),
 .UNSPECIFIED., .F., .F. ) 
 B_SPLINE_CURVE_WITH_KNOTS ( ( 4, 4 ),
 ( 3.141592653589793116, 4.712388980384689674 ),
 .UNSPECIFIED. ) 
 CURVE ( )  GEOMETRIC_REPRESENTATION_ITEM ( )  RATIONAL_B_SPLINE_CURVE ( ( 1.000000000000000000, 0.8047378541243649375, 0.8047378541243649375, 1.000000000000000000 ) ) 
 REPRESENTATION_ITEM ( '' )  );
#95 = CARTESIAN_POINT ( 'NONE',  ( 123.9978929572742459, 11.38851375551417000, 5.683231452717476984 ) ) ;
#96 = VECTOR ( 'NONE', #416, 1000.000000000000227 ) ;
#97 = CARTESIAN_POINT ( 'NONE',  ( -123.8674550640912742, 10.98798975105636622, 6.422981504899536453 ) ) ;
#98 = CARTESIAN_POINT ( 'NONE',  ( 122.8305780052300662, -3.254629380554408868, 12.30340351803149979 ) ) ;
#99 = CARTESIAN_POINT ( 'NONE',  ( 127.9879713644645989, -3.324198135659071074, -12.07576429416934438 ) ) ;
#100 = CARTESIAN_POINT ( 'NONE',  ( -122.9824034257075169, -5.571752353117672918, 11.44235877113489686 ) ) ;
#101 = CARTESIAN_POINT ( 'NONE',  ( 123.1717678162052465, 12.70000000000002238, 7.439487757861693140 ) ) ;
#102 = CARTESIAN_POINT ( 'NONE',  ( 122.7747079895194418, -1.641759158933598695, 12.62025812236657174 ) ) ;
#103 = CARTESIAN_POINT ( 'NONE',  ( 126.3223799923605952, 3.324198135660796360, -12.36945299190731973 ) ) ;
#104 = CARTESIAN_POINT ( 'NONE',  ( 125.4016489008041333, 12.69999999999998508, -1.623247636413567507 ) ) ;
#105 = CARTESIAN_POINT ( 'NONE',  ( 122.7606473450026670, 0.8210384831032041530, 12.70000000000001705 ) ) ;
#106 = CARTESIAN_POINT ( 'NONE',  ( 125.5796351931513897, -12.37717190306976001, -3.287274532861724552 ) ) ;
#107 = ADVANCED_FACE ( 'NONE', ( #665 ), #210, .T. ) ;
#108 = CARTESIAN_POINT ( 'NONE',  ( 126.0857218668310935, 7.804743346934879256, -10.15576889520340309 ) ) ;
#109 = ORIENTED_EDGE ( 'NONE', *, *, #484, .F. ) ;
#110 = PRODUCT ( 'Walker_Rear_Central_Main_Tubing', 'Walker_Rear_Central_Main_Tubing', '', ( #564 ) ) ;
#111 = CARTESIAN_POINT ( 'NONE',  ( 128.0678184680836296, 1.555301434917138433E-15, -12.39846310392949391 ) ) ;
#112 = CARTESIAN_POINT ( 'NONE',  ( 125.0000000000001421, -12.69999999999999751, -7.404651894106637215E-14 ) ) ;
#113 = CARTESIAN_POINT ( 'NONE',  ( -125.0000000000000000, 12.69999999999999929, -4.640332849003093763E-14 ) ) ;
#114 = AXIS2_PLACEMENT_3D ( 'NONE', #421, #268, #360 ) ;
#115 = ORIENTED_EDGE ( 'NONE', *, *, #202, .F. ) ;
#116 = MANIFOLD_SOLID_BREP ( 'Fillet1', #369 ) ;
#117 = CARTESIAN_POINT ( 'NONE',  ( 124.5914687347496113, 12.61813468384750436, 1.662405559564792190 ) ) ;
#118 = CARTESIAN_POINT ( 'NONE',  ( -125.2896705479275283, 12.69999999999999929, -1.642803312275422867 ) ) ;
#119 = CARTESIAN_POINT ( 'NONE',  ( -123.9978929572577897, 11.38851375549886313, 5.683231452708789710 ) ) ;
#120 = ADVANCED_FACE ( 'NONE', ( #403 ), #357, .T. ) ;
#121 = ORIENTED_EDGE ( 'NONE', *, *, #334, .F. ) ;
#122 = CARTESIAN_POINT ( 'NONE',  ( 124.5453901673153894, 12.05136152812576000, 4.189298771094859042 ) ) ;
#123 = DIRECTION ( 'NONE',  ( 0.9396926207859104263, 0.000000000000000000, -0.3420201433256631063 ) ) ;
#124 = CARTESIAN_POINT ( 'NONE',  ( 125.1777568810486798, 12.69999999999999574, -1.662725840265016686 ) ) ;
#125 = AXIS2_PLACEMENT_3D ( 'NONE', #7, #518, #574 ) ;
#126 = CARTESIAN_POINT ( 'NONE',  ( -125.0000000000000000, -12.69999999999999929, 2.042315765089328633E-15 ) ) ;
#127 = CARTESIAN_POINT ( 'NONE',  ( 123.5891131580886650, 0.000000000000000000, 13.00153689607049223 ) ) ;
#128 = ORIENTED_EDGE ( 'NONE', *, *, #54, .T. ) ;
#129 = CARTESIAN_POINT ( 'NONE',  ( -123.1717678162050902, 12.69999999999999751, 7.439487757861686035 ) ) ;
#130 = CARTESIAN_POINT ( 'NONE',  ( 125.0000000000001421, -12.69999999999999574, -2.586082111156624331E-15 ) ) ;
#131 = ADVANCED_FACE ( 'NONE', ( #417 ), #411, .T. ) ;
#132 = VERTEX_POINT ( 'NONE', #254 ) ;
#133 = CARTESIAN_POINT ( 'NONE',  ( 123.6169305984707592, -11.41517859766137732, 5.628020320474798055 ) ) ;
#134 = CARTESIAN_POINT ( 'NONE',  ( 124.4128080442725235, 12.28447540818951289, 3.330131063065738584 ) ) ;
#135 = FACE_OUTER_BOUND ( 'NONE', #591, .T. ) ;
#136 = CARTESIAN_POINT ( 'NONE',  ( -126.1863552906469010, -6.395961046413213502, -11.09708713387904133 ) ) ;
#137 = CARTESIAN_POINT ( 'NONE',  ( 123.5891131580886793, -7.439487757861716233, 13.00153689607046381 ) ) ;
#138 = CARTESIAN_POINT ( 'NONE',  ( -125.0000000000000000, -12.69999999999999929, 2.042315765089328633E-15 ) ) ;
#139 = CARTESIAN_POINT ( 'NONE',  ( 124.1393734289606385, -10.09786684512598498, 7.930804785091264186 ) ) ;
#140 = CARTESIAN_POINT ( 'NONE',  ( -123.2113835903210060, 7.686576404855515854, 10.14374772647921041 ) ) ;
#141 = CARTESIAN_POINT ( 'NONE',  ( -125.2896666338432112, -12.69999999999911111, -1.642781114405902576 ) ) ;
#142 = CARTESIAN_POINT ( 'NONE',  ( -123.7755878159723579, 6.364613562082226395, 11.28314455403191552 ) ) ;
#143 = CARTESIAN_POINT ( 'NONE',  ( 123.0506235348435666, 6.305338730974489714, 11.05546330638150287 ) ) ;
#144 = CARTESIAN_POINT ( 'NONE',  ( -124.0676482327900771, 9.568012509455222414, 8.591763379901465214 ) ) ;
#145 = CARTESIAN_POINT ( 'NONE',  ( 122.6486891337067107, -8.392499732683027958, 9.568012509455302350 ) ) ;
#146 = CARTESIAN_POINT ( 'NONE',  ( 125.0000000000001421, -12.69999999999999751, -4.409683887361671809E-14 ) ) ;
#147 = CARTESIAN_POINT ( 'NONE',  ( -122.6486891337065828, -8.392499732684022717, 9.568012509454282721 ) ) ;
#148 = CARTESIAN_POINT ( 'NONE',  ( 122.7606473450026670, -0.8210384831032041530, 12.70000000000001705 ) ) ;
#149 = CARTESIAN_POINT ( 'NONE',  ( 126.1176009727609397, -11.12859669624378967, -6.338230078473394258 ) ) ;
#150 = AXIS2_PLACEMENT_3D ( 'NONE', #15, #78, #320 ) ;
#151 = CARTESIAN_POINT ( 'NONE',  ( -122.0384134336443935, 4.092138861605701727, 12.05136152812231920 ) ) ;
#152 = CARTESIAN_POINT ( 'NONE',  ( 123.8781931131417480, 7.746870356616847531, 10.33762113059593801 ) ) ;
#153 =( NAMED_UNIT ( * ) PLANE_ANGLE_UNIT ( ) SI_UNIT ( $, .RADIAN. ) );
#154 = CARTESIAN_POINT ( 'NONE',  ( 126.8853177778170647, 10.15576889520513681, -7.619434836427259938 ) ) ;
#155 = ADVANCED_FACE ( 'NONE', ( #624 ), #621, .F. ) ;
#156 = CARTESIAN_POINT ( 'NONE',  ( 125.0000000000000000, -12.69999999999999929, -5.153704740332072143E-14 ) ) ;
#157 = CARTESIAN_POINT ( 'NONE',  ( 122.8723498190476562, 4.046218028437674974, 12.06650378985877836 ) ) ;
#158 = FILL_AREA_STYLE ('',( #198 ) ) ;
#159 = CARTESIAN_POINT ( 'NONE',  ( -124.3747637940020212, 11.41517859766105758, 5.761646759724036393 ) ) ;
#160 =( NAMED_UNIT ( * ) PLANE_ANGLE_UNIT ( ) SI_UNIT ( $, .RADIAN. ) );
#161 = CARTESIAN_POINT ( 'NONE',  ( -123.1717678162050760, -12.69999999999999041, 7.439487757861692252 ) ) ;
#162 = CARTESIAN_POINT ( 'NONE',  ( 128.0678184680838854, -1.662426107851434853, -12.39846310392943352 ) ) ;
#163 = CARTESIAN_POINT ( 'NONE',  ( 128.0678184680836296, -7.439487757861673600, -12.39846310392953121 ) ) ;
#164 = ORIENTED_EDGE ( 'NONE', *, *, #472, .T. ) ;
#165 = CARTESIAN_POINT ( 'NONE',  ( 124.3747637940020638, 11.41517859766090659, 5.761646759724398770 ) ) ;
#166 = CARTESIAN_POINT ( 'NONE',  ( -126.3577177514551408, 7.439487757861690476, -12.70000000000000462 ) ) ;
#167 = DIRECTION ( 'NONE',  ( 0.9396926207859104263, 0.000000000000000000, 0.3420201433256631063 ) ) ;
#168 = COLOUR_RGB ( '',0.7921568627450980005, 0.8196078431372548767, 0.9333333333333333481 ) ;
#169 = CARTESIAN_POINT ( 'NONE',  ( 124.1735216229821503, 12.70000000000003304, 7.616123982023858652 ) ) ;
#170 = DIRECTION ( 'NONE',  ( -0.3420201433256622181, 0.000000000000000000, 0.9396926207859107594 ) ) ;
#171 = CARTESIAN_POINT ( 'NONE',  ( -124.7033406074756385, 12.61607637122932424, 1.682439019516735135 ) ) ;
#172 = ORIENTED_EDGE ( 'NONE', *, *, #6, .T. ) ;
#173 = CARTESIAN_POINT ( 'NONE',  ( 125.0000000000000000, 12.69999999999999929, -5.406637749858225525E-14 ) ) ;
#174 = CARTESIAN_POINT ( 'NONE',  ( -213.9159916909678714, 1.555301434917138827E-15, 18.84771661532860421 ) ) ;
#175 = VERTEX_POINT ( 'NONE', #174 ) ;
#176 = CARTESIAN_POINT ( 'NONE',  ( 205.2286800504960240, 0.000000000000000000, 42.71590918329074071 ) ) ;
#177 = ORIENTED_EDGE ( 'NONE', *, *, #484, .T. ) ;
#178 = EDGE_CURVE ( 'NONE', #322, #630, #24, .T. ) ;
#179 = CARTESIAN_POINT ( 'NONE',  ( -125.6837724291603422, 11.09708713384100420, -6.395961046505033387 ) ) ;
#180 = ORIENTED_EDGE ( 'NONE', *, *, #41, .T. ) ;
#181 = CARTESIAN_POINT ( 'NONE',  ( 124.9076566246801860, -12.69999999999999929, 0.8509582526268058000 ) ) ;
#182 = CARTESIAN_POINT ( 'NONE',  ( -123.9978929572659467, -11.38851375549480238, 5.683231452708754183 ) ) ;
#183 = CIRCLE ( 'NONE', #558, 12.69999999999999574 ) ;
#184 = CARTESIAN_POINT ( 'NONE',  ( 124.2929331079895547, -11.02146130735868468, 6.515728980834372130 ) ) ;
#185 = CARTESIAN_POINT ( 'NONE',  ( 124.1735216229821503, -12.70000000000003304, 7.616123982023863093 ) ) ;
#186 = ORIENTED_EDGE ( 'NONE', *, *, #17, .T. ) ;
#187 = CARTESIAN_POINT ( 'NONE',  ( 124.8153176275666851, -12.61813468384748305, 1.701876158969892971 ) ) ;
#188 = VERTEX_POINT ( 'NONE', #21 ) ;
#189 = CARTESIAN_POINT ( 'NONE',  ( -126.5450116078429232, -11.09708713384176804, -6.244101342459873472 ) ) ;
#190 = CARTESIAN_POINT ( 'NONE',  ( -123.0506235348595965, -6.305338730977442907, 11.05546330638657082 ) ) ;
#191 = CARTESIAN_POINT ( 'NONE',  ( -125.0000000000000000, -12.69999999999999929, -5.977268533455812335E-15 ) ) ;
#192 = CARTESIAN_POINT ( 'NONE',  ( -122.9824034256914018, 5.571752353116083079, 11.44235877112486932 ) ) ;
#193 = CARTESIAN_POINT ( 'NONE',  ( 124.1393734289682556, 10.09786684512715738, 7.930804785092159470 ) ) ;
#194 = CARTESIAN_POINT ( 'NONE',  ( 127.9879713644644994, 3.324198135659826914, -12.07576429416905128 ) ) ;
#195 =( NAMED_UNIT ( * ) SI_UNIT ( $, .STERADIAN. ) SOLID_ANGLE_UNIT ( ) );
#196 = CARTESIAN_POINT ( 'NONE',  ( -122.0384134336443935, -4.092138861606805733, 12.05136152812186801 ) ) ;
#197 = CARTESIAN_POINT ( 'NONE',  ( 121.9788320829663917, -3.292888619632175384, 12.29381143839709090 ) ) ;
#198 = FILL_AREA_STYLE_COLOUR ( '', #168 ) ;
#199 = CARTESIAN_POINT ( 'NONE',  ( -123.6611726451032780, -4.092138861606455791, 12.33749776029500467 ) ) ;
#200 = CARTESIAN_POINT ( 'NONE',  ( 123.7755878159650820, -6.364613562080966069, 11.28314455403013916 ) ) ;
#201 = CARTESIAN_POINT ( 'NONE',  ( 126.7828226508213163, -7.863819759197928860, -10.11088968721619352 ) ) ;
#202 = EDGE_CURVE ( 'NONE', #463, #630, #94, .T. ) ;
#203 = CARTESIAN_POINT ( 'NONE',  ( -123.6234715526650660, -10.05236397204564724, 7.806680757586014430 ) ) ;
#204 = CARTESIAN_POINT ( 'NONE',  ( 122.9824034256834722, 5.571752353117084056, 11.44235877112891231 ) ) ;
#205 = CARTESIAN_POINT ( 'NONE',  ( 126.3577177514552972, 1.662426107851452839, -12.69999999999997264 ) ) ;
#206 = CARTESIAN_POINT ( 'NONE',  ( 125.5796351931518728, 12.37717190308549320, -3.287274532869216337 ) ) ;
#207 = AXIS2_PLACEMENT_3D ( 'NONE', #381, #267, #532 ) ;
#208 = CARTESIAN_POINT ( 'NONE',  ( 122.0384134336445356, -4.092138861606031242, 12.05136152812220729 ) ) ;
#209 = CARTESIAN_POINT ( 'NONE',  ( 126.9510648052401791, -6.454645456949731575, -11.06503835882121045 ) ) ;
#210 =( BOUNDED_SURFACE ( )  B_SPLINE_SURFACE ( 3, 2, ( 
 ( #318, #567, #426 ),
 ( #104, #581, #124 ),
 ( #321, #206, #271 ),
 ( #18, #618, #50 ),
 ( #154, #413, #622 ),
 ( #570, #307, #108 ),
 ( #516, #55, #277 ),
 ( #194, #456, #103 ),
 ( #515, #247, #205 ),
 ( #162, #461, #348 ),
 ( #99, #659, #451 ),
 ( #561, #209, #609 ),
 ( #656, #201, #664 ),
 ( #572, #301, #653 ),
 ( #504, #149, #363 ),
 ( #508, #106, #612 ),
 ( #45, #500, #310 ),
 ( #112, #352, #146 ) ),
 .UNSPECIFIED., .F., .F., .T. ) 
 B_SPLINE_SURFACE_WITH_KNOTS ( ( 4, 2, 2, 2, 2, 2, 2, 2, 4 ),
 ( 3, 3 ),
 ( 1.570796326794900777, 1.963495408493623806, 2.356194490192347057, 2.748893571891070309, 3.141592653589793116, 3.534291735288515923, 3.926990816987239175, 4.319689898685962426, 4.712388980384685233 ),
 ( 0.000000000000000000, 1.000000000000000000 ),
 .UNSPECIFIED. ) 
 GEOMETRIC_REPRESENTATION_ITEM ( )  RATIONAL_B_SPLINE_SURFACE ( (
 ( 1.000000000000000000, 1.000000000000000000, 1.000000000000000000),
 ( 1.000000000000000000, 1.000000000000000000, 1.000000000000000000),
 ( 1.000000000000000000, 0.9991882094069433062, 1.000000000000000000),
 ( 1.000000000000000000, 0.9963909991397337240, 1.000000000000000000),
 ( 1.000000000000000000, 0.9944215496615236294, 1.000000000000000000),
 ( 1.000000000000000000, 0.9904443452507527557, 1.000000000000000000),
 ( 1.000000000000000000, 0.9884610473997729185, 1.000000000000000000),
 ( 1.000000000000000000, 0.9856333941070264393, 1.000000000000000000),
 ( 1.000000000000000000, 0.9848077530123207080, 1.000000000000000000),
 ( 1.000000000000000000, 0.9848077530120968870, 1.000000000000000000),
 ( 1.000000000000000000, 0.9856333941070264393, 1.000000000000000000),
 ( 1.000000000000000000, 0.9884610473997729185, 1.000000000000000000),
 ( 1.000000000000000000, 0.9904443452507527557, 1.000000000000000000),
 ( 1.000000000000000000, 0.9944215496615236294, 1.000000000000000000),
 ( 1.000000000000000000, 0.9963909991397312815, 1.000000000000000000),
 ( 1.000000000000000000, 0.9991882094069457487, 1.000000000000000000),
 ( 1.000000000000000000, 1.000013512375764080, 1.000000000000000000),
 ( 1.000000000000000000, 1.000000000000000000, 1.000000000000000000) ) ) 
 REPRESENTATION_ITEM ( '' )  SURFACE ( )  );
#211 = CARTESIAN_POINT ( 'NONE',  ( -123.9943689389878898, 12.05136152812579908, 4.092138861597319988 ) ) ;
#212 = VERTEX_POINT ( 'NONE', #214 ) ;
#213 = CARTESIAN_POINT ( 'NONE',  ( -121.8790124414602047, 0.000000000000000000, 12.69999999999999929 ) ) ;
#214 = CARTESIAN_POINT ( 'NONE',  ( -125.0000000000000000, -12.69999999999999929, 2.042315765089328633E-15 ) ) ;
#215 =( BOUNDED_CURVE ( )  B_SPLINE_CURVE ( 3, ( #372, #389, #493, #233 ),
 .UNSPECIFIED., .F., .F. ) 
 B_SPLINE_CURVE_WITH_KNOTS ( ( 4, 4 ),
 ( 3.141592653589793116, 4.712388980384686121 ),
 .UNSPECIFIED. ) 
 CURVE ( )  GEOMETRIC_REPRESENTATION_ITEM ( )  RATIONAL_B_SPLINE_CURVE ( ( 1.000000000000000000, 0.8047378541243658256, 0.8047378541243658256, 1.000000000000000000 ) ) 
 REPRESENTATION_ITEM ( '' )  );
#216 = CARTESIAN_POINT ( 'NONE',  ( -125.0000000000000000, 12.69999999999999929, -4.889935774754691620E-14 ) ) ;
#217 = ORIENTED_EDGE ( 'NONE', *, *, #299, .T. ) ;
#218 = CARTESIAN_POINT ( 'NONE',  ( 123.1717678162052465, -12.70000000000002238, 7.439487757861688699 ) ) ;
#219 = CARTESIAN_POINT ( 'NONE',  ( -126.3658498932739178, 10.20025215168335109, -7.746119668120448054 ) ) ;
#220 = DIRECTION ( 'NONE',  ( 0.3420201433256631063, 0.000000000000000000, -0.9396926207859104263 ) ) ;
#221 = EDGE_LOOP ( 'NONE', ( #121, #71 ) ) ;
#222 = CARTESIAN_POINT ( 'NONE',  ( 213.9159916909678429, 1.555301434917138433E-15, 18.84771661532861486 ) ) ;
#223 = EDGE_LOOP ( 'NONE', ( #51, #217, #517, #61, #521, #316 ) ) ;
#224 = CARTESIAN_POINT ( 'NONE',  ( -209.5723358707319335, 0.000000000000000000, 30.78181289930967779 ) ) ;
#225 = ADVANCED_FACE ( 'NONE', ( #632 ), #16, .T. ) ;
#226 = ORIENTED_EDGE ( 'NONE', *, *, #299, .F. ) ;
#227 = CARTESIAN_POINT ( 'NONE',  ( -124.1907823296428290, -12.29381143839446366, 3.292888619645301773 ) ) ;
#228 = CARTESIAN_POINT ( 'NONE',  ( 124.2705454100258464, -12.03659355674705722, 4.136942554282384776 ) ) ;
#229 = CARTESIAN_POINT ( 'NONE',  ( -126.9349530763950469, 1.555301434917138827E-15, -12.81079238593445702 ) ) ;
#230 = CARTESIAN_POINT ( 'NONE',  ( -123.9943689389879040, -12.05136152812562678, 4.092138861597717892 ) ) ;
#231 = CARTESIAN_POINT ( 'NONE',  ( 123.4359149809361043, -11.02146130735869356, 6.364613562077237496 ) ) ;
#232 = EDGE_CURVE ( 'NONE', #480, #275, #373, .T. ) ;
#233 = CARTESIAN_POINT ( 'NONE',  ( 125.0000000000000000, 12.69999999999999929, -5.406637749858225525E-14 ) ) ;
#234 = EDGE_LOOP ( 'NONE', ( #308, #164, #73, #20, #365 ) ) ;
#235 = CARTESIAN_POINT ( 'NONE',  ( -127.6806180197800415, -6.395961046412842244, -10.83360829846511741 ) ) ;
#236 = CARTESIAN_POINT ( 'NONE',  ( -205.2286800504959956, 0.000000000000000000, 42.71590918329072650 ) ) ;
#237 = CARTESIAN_POINT ( 'NONE',  ( -126.8853177778170647, -10.15576889520557380, -7.619434836426757229 ) ) ;
#238 = VECTOR ( 'NONE', #379, 1000.000000000000000 ) ;
#239 = CARTESIAN_POINT ( 'NONE',  ( -123.5099243439008916, -9.516950551629722810, 8.450638978306919569 ) ) ;
#240 = CARTESIAN_POINT ( 'NONE',  ( -126.3658498932739178, -10.20025215168157828, -7.746119668119543000 ) ) ;
#241 = CARTESIAN_POINT ( 'NONE',  ( -123.6342380476097276, -3.292888619632269531, 12.58570417398888885 ) ) ;
#242 = EDGE_CURVE ( 'NONE', #175, #5, #552, .T. ) ;
#243 = CARTESIAN_POINT ( 'NONE',  ( 123.4359149809279899, 11.02146130735852303, 6.364613562077493292 ) ) ;
#244 = CARTESIAN_POINT ( 'NONE',  ( -209.5723358707319335, 0.000000000000000000, 30.78181289930967779 ) ) ;
#245 = CARTESIAN_POINT ( 'NONE',  ( -123.4359149809278478, -11.02146130735813045, 6.364613562078059950 ) ) ;
#246 = CARTESIAN_POINT ( 'NONE',  ( 123.7318484030272572, 5.628020320465610737, 11.68620989864276005 ) ) ;
#247 = CARTESIAN_POINT ( 'NONE',  ( 127.2393526549976031, 1.682775252955329703, -12.69999999999997620 ) ) ;
#248 = CARTESIAN_POINT ( 'NONE',  ( -123.9370564604129328, -8.392499732684509439, 9.795186430216942242 ) ) ;
#249 = APPLICATION_CONTEXT ( 'automotive_design' ) ;
#250 = CARTESIAN_POINT ( 'NONE',  ( 122.5184789928002402, 7.746870356616521569, 10.09786684512874544 ) ) ;
#251 = CARTESIAN_POINT ( 'NONE',  ( -122.8305780052379959, 3.254629380552375828, 12.30340351801842580 ) ) ;
#252 = SHAPE_DEFINITION_REPRESENTATION ( #374, #354 ) ;
#253 = CARTESIAN_POINT ( 'NONE',  ( 122.2915083765997650, -6.364613562082439557, 11.02146130735522966 ) ) ;
#254 = CARTESIAN_POINT ( 'NONE',  ( 125.0000000000000000, -12.69999999999999929, -5.153704740332072143E-14 ) ) ;
#255 = CARTESIAN_POINT ( 'NONE',  ( -124.2705454100582045, 12.03659355673078579, 4.136942554279371187 ) ) ;
#256 = EDGE_LOOP ( 'NONE', ( #427, #82, #444, #577 ) ) ;
#257 = DIRECTION ( 'NONE',  ( 0.3420201433256622181, 0.000000000000000000, -0.9396926207859107594 ) ) ;
#258 = AXIS2_PLACEMENT_3D ( 'NONE', #3, #297, #566 ) ;
#259 = CARTESIAN_POINT ( 'NONE',  ( 122.5184789928002544, -7.746870356615496611, 10.09786684512943467 ) ) ;
#260 =( LENGTH_UNIT ( ) NAMED_UNIT ( * ) SI_UNIT ( .MILLI., .METRE. ) );
#261 = CARTESIAN_POINT ( 'NONE',  ( -124.7957295248666441, 12.70000000000000284, 0.8312224850589156055 ) ) ;
#262 = CARTESIAN_POINT ( 'NONE',  ( 125.0000000000001421, 12.69999999999999574, -5.601129398078798361E-15 ) ) ;
#263 = DIRECTION ( 'NONE',  ( -0.9396926207859104263, -0.000000000000000000, -0.3420201433256631618 ) ) ;
#264 = CARTESIAN_POINT ( 'NONE',  ( -124.9076566246391735, 12.70000000000000284, 0.8509582526228992583 ) ) ;
#265 = ORIENTED_EDGE ( 'NONE', *, *, #512, .T. ) ;
#266 = LINE ( 'NONE', #222, #32 ) ;
#267 = DIRECTION ( 'NONE',  ( -1.000000000000000000, -0.000000000000000000, -0.000000000000000000 ) ) ;
#268 = DIRECTION ( 'NONE',  ( 0.9396926207859104263, 0.000000000000000000, 0.3420201433256631063 ) ) ;
#269 = EDGE_LOOP ( 'NONE', ( #430, #488, #432, #380, #128 ) ) ;
#270 = CARTESIAN_POINT ( 'NONE',  ( 124.8516920110341033, 12.69999999999999574, 0.8410964015398286753 ) ) ;
#271 = CARTESIAN_POINT ( 'NONE',  ( 125.3553797494595443, 12.36945299194555936, -3.324198135568503076 ) ) ;
#272 = VERTEX_POINT ( 'NONE', #276 ) ;
#273 = CARTESIAN_POINT ( 'NONE',  ( -126.3577177514552119, 1.555301434917138433E-15, -12.69999999999999929 ) ) ;
#274 =( BOUNDED_CURVE ( )  B_SPLINE_CURVE ( 3, ( #278, #382, #286, #138 ),
 .UNSPECIFIED., .F., .T. ) 
 B_SPLINE_CURVE_WITH_KNOTS ( ( 4, 4 ),
 ( 3.141592653589793116, 4.712388980384689674 ),
 .UNSPECIFIED. ) 
 CURVE ( )  GEOMETRIC_REPRESENTATION_ITEM ( )  RATIONAL_B_SPLINE_CURVE ( ( 1.000000000000000000, 0.8047378541243649375, 0.8047378541243649375, 1.000000000000000000 ) ) 
 REPRESENTATION_ITEM ( '' )  );
#275 = VERTEX_POINT ( 'NONE', #127 ) ;
#276 = CARTESIAN_POINT ( 'NONE',  ( 121.8790124414603611, 0.000000000000000000, 12.69999999999999929 ) ) ;
#277 = CARTESIAN_POINT ( 'NONE',  ( 126.1863552906330170, 6.395961046412473650, -11.09708713387932022 ) ) ;
#278 = CARTESIAN_POINT ( 'NONE',  ( -128.0678184680834590, 1.555301434917138827E-15, -12.39846310392955786 ) ) ;
#279 =( BOUNDED_CURVE ( )  B_SPLINE_CURVE ( 3, ( #213, #623, #161, #126 ),
 .UNSPECIFIED., .F., .T. ) 
 B_SPLINE_CURVE_WITH_KNOTS ( ( 4, 4 ),
 ( 0.000000000000000000, 1.570796326794896336 ),
 .UNSPECIFIED. ) 
 CURVE ( )  GEOMETRIC_REPRESENTATION_ITEM ( )  RATIONAL_B_SPLINE_CURVE ( ( 1.000000000000000000, 0.8047378541243650485, 0.8047378541243650485, 1.000000000000000000 ) ) 
 REPRESENTATION_ITEM ( '' )  );
#280 = CARTESIAN_POINT ( 'NONE',  ( -126.7828226508352287, 7.863819759196269743, -10.11088968721526804 ) ) ;
#281 = CARTESIAN_POINT ( 'NONE',  ( 124.6341816357998908, 12.29381143839443524, 3.371071880548713651 ) ) ;
#282 = CARTESIAN_POINT ( 'NONE',  ( -124.6341816358077494, -12.29381143839494506, 3.371071880548899280 ) ) ;
#283 =( BOUNDED_CURVE ( )  B_SPLINE_CURVE ( 3, ( #409, #66, #101, #355 ),
 .UNSPECIFIED., .F., .T. ) 
 B_SPLINE_CURVE_WITH_KNOTS ( ( 4, 4 ),
 ( 0.000000000000000000, 1.570796326794900111 ),
 .UNSPECIFIED. ) 
 CURVE ( )  GEOMETRIC_REPRESENTATION_ITEM ( )  RATIONAL_B_SPLINE_CURVE ( ( 1.000000000000000000, 0.8047378541243641603, 0.8047378541243641603, 1.000000000000000000 ) ) 
 REPRESENTATION_ITEM ( '' )  );
#284 = CARTESIAN_POINT ( 'NONE',  ( 124.3747637940022770, -11.41517859766139686, 5.761646759723233480 ) ) ;
#285 = FACE_OUTER_BOUND ( 'NONE', #422, .T. ) ;
#286 = CARTESIAN_POINT ( 'NONE',  ( -126.7970864517046437, -12.70000000000000107, -7.262851533699516082 ) ) ;
#287 = APPLICATION_CONTEXT ( 'automotive_design' ) ;
#288 = CARTESIAN_POINT ( 'NONE',  ( -127.1796630344226884, -3.362180368259755081, -12.36148333996242243 ) ) ;
#289 = LINE ( 'NONE', #441, #474 ) ;
#290 = CARTESIAN_POINT ( 'NONE',  ( 124.7033406074840087, -12.61607637132195059, 1.682439019535605818 ) ) ;
#291 = CARTESIAN_POINT ( 'NONE',  ( -122.7747079895112705, 1.641759158935587548, 12.62025812237963329 ) ) ;
#292 = CARTESIAN_POINT ( 'NONE',  ( -126.3577177514551551, -1.662426107851458834, -12.70000000000000107 ) ) ;
#293 = CARTESIAN_POINT ( 'NONE',  ( -123.9370564604049747, 8.392499732683043945, 9.795186430215601092 ) ) ;
#294 = CARTESIAN_POINT ( 'NONE',  ( 123.6234715526652082, 10.05236397202935628, 7.806680757574846474 ) ) ;
#295 = CARTESIAN_POINT ( 'NONE',  ( -122.8305780052379816, -3.254629380552651163, 12.30340351802143140 ) ) ;
#296 =( BOUNDED_CURVE ( )  B_SPLINE_CURVE ( 3, ( #173, #169, #58, #419 ),
 .UNSPECIFIED., .F., .T. ) 
 B_SPLINE_CURVE_WITH_KNOTS ( ( 4, 4 ),
 ( 4.712388980384685233, 6.283185307179586232 ),
 .UNSPECIFIED. ) 
 CURVE ( )  GEOMETRIC_REPRESENTATION_ITEM ( )  RATIONAL_B_SPLINE_CURVE ( ( 1.000000000000000000, 0.8047378541243640493, 0.8047378541243640493, 1.000000000000000000 ) ) 
 REPRESENTATION_ITEM ( '' )  );
#297 = DIRECTION ( 'NONE',  ( -0.9396926207859105373, -0.000000000000000000, -0.3420201433256631618 ) ) ;
#298 = CARTESIAN_POINT ( 'NONE',  ( -123.4359149809278478, 11.02146130735836138, 6.364613562077723330 ) ) ;
#299 = EDGE_CURVE ( 'NONE', #328, #463, #587, .T. ) ;
#300 = CARTESIAN_POINT ( 'NONE',  ( 123.7318484030263761, -5.628020320466228021, 11.68620989864215787 ) ) ;
#301 = CARTESIAN_POINT ( 'NONE',  ( 126.3658498932881571, -10.20025215168147703, -7.746119668119614055 ) ) ;
#302 =( BOUNDED_CURVE ( )  B_SPLINE_CURVE ( 3, ( #643, #137, #185, #597 ),
 .UNSPECIFIED., .F., .F. ) 
 B_SPLINE_CURVE_WITH_KNOTS ( ( 4, 4 ),
 ( 0.000000000000000000, 1.570796326794900999 ),
 .UNSPECIFIED. ) 
 CURVE ( )  GEOMETRIC_REPRESENTATION_ITEM ( )  RATIONAL_B_SPLINE_CURVE ( ( 1.000000000000000000, 0.8047378541243640493, 0.8047378541243640493, 1.000000000000000000 ) ) 
 REPRESENTATION_ITEM ( '' )  );
#303 = CARTESIAN_POINT ( 'NONE',  ( -123.5982078586675357, -1.662405559577421865, 12.91772784658189543 ) ) ;
#304 = DIRECTION ( 'NONE',  ( 0.9396926207859104263, 0.000000000000000000, 0.3420201433256631063 ) ) ;
#305 = CARTESIAN_POINT ( 'NONE',  ( 122.8305780052300662, 3.254629380553630380, 12.30340351802547794 ) ) ;
#306 = CARTESIAN_POINT ( 'NONE',  ( -122.5912972561591232, 0.000000000000000000, -0.8766961019533930921 ) ) ;
#307 = CARTESIAN_POINT ( 'NONE',  ( 126.7828226508213163, 7.863819759200587178, -10.11088968722059356 ) ) ;
#308 = ORIENTED_EDGE ( 'NONE', *, *, #68, .T. ) ;
#309 = CARTESIAN_POINT ( 'NONE',  ( 122.9375679330089071, 9.568012509455304127, 8.392499732683027958 ) ) ;
#310 = CARTESIAN_POINT ( 'NONE',  ( 125.1777568810340853, -12.69999999999999218, -1.662725840267125443 ) ) ;
#311 = CARTESIAN_POINT ( 'NONE',  ( 126.7970864517047858, -12.69999999999997442, -7.262851533699509865 ) ) ;
#312 = EDGE_LOOP ( 'NONE', ( #226, #491, #265, #33, #177, #180 ) ) ;
#313 = CARTESIAN_POINT ( 'NONE',  ( 126.3577177514552972, -7.439487757861660278, -12.69999999999997975 ) ) ;
#314 = CARTESIAN_POINT ( 'NONE',  ( -125.8343809911516615, 10.15576889520385784, -7.804743346934452930 ) ) ;
#315 = CARTESIAN_POINT ( 'NONE',  ( -125.7953326449277256, -12.70000000000000107, -7.439487757861690476 ) ) ;
#316 = ORIENTED_EDGE ( 'NONE', *, *, #614, .T. ) ;
#317 = CARTESIAN_POINT ( 'NONE',  ( -125.3553797494593738, 12.36945299194567660, -3.324198135568258383 ) ) ;
#318 = CARTESIAN_POINT ( 'NONE',  ( 125.0000000000001421, 12.69999999999999751, -4.550843359338123410E-14 ) ) ;
#319 = DIRECTION ( 'NONE',  ( 1.000000000000000000, 0.000000000000000000, 0.000000000000000000 ) ) ;
#320 = DIRECTION ( 'NONE',  ( 0.000000000000000000, 0.000000000000000000, 1.000000000000000000 ) ) ;
#321 = CARTESIAN_POINT ( 'NONE',  ( 125.8029949946502768, 12.36945299194352899, -3.245271490865721642 ) ) ;
#322 = VERTEX_POINT ( 'NONE', #429 ) ;
#323 = ADVANCED_FACE ( 'NONE', ( #63 ), #325, .T. ) ;
#324 =( GEOMETRIC_REPRESENTATION_CONTEXT ( 3 ) GLOBAL_UNCERTAINTY_ASSIGNED_CONTEXT ( ( #613 ) ) GLOBAL_UNIT_ASSIGNED_CONTEXT ( ( #260, #153, #195 ) ) REPRESENTATION_CONTEXT ( 'NONE', 'WORKASPACE' ) );
#325 = CYLINDRICAL_SURFACE ( 'NONE', #207, 12.69999999999999929 ) ;
#326 = CARTESIAN_POINT ( 'NONE',  ( -124.8153176275586276, -12.61813468384711534, 1.701876158968987696 ) ) ;
#327 = CARTESIAN_POINT ( 'NONE',  ( -121.8790124414602047, 7.439487757861690476, 12.69999999999999574 ) ) ;
#328 = VERTEX_POINT ( 'NONE', #483 ) ;
#329 = CARTESIAN_POINT ( 'NONE',  ( 125.0000000000001421, -12.69999999999999574, -8.711732267913075226E-15 ) ) ;
#330 = CARTESIAN_POINT ( 'NONE',  ( -123.5891131580885229, 0.000000000000000000, 13.00153689607044427 ) ) ;
#331 = EDGE_LOOP ( 'NONE', ( #540, #115, #1, #637 ) ) ;
#332 = CARTESIAN_POINT ( 'NONE',  ( -125.8029949946354833, -12.36945299194490033, -3.245271490867541964 ) ) ;
#333 = CARTESIAN_POINT ( 'NONE',  ( 124.7957295248745027, 12.69999999999999574, 0.8312224850607889959 ) ) ;
#334 = EDGE_CURVE ( 'NONE', #5, #175, #412, .T. ) ;
#335 = CARTESIAN_POINT ( 'NONE',  ( -124.2929331079816393, -11.02146130735814822, 6.515728980832379058 ) ) ;
#336 = CARTESIAN_POINT ( 'NONE',  ( -127.4532327066452382, -7.804743346932738746, -9.914639837732833527 ) ) ;
#337 = DIRECTION ( 'NONE',  ( -1.000000000000000000, -0.000000000000000000, -0.000000000000000000 ) ) ;
#338 = CARTESIAN_POINT ( 'NONE',  ( -124.5914687347494834, -12.61813468384759851, 1.662405559564330337 ) ) ;
#339 = CARTESIAN_POINT ( 'NONE',  ( -126.9510648052261246, -6.454645456951050519, -11.06503835882666920 ) ) ;
#340 = CARTESIAN_POINT ( 'NONE',  ( -121.9788320829743071, 3.292888619632627911, 12.29381143839697899 ) ) ;
#341 =( BOUNDED_CURVE ( )  B_SPLINE_CURVE ( 3, ( #14, #315, #4, #64 ),
 .UNSPECIFIED., .F., .T. ) 
 B_SPLINE_CURVE_WITH_KNOTS ( ( 4, 4 ),
 ( 1.570796326794896336, 3.141592653589793116 ),
 .UNSPECIFIED. ) 
 CURVE ( )  GEOMETRIC_REPRESENTATION_ITEM ( )  RATIONAL_B_SPLINE_CURVE ( ( 1.000000000000000000, 0.8047378541243649375, 0.8047378541243649375, 1.000000000000000000 ) ) 
 REPRESENTATION_ITEM ( '' )  );
#342 = CARTESIAN_POINT ( 'NONE',  ( -126.7828226508352287, -7.863819759198027448, -10.11088968721612780 ) ) ;
#343 = EDGE_CURVE ( 'NONE', #630, #470, #8, .T. ) ;
#344 = CARTESIAN_POINT ( 'NONE',  ( -122.8723498190233698, -4.046218028437259306, 12.06650378985267658 ) ) ;
#345 = CARTESIAN_POINT ( 'NONE',  ( 121.9788320829663917, 3.292888619632436065, 12.29381143839703761 ) ) ;
#346 = CARTESIAN_POINT ( 'NONE',  ( -122.9375679330168509, 9.568012509454797865, 8.392499732683514679 ) ) ;
#347 = CARTESIAN_POINT ( 'NONE',  ( 123.6169305984707449, 11.41517859766087462, 5.628020320475995319 ) ) ;
#348 = CARTESIAN_POINT ( 'NONE',  ( 126.3577177514552972, -1.662426107851438628, -12.69999999999997620 ) ) ;
#349 = ADVANCED_FACE ( 'NONE', ( #420 ), #505, .T. ) ;
#350 = CARTESIAN_POINT ( 'NONE',  ( -123.0962294487737125, 10.09786684512627986, 7.746870356620187081 ) ) ;
#351 = CARTESIAN_POINT ( 'NONE',  ( 123.6611726451100282, 4.092138861607629963, 12.33749776029692491 ) ) ;
#352 = CARTESIAN_POINT ( 'NONE',  ( 125.0000000000001421, -12.69999999999999751, -5.907167890734154828E-14 ) ) ;
#353 = CARTESIAN_POINT ( 'NONE',  ( -123.7318484030260208, 5.628020320466949222, 11.68620989864174220 ) ) ;
#354 = ADVANCED_BREP_SHAPE_REPRESENTATION ( 'Walker_Rear_Central_Main_Tubing', ( #116, #582 ), #525 ) ;
#355 = CARTESIAN_POINT ( 'NONE',  ( 125.0000000000000000, 12.69999999999999929, -5.406637749858225525E-14 ) ) ;
#356 = CARTESIAN_POINT ( 'NONE',  ( 122.6486891337067107, 8.392499732682958680, 9.568012509455362746 ) ) ;
#357 = CYLINDRICAL_SURFACE ( 'NONE', #258, 12.69999999999999574 ) ;
#358 = CARTESIAN_POINT ( 'NONE',  ( -124.4128080442723672, 12.28447540820481798, 3.330131063069052377 ) ) ;
#359 = CARTESIAN_POINT ( 'NONE',  ( 123.9370564604050884, 8.392499732682052738, 9.795186430216672235 ) ) ;
#360 = DIRECTION ( 'NONE',  ( 0.3420201433256622181, 0.000000000000000000, -0.9396926207859107594 ) ) ;
#361 = ORIENTED_EDGE ( 'NONE', *, *, #334, .T. ) ;
#362 = CARTESIAN_POINT ( 'NONE',  ( 125.0000000000000000, -12.69999999999999929, -5.153704740332072143E-14 ) ) ;
#363 = CARTESIAN_POINT ( 'NONE',  ( 125.6837724291607827, -11.09708713384080525, -6.395961046505483694 ) ) ;
#364 = CARTESIAN_POINT ( 'NONE',  ( -125.0000000000000000, 12.69999999999999929, 2.332952152375707649E-15 ) ) ;
#365 = ORIENTED_EDGE ( 'NONE', *, *, #178, .T. ) ;
#366 = CARTESIAN_POINT ( 'NONE',  ( 125.0000000000000000, 12.69999999999999929, -5.406637749858225525E-14 ) ) ;
#367 = CARTESIAN_POINT ( 'NONE',  ( 124.8153176275667278, 12.61813468384760917, 1.701876158969241937 ) ) ;
#368 = CARTESIAN_POINT ( 'NONE',  ( -125.0000000000000000, 12.69999999999999929, 2.332952152375707649E-15 ) ) ;
#369 = CLOSED_SHELL ( 'NONE', ( #120, #415, #131, #225, #323, #455, #87, #155, #399, #107, #27, #349 ) ) ;
#370 = CARTESIAN_POINT ( 'NONE',  ( -124.5453901673151194, 12.05136152812561612, 4.189298771095177010 ) ) ;
#371 = ORIENTED_EDGE ( 'NONE', *, *, #232, .F. ) ;
#372 = CARTESIAN_POINT ( 'NONE',  ( 128.0678184680836296, 1.555301434917138433E-15, -12.39846310392949391 ) ) ;
#373 = LINE ( 'NONE', #176, #436 ) ;
#374 = PRODUCT_DEFINITION_SHAPE ( 'NONE', 'NONE',  #639 ) ;
#375 = CARTESIAN_POINT ( 'NONE',  ( 213.9159916909678429, 1.555301434917138433E-15, 18.84771661532861842 ) ) ;
#376 = EDGE_LOOP ( 'NONE', ( #22, #466 ) ) ;
#377 = CARTESIAN_POINT ( 'NONE',  ( 125.0000000000000000, 12.69999999999999929, -5.406637749858225525E-14 ) ) ;
#378 = PRODUCT_DEFINITION_FORMATION_WITH_SPECIFIED_SOURCE ( 'ANY', '', #110, .NOT_KNOWN. ) ;
#379 = DIRECTION ( 'NONE',  ( -1.000000000000000000, -0.000000000000000000, -0.000000000000000000 ) ) ;
#380 = ORIENTED_EDGE ( 'NONE', *, *, #563, .T. ) ;
#381 = CARTESIAN_POINT ( 'NONE',  ( 127.5632879204972028, 0.000000000000000000, 0.000000000000000000 ) ) ;
#382 = CARTESIAN_POINT ( 'NONE',  ( -128.0678184680834590, -7.439487757861693140, -12.39846310392955608 ) ) ;
#383 = CARTESIAN_POINT ( 'NONE',  ( -126.1176009727745537, 11.12859669620396907, -6.338230078452258276 ) ) ;
#384 = EDGE_LOOP ( 'NONE', ( #482, #11, #414, #390, #371 ) ) ;
#385 = CARTESIAN_POINT ( 'NONE',  ( -125.8343809911516615, -10.15576889520342618, -7.804743346934884585 ) ) ;
#386 = CARTESIAN_POINT ( 'NONE',  ( 124.7033406074757949, 12.61607637124461334, 1.682439019520050261 ) ) ;
#387 = CARTESIAN_POINT ( 'NONE',  ( -123.6169305984706170, -11.41517859766107001, 5.628020320475515703 ) ) ;
#388 = CARTESIAN_POINT ( 'NONE',  ( 123.0962294487657402, -10.09786684512598676, 7.746870356620644493 ) ) ;
#389 = CARTESIAN_POINT ( 'NONE',  ( 128.0678184680836296, 7.439487757861669159, -12.39846310392953477 ) ) ;
#390 = ORIENTED_EDGE ( 'NONE', *, *, #536, .T. ) ;
#391 = CIRCLE ( 'NONE', #114, 12.69999999999999574 ) ;
#392 = CARTESIAN_POINT ( 'NONE',  ( 124.1907823296348141, -12.29381143839464308, 3.292888619644418036 ) ) ;
#393 = CARTESIAN_POINT ( 'NONE',  ( -125.0000000000000000, -12.69999999999999929, -4.394467639098852066E-15 ) ) ;
#394 = CARTESIAN_POINT ( 'NONE',  ( -128.0678184680837433, -1.662426107851459278, -12.39846310392944950 ) ) ;
#395 = CARTESIAN_POINT ( 'NONE',  ( -122.1947535132410678, 5.628020320467543414, 11.41517859766437049 ) ) ;
#396 = FACE_OUTER_BOUND ( 'NONE', #256, .T. ) ;
#397 = CARTESIAN_POINT ( 'NONE',  ( -122.6486891336984684, 8.392499732683466718, 9.568012509454838721 ) ) ;
#398 = CARTESIAN_POINT ( 'NONE',  ( 123.8674550640914447, 10.98798975105736098, 6.422981504901563277 ) ) ;
#399 = ADVANCED_FACE ( 'NONE', ( #396 ), #584, .F. ) ;
#400 = UNCERTAINTY_MEASURE_WITH_UNIT (LENGTH_MEASURE( 1.000000000000000082E-05 ), #568, 'distance_accuracy_value', 'NONE');
#401 = CARTESIAN_POINT ( 'NONE',  ( -123.8781931131337899, -7.746870356615328745, 10.33762113059415100 ) ) ;
#402 = CARTESIAN_POINT ( 'NONE',  ( 123.5099243438929761, -9.516950551639903111, 8.450638978312971616 ) ) ;
#403 = FACE_OUTER_BOUND ( 'NONE', #384, .T. ) ;
#404 = CARTESIAN_POINT ( 'NONE',  ( -121.8790124414602190, -0.8312130558218837617, 12.69999999999999751 ) ) ;
#405 = CARTESIAN_POINT ( 'NONE',  ( 123.5891131580886793, 0.8312130558219057441, 13.00153689607046914 ) ) ;
#406 = SURFACE_STYLE_FILL_AREA ( #158 ) ;
#407 = CARTESIAN_POINT ( 'NONE',  ( 128.0678184680836296, 1.555301434917138433E-15, -12.39846310392949391 ) ) ;
#408 = AXIS2_PLACEMENT_3D ( 'NONE', #244, #123, #580 ) ;
#409 = CARTESIAN_POINT ( 'NONE',  ( 121.8790124414603611, 0.000000000000000000, 12.69999999999999929 ) ) ;
#410 = CARTESIAN_POINT ( 'NONE',  ( 121.8991306015590226, -1.662405559577516678, 12.61813468384499437 ) ) ;
#411 = CYLINDRICAL_SURFACE ( 'NONE', #89, 12.70000000000000284 ) ;
#412 = CIRCLE ( 'NONE', #588, 12.69999999999999574 ) ;
#413 = CARTESIAN_POINT ( 'NONE',  ( 126.3658498932881571, 10.20025215167885335, -7.746119668115204249 ) ) ;
#414 = ORIENTED_EDGE ( 'NONE', *, *, #545, .T. ) ;
#415 = ADVANCED_FACE ( 'NONE', ( #467 ), #543, .T. ) ;
#416 = DIRECTION ( 'NONE',  ( -0.9396926207859104263, 0.000000000000000000, 0.3420201433256630508 ) ) ;
#417 = FACE_OUTER_BOUND ( 'NONE', #234, .T. ) ;
#418 = CARTESIAN_POINT ( 'NONE',  ( -124.1907823296428148, 12.29381143839454360, 3.292888619644886550 ) ) ;
#419 = CARTESIAN_POINT ( 'NONE',  ( 123.5891131580886650, 0.000000000000000000, 13.00153689607049223 ) ) ;
#420 = FACE_OUTER_BOUND ( 'NONE', #331, .T. ) ;
#421 = CARTESIAN_POINT ( 'NONE',  ( 209.5723358707319335, 0.000000000000000000, 30.78181289930967779 ) ) ;
#422 = EDGE_LOOP ( 'NONE', ( #476, #172, #494, #186, #361 ) ) ;
#423 = CARTESIAN_POINT ( 'NONE',  ( 125.0000000000001421, 12.69999999999999574, 6.894747954142583769E-15 ) ) ;
#424 = CARTESIAN_POINT ( 'NONE',  ( -126.8853177778171926, 10.15576889520597881, -7.619434836426273172 ) ) ;
#425 = EDGE_CURVE ( 'NONE', #212, #322, #534, .T. ) ;
#426 = CARTESIAN_POINT ( 'NONE',  ( 125.0000000000001421, 12.69999999999999751, -1.560653766085137439E-14 ) ) ;
#427 = ORIENTED_EDGE ( 'NONE', *, *, #512, .F. ) ;
#428 = CARTESIAN_POINT ( 'NONE',  ( 124.1907823296429569, 12.29381143839454360, 3.292888619644882553 ) ) ;
#429 = CARTESIAN_POINT ( 'NONE',  ( -123.5891131580885229, 0.000000000000000000, 13.00153689607044427 ) ) ;
#430 = ORIENTED_EDGE ( 'NONE', *, *, #443, .F. ) ;
#431 = CARTESIAN_POINT ( 'NONE',  ( -125.0000000000000000, 12.69999999999999929, 2.332952152375707649E-15 ) ) ;
#432 = ORIENTED_EDGE ( 'NONE', *, *, #232, .T. ) ;
#433 = MECHANICAL_DESIGN_GEOMETRIC_PRESENTATION_REPRESENTATION (  '', ( #542 ), #324 ) ;
#434 = CARTESIAN_POINT ( 'NONE',  ( -125.8029949946360944, 12.36945299194466585, -3.245271490867896347 ) ) ;
#435 = CARTESIAN_POINT ( 'NONE',  ( -124.2705454100501044, -12.03659355673486786, 4.136942554279336548 ) ) ;
#436 = VECTOR ( 'NONE', #263, 1000.000000000000114 ) ;
#437 = CARTESIAN_POINT ( 'NONE',  ( 124.5453901673151620, -12.05136152812531058, 4.189298771095930185 ) ) ;
#438 = CARTESIAN_POINT ( 'NONE',  ( 126.3577177514552972, 7.439487757861661166, -12.69999999999997442 ) ) ;
#439 = CARTESIAN_POINT ( 'NONE',  ( -124.3747637940019217, -11.41517859766092258, 5.761646759724338374 ) ) ;
#440 = CARTESIAN_POINT ( 'NONE',  ( -126.3223799923464412, 3.324198135660814568, -12.36945299190734104 ) ) ;
#441 = CARTESIAN_POINT ( 'NONE',  ( 127.5632879204972028, 0.000000000000000000, 12.69999999999999929 ) ) ;
#442 = CARTESIAN_POINT ( 'NONE',  ( 124.7957295248742327, -12.69999999999999574, 0.8312224850618481486 ) ) ;
#443 = EDGE_CURVE ( 'NONE', #75, #531, #266, .T. ) ;
#444 = ORIENTED_EDGE ( 'NONE', *, *, #536, .F. ) ;
#445 = CARTESIAN_POINT ( 'NONE',  ( -126.1176009727749801, -11.12859669621617797, -6.338230078460243000 ) ) ;
#446 = AXIS2_PLACEMENT_3D ( 'NONE', #224, #59, #481 ) ;
#447 = CARTESIAN_POINT ( 'NONE',  ( -122.1947535132410678, -5.628020320466508686, 11.41517859766480036 ) ) ;
#448 = CARTESIAN_POINT ( 'NONE',  ( -125.6837724291606548, -11.09708713384106460, -6.395961046504878844 ) ) ;
#449 = CARTESIAN_POINT ( 'NONE',  ( -123.3038604418006656, 8.334135319005239850, 9.619285439881121391 ) ) ;
#450 = CARTESIAN_POINT ( 'NONE',  ( 123.6611726451109377, -4.092138861607103273, 12.33749776029748269 ) ) ;
#451 = CARTESIAN_POINT ( 'NONE',  ( 126.3223799923605952, -3.324198135660415776, -12.36945299190747782 ) ) ;
#452 = CARTESIAN_POINT ( 'NONE',  ( -123.5891131580885371, 0.8312130558219289478, 13.00153689607044249 ) ) ;
#453 = VECTOR ( 'NONE', #646, 1000.000000000000227 ) ;
#454 = CARTESIAN_POINT ( 'NONE',  ( 123.8781931131414495, -7.746870356616958553, 10.33762113059575150 ) ) ;
#455 = ADVANCED_FACE ( 'NONE', ( #285 ), #593, .T. ) ;
#456 = CARTESIAN_POINT ( 'NONE',  ( 127.1796630344087333, 3.362180368261961760, -12.36148333996747972 ) ) ;
#457 = CARTESIAN_POINT ( 'NONE',  ( -122.2915083765996229, -6.364613562081965270, 11.02146130735552099 ) ) ;
#458 = CARTESIAN_POINT ( 'NONE',  ( 122.9824034256915581, -5.571752353118141876, 11.44235877113191613 ) ) ;
#459 = CARTESIAN_POINT ( 'NONE',  ( -122.2915083765996229, 6.364613562082418241, 11.02146130735521723 ) ) ;
#460 = CARTESIAN_POINT ( 'NONE',  ( 123.5982078586748116, 1.662405559577679215, 12.91772784658445694 ) ) ;
#461 = CARTESIAN_POINT ( 'NONE',  ( 127.2393526549976031, -1.682775252955697187, -12.69999999999997442 ) ) ;
#462 = CARTESIAN_POINT ( 'NONE',  ( -124.8153176275666567, 12.61813468384760561, 1.701876158969295894 ) ) ;
#463 = VERTEX_POINT ( 'NONE', #67 ) ;
#464 = CARTESIAN_POINT ( 'NONE',  ( 123.3038604418170650, -8.334135319000260722, 9.619285439881030797 ) ) ;
#465 = AXIS2_PLACEMENT_3D ( 'NONE', #636, #468, #170 ) ;
#466 = ORIENTED_EDGE ( 'NONE', *, *, #633, .T. ) ;
#467 = FACE_OUTER_BOUND ( 'NONE', #223, .T. ) ;
#468 = DIRECTION ( 'NONE',  ( -0.9396926207859105373, -0.000000000000000000, -0.3420201433256631618 ) ) ;
#469 = CARTESIAN_POINT ( 'NONE',  ( -126.7970864517046437, 12.69999999999999929, -7.262851533699514306 ) ) ;
#470 = VERTEX_POINT ( 'NONE', #490 ) ;
#471 = CARTESIAN_POINT ( 'NONE',  ( 205.2286800504960240, 0.000000000000000000, 42.71590918329074071 ) ) ;
#472 = EDGE_CURVE ( 'NONE', #188, #175, #29, .T. ) ;
#473 = CARTESIAN_POINT ( 'NONE',  ( -125.0000000000000000, 12.69999999999999929, -2.694868506536064550E-16 ) ) ;
#474 = VECTOR ( 'NONE', #337, 1000.000000000000000 ) ;
#475 = CARTESIAN_POINT ( 'NONE',  ( -125.0000000000000000, 12.69999999999999929, -4.765134311878893007E-14 ) ) ;
#476 = ORIENTED_EDGE ( 'NONE', *, *, #472, .F. ) ;
#477 = CARTESIAN_POINT ( 'NONE',  ( 125.0000000000001421, 12.69999999999999574, 6.468092780318926056E-16 ) ) ;
#478 = CARTESIAN_POINT ( 'NONE',  ( -209.5723358707319335, 0.000000000000000000, 30.78181289930967779 ) ) ;
#479 = CARTESIAN_POINT ( 'NONE',  ( -124.5914687347494691, 12.61813468384750436, 1.662405559564796187 ) ) ;
#480 = VERTEX_POINT ( 'NONE', #471 ) ;
#481 = DIRECTION ( 'NONE',  ( -0.3420201433256622181, 0.000000000000000000, -0.9396926207859107594 ) ) ;
#482 = ORIENTED_EDGE ( 'NONE', *, *, #633, .F. ) ;
#483 = CARTESIAN_POINT ( 'NONE',  ( 126.3577177514552972, 1.555301434917138433E-15, -12.69999999999999929 ) ) ;
#484 = EDGE_CURVE ( 'NONE', #470, #212, #279, .T. ) ;
#485 = LINE ( 'NONE', #589, #453 ) ;
#486 = CARTESIAN_POINT ( 'NONE',  ( 124.8516920110359365, -12.69999999999999574, 0.8410964015294277729 ) ) ;
#487 = CARTESIAN_POINT ( 'NONE',  ( 123.9943689389880319, 12.05136152812579908, 4.092138861597327093 ) ) ;
#488 = ORIENTED_EDGE ( 'NONE', *, *, #79, .F. ) ;
#489 = CARTESIAN_POINT ( 'NONE',  ( -126.1863552906469010, 6.395961046412499407, -11.09708713387933265 ) ) ;
#490 = CARTESIAN_POINT ( 'NONE',  ( -121.8790124414602047, 0.000000000000000000, 12.69999999999999929 ) ) ;
#491 = ORIENTED_EDGE ( 'NONE', *, *, #649, .T. ) ;
#492 = CARTESIAN_POINT ( 'NONE',  ( -127.1796630344086481, 3.362180368261458163, -12.36148333996489512 ) ) ;
#493 = CARTESIAN_POINT ( 'NONE',  ( 126.7970864517047858, 12.69999999999997087, -7.262851533699516970 ) ) ;
#494 = ORIENTED_EDGE ( 'NONE', *, *, #425, .T. ) ;
#495 = CARTESIAN_POINT ( 'NONE',  ( 123.8674550641076877, -10.98798975106548959, 6.422981504904583971 ) ) ;
#496 = CARTESIAN_POINT ( 'NONE',  ( -123.7318484030337657, -5.628020320466857740, 11.68620989864459858 ) ) ;
#497 = CARTESIAN_POINT ( 'NONE',  ( -126.3577177514551551, 1.662426107851439516, -12.70000000000000462 ) ) ;
#498 = CARTESIAN_POINT ( 'NONE',  ( -121.8991306015508371, -1.662405559576939140, 12.61813468384508319 ) ) ;
#499 = CARTESIAN_POINT ( 'NONE',  ( 123.9370564604129044, -8.392499732683033287, 9.795186430218475238 ) ) ;
#500 = CARTESIAN_POINT ( 'NONE',  ( 125.2896666338860854, -12.69999999999910933, -1.642781114406313359 ) ) ;
#501 = PRODUCT_DEFINITION_CONTEXT ( 'detailed design', #287, 'design' ) ;
#502 = CARTESIAN_POINT ( 'NONE',  ( -122.7606473450025391, 0.8210384831032270236, 12.69999999999999218 ) ) ;
#503 = CARTESIAN_POINT ( 'NONE',  ( 123.2113835903373484, -7.686576404855122391, 10.14374772648017675 ) ) ;
#504 = CARTESIAN_POINT ( 'NONE',  ( 126.5450116078292382, -11.09708713384246082, -6.244101342463064697 ) ) ;
#505 =( BOUNDED_SURFACE ( )  B_SPLINE_SURFACE ( 3, 2, ( 
 ( #72, #74, #473 ),
 ( #625, #118, #13 ),
 ( #317, #523, #434 ),
 ( #179, #383, #590 ),
 ( #314, #219, #424 ),
 ( #629, #280, #642 ),
 ( #489, #90, #76 ),
 ( #440, #492, #34 ),
 ( #497, #647, #28 ),
 ( #292, #81, #394 ),
 ( #645, #288, #36 ),
 ( #136, #339, #235 ),
 ( #31, #342, #336 ),
 ( #385, #240, #237 ),
 ( #448, #445, #189 ),
 ( #638, #86, #332 ),
 ( #602, #141, #650 ),
 ( #549, #595, #191 ) ),
 .UNSPECIFIED., .F., .F., .T. ) 
 B_SPLINE_SURFACE_WITH_KNOTS ( ( 4, 2, 2, 2, 2, 2, 2, 2, 4 ),
 ( 3, 3 ),
 ( 1.570796326794896336, 1.963495408493620697, 2.356194490192344837, 2.748893571891068976, 3.141592653589793116, 3.534291735288517255, 3.926990816987241395, 4.319689898685965090, 4.712388980384689674 ),
 ( 0.000000000000000000, 1.000000000000000000 ),
 .UNSPECIFIED. ) 
 GEOMETRIC_REPRESENTATION_ITEM ( )  RATIONAL_B_SPLINE_SURFACE ( (
 ( 1.000000000000000000, 1.000000000000000000, 1.000000000000000000),
 ( 1.000000000000000000, 1.000000000000000000, 1.000000000000000000),
 ( 1.000000000000000000, 0.9991882094070566600, 1.000000000000000000),
 ( 1.000000000000000000, 0.9963909991396203703, 1.000000000000000000),
 ( 1.000000000000000000, 0.9944215496614672301, 1.000000000000000000),
 ( 1.000000000000000000, 0.9904443452508091550, 1.000000000000000000),
 ( 1.000000000000000000, 0.9884610473998285407, 1.000000000000000000),
 ( 1.000000000000000000, 0.9856333941069699289, 1.000000000000000000),
 ( 1.000000000000000000, 0.9848077530122087975, 1.000000000000000000),
 ( 1.000000000000000000, 0.9848077530122087975, 1.000000000000000000),
 ( 1.000000000000000000, 0.9856333941067456639, 1.000000000000000000),
 ( 1.000000000000000000, 0.9884610474000528058, 1.000000000000000000),
 ( 1.000000000000000000, 0.9904443452508091550, 1.000000000000000000),
 ( 1.000000000000000000, 0.9944215496614672301, 1.000000000000000000),
 ( 1.000000000000000000, 0.9963909991396179278, 1.000000000000000000),
 ( 1.000000000000000000, 0.9991882094070591025, 1.000000000000000000),
 ( 1.000000000000000000, 1.000013512375678815, 1.000000000000000000),
 ( 1.000000000000000000, 1.000000000000000000, 1.000000000000000000) ) ) 
 REPRESENTATION_ITEM ( '' )  SURFACE ( )  );
#506 = CARTESIAN_POINT ( 'NONE',  ( -121.9788320829743071, -3.292888619632751368, 12.29381143839695056 ) ) ;
#507 = CARTESIAN_POINT ( 'NONE',  ( 121.8991306015590226, 1.662405559577205816, 12.61813468384505121 ) ) ;
#508 = CARTESIAN_POINT ( 'NONE',  ( 125.8029949946494526, -12.36945299194416847, -3.245271490864381381 ) ) ;
#509 = CARTESIAN_POINT ( 'NONE',  ( -122.9375679330087792, -9.568012509454334236, 8.392499732683965874 ) ) ;
#510 = CARTESIAN_POINT ( 'NONE',  ( 123.7755878159647551, 6.364613562081031795, 11.28314455402997574 ) ) ;
#511 = DIRECTION ( 'NONE',  ( -0.9396926207859104263, 0.000000000000000000, 0.3420201433256630508 ) ) ;
#512 = EDGE_CURVE ( 'NONE', #132, #272, #48, .T. ) ;
#513 = FACE_OUTER_BOUND ( 'NONE', #376, .T. ) ;
#514 = CARTESIAN_POINT ( 'NONE',  ( 123.5099243438929477, 9.516950551636837119, 8.450638978312998262 ) ) ;
#515 = CARTESIAN_POINT ( 'NONE',  ( 128.0678184680833169, 1.662426107851449286, -12.39846310392963424 ) ) ;
#516 = CARTESIAN_POINT ( 'NONE',  ( 127.6806180197806384, 6.395961046413423112, -10.83360829846466622 ) ) ;
#517 = ORIENTED_EDGE ( 'NONE', *, *, #202, .T. ) ;
#518 = DIRECTION ( 'NONE',  ( -0.9396926207859104263, 0.000000000000000000, 0.3420201433256630508 ) ) ;
#519 = CARTESIAN_POINT ( 'NONE',  ( -124.1735216229820224, 12.70000000000000107, 7.616123982023869310 ) ) ;
#520 = EDGE_CURVE ( 'NONE', #635, #328, #77, .T. ) ;
#521 = ORIENTED_EDGE ( 'NONE', *, *, #605, .F. ) ;
#522 = CARTESIAN_POINT ( 'NONE',  ( 125.7953326449278677, -12.69999999999996554, -7.439487757861702910 ) ) ;
#523 = CARTESIAN_POINT ( 'NONE',  ( -125.5796351931375909, 12.37717190310926796, -3.287274532883067923 ) ) ;
#524 = CARTESIAN_POINT ( 'NONE',  ( -124.8516920110252642, 12.70000000000408136, 0.8410964015406304783 ) ) ;
#525 =( GEOMETRIC_REPRESENTATION_CONTEXT ( 3 ) GLOBAL_UNCERTAINTY_ASSIGNED_CONTEXT ( ( #400 ) ) GLOBAL_UNIT_ASSIGNED_CONTEXT ( ( #568, #160, #57 ) ) REPRESENTATION_CONTEXT ( 'NONE', 'WORKASPACE' ) );
#526 = ORIENTED_EDGE ( 'NONE', *, *, #178, .F. ) ;
#527 = CARTESIAN_POINT ( 'NONE',  ( 209.5723358707319335, 0.000000000000000000, 30.78181289930967779 ) ) ;
#528 = CARTESIAN_POINT ( 'NONE',  ( -125.0000000000000000, -12.69999999999999929, 2.042315765089328633E-15 ) ) ;
#529 = CARTESIAN_POINT ( 'NONE',  ( -125.7953326449277256, 12.69999999999999751, -7.439487757861697581 ) ) ;
#530 = CARTESIAN_POINT ( 'NONE',  ( -128.0678184680834590, 1.555301434917138827E-15, -12.39846310392955786 ) ) ;
#531 = VERTEX_POINT ( 'NONE', #111 ) ;
#532 = DIRECTION ( 'NONE',  ( 0.000000000000000000, 0.000000000000000000, 1.000000000000000000 ) ) ;
#533 = CARTESIAN_POINT ( 'NONE',  ( -124.4128080442887381, -12.28447540818658545, 3.330131063068343611 ) ) ;
#534 =( BOUNDED_CURVE ( )  B_SPLINE_CURVE ( 3, ( #528, #12, #25, #330 ),
 .UNSPECIFIED., .F., .T. ) 
 B_SPLINE_CURVE_WITH_KNOTS ( ( 4, 4 ),
 ( 4.712388980384689674, 6.283185307179586232 ),
 .UNSPECIFIED. ) 
 CURVE ( )  GEOMETRIC_REPRESENTATION_ITEM ( )  RATIONAL_B_SPLINE_CURVE ( ( 1.000000000000000000, 0.8047378541243649375, 0.8047378541243649375, 1.000000000000000000 ) ) 
 REPRESENTATION_ITEM ( '' )  );
#535 = CARTESIAN_POINT ( 'NONE',  ( -121.8790124414602047, 0.000000000000000000, 12.69999999999999929 ) ) ;
#536 = EDGE_CURVE ( 'NONE', #635, #275, #296, .T. ) ;
#537 = CARTESIAN_POINT ( 'NONE',  ( -125.0000000000000000, -12.69999999999999929, -4.677603903700249312E-15 ) ) ;
#538 = CARTESIAN_POINT ( 'NONE',  ( 125.0000000000001421, -12.69999999999999574, 3.539568045599826564E-15 ) ) ;
#539 = DIRECTION ( 'NONE',  ( -0.9396926207859104263, -0.000000000000000000, -0.3420201433256631618 ) ) ;
#540 = ORIENTED_EDGE ( 'NONE', *, *, #68, .F. ) ;
#541 = CARTESIAN_POINT ( 'NONE',  ( 123.9978929572905457, -11.38851375548255618, 5.683231452705698850 ) ) ;
#542 = STYLED_ITEM ( 'NONE', ( #556 ), #116 ) ;
#543 = CYLINDRICAL_SURFACE ( 'NONE', #150, 12.69999999999999929 ) ;
#544 = CARTESIAN_POINT ( 'NONE',  ( -123.8674550640912884, -10.98798975104115350, 6.422981504890393545 ) ) ;
#545 = EDGE_CURVE ( 'NONE', #531, #635, #215, .T. ) ;
#546 = CARTESIAN_POINT ( 'NONE',  ( 124.5914687347577683, -12.61813468384742443, 1.662405559565207414 ) ) ;
#547 = ORIENTED_EDGE ( 'NONE', *, *, #545, .F. ) ;
#548 = CARTESIAN_POINT ( 'NONE',  ( -122.5184789928001265, 7.746870356615472630, 10.09786684512942401 ) ) ;
#549 = CARTESIAN_POINT ( 'NONE',  ( -125.0000000000000000, -12.69999999999999929, -7.071760478999038330E-15 ) ) ;
#550 = CARTESIAN_POINT ( 'NONE',  ( -122.5184789928001265, -7.746870356615952247, 10.09786684512910249 ) ) ;
#551 = CARTESIAN_POINT ( 'NONE',  ( 123.6342380476034037, -3.292888619632105218, 12.58570417398659558 ) ) ;
#552 = CIRCLE ( 'NONE', #446, 12.69999999999999574 ) ;
#553 =( BOUNDED_SURFACE ( )  B_SPLINE_SURFACE ( 3, 2, ( 
 ( #644, #537, #393 ),
 ( #80, #641, #598 ),
 ( #326, #594, #338 ),
 ( #282, #533, #227 ),
 ( #26, #435, #230 ),
 ( #439, #182, #387 ),
 ( #335, #544, #245 ),
 ( #88, #203, #654 ),
 ( #37, #239, #509 ),
 ( #248, #93, #147 ),
 ( #401, #43, #550 ),
 ( #660, #190, #457 ),
 ( #496, #100, #447 ),
 ( #199, #344, #196 ),
 ( #241, #295, #506 ),
 ( #303, #657, #498 ),
 ( #562, #91, #404 ),
 ( #452, #502, #610 ),
 ( #46, #291, #615 ),
 ( #648, #251, #340 ),
 ( #35, #651, #151 ),
 ( #353, #192, #395 ),
 ( #142, #603, #459 ),
 ( #601, #140, #548 ),
 ( #293, #449, #397 ),
 ( #144, #607, #346 ),
 ( #554, #40, #350 ),
 ( #557, #97, #298 ),
 ( #159, #119, #10 ),
 ( #370, #255, #211 ),
 ( #573, #358, #418 ),
 ( #462, #171, #479 ),
 ( #264, #524, #261 ),
 ( #216, #475, #113 ) ),
 .UNSPECIFIED., .F., .F., .F. ) 
 B_SPLINE_SURFACE_WITH_KNOTS ( ( 4, 2, 2, 2, 2, 2, 2, 2, 2, 2, 2, 2, 2, 2, 2, 2, 4 ),
 ( 3, 3 ),
 ( 4.712388980384689674, 4.908738521234051966, 5.105088062083414258, 5.301437602932775661, 5.497787143782137953, 5.694136684631500245, 5.890486225480861648, 6.086835766330223940, 6.283185307179586232, 6.479534848028948524, 6.675884388878310816, 6.872233929727672219, 7.068583470577034511, 7.264933011426396803, 7.461282552275758206, 7.657632093125120498, 7.853981633974482790 ),
 ( 0.000000000000000000, 1.000000000000000000 ),
 .UNSPECIFIED. ) 
 GEOMETRIC_REPRESENTATION_ITEM ( )  RATIONAL_B_SPLINE_SURFACE ( (
 ( 1.000000000000000000, 1.000000000000000000, 1.000000000000000000),
 ( 1.000000000000000000, 1.000000000000000000, 1.000000000000000000),
 ( 1.000000000000000000, 0.9998038471856511844, 1.000000000000000000),
 ( 1.000000000000000000, 0.9990481668717188235, 1.000000000000000000),
 ( 1.000000000000000000, 0.9984889068462833306, 1.000000000000000000),
 ( 1.000000000000000000, 0.9970903017003936997, 1.000000000000000000),
 ( 1.000000000000000000, 0.9962514639075423784, 1.000000000000000000),
 ( 1.000000000000000000, 0.9944195927114314326, 1.000000000000000000),
 ( 1.000000000000000000, 0.9934272485677725362, 1.000000000000000000),
 ( 1.000000000000000000, 0.9914386463445038489, 1.000000000000000000),
 ( 1.000000000000000000, 0.9904431693880665355, 1.000000000000000000),
 ( 1.000000000000000000, 0.9886005355137025274, 1.000000000000000000),
 ( 1.000000000000000000, 0.9877541340831195171, 1.000000000000000000),
 ( 1.000000000000000000, 0.9863403074236789525, 1.000000000000000000),
 ( 1.000000000000000000, 0.9857734832533633362, 1.000000000000000000),
 ( 1.000000000000000000, 0.9850070391464842423, 1.000000000000000000),
 ( 1.000000000000000000, 0.9848077530122085754, 1.000000000000000000),
 ( 1.000000000000000000, 0.9848077530122085754, 1.000000000000000000),
 ( 1.000000000000000000, 0.9850070391464842423, 1.000000000000000000),
 ( 1.000000000000000000, 0.9857734832533633362, 1.000000000000000000),
 ( 1.000000000000000000, 0.9863403074236145596, 1.000000000000000000),
 ( 1.000000000000000000, 0.9877541340831839101, 1.000000000000000000),
 ( 1.000000000000000000, 0.9886005355137025274, 1.000000000000000000),
 ( 1.000000000000000000, 0.9904431693880665355, 1.000000000000000000),
 ( 1.000000000000000000, 0.9914386463445036268, 1.000000000000000000),
 ( 1.000000000000000000, 0.9934272485677723141, 1.000000000000000000),
 ( 1.000000000000000000, 0.9944195927114314326, 1.000000000000000000),
 ( 1.000000000000000000, 0.9962514639075423784, 1.000000000000000000),
 ( 1.000000000000000000, 0.9970903017003936997, 1.000000000000000000),
 ( 1.000000000000000000, 0.9984889068462833306, 1.000000000000000000),
 ( 1.000000000000000000, 0.9990481668717841046, 1.000000000000000000),
 ( 1.000000000000000000, 0.9998038471855859033, 1.000000000000000000),
 ( 1.000000000000000000, 1.000000000000000000, 1.000000000000000000),
 ( 1.000000000000000000, 1.000000000000000000, 1.000000000000000000) ) ) 
 REPRESENTATION_ITEM ( '' )  SURFACE ( )  );
#554 = CARTESIAN_POINT ( 'NONE',  ( -124.1393734289683835, 10.09786684512703125, 7.930804785092440135 ) ) ;
#555 = CARTESIAN_POINT ( 'NONE',  ( 123.0506235348355233, -6.305338730979060280, 11.05546330638957819 ) ) ;
#556 = PRESENTATION_STYLE_ASSIGNMENT (( #53 ) ) ;
#557 = CARTESIAN_POINT ( 'NONE',  ( -124.2929331079815398, 11.02146130735760998, 6.515728980833203288 ) ) ;
#558 = AXIS2_PLACEMENT_3D ( 'NONE', #527, #304, #257 ) ;
#559 = PRODUCT_RELATED_PRODUCT_CATEGORY ( 'part', '', ( #110 ) ) ;
#560 = CARTESIAN_POINT ( 'NONE',  ( 122.1947535132411957, 5.628020320467055804, 11.41517859766459786 ) ) ;
#561 = CARTESIAN_POINT ( 'NONE',  ( 127.6806180197805389, -6.395961046414164741, -10.83360829846437845 ) ) ;
#562 = CARTESIAN_POINT ( 'NONE',  ( -123.5891131580885371, -0.8312130558218837617, 13.00153689607044605 ) ) ;
#563 = EDGE_CURVE ( 'NONE', #275, #132, #302, .T. ) ;
#564 = PRODUCT_CONTEXT ( 'NONE', #249, 'mechanical' ) ;
#565 = CARTESIAN_POINT ( 'NONE',  ( 122.8723498190396128, -4.046218028436716629, 12.06650378985574257 ) ) ;
#566 = DIRECTION ( 'NONE',  ( -0.3420201433256622181, 0.000000000000000000, 0.9396926207859107594 ) ) ;
#567 = CARTESIAN_POINT ( 'NONE',  ( 125.0000000000001421, 12.69999999999999751, -3.055748562711630740E-14 ) ) ;
#568 =( LENGTH_UNIT ( ) NAMED_UNIT ( * ) SI_UNIT ( .MILLI., .METRE. ) );
#569 = CARTESIAN_POINT ( 'NONE',  ( 123.3038604418170223, 8.334135319003275200, 9.619285439881057442 ) ) ;
#570 = CARTESIAN_POINT ( 'NONE',  ( 127.4532327066455224, 7.804743346933123327, -9.914639837732339700 ) ) ;
#571 = CARTESIAN_POINT ( 'NONE',  ( 121.8790124414603468, -7.439487757861710016, 12.70000000000002238 ) ) ;
#572 = CARTESIAN_POINT ( 'NONE',  ( 126.8853177778167804, -10.15576889520430015, -7.619434836428253810 ) ) ;
#573 = CARTESIAN_POINT ( 'NONE',  ( -124.6341816357996919, 12.29381143839444235, 3.371071880548640820 ) ) ;
#574 = DIRECTION ( 'NONE',  ( 0.3420201433256631618, 0.000000000000000000, 0.9396926207859104263 ) ) ;
#575 = DIRECTION ( 'NONE',  ( 0.9396926207859104263, 0.000000000000000000, -0.3420201433256631063 ) ) ;
#576 = CARTESIAN_POINT ( 'NONE',  ( 209.5723358707319335, 0.000000000000000000, 30.78181289930967779 ) ) ;
#577 = ORIENTED_EDGE ( 'NONE', *, *, #614, .F. ) ;
#578 = CARTESIAN_POINT ( 'NONE',  ( 126.3577177514552972, 1.555301434917138433E-15, -12.69999999999999929 ) ) ;
#579 = CARTESIAN_POINT ( 'NONE',  ( 124.9076566246801292, 12.69999999999999751, 0.8509582526273528069 ) ) ;
#580 = DIRECTION ( 'NONE',  ( -0.3420201433256631063, 0.000000000000000000, -0.9396926207859104263 ) ) ;
#581 = CARTESIAN_POINT ( 'NONE',  ( 125.2896705479975878, 12.69999999999555840, -1.642803312271594596 ) ) ;
#582 = AXIS2_PLACEMENT_3D ( 'NONE', #616, #662, #319 ) ;
#583 = CARTESIAN_POINT ( 'NONE',  ( 125.7953326449278677, 12.69999999999995133, -7.439487757861707351 ) ) ;
#584 =( BOUNDED_SURFACE ( )  B_SPLINE_SURFACE ( 3, 2, ( 
 ( #329, #130, #538 ),
 ( #442, #486, #181 ),
 ( #546, #290, #187 ),
 ( #392, #23, #83 ),
 ( #592, #228, #437 ),
 ( #133, #541, #284 ),
 ( #231, #495, #184 ),
 ( #388, #599, #139 ),
 ( #663, #402, #2 ),
 ( #145, #464, #499 ),
 ( #259, #503, #454 ),
 ( #253, #555, #200 ),
 ( #620, #458, #300 ),
 ( #208, #565, #450 ),
 ( #197, #98, #551 ),
 ( #410, #102, #652 ),
 ( #604, #148, #658 ),
 ( #655, #105, #405 ),
 ( #507, #611, #460 ),
 ( #345, #305, #42 ),
 ( #38, #157, #351 ),
 ( #560, #204, #246 ),
 ( #44, #143, #510 ),
 ( #250, #617, #152 ),
 ( #356, #569, #359 ),
 ( #309, #514, #52 ),
 ( #92, #294, #193 ),
 ( #243, #398, #608 ),
 ( #347, #95, #165 ),
 ( #487, #62, #122 ),
 ( #428, #134, #281 ),
 ( #117, #386, #367 ),
 ( #333, #270, #579 ),
 ( #262, #477, #423 ) ),
 .UNSPECIFIED., .F., .F., .F. ) 
 B_SPLINE_SURFACE_WITH_KNOTS ( ( 4, 2, 2, 2, 2, 2, 2, 2, 2, 2, 2, 2, 2, 2, 2, 2, 4 ),
 ( 3, 3 ),
 ( 4.712388980384687898, 4.908738521234050189, 5.105088062083412481, 5.301437602932774773, 5.497787143782137065, 5.694136684631499357, 5.890486225480861648, 6.086835766330223940, 6.283185307179586232, 6.479534848028948524, 6.675884388878310816, 6.872233929727673107, 7.068583470577035399, 7.264933011426397691, 7.461282552275759983, 7.657632093125122275, 7.853981633974484566 ),
 ( 0.000000000000000000, 1.000000000000000000 ),
 .UNSPECIFIED. ) 
 GEOMETRIC_REPRESENTATION_ITEM ( )  RATIONAL_B_SPLINE_SURFACE ( (
 ( 1.000000000000000000, 1.000000000000000000, 1.000000000000000000),
 ( 1.000000000000000000, 1.000000000000000000, 1.000000000000000000),
 ( 1.000000000000000000, 0.9998038471856511844, 1.000000000000000000),
 ( 1.000000000000000000, 0.9990481668717188235, 1.000000000000000000),
 ( 1.000000000000000000, 0.9984889068462833306, 1.000000000000000000),
 ( 1.000000000000000000, 0.9970903017003936997, 1.000000000000000000),
 ( 1.000000000000000000, 0.9962514639075423784, 1.000000000000000000),
 ( 1.000000000000000000, 0.9944195927114314326, 1.000000000000000000),
 ( 1.000000000000000000, 0.9934272485677074771, 1.000000000000000000),
 ( 1.000000000000000000, 0.9914386463445684639, 1.000000000000000000),
 ( 1.000000000000000000, 0.9904431693879370835, 1.000000000000000000),
 ( 1.000000000000000000, 0.9886005355138315354, 1.000000000000000000),
 ( 1.000000000000000000, 0.9877541340831839101, 1.000000000000000000),
 ( 1.000000000000000000, 0.9863403074236145596, 1.000000000000000000),
 ( 1.000000000000000000, 0.9857734832533633362, 1.000000000000000000),
 ( 1.000000000000000000, 0.9850070391464842423, 1.000000000000000000),
 ( 1.000000000000000000, 0.9848077530122085754, 1.000000000000000000),
 ( 1.000000000000000000, 0.9848077530122085754, 1.000000000000000000),
 ( 1.000000000000000000, 0.9850070391464842423, 1.000000000000000000),
 ( 1.000000000000000000, 0.9857734832533633362, 1.000000000000000000),
 ( 1.000000000000000000, 0.9863403074236145596, 1.000000000000000000),
 ( 1.000000000000000000, 0.9877541340831839101, 1.000000000000000000),
 ( 1.000000000000000000, 0.9886005355138315354, 1.000000000000000000),
 ( 1.000000000000000000, 0.9904431693879370835, 1.000000000000000000),
 ( 1.000000000000000000, 0.9914386463446331899, 1.000000000000000000),
 ( 1.000000000000000000, 0.9934272485676427511, 1.000000000000000000),
 ( 1.000000000000000000, 0.9944195927114314326, 1.000000000000000000),
 ( 1.000000000000000000, 0.9962514639075423784, 1.000000000000000000),
 ( 1.000000000000000000, 0.9970903017003935886, 1.000000000000000000),
 ( 1.000000000000000000, 0.9984889068462832196, 1.000000000000000000),
 ( 1.000000000000000000, 0.9990481668717841046, 1.000000000000000000),
 ( 1.000000000000000000, 0.9998038471855859033, 1.000000000000000000),
 ( 1.000000000000000000, 1.000000000000000000, 1.000000000000000000),
 ( 1.000000000000000000, 1.000000000000000000, 1.000000000000000000) ) ) 
 REPRESENTATION_ITEM ( '' )  SURFACE ( )  );
#585 = CARTESIAN_POINT ( 'NONE',  ( 127.5632879204972028, 1.555301434917138433E-15, -12.69999999999999929 ) ) ;
#586 = ORIENTED_EDGE ( 'NONE', *, *, #649, .F. ) ;
#587 = LINE ( 'NONE', #585, #238 ) ;
#588 = AXIS2_PLACEMENT_3D ( 'NONE', #478, #575, #19 ) ;
#589 = CARTESIAN_POINT ( 'NONE',  ( -118.2476414359231995, 0.000000000000000000, 11.05740018202767061 ) ) ;
#590 = CARTESIAN_POINT ( 'NONE',  ( -126.5450116078422553, 11.09708713384201495, -6.244101342459479120 ) ) ;
#591 = EDGE_LOOP ( 'NONE', ( #85, #109, #627, #526 ) ) ;
#592 = CARTESIAN_POINT ( 'NONE',  ( 123.9943689389880461, -12.05136152812533901, 4.092138861598436428 ) ) ;
#593 = CYLINDRICAL_SURFACE ( 'NONE', #125, 12.70000000000000284 ) ;
#594 = CARTESIAN_POINT ( 'NONE',  ( -124.7033406074593671, -12.61607637124779835, 1.682439019517556256 ) ) ;
#595 = CARTESIAN_POINT ( 'NONE',  ( -125.0000000000000000, -12.69999999999999929, -6.524514506227425727E-15 ) ) ;
#596 = AXIS2_PLACEMENT_3D ( 'NONE', #576, #167, #220 ) ;
#597 = CARTESIAN_POINT ( 'NONE',  ( 125.0000000000000000, -12.69999999999999929, -5.153704740332072143E-14 ) ) ;
#598 = CARTESIAN_POINT ( 'NONE',  ( -124.7957295248742895, -12.69999999999999929, 0.8312224850610703264 ) ) ;
#599 = CARTESIAN_POINT ( 'NONE',  ( 123.6234715526489794, -10.05236397202124010, 7.806680757571775153 ) ) ;
#600 =( BOUNDED_CURVE ( )  B_SPLINE_CURVE ( 3, ( #364, #469, #60, #530 ),
 .UNSPECIFIED., .F., .F. ) 
 B_SPLINE_CURVE_WITH_KNOTS ( ( 4, 4 ),
 ( 1.570796326794896780, 3.141592653589793116 ),
 .UNSPECIFIED. ) 
 CURVE ( )  GEOMETRIC_REPRESENTATION_ITEM ( )  RATIONAL_B_SPLINE_CURVE ( ( 1.000000000000000000, 0.8047378541243650485, 0.8047378541243650485, 1.000000000000000000 ) ) 
 REPRESENTATION_ITEM ( '' )  );
#601 = CARTESIAN_POINT ( 'NONE',  ( -123.8781931131338752, 7.746870356615665365, 10.33762113059394139 ) ) ;
#602 = CARTESIAN_POINT ( 'NONE',  ( -125.1777568810479551, -12.69999999999999751, -1.662725840265186994 ) ) ;
#603 = CARTESIAN_POINT ( 'NONE',  ( -123.0506235348515247, 6.305338730978449213, 11.05546330639063335 ) ) ;
#604 = CARTESIAN_POINT ( 'NONE',  ( 121.8790124414603611, -0.8312130558219066323, 12.70000000000002061 ) ) ;
#605 = EDGE_CURVE ( 'NONE', #272, #470, #289, .T. ) ;
#606 = PRESENTATION_LAYER_ASSIGNMENT (  '', '', ( #542 ) ) ;
#607 = CARTESIAN_POINT ( 'NONE',  ( -123.5099243439090060, 9.516950551634751676, 8.450638978313063987 ) ) ;
#608 = CARTESIAN_POINT ( 'NONE',  ( 124.2929331079819377, 11.02146130735748208, 6.515728980833514150 ) ) ;
#609 = CARTESIAN_POINT ( 'NONE',  ( 126.1863552906330170, -6.395961046412841355, -11.09708713387916923 ) ) ;
#610 = CARTESIAN_POINT ( 'NONE',  ( -121.8790124414602190, 0.8312130558219289478, 12.69999999999999396 ) ) ;
#611 = CARTESIAN_POINT ( 'NONE',  ( 122.7747079895194418, 1.641759158934328999, 12.62025812237261313 ) ) ;
#612 = CARTESIAN_POINT ( 'NONE',  ( 125.3553797494592601, -12.36945299194585068, -3.324198135567803636 ) ) ;
#613 = UNCERTAINTY_MEASURE_WITH_UNIT (LENGTH_MEASURE( 1.000000000000000082E-05 ), #260, 'distance_accuracy_value', 'NONE');
#614 = EDGE_CURVE ( 'NONE', #272, #635, #283, .T. ) ;
#615 = CARTESIAN_POINT ( 'NONE',  ( -121.8991306015508371, 1.662405559577012859, 12.61813468384506898 ) ) ;
#616 = CARTESIAN_POINT ( 'NONE',  ( 0.000000000000000000, 0.000000000000000000, 0.000000000000000000 ) ) ;
#617 = CARTESIAN_POINT ( 'NONE',  ( 123.2113835903292340, 7.686576404859637890, 10.14374772648825385 ) ) ;
#618 = CARTESIAN_POINT ( 'NONE',  ( 126.1176009727604708, 11.12859669622802450, -6.338230078465857176 ) ) ;
#619 = APPLICATION_PROTOCOL_DEFINITION ( 'draft international standard', 'automotive_design', 1998, #287 ) ;
#620 = CARTESIAN_POINT ( 'NONE',  ( 122.1947535132411957, -5.628020320467308935, 11.41517859766448773 ) ) ;
#621 = PLANE ( 'NONE',  #408 ) ;
#622 = CARTESIAN_POINT ( 'NONE',  ( 125.8343809911517894, 10.15576889520341020, -7.804743346934872150 ) ) ;
#623 = CARTESIAN_POINT ( 'NONE',  ( -121.8790124414602047, -7.439487757861687811, 12.69999999999999574 ) ) ;
#624 = FACE_OUTER_BOUND ( 'NONE', #221, .T. ) ;
#625 = CARTESIAN_POINT ( 'NONE',  ( -125.1777568810485661, 12.69999999999999929, -1.662725840265198762 ) ) ;
#626 = PLANE ( 'NONE',  #596 ) ;
#627 = ORIENTED_EDGE ( 'NONE', *, *, #343, .F. ) ;
#628 =( BOUNDED_CURVE ( )  B_SPLINE_CURVE ( 3, ( #70, #311, #163, #407 ),
 .UNSPECIFIED., .F., .F. ) 
 B_SPLINE_CURVE_WITH_KNOTS ( ( 4, 4 ),
 ( 1.570796326794899667, 3.141592653589793116 ),
 .UNSPECIFIED. ) 
 CURVE ( )  GEOMETRIC_REPRESENTATION_ITEM ( )  RATIONAL_B_SPLINE_CURVE ( ( 1.000000000000000000, 0.8047378541243658256, 0.8047378541243658256, 1.000000000000000000 ) ) 
 REPRESENTATION_ITEM ( '' )  );
#629 = CARTESIAN_POINT ( 'NONE',  ( -126.0857218668309514, 7.804743346934438719, -10.15576889520386850 ) ) ;
#630 = VERTEX_POINT ( 'NONE', #84 ) ;
#631 = CARTESIAN_POINT ( 'NONE',  ( 121.8790124414603611, 0.000000000000000000, 12.69999999999999929 ) ) ;
#632 = FACE_OUTER_BOUND ( 'NONE', #269, .T. ) ;
#633 = EDGE_CURVE ( 'NONE', #75, #480, #183, .T. ) ;
#634 = CARTESIAN_POINT ( 'NONE',  ( -123.5891131580885229, 7.439487757861690476, 13.00153689607043894 ) ) ;
#635 = VERTEX_POINT ( 'NONE', #366 ) ;
#636 = CARTESIAN_POINT ( 'NONE',  ( 209.5723358707319335, 0.000000000000000000, 30.78181289930967779 ) ) ;
#637 = ORIENTED_EDGE ( 'NONE', *, *, #6, .F. ) ;
#638 = CARTESIAN_POINT ( 'NONE',  ( -125.3553797494591180, -12.36945299194560199, -3.324198135568442680 ) ) ;
#639 = PRODUCT_DEFINITION ( 'UNKNOWN', '', #378, #501 ) ;
#640 = CARTESIAN_POINT ( 'NONE',  ( 126.3577177514552972, 1.555301434917138433E-15, -12.69999999999999929 ) ) ;
#641 = CARTESIAN_POINT ( 'NONE',  ( -124.8516920110337480, -12.70000000000408136, 0.8410964015392601301 ) ) ;
#642 = CARTESIAN_POINT ( 'NONE',  ( -127.4532327066451103, 7.804743346932314196, -9.914639837733332683 ) ) ;
#643 = CARTESIAN_POINT ( 'NONE',  ( 123.5891131580886650, 0.000000000000000000, 13.00153689607049223 ) ) ;
#644 = CARTESIAN_POINT ( 'NONE',  ( -125.0000000000000000, -12.69999999999999929, -4.960740168301646558E-15 ) ) ;
#645 = CARTESIAN_POINT ( 'NONE',  ( -126.3223799923464412, -3.324198135660029862, -12.36945299190765901 ) ) ;
#646 = DIRECTION ( 'NONE',  ( -0.9396926207859104263, 0.000000000000000000, 0.3420201433256630508 ) ) ;
#647 = CARTESIAN_POINT ( 'NONE',  ( -127.2393526550114444, 1.682775252955510448, -12.69999999999999929 ) ) ;
#648 = CARTESIAN_POINT ( 'NONE',  ( -123.6342380476094149, 3.292888619632424962, 12.58570417398874319 ) ) ;
#649 = EDGE_CURVE ( 'NONE', #328, #132, #661, .T. ) ;
#650 = CARTESIAN_POINT ( 'NONE',  ( -125.4016489007907751, -12.69999999999999929, -1.623247636418158946 ) ) ;
#651 = CARTESIAN_POINT ( 'NONE',  ( -122.8723498190394565, 4.046218028438690162, 12.06650378986279470 ) ) ;
#652 = CARTESIAN_POINT ( 'NONE',  ( 123.5982078586741437, -1.662405559577582403, 12.91772784658424378 ) ) ;
#653 = CARTESIAN_POINT ( 'NONE',  ( 125.8343809911517894, -10.15576889520296255, -7.804743346935324233 ) ) ;
#654 = CARTESIAN_POINT ( 'NONE',  ( -123.0962294487737125, -10.09786684512652144, 7.746870356619822928 ) ) ;
#655 = CARTESIAN_POINT ( 'NONE',  ( 121.8790124414603611, 0.8312130558219066323, 12.70000000000002061 ) ) ;
#656 = CARTESIAN_POINT ( 'NONE',  ( 127.4532327066457924, -7.804743346933941339, -9.914639837731362704 ) ) ;
#657 = CARTESIAN_POINT ( 'NONE',  ( -122.7747079895112705, -1.641759158935360619, 12.62025812237661171 ) ) ;
#658 = CARTESIAN_POINT ( 'NONE',  ( 123.5891131580886793, -0.8312130558219057441, 13.00153689607046914 ) ) ;
#659 = CARTESIAN_POINT ( 'NONE',  ( 127.1796630344087333, -3.362180368261951990, -12.36148333996747617 ) ) ;
#660 = CARTESIAN_POINT ( 'NONE',  ( -123.7755878159724290, -6.364613562082589659, 11.28314455403168814 ) ) ;
#661 =( BOUNDED_CURVE ( )  B_SPLINE_CURVE ( 3, ( #578, #313, #522, #156 ),
 .UNSPECIFIED., .F., .F. ) 
 B_SPLINE_CURVE_WITH_KNOTS ( ( 4, 4 ),
 ( 3.141592653589793116, 4.712388980384685233 ),
 .UNSPECIFIED. ) 
 CURVE ( )  GEOMETRIC_REPRESENTATION_ITEM ( )  RATIONAL_B_SPLINE_CURVE ( ( 1.000000000000000000, 0.8047378541243661587, 0.8047378541243661587, 1.000000000000000000 ) ) 
 REPRESENTATION_ITEM ( '' )  );
#662 = DIRECTION ( 'NONE',  ( 0.000000000000000000, 0.000000000000000000, 1.000000000000000000 ) ) ;
#663 = CARTESIAN_POINT ( 'NONE',  ( 122.9375679330089213, -9.568012509455362746, 8.392499732682956903 ) ) ;
#664 = CARTESIAN_POINT ( 'NONE',  ( 126.0857218668310935, -7.804743346935310022, -10.15576889520297321 ) ) ;
#665 = FACE_OUTER_BOUND ( 'NONE', #65, .T. ) ;
ENDSEC;
END-ISO-10303-21;
