ISO-10303-21;
HEADER;
FILE_DESCRIPTION (( 'STEP AP214' ),
    '1' );
FILE_NAME ('Walker_Brake_Handle.STEP',
    '2026-08-11T21:02:30',
    ( '' ),
    ( '' ),
    'SwSTEP 2.0',
    'SolidWorks 2023',
    '' );
FILE_SCHEMA (( 'AUTOMOTIVE_DESIGN' ));
ENDSEC;

DATA;
#1 = CARTESIAN_POINT ( 'NONE',  ( 11.20000000000000107, 14.00663171889838843, 53.33375492244385185 ) ) ;
#2 = EDGE_CURVE ( 'NONE', #391, #880, #611, .T. ) ;
#3 = CARTESIAN_POINT ( 'NONE',  ( 33.75548713727999228, -8.500000000000081712, 46.84999999999998721 ) ) ;
#4 = ORIENTED_EDGE ( 'NONE', *, *, #842, .T. ) ;
#5 = EDGE_LOOP ( 'NONE', ( #659, #1133, #1252, #307 ) ) ;
#6 = ORIENTED_EDGE ( 'NONE', *, *, #1256, .T. ) ;
#7 = DIRECTION ( 'NONE',  ( 0.000000000000000000, 0.000000000000000000, -1.000000000000000000 ) ) ;
#8 = CARTESIAN_POINT ( 'NONE',  ( -11.19999999999999929, -26.50000000000000000, 40.84999999999990905 ) ) ;
#9 = CARTESIAN_POINT ( 'NONE',  ( -11.19999999999999929, -26.50000000000000000, 40.84999999999990905 ) ) ;
#10 = VECTOR ( 'NONE', #957, 1000.000000000000000 ) ;
#11 = ORIENTED_EDGE ( 'NONE', *, *, #517, .T. ) ;
#12 = VERTEX_POINT ( 'NONE', #823 ) ;
#13 = DIRECTION ( 'NONE',  ( 0.000000000000000000, 0.000000000000000000, -1.000000000000000000 ) ) ;
#14 = LINE ( 'NONE', #1240, #887 ) ;
#15 = DIRECTION ( 'NONE',  ( 1.000000000000000000, 0.000000000000000000, 0.000000000000000000 ) ) ;
#16 = CARTESIAN_POINT ( 'NONE',  ( 80.97826680686709722, 28.49999999999999645, 92.84999999999999432 ) ) ;
#17 = AXIS2_PLACEMENT_3D ( 'NONE', #1248, #1057, #7 ) ;
#18 = ORIENTED_EDGE ( 'NONE', *, *, #270, .F. ) ;
#19 = DIRECTION ( 'NONE',  ( -1.000000000000000000, -0.000000000000000000, -0.000000000000000000 ) ) ;
#20 = CARTESIAN_POINT ( 'NONE',  ( 37.14706149065825258, 1.506631718898382877, 58.83375492244385185 ) ) ;
#21 = CIRCLE ( 'NONE', #987, 10.00000000000000178 ) ;
#22 = ADVANCED_FACE ( 'NONE', ( #691 ), #387, .T. ) ;
#23 = CARTESIAN_POINT ( 'NONE',  ( -11.20000000000000107, 20.49999999999999289, -3.650000000000001243 ) ) ;
#24 = CIRCLE ( 'NONE', #821, 5.000000000000004441 ) ;
#25 = ORIENTED_EDGE ( 'NONE', *, *, #934, .T. ) ;
#26 = CARTESIAN_POINT ( 'NONE',  ( -32.41320343559642225, 20.49999999999998934, 25.34999999999998721 ) ) ;
#27 = LINE ( 'NONE', #437, #131 ) ;
#28 = DIRECTION ( 'NONE',  ( -0.000000000000000000, -0.000000000000000000, 1.000000000000000000 ) ) ;
#29 = CARTESIAN_POINT ( 'NONE',  ( -11.19999999999999929, 20.49999999999999645, -32.85000000000000142 ) ) ;
#30 = CIRCLE ( 'NONE', #1170, 5.000000000000004441 ) ;
#31 = ORIENTED_EDGE ( 'NONE', *, *, #597, .T. ) ;
#32 = DIRECTION ( 'NONE',  ( 0.000000000000000000, 0.000000000000000000, -1.000000000000000000 ) ) ;
#33 = DIRECTION ( 'NONE',  ( 0.000000000000000000, 0.000000000000000000, -1.000000000000000000 ) ) ;
#34 = CARTESIAN_POINT ( 'NONE',  ( 11.20000000000000107, -8.500000000000081712, 46.84999999999998721 ) ) ;
#35 = ORIENTED_EDGE ( 'NONE', *, *, #763, .T. ) ;
#36 = VECTOR ( 'NONE', #1123, 1000.000000000000000 ) ;
#37 = ORIENTED_EDGE ( 'NONE', *, *, #233, .F. ) ;
#38 = EDGE_CURVE ( 'NONE', #227, #1065, #1211, .T. ) ;
#39 = CARTESIAN_POINT ( 'NONE',  ( 11.20000000000000107, 28.49999999999999645, 92.84999999999999432 ) ) ;
#40 = DIRECTION ( 'NONE',  ( -1.000000000000000000, -0.000000000000000000, -0.000000000000000000 ) ) ;
#41 = EDGE_CURVE ( 'NONE', #561, #719, #700, .T. ) ;
#42 = EDGE_LOOP ( 'NONE', ( #894, #1025, #975, #326 ) ) ;
#43 = CARTESIAN_POINT ( 'NONE',  ( 37.14706149065825258, 14.00663171889838843, 58.83375492244385185 ) ) ;
#44 = EDGE_CURVE ( 'NONE', #583, #482, #92, .T. ) ;
#45 = VECTOR ( 'NONE', #614, 1000.000000000000000 ) ;
#46 = ORIENTED_EDGE ( 'NONE', *, *, #413, .T. ) ;
#47 = FACE_OUTER_BOUND ( 'NONE', #1197, .T. ) ;
#48 = ORIENTED_EDGE ( 'NONE', *, *, #1276, .T. ) ;
#49 = CARTESIAN_POINT ( 'NONE',  ( -11.19999999999999929, -16.50000000000000000, -31.29140904853719363 ) ) ;
#50 = EDGE_LOOP ( 'NONE', ( #792, #830, #269, #478 ) ) ;
#51 = DIRECTION ( 'NONE',  ( 0.000000000000000000, 0.000000000000000000, -1.000000000000000000 ) ) ;
#52 = SHAPE_DEFINITION_REPRESENTATION ( #735, #785 ) ;
#53 = VERTEX_POINT ( 'NONE', #1116 ) ;
#54 = LINE ( 'NONE', #257, #941 ) ;
#55 = ORIENTED_EDGE ( 'NONE', *, *, #140, .F. ) ;
#56 = DIRECTION ( 'NONE',  ( -0.000000000000000000, 1.000000000000000000, 1.412257918027252025E-16 ) ) ;
#57 = ORIENTED_EDGE ( 'NONE', *, *, #472, .T. ) ;
#58 = DIRECTION ( 'NONE',  ( 0.000000000000000000, 0.000000000000000000, 1.000000000000000000 ) ) ;
#59 = AXIS2_PLACEMENT_3D ( 'NONE', #804, #403, #1221 ) ;
#60 = ORIENTED_EDGE ( 'NONE', *, *, #555, .F. ) ;
#61 = AXIS2_PLACEMENT_3D ( 'NONE', #625, #207, #409 ) ;
#62 = CARTESIAN_POINT ( 'NONE',  ( -11.19999999999999929, 26.50000000000000000, -31.29140904853719363 ) ) ;
#63 = VERTEX_POINT ( 'NONE', #908 ) ;
#64 = DIRECTION ( 'NONE',  ( 0.000000000000000000, 1.000000000000000000, 0.000000000000000000 ) ) ;
#65 = VERTEX_POINT ( 'NONE', #720 ) ;
#66 = CIRCLE ( 'NONE', #1191, 10.00000000000000178 ) ;
#67 = AXIS2_PLACEMENT_3D ( 'NONE', #1039, #655, #1152 ) ;
#68 = VERTEX_POINT ( 'NONE', #1209 ) ;
#69 = FACE_OUTER_BOUND ( 'NONE', #355, .T. ) ;
#70 = EDGE_CURVE ( 'NONE', #112, #1216, #1019, .T. ) ;
#71 = LINE ( 'NONE', #94, #1055 ) ;
#72 = AXIS2_PLACEMENT_3D ( 'NONE', #788, #1294, #167 ) ;
#73 = EDGE_LOOP ( 'NONE', ( #684, #18, #302, #510 ) ) ;
#74 = EDGE_CURVE ( 'NONE', #990, #391, #191, .T. ) ;
#75 = AXIS2_PLACEMENT_3D ( 'NONE', #685, #51, #1185 ) ;
#76 = VECTOR ( 'NONE', #909, 1000.000000000000000 ) ;
#77 = ORIENTED_EDGE ( 'NONE', *, *, #555, .T. ) ;
#78 = DIRECTION ( 'NONE',  ( -1.000000000000000000, -0.000000000000000000, -0.000000000000000000 ) ) ;
#79 = EDGE_CURVE ( 'NONE', #449, #1169, #30, .T. ) ;
#80 = ADVANCED_FACE ( 'NONE', ( #1013 ), #914, .F. ) ;
#81 = DIRECTION ( 'NONE',  ( -1.000000000000000000, 0.000000000000000000, 0.000000000000000000 ) ) ;
#82 = CARTESIAN_POINT ( 'NONE',  ( 11.19999999999999929, 26.50000000000000000, 87.34999999999999432 ) ) ;
#83 = ORIENTED_EDGE ( 'NONE', *, *, #176, .F. ) ;
#84 = AXIS2_PLACEMENT_3D ( 'NONE', #315, #330, #740 ) ;
#85 = EDGE_LOOP ( 'NONE', ( #866, #724, #926, #1067 ) ) ;
#86 = CARTESIAN_POINT ( 'NONE',  ( 11.19999999999999929, 1.506631718898384875, 53.33375492244384475 ) ) ;
#87 = CARTESIAN_POINT ( 'NONE',  ( 11.20000000000000107, 14.00663171889838843, 58.83375492244385185 ) ) ;
#88 = DIRECTION ( 'NONE',  ( -1.000000000000000000, 0.000000000000000000, 0.000000000000000000 ) ) ;
#89 = VERTEX_POINT ( 'NONE', #622 ) ;
#90 = DIRECTION ( 'NONE',  ( 0.000000000000000000, -1.412257918027252025E-16, 1.000000000000000000 ) ) ;
#91 = LINE ( 'NONE', #290, #1326 ) ;
#92 = CIRCLE ( 'NONE', #610, 7.499999999999999112 ) ;
#93 = DIRECTION ( 'NONE',  ( 0.000000000000000000, 0.000000000000000000, -1.000000000000000000 ) ) ;
#94 = CARTESIAN_POINT ( 'NONE',  ( -32.41320343559642225, 20.49999999999999289, 5.349999999999982769 ) ) ;
#95 = ORIENTED_EDGE ( 'NONE', *, *, #578, .F. ) ;
#96 = EDGE_CURVE ( 'NONE', #732, #1192, #416, .T. ) ;
#97 = EDGE_CURVE ( 'NONE', #598, #1093, #308, .T. ) ;
#98 = EDGE_CURVE ( 'NONE', #1034, #449, #429, .T. ) ;
#99 = DIRECTION ( 'NONE',  ( 0.000000000000000000, 0.000000000000000000, -1.000000000000000000 ) ) ;
#100 = CARTESIAN_POINT ( 'NONE',  ( -11.19999999999999929, -14.50000000000000000, 40.84999999999999432 ) ) ;
#101 = VECTOR ( 'NONE', #970, 1000.000000000000000 ) ;
#102 = DIRECTION ( 'NONE',  ( 0.000000000000000000, -1.000000000000000000, -5.551115123125780730E-16 ) ) ;
#103 = CARTESIAN_POINT ( 'NONE',  ( 37.14706149065825258, 14.00663171889838665, 64.33375492244384475 ) ) ;
#104 = ORIENTED_EDGE ( 'NONE', *, *, #1175, .F. ) ;
#105 = ORIENTED_EDGE ( 'NONE', *, *, #98, .F. ) ;
#106 = CARTESIAN_POINT ( 'NONE',  ( -11.19999999999999929, 26.50000000000000000, 52.84999999999999432 ) ) ;
#107 = CARTESIAN_POINT ( 'NONE',  ( 11.20000000000000107, 20.49999999999999289, 5.349999999999981881 ) ) ;
#108 = MECHANICAL_DESIGN_GEOMETRIC_PRESENTATION_REPRESENTATION (  '', ( #627 ), #560 ) ;
#109 = DIRECTION ( 'NONE',  ( 0.000000000000000000, -1.000000000000000000, 0.000000000000000000 ) ) ;
#110 = DIRECTION ( 'NONE',  ( 1.000000000000000000, 0.000000000000000000, 0.000000000000000000 ) ) ;
#111 = ORIENTED_EDGE ( 'NONE', *, *, #955, .F. ) ;
#112 = VERTEX_POINT ( 'NONE', #210 ) ;
#113 = DIRECTION ( 'NONE',  ( 0.000000000000000000, 0.000000000000000000, 1.000000000000000000 ) ) ;
#114 = FACE_OUTER_BOUND ( 'NONE', #185, .T. ) ;
#115 = DIRECTION ( 'NONE',  ( 1.000000000000000000, 0.000000000000000000, 0.000000000000000000 ) ) ;
#116 = DIRECTION ( 'NONE',  ( 0.000000000000000000, -1.412257918027252025E-16, 1.000000000000000000 ) ) ;
#117 = CIRCLE ( 'NONE', #282, 5.000000000000004441 ) ;
#118 = VECTOR ( 'NONE', #537, 1000.000000000000000 ) ;
#119 = ORIENTED_EDGE ( 'NONE', *, *, #800, .T. ) ;
#120 = EDGE_CURVE ( 'NONE', #1295, #222, #630, .T. ) ;
#121 = CARTESIAN_POINT ( 'NONE',  ( 11.20000000000000107, 28.49999999999996092, 82.84999999999999432 ) ) ;
#122 = LINE ( 'NONE', #623, #682 ) ;
#123 = DIRECTION ( 'NONE',  ( 0.000000000000000000, 0.000000000000000000, -1.000000000000000000 ) ) ;
#124 = FACE_OUTER_BOUND ( 'NONE', #508, .T. ) ;
#125 = EDGE_CURVE ( 'NONE', #1264, #385, #1247, .T. ) ;
#126 = ORIENTED_EDGE ( 'NONE', *, *, #38, .T. ) ;
#127 = CARTESIAN_POINT ( 'NONE',  ( 11.19999999999999929, 20.49999999999999645, -32.85000000000000142 ) ) ;
#128 = LINE ( 'NONE', #1151, #484 ) ;
#129 = DIRECTION ( 'NONE',  ( 0.000000000000000000, 0.000000000000000000, -1.000000000000000000 ) ) ;
#130 = DIRECTION ( 'NONE',  ( -0.000000000000000000, 1.000000000000000000, 1.412257918027252025E-16 ) ) ;
#131 = VECTOR ( 'NONE', #850, 1000.000000000000000 ) ;
#132 = EDGE_LOOP ( 'NONE', ( #874, #843, #595, #1121 ) ) ;
#133 = LINE ( 'NONE', #1265, #1143 ) ;
#134 = CYLINDRICAL_SURFACE ( 'NONE', #944, 3.000000000000002665 ) ;
#135 = FACE_BOUND ( 'NONE', #406, .T. ) ;
#136 = DIRECTION ( 'NONE',  ( 0.000000000000000000, -1.412257918027252025E-16, 1.000000000000000000 ) ) ;
#137 = ORIENTED_EDGE ( 'NONE', *, *, #491, .F. ) ;
#138 = EDGE_CURVE ( 'NONE', #598, #984, #178, .T. ) ;
#139 = ORIENTED_EDGE ( 'NONE', *, *, #138, .T. ) ;
#140 = EDGE_CURVE ( 'NONE', #971, #12, #1139, .T. ) ;
#141 = EDGE_CURVE ( 'NONE', #918, #1278, #634, .T. ) ;
#142 = CARTESIAN_POINT ( 'NONE',  ( 11.19999999999999929, -20.49999999999999645, 34.84999999999990195 ) ) ;
#143 = DIRECTION ( 'NONE',  ( 1.000000000000000000, 0.000000000000000000, 0.000000000000000000 ) ) ;
#144 = DIRECTION ( 'NONE',  ( 1.000000000000000000, 0.000000000000000000, 0.000000000000000000 ) ) ;
#145 = ORIENTED_EDGE ( 'NONE', *, *, #1038, .T. ) ;
#146 = LINE ( 'NONE', #886, #1244 ) ;
#147 = AXIS2_PLACEMENT_3D ( 'NONE', #701, #922, #480 ) ;
#148 = AXIS2_PLACEMENT_3D ( 'NONE', #593, #81, #389 ) ;
#149 = ORIENTED_EDGE ( 'NONE', *, *, #372, .F. ) ;
#150 = CARTESIAN_POINT ( 'NONE',  ( 37.14706149065825258, 1.506631718898383543, 64.33375492244384475 ) ) ;
#151 = DIRECTION ( 'NONE',  ( 0.000000000000000000, -0.9321196321339560997, -0.3621505093058111080 ) ) ;
#152 = ORIENTED_EDGE ( 'NONE', *, *, #1138, .T. ) ;
#153 = FACE_OUTER_BOUND ( 'NONE', #463, .T. ) ;
#154 = VECTOR ( 'NONE', #916, 1000.000000000000000 ) ;
#155 = ORIENTED_EDGE ( 'NONE', *, *, #237, .T. ) ;
#156 = CARTESIAN_POINT ( 'NONE',  ( 11.19999999999999929, 20.49999999999999645, -30.78296747958835766 ) ) ;
#157 = ORIENTED_EDGE ( 'NONE', *, *, #942, .T. ) ;
#158 = DIRECTION ( 'NONE',  ( -1.000000000000000000, -0.000000000000000000, -0.000000000000000000 ) ) ;
#159 = EDGE_LOOP ( 'NONE', ( #1079, #982, #1012, #166 ) ) ;
#160 = EDGE_CURVE ( 'NONE', #1183, #227, #523, .T. ) ;
#161 = ORIENTED_EDGE ( 'NONE', *, *, #1276, .F. ) ;
#162 = FACE_OUTER_BOUND ( 'NONE', #565, .T. ) ;
#163 = ORIENTED_EDGE ( 'NONE', *, *, #276, .T. ) ;
#164 = VECTOR ( 'NONE', #180, 1000.000000000000000 ) ;
#165 =( NAMED_UNIT ( * ) SI_UNIT ( $, .STERADIAN. ) SOLID_ANGLE_UNIT ( ) );
#166 = ORIENTED_EDGE ( 'NONE', *, *, #1256, .F. ) ;
#167 = DIRECTION ( 'NONE',  ( 0.000000000000000000, 0.000000000000000000, -1.000000000000000000 ) ) ;
#168 = ORIENTED_EDGE ( 'NONE', *, *, #97, .T. ) ;
#169 = AXIS2_PLACEMENT_3D ( 'NONE', #43, #881, #1287 ) ;
#170 = PLANE ( 'NONE',  #834 ) ;
#171 = ORIENTED_EDGE ( 'NONE', *, *, #1092, .T. ) ;
#172 = CARTESIAN_POINT ( 'NONE',  ( 11.19999999999999929, 26.50000000000000000, -31.29140904853719363 ) ) ;
#173 = CARTESIAN_POINT ( 'NONE',  ( 80.97826680686709722, 26.50000000000000000, 82.84999999999999432 ) ) ;
#174 = ADVANCED_FACE ( 'NONE', ( #238 ), #1048, .F. ) ;
#175 = ORIENTED_EDGE ( 'NONE', *, *, #477, .T. ) ;
#176 = EDGE_CURVE ( 'NONE', #781, #1295, #521, .T. ) ;
#177 = EDGE_CURVE ( 'NONE', #885, #112, #117, .T. ) ;
#178 = CIRCLE ( 'NONE', #331, 10.00000000000000178 ) ;
#179 = CARTESIAN_POINT ( 'NONE',  ( -32.41320343559642225, 20.49999999999998934, 16.34999999999999432 ) ) ;
#180 = DIRECTION ( 'NONE',  ( -1.000000000000000000, 0.000000000000000000, 0.000000000000000000 ) ) ;
#181 = CYLINDRICAL_SURFACE ( 'NONE', #148, 3.000000000000002665 ) ;
#182 = CARTESIAN_POINT ( 'NONE',  ( -11.20000000000000107, -8.500000000000081712, 46.84999999999998721 ) ) ;
#183 = ORIENTED_EDGE ( 'NONE', *, *, #613, .T. ) ;
#184 = AXIS2_PLACEMENT_3D ( 'NONE', #328, #529, #1049 ) ;
#185 = EDGE_LOOP ( 'NONE', ( #1149, #284, #175, #1122 ) ) ;
#186 = CARTESIAN_POINT ( 'NONE',  ( 11.20000000000000107, 33.49999999999999289, 92.84999999999996589 ) ) ;
#187 = DIRECTION ( 'NONE',  ( 0.000000000000000000, 0.000000000000000000, -1.000000000000000000 ) ) ;
#188 = DIRECTION ( 'NONE',  ( -1.000000000000000000, -0.000000000000000000, -0.000000000000000000 ) ) ;
#189 = ORIENTED_EDGE ( 'NONE', *, *, #1196, .F. ) ;
#190 = VECTOR ( 'NONE', #1266, 1000.000000000000000 ) ;
#191 = LINE ( 'NONE', #1128, #1041 ) ;
#192 = DIRECTION ( 'NONE',  ( -0.000000000000000000, 0.000000000000000000, 1.000000000000000000 ) ) ;
#193 = LINE ( 'NONE', #825, #972 ) ;
#194 = LINE ( 'NONE', #1016, #1115 ) ;
#195 = ADVANCED_FACE ( 'NONE', ( #342 ), #327, .F. ) ;
#196 = EDGE_LOOP ( 'NONE', ( #293, #421, #1286, #1089 ) ) ;
#197 = VERTEX_POINT ( 'NONE', #653 ) ;
#198 = CARTESIAN_POINT ( 'NONE',  ( -11.20000000000000107, 20.49999999999998934, 25.34999999999998721 ) ) ;
#199 = VECTOR ( 'NONE', #1231, 1000.000000000000000 ) ;
#200 = CARTESIAN_POINT ( 'NONE',  ( 11.19999999999999929, -26.50000000000000000, -31.29140904853720073 ) ) ;
#201 = DIRECTION ( 'NONE',  ( 1.000000000000000000, 0.000000000000000000, -0.000000000000000000 ) ) ;
#202 = VERTEX_POINT ( 'NONE', #1145 ) ;
#203 = ORIENTED_EDGE ( 'NONE', *, *, #993, .T. ) ;
#204 = CARTESIAN_POINT ( 'NONE',  ( -11.20000000000000107, 28.49999999999999645, 92.84999999999999432 ) ) ;
#205 = CYLINDRICAL_SURFACE ( 'NONE', #266, 7.500000000000000000 ) ;
#206 = DIRECTION ( 'NONE',  ( 0.000000000000000000, 0.000000000000000000, -1.000000000000000000 ) ) ;
#207 = DIRECTION ( 'NONE',  ( 1.000000000000000000, 0.000000000000000000, 0.000000000000000000 ) ) ;
#208 = ORIENTED_EDGE ( 'NONE', *, *, #372, .T. ) ;
#209 = VERTEX_POINT ( 'NONE', #121 ) ;
#210 = CARTESIAN_POINT ( 'NONE',  ( 11.20000000000000107, 28.49999999999996092, 97.84999999999999432 ) ) ;
#211 = DIRECTION ( 'NONE',  ( 0.000000000000000000, 0.000000000000000000, -1.000000000000000000 ) ) ;
#212 = AXIS2_PLACEMENT_3D ( 'NONE', #49, #777, #670 ) ;
#213 = DIRECTION ( 'NONE',  ( -1.000000000000000000, -0.000000000000000000, -0.000000000000000000 ) ) ;
#214 = CYLINDRICAL_SURFACE ( 'NONE', #470, 5.000000000000004441 ) ;
#215 = EDGE_CURVE ( 'NONE', #63, #667, #392, .T. ) ;
#216 = EDGE_LOOP ( 'NONE', ( #371, #306, #1199, #1330 ) ) ;
#217 = EDGE_CURVE ( 'NONE', #345, #1137, #66, .T. ) ;
#218 = CARTESIAN_POINT ( 'NONE',  ( 80.97826680686709722, 26.50000000000000000, 82.84999999999999432 ) ) ;
#219 = DIRECTION ( 'NONE',  ( 1.000000000000000000, 0.000000000000000000, 0.000000000000000000 ) ) ;
#220 = EDGE_CURVE ( 'NONE', #888, #1281, #569, .T. ) ;
#221 = CARTESIAN_POINT ( 'NONE',  ( -11.19999999999999929, -25.89836240655037614, -34.70766197757225058 ) ) ;
#222 = VERTEX_POINT ( 'NONE', #744 ) ;
#223 = DIRECTION ( 'NONE',  ( 0.000000000000000000, 1.000000000000000000, 0.000000000000000000 ) ) ;
#224 = CARTESIAN_POINT ( 'NONE',  ( 11.20000000000000107, -8.500000000000081712, 46.84999999999998721 ) ) ;
#225 = DIRECTION ( 'NONE',  ( -1.000000000000000000, -0.000000000000000000, -0.000000000000000000 ) ) ;
#226 = CARTESIAN_POINT ( 'NONE',  ( -11.19999999999999929, -14.49999999999991473, 52.84999999999999432 ) ) ;
#227 = VERTEX_POINT ( 'NONE', #849 ) ;
#228 = CARTESIAN_POINT ( 'NONE',  ( 11.20000000000000107, 14.49999999999998934, 40.84999999999998721 ) ) ;
#229 = AXIS2_PLACEMENT_3D ( 'NONE', #29, #130, #116 ) ;
#230 = CARTESIAN_POINT ( 'NONE',  ( 80.97826680686709722, -19.82922762023026664, 79.84999999999996589 ) ) ;
#231 = CARTESIAN_POINT ( 'NONE',  ( -11.19999999999999929, 14.00663171889838843, 53.33375492244385185 ) ) ;
#232 = ORIENTED_EDGE ( 'NONE', *, *, #1095, .F. ) ;
#233 = EDGE_CURVE ( 'NONE', #1192, #984, #746, .T. ) ;
#234 =( GEOMETRIC_REPRESENTATION_CONTEXT ( 3 ) GLOBAL_UNCERTAINTY_ASSIGNED_CONTEXT ( ( #258 ) ) GLOBAL_UNIT_ASSIGNED_CONTEXT ( ( #632, #638, #433 ) ) REPRESENTATION_CONTEXT ( 'NONE', 'WORKASPACE' ) );
#235 = EDGE_CURVE ( 'NONE', #249, #1218, #1157, .T. ) ;
#236 = ORIENTED_EDGE ( 'NONE', *, *, #576, .F. ) ;
#237 = EDGE_CURVE ( 'NONE', #1144, #892, #133, .T. ) ;
#238 = FACE_OUTER_BOUND ( 'NONE', #196, .T. ) ;
#239 = CYLINDRICAL_SURFACE ( 'NONE', #1120, 33.70628485236765215 ) ;
#240 = PLANE ( 'NONE',  #683 ) ;
#241 = ORIENTED_EDGE ( 'NONE', *, *, #1277, .F. ) ;
#242 = ORIENTED_EDGE ( 'NONE', *, *, #978, .F. ) ;
#243 = DIRECTION ( 'NONE',  ( 0.000000000000000000, 1.000000000000000000, 0.000000000000000000 ) ) ;
#244 = PRESENTATION_STYLE_ASSIGNMENT (( #679 ) ) ;
#245 = VERTEX_POINT ( 'NONE', #1069 ) ;
#246 = CARTESIAN_POINT ( 'NONE',  ( -11.19999999999999929, -20.49999999999999645, 34.84999999999990905 ) ) ;
#247 = AXIS2_PLACEMENT_3D ( 'NONE', #1172, #373, #1285 ) ;
#248 = VECTOR ( 'NONE', #808, 1000.000000000000000 ) ;
#249 = VERTEX_POINT ( 'NONE', #973 ) ;
#250 = FILL_AREA_STYLE_COLOUR ( '', #509 ) ;
#251 = ORIENTED_EDGE ( 'NONE', *, *, #1053, .T. ) ;
#252 = LINE ( 'NONE', #568, #870 ) ;
#253 = ORIENTED_EDGE ( 'NONE', *, *, #658, .F. ) ;
#254 = EDGE_CURVE ( 'NONE', #1222, #1245, #766, .T. ) ;
#255 = FILL_AREA_STYLE ('',( #250 ) ) ;
#256 = ORIENTED_EDGE ( 'NONE', *, *, #376, .T. ) ;
#257 = CARTESIAN_POINT ( 'NONE',  ( 80.97826680686709722, -12.54477020648992891, 82.68018388569183230 ) ) ;
#258 = UNCERTAINTY_MEASURE_WITH_UNIT (LENGTH_MEASURE( 1.000000000000000082E-05 ), #632, 'distance_accuracy_value', 'NONE');
#259 = ORIENTED_EDGE ( 'NONE', *, *, #1332, .F. ) ;
#260 = VECTOR ( 'NONE', #757, 1000.000000000000000 ) ;
#261 = CARTESIAN_POINT ( 'NONE',  ( -32.41320343559642225, 20.49999999999999645, -14.65000000000001990 ) ) ;
#262 = ORIENTED_EDGE ( 'NONE', *, *, #517, .F. ) ;
#263 = DIRECTION ( 'NONE',  ( 1.000000000000000000, 0.000000000000000000, 0.000000000000000000 ) ) ;
#264 = EDGE_LOOP ( 'NONE', ( #1081, #986, #954, #1085 ) ) ;
#265 = PRODUCT_DEFINITION ( 'UNKNOWN', '', #992, #346 ) ;
#266 = AXIS2_PLACEMENT_3D ( 'NONE', #415, #838, #33 ) ;
#267 = AXIS2_PLACEMENT_3D ( 'NONE', #1147, #144, #324 ) ;
#268 = LINE ( 'NONE', #884, #663 ) ;
#269 = ORIENTED_EDGE ( 'NONE', *, *, #1035, .F. ) ;
#270 = EDGE_CURVE ( 'NONE', #1245, #288, #556, .T. ) ;
#271 = DIRECTION ( 'NONE',  ( 1.000000000000000000, 0.000000000000000000, 0.000000000000000000 ) ) ;
#272 = DIRECTION ( 'NONE',  ( 0.000000000000000000, -0.000000000000000000, -1.000000000000000000 ) ) ;
#273 = ADVANCED_FACE ( 'NONE', ( #47 ), #869, .T. ) ;
#274 = ORIENTED_EDGE ( 'NONE', *, *, #359, .T. ) ;
#275 = EDGE_CURVE ( 'NONE', #1218, #482, #1118, .T. ) ;
#276 = EDGE_CURVE ( 'NONE', #774, #245, #1096, .T. ) ;
#277 = ORIENTED_EDGE ( 'NONE', *, *, #177, .F. ) ;
#278 = DIRECTION ( 'NONE',  ( 0.000000000000000000, 0.000000000000000000, -1.000000000000000000 ) ) ;
#279 = CARTESIAN_POINT ( 'NONE',  ( 11.20000000000000107, 20.49999999999998934, 16.34999999999999432 ) ) ;
#280 = DIRECTION ( 'NONE',  ( 0.000000000000000000, 0.000000000000000000, -1.000000000000000000 ) ) ;
#281 = ORIENTED_EDGE ( 'NONE', *, *, #893, .T. ) ;
#282 = AXIS2_PLACEMENT_3D ( 'NONE', #39, #1239, #32 ) ;
#283 = CIRCLE ( 'NONE', #67, 7.500000000000000000 ) ;
#284 = ORIENTED_EDGE ( 'NONE', *, *, #2, .F. ) ;
#285 = DIRECTION ( 'NONE',  ( -1.000000000000000000, 0.000000000000000000, 0.000000000000000000 ) ) ;
#286 = LINE ( 'NONE', #1010, #791 ) ;
#287 = DIRECTION ( 'NONE',  ( 0.000000000000000000, 0.06578243748021293802, -0.9978339896591827962 ) ) ;
#288 = VERTEX_POINT ( 'NONE', #487 ) ;
#289 = DIRECTION ( 'NONE',  ( 1.000000000000000000, 0.000000000000000000, 0.000000000000000000 ) ) ;
#290 = CARTESIAN_POINT ( 'NONE',  ( 37.14706149065825258, 14.00663171889838843, 53.33375492244385185 ) ) ;
#291 = LINE ( 'NONE', #702, #45 ) ;
#292 = DIRECTION ( 'NONE',  ( 0.000000000000000000, 0.000000000000000000, 1.000000000000000000 ) ) ;
#293 = ORIENTED_EDGE ( 'NONE', *, *, #763, .F. ) ;
#294 = AXIS2_PLACEMENT_3D ( 'NONE', #1314, #201, #292 ) ;
#295 = CIRCLE ( 'NONE', #1223, 3.000000000000002665 ) ;
#296 = CARTESIAN_POINT ( 'NONE',  ( 11.19999999999999929, 0.000000000000000000, -25.29375000000002061 ) ) ;
#297 = LINE ( 'NONE', #713, #36 ) ;
#298 = CARTESIAN_POINT ( 'NONE',  ( -11.19999999999999929, -8.499999999999998224, 34.84999999999999432 ) ) ;
#299 = CARTESIAN_POINT ( 'NONE',  ( -11.19999999999999929, 0.000000000000000000, -47.14202027621409741 ) ) ;
#300 = ORIENTED_EDGE ( 'NONE', *, *, #578, .T. ) ;
#301 = ORIENTED_EDGE ( 'NONE', *, *, #862, .T. ) ;
#302 = ORIENTED_EDGE ( 'NONE', *, *, #893, .F. ) ;
#303 = FACE_OUTER_BOUND ( 'NONE', #519, .T. ) ;
#304 = CARTESIAN_POINT ( 'NONE',  ( 11.19999999999999929, 26.50000000000000000, 52.84999999999999432 ) ) ;
#305 = FACE_OUTER_BOUND ( 'NONE', #216, .T. ) ;
#306 = ORIENTED_EDGE ( 'NONE', *, *, #461, .T. ) ;
#307 = ORIENTED_EDGE ( 'NONE', *, *, #658, .T. ) ;
#308 = LINE ( 'NONE', #127, #10 ) ;
#309 = CIRCLE ( 'NONE', #1068, 3.000000000000002665 ) ;
#310 = LINE ( 'NONE', #1129, #790 ) ;
#311 = CIRCLE ( 'NONE', #1070, 27.55624999999999858 ) ;
#312 = VECTOR ( 'NONE', #1166, 1000.000000000000000 ) ;
#313 = ADVANCED_FACE ( 'NONE', ( #516 ), #1021, .F. ) ;
#314 = CARTESIAN_POINT ( 'NONE',  ( 11.20000000000000107, -8.923265113431819273, 73.35898756435227597 ) ) ;
#315 = CARTESIAN_POINT ( 'NONE',  ( 11.20000000000000107, 14.49999999999998934, 0.8499999999999896527 ) ) ;
#316 = EDGE_LOOP ( 'NONE', ( #577, #1047, #554, #833 ) ) ;
#317 = EDGE_CURVE ( 'NONE', #907, #385, #291, .T. ) ;
#318 = VECTOR ( 'NONE', #1026, 1000.000000000000000 ) ;
#319 = EDGE_CURVE ( 'NONE', #1281, #1034, #493, .T. ) ;
#320 = ORIENTED_EDGE ( 'NONE', *, *, #993, .F. ) ;
#321 = DIRECTION ( 'NONE',  ( 0.000000000000000000, -1.000000000000000000, 0.000000000000000000 ) ) ;
#322 = DIRECTION ( 'NONE',  ( -1.000000000000000000, -0.000000000000000000, -0.000000000000000000 ) ) ;
#323 = AXIS2_PLACEMENT_3D ( 'NONE', #87, #1028, #722 ) ;
#324 = DIRECTION ( 'NONE',  ( 0.000000000000000000, 0.000000000000000000, -1.000000000000000000 ) ) ;
#325 = CARTESIAN_POINT ( 'NONE',  ( -11.20000000000000107, 1.506631718898383543, 64.33375492244384475 ) ) ;
#326 = ORIENTED_EDGE ( 'NONE', *, *, #794, .T. ) ;
#327 = CYLINDRICAL_SURFACE ( 'NONE', #1018, 7.500000000000000000 ) ;
#328 = CARTESIAN_POINT ( 'NONE',  ( 11.19999999999999929, 0.000000000000000000, -25.29375000000001705 ) ) ;
#329 = CARTESIAN_POINT ( 'NONE',  ( -11.19999999999999929, 0.000000000000000000, -25.29375000000001705 ) ) ;
#330 = DIRECTION ( 'NONE',  ( 1.000000000000000000, 0.000000000000000000, 0.000000000000000000 ) ) ;
#331 = AXIS2_PLACEMENT_3D ( 'NONE', #450, #935, #13 ) ;
#332 = EDGE_LOOP ( 'NONE', ( #784, #404, #828, #471 ) ) ;
#333 = DIRECTION ( 'NONE',  ( 0.000000000000000000, 0.000000000000000000, 1.000000000000000000 ) ) ;
#334 = CARTESIAN_POINT ( 'NONE',  ( -11.20000000000000107, 20.49999999999998579, 36.34999999999999432 ) ) ;
#335 = DIRECTION ( 'NONE',  ( 0.000000000000000000, -1.412257918027252025E-16, 1.000000000000000000 ) ) ;
#336 = ADVANCED_FACE ( 'NONE', ( #1212 ), #707, .F. ) ;
#337 = CARTESIAN_POINT ( 'NONE',  ( 11.20000000000000107, 20.49999999999998934, 25.34999999999998721 ) ) ;
#338 = CIRCLE ( 'NONE', #1284, 7.500000000000000000 ) ;
#339 = AXIS2_PLACEMENT_3D ( 'NONE', #314, #15, #129 ) ;
#340 = EDGE_CURVE ( 'NONE', #65, #781, #498, .T. ) ;
#341 = VERTEX_POINT ( 'NONE', #1131 ) ;
#342 = FACE_OUTER_BOUND ( 'NONE', #696, .T. ) ;
#343 = CARTESIAN_POINT ( 'NONE',  ( 80.97826680686709722, 13.87705723213738729, 79.85000000000000853 ) ) ;
#344 = CARTESIAN_POINT ( 'NONE',  ( -11.19999999999999929, 10.49999999999999467, -30.78296747958835766 ) ) ;
#345 = VERTEX_POINT ( 'NONE', #200 ) ;
#346 = PRODUCT_DEFINITION_CONTEXT ( 'detailed design', #501, 'design' ) ;
#347 = AXIS2_PLACEMENT_3D ( 'NONE', #675, #1091, #1084 ) ;
#348 = ORIENTED_EDGE ( 'NONE', *, *, #762, .F. ) ;
#349 = DIRECTION ( 'NONE',  ( -1.000000000000000000, 0.000000000000000000, 0.000000000000000000 ) ) ;
#350 = DIRECTION ( 'NONE',  ( 0.000000000000000000, -1.412257918027252025E-16, 1.000000000000000000 ) ) ;
#351 = EDGE_LOOP ( 'NONE', ( #570, #500, #1293, #520 ) ) ;
#352 = LINE ( 'NONE', #246, #101 ) ;
#353 = AXIS2_PLACEMENT_3D ( 'NONE', #400, #813, #1224 ) ;
#354 = CIRCLE ( 'NONE', #1107, 27.55624999999999858 ) ;
#355 = EDGE_LOOP ( 'NONE', ( #183, #1316, #787, #256, #455, #1161, #1324, #203, #820, #925, #46, #35, #949, #4, #374, #764 ) ) ;
#356 = DIRECTION ( 'NONE',  ( 0.000000000000000000, -1.000000000000000000, 0.000000000000000000 ) ) ;
#357 = ORIENTED_EDGE ( 'NONE', *, *, #1196, .T. ) ;
#358 = CARTESIAN_POINT ( 'NONE',  ( -11.20000000000000107, -6.300000000000003375, 52.84999999999998721 ) ) ;
#359 = EDGE_CURVE ( 'NONE', #907, #774, #1220, .T. ) ;
#360 = CIRCLE ( 'NONE', #1301, 7.500000000000000000 ) ;
#361 = ORIENTED_EDGE ( 'NONE', *, *, #237, .F. ) ;
#362 = EDGE_CURVE ( 'NONE', #1187, #1268, #193, .T. ) ;
#363 = FACE_OUTER_BOUND ( 'NONE', #652, .T. ) ;
#364 = VERTEX_POINT ( 'NONE', #1004 ) ;
#365 = DIRECTION ( 'NONE',  ( 1.000000000000000000, -0.000000000000000000, -0.000000000000000000 ) ) ;
#366 = CIRCLE ( 'NONE', #536, 5.000000000000004441 ) ;
#367 = VERTEX_POINT ( 'NONE', #1015 ) ;
#368 = SURFACE_STYLE_FILL_AREA ( #255 ) ;
#369 = EDGE_LOOP ( 'NONE', ( #770, #969, #994, #761 ) ) ;
#370 = FACE_OUTER_BOUND ( 'NONE', #369, .T. ) ;
#371 = ORIENTED_EDGE ( 'NONE', *, *, #413, .F. ) ;
#372 = EDGE_CURVE ( 'NONE', #912, #712, #904, .T. ) ;
#373 = DIRECTION ( 'NONE',  ( -1.000000000000000000, -0.000000000000000000, -0.000000000000000000 ) ) ;
#374 = ORIENTED_EDGE ( 'NONE', *, *, #177, .T. ) ;
#375 = CARTESIAN_POINT ( 'NONE',  ( -11.19999999999999929, 0.000000000000000000, -25.29375000000002061 ) ) ;
#376 = EDGE_CURVE ( 'NONE', #65, #222, #1233, .T. ) ;
#377 = ADVANCED_FACE ( 'NONE', ( #1327 ), #402, .T. ) ;
#378 = ADVANCED_FACE ( 'NONE', ( #624 ), #1313, .T. ) ;
#379 = ORIENTED_EDGE ( 'NONE', *, *, #215, .T. ) ;
#380 = AXIS2_PLACEMENT_3D ( 'NONE', #960, #445, #983 ) ;
#381 = VECTOR ( 'NONE', #505, 1000.000000000000000 ) ;
#382 = ORIENTED_EDGE ( 'NONE', *, *, #376, .F. ) ;
#383 = CARTESIAN_POINT ( 'NONE',  ( -11.19999999999999929, 20.49999999999999645, -32.85000000000000142 ) ) ;
#384 = DIRECTION ( 'NONE',  ( -1.000000000000000000, -0.000000000000000000, -0.000000000000000000 ) ) ;
#385 = VERTEX_POINT ( 'NONE', #1206 ) ;
#386 = AXIS2_PLACEMENT_3D ( 'NONE', #1259, #1150, #333 ) ;
#387 = PLANE ( 'NONE',  #1246 ) ;
#388 = DIRECTION ( 'NONE',  ( 0.000000000000000000, 0.000000000000000000, -1.000000000000000000 ) ) ;
#389 = DIRECTION ( 'NONE',  ( 0.000000000000000000, 0.000000000000000000, 1.000000000000000000 ) ) ;
#390 = FACE_OUTER_BOUND ( 'NONE', #1127, .T. ) ;
#391 = VERTEX_POINT ( 'NONE', #279 ) ;
#392 = CIRCLE ( 'NONE', #1148, 7.500000000000000000 ) ;
#393 = DIRECTION ( 'NONE',  ( 0.000000000000000000, -1.000000000000000000, 0.000000000000000000 ) ) ;
#394 = CARTESIAN_POINT ( 'NONE',  ( -11.19999999999999929, 19.36205307206673254, -35.41589477751486470 ) ) ;
#395 = DIRECTION ( 'NONE',  ( 1.000000000000000000, 0.000000000000000000, 0.000000000000000000 ) ) ;
#396 = DIRECTION ( 'NONE',  ( -1.000000000000000000, -0.000000000000000000, -0.000000000000000000 ) ) ;
#397 = ADVANCED_FACE ( 'NONE', ( #1105 ), #181, .F. ) ;
#398 = ORIENTED_EDGE ( 'NONE', *, *, #120, .T. ) ;
#399 = CIRCLE ( 'NONE', #919, 7.500000000000000000 ) ;
#400 = CARTESIAN_POINT ( 'NONE',  ( -11.19999999999999929, 20.49999999999999645, -32.85000000000000142 ) ) ;
#401 = LINE ( 'NONE', #706, #164 ) ;
#402 = CYLINDRICAL_SURFACE ( 'NONE', #448, 10.00000000000000178 ) ;
#403 = DIRECTION ( 'NONE',  ( -1.000000000000000000, -0.000000000000000000, -0.000000000000000000 ) ) ;
#404 = ORIENTED_EDGE ( 'NONE', *, *, #676, .T. ) ;
#405 = CIRCLE ( 'NONE', #817, 3.000000000000002665 ) ;
#406 = EDGE_LOOP ( 'NONE', ( #361, #157, #749, #25, #901, #126, #300, #490, #468, #414, #545, #145, #609, #48, #1237 ) ) ;
#407 = DIRECTION ( 'NONE',  ( 0.000000000000000000, 0.000000000000000000, -1.000000000000000000 ) ) ;
#408 = DIRECTION ( 'NONE',  ( 1.000000000000000000, 0.000000000000000000, 0.000000000000000000 ) ) ;
#409 = DIRECTION ( 'NONE',  ( 0.000000000000000000, 0.000000000000000000, -1.000000000000000000 ) ) ;
#410 = PRODUCT_RELATED_PRODUCT_CATEGORY ( 'part', '', ( #937 ) ) ;
#411 = ORIENTED_EDGE ( 'NONE', *, *, #79, .F. ) ;
#412 = VERTEX_POINT ( 'NONE', #803 ) ;
#413 = EDGE_CURVE ( 'NONE', #876, #197, #286, .T. ) ;
#414 = ORIENTED_EDGE ( 'NONE', *, *, #660, .T. ) ;
#415 = CARTESIAN_POINT ( 'NONE',  ( -32.41320343559642225, 14.49999999999998934, 20.84999999999999076 ) ) ;
#416 = CIRCLE ( 'NONE', #589, 21.84827027621408035 ) ;
#417 = DIRECTION ( 'NONE',  ( 0.000000000000000000, 0.000000000000000000, -1.000000000000000000 ) ) ;
#418 = CARTESIAN_POINT ( 'NONE',  ( -11.19999999999999929, 20.49999999999999645, -32.85000000000000142 ) ) ;
#419 = ADVANCED_FACE ( 'NONE', ( #968 ), #240, .F. ) ;
#420 = ADVANCED_FACE ( 'NONE', ( #1141 ), #1267, .T. ) ;
#421 = ORIENTED_EDGE ( 'NONE', *, *, #1217, .T. ) ;
#422 = ORIENTED_EDGE ( 'NONE', *, *, #220, .T. ) ;
#423 = DIRECTION ( 'NONE',  ( 1.000000000000000000, 0.000000000000000000, -0.000000000000000000 ) ) ;
#424 = CARTESIAN_POINT ( 'NONE',  ( 11.20000000000000107, 14.49999999999998934, -19.15000000000000568 ) ) ;
#425 = CIRCLE ( 'NONE', #596, 11.99999999999999645 ) ;
#426 = LINE ( 'NONE', #548, #312 ) ;
#427 = DIRECTION ( 'NONE',  ( -1.000000000000000000, -0.000000000000000000, -0.000000000000000000 ) ) ;
#428 = VERTEX_POINT ( 'NONE', #1255 ) ;
#429 = LINE ( 'NONE', #1164, #462 ) ;
#430 = CARTESIAN_POINT ( 'NONE',  ( -11.20000000000000107, 28.49999999999999645, 87.84999999999999432 ) ) ;
#431 = CIRCLE ( 'NONE', #1162, 11.99999999999999645 ) ;
#432 = LINE ( 'NONE', #852, #553 ) ;
#433 =( NAMED_UNIT ( * ) SI_UNIT ( $, .STERADIAN. ) SOLID_ANGLE_UNIT ( ) );
#434 = ORIENTED_EDGE ( 'NONE', *, *, #855, .F. ) ;
#435 = ADVANCED_FACE ( 'NONE', ( #739, #135, #753, #832 ), #861, .F. ) ;
#436 = DIRECTION ( 'NONE',  ( 1.000000000000000000, 0.000000000000000000, 0.000000000000000000 ) ) ;
#437 = CARTESIAN_POINT ( 'NONE',  ( 80.97826680686709722, 28.49999999999996092, 97.84999999999999432 ) ) ;
#438 = DIRECTION ( 'NONE',  ( 0.000000000000000000, 0.000000000000000000, -1.000000000000000000 ) ) ;
#439 = PLANE ( 'NONE',  #648 ) ;
#440 = VECTOR ( 'NONE', #1062, 1000.000000000000000 ) ;
#441 = ORIENTED_EDGE ( 'NONE', *, *, #597, .F. ) ;
#442 = DIRECTION ( 'NONE',  ( 0.000000000000000000, 0.000000000000000000, -1.000000000000000000 ) ) ;
#443 = VECTOR ( 'NONE', #466, 1000.000000000000000 ) ;
#444 = DIRECTION ( 'NONE',  ( -1.000000000000000000, -0.000000000000000000, -0.000000000000000000 ) ) ;
#445 = DIRECTION ( 'NONE',  ( -1.000000000000000000, -0.000000000000000000, -0.000000000000000000 ) ) ;
#446 = ORIENTED_EDGE ( 'NONE', *, *, #934, .F. ) ;
#447 = AXIS2_PLACEMENT_3D ( 'NONE', #895, #692, #1009 ) ;
#448 = AXIS2_PLACEMENT_3D ( 'NONE', #816, #1226, #206 ) ;
#449 = VERTEX_POINT ( 'NONE', #1045 ) ;
#450 = CARTESIAN_POINT ( 'NONE',  ( 11.19999999999999929, 10.49999999999999467, -30.78296747958835766 ) ) ;
#451 = DIRECTION ( 'NONE',  ( -1.000000000000000000, -0.000000000000000000, -0.000000000000000000 ) ) ;
#452 = VECTOR ( 'NONE', #1296, 1000.000000000000000 ) ;
#453 = ORIENTED_EDGE ( 'NONE', *, *, #79, .T. ) ;
#454 = CYLINDRICAL_SURFACE ( 'NONE', #347, 7.499999999999999112 ) ;
#455 = ORIENTED_EDGE ( 'NONE', *, *, #940, .T. ) ;
#456 = EDGE_CURVE ( 'NONE', #1137, #89, #631, .T. ) ;
#457 = DIRECTION ( 'NONE',  ( 1.000000000000000000, 0.000000000000000000, 0.000000000000000000 ) ) ;
#458 = ORIENTED_EDGE ( 'NONE', *, *, #472, .F. ) ;
#459 = CYLINDRICAL_SURFACE ( 'NONE', #1179, 9.999999999999994671 ) ;
#460 = ADVANCED_FACE ( 'NONE', ( #1241 ), #760, .F. ) ;
#461 = EDGE_CURVE ( 'NONE', #876, #561, #426, .T. ) ;
#462 = VECTOR ( 'NONE', #223, 1000.000000000000000 ) ;
#463 = EDGE_LOOP ( 'NONE', ( #11, #495, #320, #1114 ) ) ;
#464 = DIRECTION ( 'NONE',  ( 0.000000000000000000, 0.000000000000000000, -1.000000000000000000 ) ) ;
#465 = EDGE_LOOP ( 'NONE', ( #680, #1072, #1323, #111 ) ) ;
#466 = DIRECTION ( 'NONE',  ( -1.000000000000000000, 0.000000000000000000, 0.000000000000000000 ) ) ;
#467 = ORIENTED_EDGE ( 'NONE', *, *, #1195, .F. ) ;
#468 = ORIENTED_EDGE ( 'NONE', *, *, #897, .F. ) ;
#469 = DIRECTION ( 'NONE',  ( 0.000000000000000000, 0.000000000000000000, -1.000000000000000000 ) ) ;
#470 = AXIS2_PLACEMENT_3D ( 'NONE', #16, #427, #644 ) ;
#471 = ORIENTED_EDGE ( 'NONE', *, *, #896, .T. ) ;
#472 = EDGE_CURVE ( 'NONE', #1169, #412, #432, .T. ) ;
#473 = EDGE_CURVE ( 'NONE', #616, #1061, #920, .T. ) ;
#474 = CARTESIAN_POINT ( 'NONE',  ( -11.19999999999999929, 20.49999999999999645, -30.78296747958835766 ) ) ;
#475 = EDGE_LOOP ( 'NONE', ( #95, #544, #479, #60 ) ) ;
#476 = CARTESIAN_POINT ( 'NONE',  ( -11.20000000000000107, 26.50000000000000000, 82.84999999999999432 ) ) ;
#477 = EDGE_CURVE ( 'NONE', #391, #1278, #283, .T. ) ;
#478 = ORIENTED_EDGE ( 'NONE', *, *, #999, .F. ) ;
#479 = ORIENTED_EDGE ( 'NONE', *, *, #138, .F. ) ;
#480 = DIRECTION ( 'NONE',  ( 0.000000000000000000, 0.000000000000000000, -1.000000000000000000 ) ) ;
#481 = CARTESIAN_POINT ( 'NONE',  ( 33.75548713727999228, 14.00663171889838843, 48.33375492244385896 ) ) ;
#482 = VERTEX_POINT ( 'NONE', #23 ) ;
#483 = VECTOR ( 'NONE', #151, 1000.000000000000000 ) ;
#484 = VECTOR ( 'NONE', #1140, 1000.000000000000000 ) ;
#485 = DIRECTION ( 'NONE',  ( -0.000000000000000000, 0.000000000000000000, 1.000000000000000000 ) ) ;
#486 = LINE ( 'NONE', #1104, #1263 ) ;
#487 = CARTESIAN_POINT ( 'NONE',  ( -11.20000000000000107, 14.00663171889838665, 64.33375492244384475 ) ) ;
#488 = CARTESIAN_POINT ( 'NONE',  ( 11.19999999999999929, 16.50000000000000000, -31.29140904853719363 ) ) ;
#489 = ORIENTED_EDGE ( 'NONE', *, *, #141, .T. ) ;
#490 = ORIENTED_EDGE ( 'NONE', *, *, #860, .T. ) ;
#491 = EDGE_CURVE ( 'NONE', #1032, #971, #1042, .T. ) ;
#492 = CARTESIAN_POINT ( 'NONE',  ( -11.19999999999999929, -26.50000000000000000, 40.84999999999990905 ) ) ;
#493 = LINE ( 'NONE', #1111, #689 ) ;
#494 = DIRECTION ( 'NONE',  ( 1.000000000000000000, 0.000000000000000000, 0.000000000000000000 ) ) ;
#495 = ORIENTED_EDGE ( 'NONE', *, *, #812, .T. ) ;
#496 = EDGE_LOOP ( 'NONE', ( #382, #645, #822, #398 ) ) ;
#497 = LINE ( 'NONE', #394, #381 ) ;
#498 = LINE ( 'NONE', #809, #1031 ) ;
#499 = DIRECTION ( 'NONE',  ( -1.000000000000000000, 0.000000000000000000, 0.000000000000000000 ) ) ;
#500 = ORIENTED_EDGE ( 'NONE', *, *, #676, .F. ) ;
#501 = APPLICATION_CONTEXT ( 'automotive_design' ) ;
#502 = CIRCLE ( 'NONE', #727, 10.00000000000000178 ) ;
#503 = AXIS2_PLACEMENT_3D ( 'NONE', #1124, #796, #187 ) ;
#504 = DIRECTION ( 'NONE',  ( 1.000000000000000000, 0.000000000000000000, -0.000000000000000000 ) ) ;
#505 = DIRECTION ( 'NONE',  ( -1.000000000000000000, -0.000000000000000000, -0.000000000000000000 ) ) ;
#506 = DIRECTION ( 'NONE',  ( -1.000000000000000000, 0.000000000000000000, 0.000000000000000000 ) ) ;
#507 = CARTESIAN_POINT ( 'NONE',  ( 11.20000000000000107, 28.49999999999999645, 87.84999999999999432 ) ) ;
#508 = EDGE_LOOP ( 'NONE', ( #1102, #1108, #458, #807 ) ) ;
#509 = COLOUR_RGB ( '',0.7921568627450980005, 0.8196078431372548767, 0.9333333333333333481 ) ;
#510 = ORIENTED_EDGE ( 'NONE', *, *, #125, .F. ) ;
#511 = AXIS2_PLACEMENT_3D ( 'NONE', #298, #408, #693 ) ;
#512 = EDGE_CURVE ( 'NONE', #288, #1264, #829, .T. ) ;
#513 = CARTESIAN_POINT ( 'NONE',  ( -11.19999999999999929, 0.000000000000000000, -25.29375000000002061 ) ) ;
#514 = DIRECTION ( 'NONE',  ( -1.000000000000000000, 0.000000000000000000, 0.000000000000000000 ) ) ;
#515 = EDGE_CURVE ( 'NONE', #667, #1032, #730, .T. ) ;
#516 = FACE_OUTER_BOUND ( 'NONE', #710, .T. ) ;
#517 = EDGE_CURVE ( 'NONE', #89, #827, #354, .T. ) ;
#518 = CARTESIAN_POINT ( 'NONE',  ( 37.14706149065825258, 14.00663171889838665, 64.33375492244384475 ) ) ;
#519 = EDGE_LOOP ( 'NONE', ( #31, #979, #1208, #977 ) ) ;
#520 = ORIENTED_EDGE ( 'NONE', *, *, #640, .F. ) ;
#521 = LINE ( 'NONE', #837, #636 ) ;
#522 = DIRECTION ( 'NONE',  ( 1.000000000000000000, 0.000000000000000000, -0.000000000000000000 ) ) ;
#523 = CIRCLE ( 'NONE', #851, 21.84827027621408035 ) ;
#524 = AXIS2_PLACEMENT_3D ( 'NONE', #230, #542, #649 ) ;
#525 = DIRECTION ( 'NONE',  ( 0.000000000000000000, -0.9978339896591827962, -0.06578243748021293802 ) ) ;
#526 = CARTESIAN_POINT ( 'NONE',  ( 11.19999999999999929, 25.89836240655037614, -34.70766197757225058 ) ) ;
#527 = ORIENTED_EDGE ( 'NONE', *, *, #1090, .F. ) ;
#528 = DIRECTION ( 'NONE',  ( 0.000000000000000000, 0.000000000000000000, -1.000000000000000000 ) ) ;
#529 = DIRECTION ( 'NONE',  ( 1.000000000000000000, 0.000000000000000000, -0.000000000000000000 ) ) ;
#530 = AXIS2_PLACEMENT_3D ( 'NONE', #946, #1027, #211 ) ;
#531 = DIRECTION ( 'NONE',  ( 0.000000000000000000, 0.000000000000000000, -1.000000000000000000 ) ) ;
#532 = FACE_OUTER_BOUND ( 'NONE', #883, .T. ) ;
#533 = ORIENTED_EDGE ( 'NONE', *, *, #1153, .F. ) ;
#534 = DIRECTION ( 'NONE',  ( 1.000000000000000000, -0.000000000000000000, -0.000000000000000000 ) ) ;
#535 = CYLINDRICAL_SURFACE ( 'NONE', #564, 5.499999999999998224 ) ;
#536 = AXIS2_PLACEMENT_3D ( 'NONE', #430, #928, #846 ) ;
#537 = DIRECTION ( 'NONE',  ( 1.000000000000000000, -0.000000000000000000, -0.000000000000000000 ) ) ;
#538 = DIRECTION ( 'NONE',  ( -0.000000000000000000, 1.000000000000000000, 0.000000000000000000 ) ) ;
#539 = ORIENTED_EDGE ( 'NONE', *, *, #74, .F. ) ;
#540 = DIRECTION ( 'NONE',  ( 0.000000000000000000, 0.000000000000000000, 1.000000000000000000 ) ) ;
#541 = CARTESIAN_POINT ( 'NONE',  ( -11.19999999999999929, -8.499999999999998224, 34.84999999999999432 ) ) ;
#542 = DIRECTION ( 'NONE',  ( 0.000000000000000000, 0.3621505093058111080, -0.9321196321339560997 ) ) ;
#543 = CARTESIAN_POINT ( 'NONE',  ( -11.19999999999999929, 26.50000000000000000, 52.84999999999999432 ) ) ;
#544 = ORIENTED_EDGE ( 'NONE', *, *, #815, .F. ) ;
#545 = ORIENTED_EDGE ( 'NONE', *, *, #44, .F. ) ;
#546 = CARTESIAN_POINT ( 'NONE',  ( -11.20000000000000107, 14.00663171889838843, 53.33375492244385185 ) ) ;
#547 = DIRECTION ( 'NONE',  ( 0.000000000000000000, 0.000000000000000000, -1.000000000000000000 ) ) ;
#548 = CARTESIAN_POINT ( 'NONE',  ( -11.19999999999999929, 26.50000000000000000, -31.29140904853719363 ) ) ;
#549 = CIRCLE ( 'NONE', #1300, 10.00000000000000178 ) ;
#550 = ORIENTED_EDGE ( 'NONE', *, *, #96, .F. ) ;
#551 = CARTESIAN_POINT ( 'NONE',  ( 11.20000000000000107, 14.00663171889838843, 53.33375492244385185 ) ) ;
#552 = AXIS2_PLACEMENT_3D ( 'NONE', #100, #1331, #407 ) ;
#553 = VECTOR ( 'NONE', #947, 1000.000000000000000 ) ;
#554 = ORIENTED_EDGE ( 'NONE', *, *, #233, .T. ) ;
#555 = EDGE_CURVE ( 'NONE', #656, #598, #1050, .T. ) ;
#556 = LINE ( 'NONE', #1171, #906 ) ;
#557 = ADVANCED_FACE ( 'NONE', ( #952 ), #1261, .F. ) ;
#558 = PLANE ( 'NONE',  #725 ) ;
#559 = EDGE_CURVE ( 'NONE', #918, #880, #1279, .T. ) ;
#560 =( GEOMETRIC_REPRESENTATION_CONTEXT ( 3 ) GLOBAL_UNCERTAINTY_ASSIGNED_CONTEXT ( ( #1168 ) ) GLOBAL_UNIT_ASSIGNED_CONTEXT ( ( #1082, #1198, #165 ) ) REPRESENTATION_CONTEXT ( 'NONE', 'WORKASPACE' ) );
#561 = VERTEX_POINT ( 'NONE', #62 ) ;
#562 = FACE_OUTER_BOUND ( 'NONE', #85, .T. ) ;
#563 = VECTOR ( 'NONE', #349, 1000.000000000000000 ) ;
#564 = AXIS2_PLACEMENT_3D ( 'NONE', #20, #514, #951 ) ;
#565 = EDGE_LOOP ( 'NONE', ( #163, #6, #864, #434 ) ) ;
#566 = DIRECTION ( 'NONE',  ( 0.000000000000000000, -0.000000000000000000, -1.000000000000000000 ) ) ;
#567 = EDGE_LOOP ( 'NONE', ( #626, #1189, #1083, #152 ) ) ;
#568 = CARTESIAN_POINT ( 'NONE',  ( 19.68528137423858837, 26.50000000000000000, 93.35000000000000853 ) ) ;
#569 = CIRCLE ( 'NONE', #1320, 9.999999999999994671 ) ;
#570 = ORIENTED_EDGE ( 'NONE', *, *, #473, .F. ) ;
#571 = CARTESIAN_POINT ( 'NONE',  ( -11.19999999999999929, -20.49999999999999645, -30.78296747958835766 ) ) ;
#572 = DIRECTION ( 'NONE',  ( 0.000000000000000000, 0.000000000000000000, 1.000000000000000000 ) ) ;
#573 = ORIENTED_EDGE ( 'NONE', *, *, #515, .T. ) ;
#574 = CARTESIAN_POINT ( 'NONE',  ( -11.19999999999999929, -26.50000000000000000, -31.29140904853720073 ) ) ;
#575 = AXIS2_PLACEMENT_3D ( 'NONE', #1080, #158, #278 ) ;
#576 = EDGE_CURVE ( 'NONE', #732, #12, #964, .T. ) ;
#577 = ORIENTED_EDGE ( 'NONE', *, *, #38, .F. ) ;
#578 = EDGE_CURVE ( 'NONE', #1065, #656, #549, .T. ) ;
#579 = DIRECTION ( 'NONE',  ( 1.000000000000000000, 0.000000000000000000, 0.000000000000000000 ) ) ;
#580 = ORIENTED_EDGE ( 'NONE', *, *, #855, .T. ) ;
#581 = AXIS2_PLACEMENT_3D ( 'NONE', #1022, #594, #905 ) ;
#582 = CARTESIAN_POINT ( 'NONE',  ( -32.41320343559642225, 20.49999999999998579, 36.34999999999999432 ) ) ;
#583 = VERTEX_POINT ( 'NONE', #974 ) ;
#584 = CARTESIAN_POINT ( 'NONE',  ( -11.19999999999999929, -20.49999999999999645, 34.84999999999990195 ) ) ;
#585 = ORIENTED_EDGE ( 'NONE', *, *, #978, .T. ) ;
#586 = CARTESIAN_POINT ( 'NONE',  ( 11.19999999999999929, -14.50000000000000000, 40.84999999999999432 ) ) ;
#587 = LINE ( 'NONE', #299, #778 ) ;
#588 = ORIENTED_EDGE ( 'NONE', *, *, #698, .T. ) ;
#589 = AXIS2_PLACEMENT_3D ( 'NONE', #296, #504, #540 ) ;
#590 = AXIS2_PLACEMENT_3D ( 'NONE', #1064, #637, #417 ) ;
#591 = ORIENTED_EDGE ( 'NONE', *, *, #765, .T. ) ;
#592 = FACE_BOUND ( 'NONE', #465, .T. ) ;
#593 = CARTESIAN_POINT ( 'NONE',  ( 19.68528137423858837, 26.50000000000000000, 90.34999999999999432 ) ) ;
#594 = DIRECTION ( 'NONE',  ( -1.000000000000000000, -0.000000000000000000, -0.000000000000000000 ) ) ;
#595 = ORIENTED_EDGE ( 'NONE', *, *, #120, .F. ) ;
#596 = AXIS2_PLACEMENT_3D ( 'NONE', #541, #721, #1037 ) ;
#597 = EDGE_CURVE ( 'NONE', #68, #1173, #309, .T. ) ;
#598 = VERTEX_POINT ( 'NONE', #156 ) ;
#599 = CARTESIAN_POINT ( 'NONE',  ( -11.20000000000000107, 14.00663171889838843, 48.33375492244385896 ) ) ;
#600 = ADVANCED_FACE ( 'NONE', ( #363 ), #558, .F. ) ;
#601 = DIRECTION ( 'NONE',  ( -1.000000000000000000, -0.000000000000000000, -0.000000000000000000 ) ) ;
#602 = DIRECTION ( 'NONE',  ( 0.000000000000000000, 0.000000000000000000, -1.000000000000000000 ) ) ;
#603 = ORIENTED_EDGE ( 'NONE', *, *, #1153, .T. ) ;
#604 = CIRCLE ( 'NONE', #581, 10.00000000000000178 ) ;
#605 = DIRECTION ( 'NONE',  ( -1.000000000000000000, -0.000000000000000000, -0.000000000000000000 ) ) ;
#606 = CARTESIAN_POINT ( 'NONE',  ( 11.20000000000000107, 33.50000000000000000, 92.84999999999996589 ) ) ;
#607 = DIRECTION ( 'NONE',  ( 1.000000000000000000, 0.000000000000000000, 0.000000000000000000 ) ) ;
#608 = DIRECTION ( 'NONE',  ( 0.000000000000000000, 0.9978339896591827962, 0.06578243748021293802 ) ) ;
#609 = ORIENTED_EDGE ( 'NONE', *, *, #559, .F. ) ;
#610 = AXIS2_PLACEMENT_3D ( 'NONE', #801, #705, #1103 ) ;
#611 = LINE ( 'NONE', #179, #318 ) ;
#612 = CARTESIAN_POINT ( 'NONE',  ( -11.19999999999999929, -10.49999999999999645, -30.78296747958835766 ) ) ;
#613 = EDGE_CURVE ( 'NONE', #1216, #616, #1097, .T. ) ;
#614 = DIRECTION ( 'NONE',  ( -1.000000000000000000, 0.000000000000000000, 0.000000000000000000 ) ) ;
#615 = CARTESIAN_POINT ( 'NONE',  ( -11.19999999999999929, -26.50000000000000000, 40.84999999999990905 ) ) ;
#616 = VERTEX_POINT ( 'NONE', #1280 ) ;
#617 = EDGE_CURVE ( 'NONE', #712, #345, #268, .T. ) ;
#618 = ADVANCED_FACE ( 'NONE', ( #879 ), #1273, .F. ) ;
#619 = VECTOR ( 'NONE', #1319, 1000.000000000000000 ) ;
#620 = ADVANCED_FACE ( 'NONE', ( #1292 ), #170, .F. ) ;
#621 = MANIFOLD_SOLID_BREP ( 'Cut-Extrude4', #731 ) ;
#622 = CARTESIAN_POINT ( 'NONE',  ( -11.19999999999999929, -25.89836240655037614, -34.70766197757225058 ) ) ;
#623 = CARTESIAN_POINT ( 'NONE',  ( 80.97826680686709722, 33.49999999999999289, 87.85000000000002274 ) ) ;
#624 = FACE_OUTER_BOUND ( 'NONE', #835, .T. ) ;
#625 = CARTESIAN_POINT ( 'NONE',  ( -11.19999999999999929, -10.49999999999999645, -30.78296747958835766 ) ) ;
#626 = ORIENTED_EDGE ( 'NONE', *, *, #74, .T. ) ;
#627 = STYLED_ITEM ( 'NONE', ( #244 ), #621 ) ;
#628 = ORIENTED_EDGE ( 'NONE', *, *, #217, .F. ) ;
#629 = AXIS2_PLACEMENT_3D ( 'NONE', #1321, #395, #93 ) ;
#630 = LINE ( 'NONE', #950, #260 ) ;
#631 = LINE ( 'NONE', #221, #967 ) ;
#632 =( LENGTH_UNIT ( ) NAMED_UNIT ( * ) SI_UNIT ( .MILLI., .METRE. ) );
#633 = VERTEX_POINT ( 'NONE', #571 ) ;
#634 = LINE ( 'NONE', #26, #1257 ) ;
#635 = CARTESIAN_POINT ( 'NONE',  ( -11.20000000000000107, 14.49999999999998934, 40.84999999999998721 ) ) ;
#636 = VECTOR ( 'NONE', #321, 1000.000000000000000 ) ;
#637 = DIRECTION ( 'NONE',  ( 1.000000000000000000, 0.000000000000000000, 0.000000000000000000 ) ) ;
#638 =( NAMED_UNIT ( * ) PLANE_ANGLE_UNIT ( ) SI_UNIT ( $, .RADIAN. ) );
#639 = ORIENTED_EDGE ( 'NONE', *, *, #981, .F. ) ;
#640 = EDGE_CURVE ( 'NONE', #1061, #888, #1190, .T. ) ;
#641 = CARTESIAN_POINT ( 'NONE',  ( 11.19999999999999929, -16.50000000000000000, -31.29140904853719363 ) ) ;
#642 = DIRECTION ( 'NONE',  ( 0.000000000000000000, 0.000000000000000000, 1.000000000000000000 ) ) ;
#643 = DIRECTION ( 'NONE',  ( 1.000000000000000000, 0.000000000000000000, -0.000000000000000000 ) ) ;
#644 = DIRECTION ( 'NONE',  ( 0.000000000000000000, 0.000000000000000000, 1.000000000000000000 ) ) ;
#645 = ORIENTED_EDGE ( 'NONE', *, *, #340, .T. ) ;
#646 = DIRECTION ( 'NONE',  ( 0.000000000000000000, -1.412257918027252025E-16, 1.000000000000000000 ) ) ;
#647 = DIRECTION ( 'NONE',  ( -1.000000000000000000, 0.000000000000000000, 0.000000000000000000 ) ) ;
#648 = AXIS2_PLACEMENT_3D ( 'NONE', #543, #538, #1262 ) ;
#649 = DIRECTION ( 'NONE',  ( 0.000000000000000000, 0.9321196321339560997, 0.3621505093058111080 ) ) ;
#650 = CARTESIAN_POINT ( 'NONE',  ( -11.19999999999999929, -14.50000000000000000, 40.84999999999999432 ) ) ;
#651 = ORIENTED_EDGE ( 'NONE', *, *, #913, .T. ) ;
#652 = EDGE_LOOP ( 'NONE', ( #1060, #77, #168, #119 ) ) ;
#653 = CARTESIAN_POINT ( 'NONE',  ( 11.20000000000000107, 26.50000000000000000, 82.84999999999999432 ) ) ;
#654 = CARTESIAN_POINT ( 'NONE',  ( -11.19999999999999929, -20.49999999999999645, -30.78296747958835766 ) ) ;
#655 = DIRECTION ( 'NONE',  ( 1.000000000000000000, 0.000000000000000000, 0.000000000000000000 ) ) ;
#656 = VERTEX_POINT ( 'NONE', #474 ) ;
#657 = CARTESIAN_POINT ( 'NONE',  ( 11.19999999999999929, -19.36205307206673609, -35.41589477751485759 ) ) ;
#658 = EDGE_CURVE ( 'NONE', #341, #249, #1077, .T. ) ;
#659 = ORIENTED_EDGE ( 'NONE', *, *, #235, .T. ) ;
#660 = EDGE_CURVE ( 'NONE', #341, #482, #1086, .T. ) ;
#661 = EDGE_CURVE ( 'NONE', #245, #1222, #665, .T. ) ;
#662 = DIRECTION ( 'NONE',  ( -0.000000000000000000, 0.9978339896591827962, 0.06578243748021293802 ) ) ;
#663 = VECTOR ( 'NONE', #989, 1000.000000000000000 ) ;
#664 = ORIENTED_EDGE ( 'NONE', *, *, #798, .F. ) ;
#665 = LINE ( 'NONE', #1073, #1030 ) ;
#666 = VECTOR ( 'NONE', #1298, 1000.000000000000000 ) ;
#667 = VERTEX_POINT ( 'NONE', #980 ) ;
#668 = DIRECTION ( 'NONE',  ( 1.000000000000000000, 0.000000000000000000, 0.000000000000000000 ) ) ;
#669 = EDGE_LOOP ( 'NONE', ( #441, #1243 ) ) ;
#670 = DIRECTION ( 'NONE',  ( 0.000000000000000000, -1.040834085586084059E-15, -1.000000000000000000 ) ) ;
#671 = CIRCLE ( 'NONE', #294, 27.55624999999999858 ) ;
#672 = ORIENTED_EDGE ( 'NONE', *, *, #913, .F. ) ;
#673 = SURFACE_SIDE_STYLE ('',( #368 ) ) ;
#674 = ORIENTED_EDGE ( 'NONE', *, *, #755, .T. ) ;
#675 = CARTESIAN_POINT ( 'NONE',  ( -32.41320343559642225, 14.49999999999998934, 0.8499999999999896527 ) ) ;
#676 = EDGE_CURVE ( 'NONE', #1281, #616, #54, .T. ) ;
#677 = VECTOR ( 'NONE', #728, 1000.000000000000000 ) ;
#678 = ORIENTED_EDGE ( 'NONE', *, *, #865, .T. ) ;
#679 = SURFACE_STYLE_USAGE ( .BOTH. , #673 ) ;
#680 = ORIENTED_EDGE ( 'NONE', *, *, #661, .F. ) ;
#681 = CYLINDRICAL_SURFACE ( 'NONE', #72, 27.55624999999999858 ) ;
#682 = VECTOR ( 'NONE', #444, 1000.000000000000000 ) ;
#683 = AXIS2_PLACEMENT_3D ( 'NONE', #1058, #747, #335 ) ;
#684 = ORIENTED_EDGE ( 'NONE', *, *, #512, .F. ) ;
#685 = CARTESIAN_POINT ( 'NONE',  ( 80.97826680686709722, 26.49999999999999289, 97.84999999999999432 ) ) ;
#686 = EDGE_LOOP ( 'NONE', ( #277, #301, #411, #704 ) ) ;
#687 = LINE ( 'NONE', #814, #773 ) ;
#688 = CARTESIAN_POINT ( 'NONE',  ( 11.20000000000000107, 26.49999999999999289, 97.84999999999999432 ) ) ;
#689 = VECTOR ( 'NONE', #714, 1000.000000000000000 ) ;
#690 = ORIENTED_EDGE ( 'NONE', *, *, #319, .T. ) ;
#691 = FACE_OUTER_BOUND ( 'NONE', #496, .T. ) ;
#692 = DIRECTION ( 'NONE',  ( -1.000000000000000000, -0.000000000000000000, -0.000000000000000000 ) ) ;
#693 = DIRECTION ( 'NONE',  ( 0.000000000000000000, 0.000000000000000000, -1.000000000000000000 ) ) ;
#694 = DIRECTION ( 'NONE',  ( 1.000000000000000000, 0.000000000000000000, 0.000000000000000000 ) ) ;
#695 = ADVANCED_FACE ( 'NONE', ( #153 ), #681, .T. ) ;
#696 = EDGE_LOOP ( 'NONE', ( #848, #805, #585, #253 ) ) ;
#697 = AXIS2_PLACEMENT_3D ( 'NONE', #218, #113, #423 ) ;
#698 = EDGE_CURVE ( 'NONE', #63, #1054, #1182, .T. ) ;
#699 = ADVANCED_FACE ( 'NONE', ( #562 ), #454, .F. ) ;
#700 = LINE ( 'NONE', #1109, #199 ) ;
#701 = CARTESIAN_POINT ( 'NONE',  ( -11.19999999999999929, 26.50000000000000000, 90.34999999999999432 ) ) ;
#702 = CARTESIAN_POINT ( 'NONE',  ( 37.14706149065825258, 1.506631718898383543, 53.33375492244384475 ) ) ;
#703 = CYLINDRICAL_SURFACE ( 'NONE', #59, 5.000000000000004441 ) ;
#704 = ORIENTED_EDGE ( 'NONE', *, *, #1053, .F. ) ;
#705 = DIRECTION ( 'NONE',  ( -1.000000000000000000, -0.000000000000000000, -0.000000000000000000 ) ) ;
#706 = CARTESIAN_POINT ( 'NONE',  ( -32.41320343559642225, 20.49999999999999645, -23.64999999999999503 ) ) ;
#707 = CYLINDRICAL_SURFACE ( 'NONE', #629, 21.84827027621408035 ) ;
#708 = AXIS2_PLACEMENT_3D ( 'NONE', #863, #572, #457 ) ;
#709 = FACE_OUTER_BOUND ( 'NONE', #159, .T. ) ;
#710 = EDGE_LOOP ( 'NONE', ( #678, #927, #1236, #1302 ) ) ;
#711 = VECTOR ( 'NONE', #1046, 1000.000000000000000 ) ;
#712 = VERTEX_POINT ( 'NONE', #574 ) ;
#713 = CARTESIAN_POINT ( 'NONE',  ( 11.19999999999999929, 20.49999999999999645, -32.85000000000000142 ) ) ;
#714 = DIRECTION ( 'NONE',  ( -0.000000000000000000, 0.9321196321339560997, 0.3621505093058111080 ) ) ;
#715 = FACE_OUTER_BOUND ( 'NONE', #1258, .T. ) ;
#716 = ADVANCED_FACE ( 'NONE', ( #162 ), #976, .F. ) ;
#717 = EDGE_CURVE ( 'NONE', #53, #345, #1200, .T. ) ;
#718 = ORIENTED_EDGE ( 'NONE', *, *, #477, .F. ) ;
#719 = VERTEX_POINT ( 'NONE', #769 ) ;
#720 = CARTESIAN_POINT ( 'NONE',  ( 11.20000000000000107, -6.299999999999999822, 52.84999999999999432 ) ) ;
#721 = DIRECTION ( 'NONE',  ( 1.000000000000000000, 0.000000000000000000, 0.000000000000000000 ) ) ;
#722 = DIRECTION ( 'NONE',  ( 0.000000000000000000, 0.000000000000000000, -1.000000000000000000 ) ) ;
#723 = CARTESIAN_POINT ( 'NONE',  ( 80.97826680686709722, 33.49999999999999289, 92.84999999999996589 ) ) ;
#724 = ORIENTED_EDGE ( 'NONE', *, *, #275, .F. ) ;
#725 = AXIS2_PLACEMENT_3D ( 'NONE', #1071, #56, #350 ) ;
#726 = ORIENTED_EDGE ( 'NONE', *, *, #235, .F. ) ;
#727 = AXIS2_PLACEMENT_3D ( 'NONE', #612, #1020, #1158 ) ;
#728 = DIRECTION ( 'NONE',  ( 0.000000000000000000, -1.000000000000000000, -5.551115123125780730E-16 ) ) ;
#729 = CARTESIAN_POINT ( 'NONE',  ( 19.68528137423858837, 26.50000000000000000, 90.34999999999999432 ) ) ;
#730 = LINE ( 'NONE', #34, #1214 ) ;
#731 = CLOSED_SHELL ( 'NONE', ( #956, #336, #695, #435, #882, #22, #80, #419, #1230, #1235, #420, #1215, #839, #743, #620, #313, #600, #195, #699, #988, #1317, #460, #1135, #1311, #378, #377, #174, #1136, #1272, #1315, #618, #557, #1078, #759, #716, #1178, #1033, #273, #397 ) ) ;
#732 = VERTEX_POINT ( 'NONE', #657 ) ;
#733 = ORIENTED_EDGE ( 'NONE', *, *, #125, .T. ) ;
#734 = VECTOR ( 'NONE', #646, 1000.000000000000000 ) ;
#735 = PRODUCT_DEFINITION_SHAPE ( 'NONE', 'NONE',  #265 ) ;
#736 = VECTOR ( 'NONE', #1328, 1000.000000000000000 ) ;
#737 = CARTESIAN_POINT ( 'NONE',  ( -32.41320343559642225, 14.49999999999998934, -19.15000000000000568 ) ) ;
#738 = DIRECTION ( 'NONE',  ( 0.000000000000000000, 9.251858538542971828E-16, -1.000000000000000000 ) ) ;
#739 = FACE_BOUND ( 'NONE', #1283, .T. ) ;
#740 = DIRECTION ( 'NONE',  ( 0.000000000000000000, 0.000000000000000000, -1.000000000000000000 ) ) ;
#741 = EDGE_CURVE ( 'NONE', #68, #1176, #252, .T. ) ;
#742 = ORIENTED_EDGE ( 'NONE', *, *, #1291, .F. ) ;
#743 = ADVANCED_FACE ( 'NONE', ( #370 ), #1193, .F. ) ;
#744 = CARTESIAN_POINT ( 'NONE',  ( 11.19999999999999929, -14.49999999999991473, 52.84999999999999432 ) ) ;
#745 = DIRECTION ( 'NONE',  ( 0.000000000000000000, 0.000000000000000000, -1.000000000000000000 ) ) ;
#746 = CIRCLE ( 'NONE', #386, 21.84827027621408035 ) ;
#747 = DIRECTION ( 'NONE',  ( -0.000000000000000000, 1.000000000000000000, 1.412257918027252025E-16 ) ) ;
#748 = DIRECTION ( 'NONE',  ( 0.000000000000000000, 0.000000000000000000, -1.000000000000000000 ) ) ;
#749 = ORIENTED_EDGE ( 'NONE', *, *, #995, .T. ) ;
#750 = CARTESIAN_POINT ( 'NONE',  ( -11.20000000000000107, -8.923265113431819273, 73.35898756435227597 ) ) ;
#751 = CARTESIAN_POINT ( 'NONE',  ( 11.20000000000000107, -18.54110379526644792, 70.62088985057260970 ) ) ;
#752 = CIRCLE ( 'NONE', #184, 27.55624999999999858 ) ;
#753 = FACE_OUTER_BOUND ( 'NONE', #1098, .T. ) ;
#754 = FACE_OUTER_BOUND ( 'NONE', #686, .T. ) ;
#755 = EDGE_CURVE ( 'NONE', #89, #712, #931, .T. ) ;
#756 = ORIENTED_EDGE ( 'NONE', *, *, #98, .T. ) ;
#757 = DIRECTION ( 'NONE',  ( 1.000000000000000000, 0.000000000000000000, 0.000000000000000000 ) ) ;
#758 = FACE_OUTER_BOUND ( 'NONE', #932, .T. ) ;
#759 = ADVANCED_FACE ( 'NONE', ( #1188 ), #459, .T. ) ;
#760 = CYLINDRICAL_SURFACE ( 'NONE', #900, 10.00000000000000178 ) ;
#761 = ORIENTED_EDGE ( 'NONE', *, *, #96, .T. ) ;
#762 = EDGE_CURVE ( 'NONE', #1061, #65, #1113, .T. ) ;
#763 = EDGE_CURVE ( 'NONE', #197, #209, #146, .T. ) ;
#764 = ORIENTED_EDGE ( 'NONE', *, *, #70, .T. ) ;
#765 = EDGE_CURVE ( 'NONE', #1204, #719, #1275, .T. ) ;
#766 = LINE ( 'NONE', #150, #563 ) ;
#767 = DIRECTION ( 'NONE',  ( 1.000000000000000000, -0.000000000000000000, -0.000000000000000000 ) ) ;
#768 = EDGE_LOOP ( 'NONE', ( #1289, #1017, #281, #1023 ) ) ;
#769 = CARTESIAN_POINT ( 'NONE',  ( -11.20000000000000107, 26.50000000000000000, 82.84999999999999432 ) ) ;
#770 = ORIENTED_EDGE ( 'NONE', *, *, #1130, .F. ) ;
#771 = ORIENTED_EDGE ( 'NONE', *, *, #340, .F. ) ;
#772 = DIRECTION ( 'NONE',  ( 0.000000000000000000, 0.000000000000000000, -1.000000000000000000 ) ) ;
#773 = VECTOR ( 'NONE', #271, 1000.000000000000000 ) ;
#774 = VERTEX_POINT ( 'NONE', #551 ) ;
#775 = CARTESIAN_POINT ( 'NONE',  ( -11.19999999999999929, 10.49999999999999467, -30.78296747958835766 ) ) ;
#776 = ORIENTED_EDGE ( 'NONE', *, *, #456, .F. ) ;
#777 = DIRECTION ( 'NONE',  ( -1.000000000000000000, -0.000000000000000000, -0.000000000000000000 ) ) ;
#778 = VECTOR ( 'NONE', #494, 1000.000000000000000 ) ;
#779 = VERTEX_POINT ( 'NONE', #1282 ) ;
#780 = PRODUCT_CONTEXT ( 'NONE', #1306, 'mechanical' ) ;
#781 = VERTEX_POINT ( 'NONE', #358 ) ;
#782 = DIRECTION ( 'NONE',  ( 0.000000000000000000, -1.000000000000000000, 0.000000000000000000 ) ) ;
#783 = VECTOR ( 'NONE', #393, 1000.000000000000000 ) ;
#784 = ORIENTED_EDGE ( 'NONE', *, *, #319, .F. ) ;
#785 = ADVANCED_BREP_SHAPE_REPRESENTATION ( 'Walker_Brake_Handle', ( #621, #708 ), #234 ) ;
#786 = DIRECTION ( 'NONE',  ( 0.000000000000000000, 0.000000000000000000, -1.000000000000000000 ) ) ;
#787 = ORIENTED_EDGE ( 'NONE', *, *, #762, .T. ) ;
#788 = CARTESIAN_POINT ( 'NONE',  ( -11.19999999999999929, 0.000000000000000000, -25.29375000000001705 ) ) ;
#789 = DIRECTION ( 'NONE',  ( 0.000000000000000000, -1.000000000000000000, 0.000000000000000000 ) ) ;
#790 = VECTOR ( 'NONE', #219, 1000.000000000000000 ) ;
#791 = VECTOR ( 'NONE', #28, 1000.000000000000000 ) ;
#792 = ORIENTED_EDGE ( 'NONE', *, *, #1094, .F. ) ;
#793 = ORIENTED_EDGE ( 'NONE', *, *, #865, .F. ) ;
#794 = EDGE_CURVE ( 'NONE', #202, #971, #352, .T. ) ;
#795 = LINE ( 'NONE', #824, #248 ) ;
#796 = DIRECTION ( 'NONE',  ( 1.000000000000000000, 0.000000000000000000, 0.000000000000000000 ) ) ;
#797 = DIRECTION ( 'NONE',  ( 1.000000000000000000, 0.000000000000000000, 0.000000000000000000 ) ) ;
#798 = EDGE_CURVE ( 'NONE', #781, #888, #1024, .T. ) ;
#799 = EDGE_LOOP ( 'NONE', ( #467, #171, #1007, #890 ) ) ;
#800 = EDGE_CURVE ( 'NONE', #1093, #779, #401, .T. ) ;
#801 = CARTESIAN_POINT ( 'NONE',  ( -11.20000000000000107, 14.49999999999998934, 0.8499999999999896527 ) ) ;
#802 = LINE ( 'NONE', #186, #1087 ) ;
#803 = CARTESIAN_POINT ( 'NONE',  ( -11.20000000000000107, 33.50000000000000000, 87.85000000000002274 ) ) ;
#804 = CARTESIAN_POINT ( 'NONE',  ( 80.97826680686709722, 28.49999999999999645, 87.84999999999999432 ) ) ;
#805 = ORIENTED_EDGE ( 'NONE', *, *, #800, .F. ) ;
#806 = AXIS2_PLACEMENT_3D ( 'NONE', #513, #902, #1310 ) ;
#807 = ORIENTED_EDGE ( 'NONE', *, *, #862, .F. ) ;
#808 = DIRECTION ( 'NONE',  ( -1.000000000000000000, -0.000000000000000000, -0.000000000000000000 ) ) ;
#809 = CARTESIAN_POINT ( 'NONE',  ( 80.97826680686709722, -6.299999999999999822, 52.84999999999999432 ) ) ;
#810 = PLANE ( 'NONE',  #1228 ) ;
#811 = ORIENTED_EDGE ( 'NONE', *, *, #362, .F. ) ;
#812 = EDGE_CURVE ( 'NONE', #827, #428, #1099, .T. ) ;
#813 = DIRECTION ( 'NONE',  ( -0.000000000000000000, 1.000000000000000000, 1.412257918027252025E-16 ) ) ;
#814 = CARTESIAN_POINT ( 'NONE',  ( -11.19999999999999929, -8.499999999999912959, 46.84999999999998721 ) ) ;
#815 = EDGE_CURVE ( 'NONE', #984, #1065, #497, .T. ) ;
#816 = CARTESIAN_POINT ( 'NONE',  ( -11.19999999999999929, 16.50000000000000000, -31.29140904853719363 ) ) ;
#817 = AXIS2_PLACEMENT_3D ( 'NONE', #1112, #188, #602 ) ;
#818 = EDGE_CURVE ( 'NONE', #1176, #364, #836, .T. ) ;
#819 = CARTESIAN_POINT ( 'NONE',  ( -11.19999999999999929, 25.89836240655037614, -34.70766197757225058 ) ) ;
#820 = ORIENTED_EDGE ( 'NONE', *, *, #959, .T. ) ;
#821 = AXIS2_PLACEMENT_3D ( 'NONE', #507, #694, #280 ) ;
#822 = ORIENTED_EDGE ( 'NONE', *, *, #176, .T. ) ;
#823 = CARTESIAN_POINT ( 'NONE',  ( 11.19999999999999929, -20.49999999999999645, -30.78296747958835766 ) ) ;
#824 = CARTESIAN_POINT ( 'NONE',  ( 80.97826680686709722, 33.50000000000000000, 92.84999999999996589 ) ) ;
#825 = CARTESIAN_POINT ( 'NONE',  ( -11.19999999999999929, 25.89836240655037614, -34.70766197757225058 ) ) ;
#826 = CARTESIAN_POINT ( 'NONE',  ( -32.41320343559642225, 14.49999999999998934, 40.84999999999998721 ) ) ;
#827 = VERTEX_POINT ( 'NONE', #1117 ) ;
#828 = ORIENTED_EDGE ( 'NONE', *, *, #613, .F. ) ;
#829 = CIRCLE ( 'NONE', #933, 5.499999999999998224 ) ;
#830 = ORIENTED_EDGE ( 'NONE', *, *, #1194, .T. ) ;
#831 = CARTESIAN_POINT ( 'NONE',  ( 11.19999999999999929, 0.000000000000000000, -25.29375000000001705 ) ) ;
#832 = FACE_BOUND ( 'NONE', #73, .T. ) ;
#833 = ORIENTED_EDGE ( 'NONE', *, *, #815, .T. ) ;
#834 = AXIS2_PLACEMENT_3D ( 'NONE', #584, #356, #566 ) ;
#835 = EDGE_LOOP ( 'NONE', ( #1001, #776, #628, #963 ) ) ;
#836 = CIRCLE ( 'NONE', #147, 3.000000000000002665 ) ;
#837 = CARTESIAN_POINT ( 'NONE',  ( -11.19999999999999929, 26.50000000000000000, 52.84999999999999432 ) ) ;
#838 = DIRECTION ( 'NONE',  ( 1.000000000000000000, -0.000000000000000000, -0.000000000000000000 ) ) ;
#839 = ADVANCED_FACE ( 'NONE', ( #1210 ), #1110, .T. ) ;
#840 = DIRECTION ( 'NONE',  ( 1.000000000000000000, 0.000000000000000000, 0.000000000000000000 ) ) ;
#841 = CYLINDRICAL_SURFACE ( 'NONE', #948, 7.500000000000000000 ) ;
#842 = EDGE_CURVE ( 'NONE', #367, #885, #802, .T. ) ;
#843 = ORIENTED_EDGE ( 'NONE', *, *, #940, .F. ) ;
#844 = VECTOR ( 'NONE', #110, 1000.000000000000000 ) ;
#845 = DIRECTION ( 'NONE',  ( 0.000000000000000000, 8.673617379884040402E-16, -1.000000000000000000 ) ) ;
#846 = DIRECTION ( 'NONE',  ( 0.000000000000000000, 2.428612866367527723E-14, -1.000000000000000000 ) ) ;
#847 = CARTESIAN_POINT ( 'NONE',  ( -11.20000000000000107, 14.00663171889838843, 58.83375492244385185 ) ) ;
#848 = ORIENTED_EDGE ( 'NONE', *, *, #897, .T. ) ;
#849 = CARTESIAN_POINT ( 'NONE',  ( -11.19999999999999929, 0.000000000000000000, -47.14202027621409741 ) ) ;
#850 = DIRECTION ( 'NONE',  ( -1.000000000000000000, -0.000000000000000000, -0.000000000000000000 ) ) ;
#851 = AXIS2_PLACEMENT_3D ( 'NONE', #1036, #965, #1253 ) ;
#852 = CARTESIAN_POINT ( 'NONE',  ( -11.20000000000000107, 33.49999999999999289, 92.84999999999996589 ) ) ;
#853 = LINE ( 'NONE', #418, #1288 ) ;
#854 = ORIENTED_EDGE ( 'NONE', *, *, #617, .T. ) ;
#855 = EDGE_CURVE ( 'NONE', #774, #1264, #91, .T. ) ;
#856 = DIRECTION ( 'NONE',  ( 1.000000000000000000, 0.000000000000000000, 0.000000000000000000 ) ) ;
#857 = LINE ( 'NONE', #654, #190 ) ;
#858 = CIRCLE ( 'NONE', #17, 5.499999999999998224 ) ;
#859 = AXIS2_PLACEMENT_3D ( 'NONE', #938, #115, #438 ) ;
#860 = EDGE_CURVE ( 'NONE', #656, #779, #1003, .T. ) ;
#861 = PLANE ( 'NONE',  #859 ) ;
#862 = EDGE_CURVE ( 'NONE', #885, #1169, #795, .T. ) ;
#863 = CARTESIAN_POINT ( 'NONE',  ( 0.000000000000000000, 0.000000000000000000, 0.000000000000000000 ) ) ;
#864 = ORIENTED_EDGE ( 'NONE', *, *, #512, .T. ) ;
#865 = EDGE_CURVE ( 'NONE', #1144, #1032, #687, .T. ) ;
#866 = ORIENTED_EDGE ( 'NONE', *, *, #44, .T. ) ;
#867 = VECTOR ( 'NONE', #451, 1000.000000000000000 ) ;
#868 = VECTOR ( 'NONE', #506, 1000.000000000000000 ) ;
#869 = PLANE ( 'NONE',  #1308 ) ;
#870 = VECTOR ( 'NONE', #985, 1000.000000000000000 ) ;
#871 = CARTESIAN_POINT ( 'NONE',  ( 11.20000000000000107, -19.82922762023026664, 79.84999999999996589 ) ) ;
#872 = ORIENTED_EDGE ( 'NONE', *, *, #818, .F. ) ;
#873 = DIRECTION ( 'NONE',  ( -1.000000000000000000, -0.000000000000000000, -0.000000000000000000 ) ) ;
#874 = ORIENTED_EDGE ( 'NONE', *, *, #1332, .T. ) ;
#875 = CARTESIAN_POINT ( 'NONE',  ( 11.19999999999999929, 26.50000000000000000, 90.34999999999999432 ) ) ;
#876 = VERTEX_POINT ( 'NONE', #172 ) ;
#877 = CARTESIAN_POINT ( 'NONE',  ( 11.20000000000000107, 13.87705723213738729, 79.85000000000000853 ) ) ;
#878 = ORIENTED_EDGE ( 'NONE', *, *, #576, .T. ) ;
#879 = FACE_OUTER_BOUND ( 'NONE', #1167, .T. ) ;
#880 = VERTEX_POINT ( 'NONE', #1219 ) ;
#881 = DIRECTION ( 'NONE',  ( -1.000000000000000000, 0.000000000000000000, 0.000000000000000000 ) ) ;
#882 = ADVANCED_FACE ( 'NONE', ( #915, #69, #1325, #592 ), #998, .T. ) ;
#883 = EDGE_LOOP ( 'NONE', ( #379, #357, #962, #1074 ) ) ;
#884 = CARTESIAN_POINT ( 'NONE',  ( -11.19999999999999929, -26.50000000000000000, -31.29140904853720073 ) ) ;
#885 = VERTEX_POINT ( 'NONE', #606 ) ;
#886 = CARTESIAN_POINT ( 'NONE',  ( 11.20000000000000107, 26.50000000000000000, 82.84999999999999432 ) ) ;
#887 = VECTOR ( 'NONE', #1254, 1000.000000000000000 ) ;
#888 = VERTEX_POINT ( 'NONE', #1225 ) ;
#889 = CARTESIAN_POINT ( 'NONE',  ( -11.19999999999999929, 20.49999999999999645, -32.85000000000000142 ) ) ;
#890 = ORIENTED_EDGE ( 'NONE', *, *, #818, .T. ) ;
#891 = CARTESIAN_POINT ( 'NONE',  ( 11.19999999999999929, -26.50000000000000000, 40.84999999999990905 ) ) ;
#892 = VERTEX_POINT ( 'NONE', #599 ) ;
#893 = EDGE_CURVE ( 'NONE', #385, #1245, #1155, .T. ) ;
#894 = ORIENTED_EDGE ( 'NONE', *, *, #140, .T. ) ;
#895 = CARTESIAN_POINT ( 'NONE',  ( -11.20000000000000107, 1.506631718898382877, 58.83375492244385185 ) ) ;
#896 = EDGE_CURVE ( 'NONE', #1216, #1034, #486, .T. ) ;
#897 = EDGE_CURVE ( 'NONE', #341, #779, #360, .T. ) ;
#898 = CARTESIAN_POINT ( 'NONE',  ( 11.19999999999999929, -25.89836240655037614, -34.70766197757225058 ) ) ;
#899 = CIRCLE ( 'NONE', #530, 11.99999999999999645 ) ;
#900 = AXIS2_PLACEMENT_3D ( 'NONE', #344, #840, #531 ) ;
#901 = ORIENTED_EDGE ( 'NONE', *, *, #160, .T. ) ;
#902 = DIRECTION ( 'NONE',  ( 1.000000000000000000, 0.000000000000000000, -0.000000000000000000 ) ) ;
#903 = CARTESIAN_POINT ( 'NONE',  ( -11.20000000000000107, 14.49999999999998934, -19.15000000000000568 ) ) ;
#904 = LINE ( 'NONE', #8, #154 ) ;
#905 = DIRECTION ( 'NONE',  ( 0.000000000000000000, 0.000000000000000000, -1.000000000000000000 ) ) ;
#906 = VECTOR ( 'NONE', #243, 1000.000000000000000 ) ;
#907 = VERTEX_POINT ( 'NONE', #86 ) ;
#908 = CARTESIAN_POINT ( 'NONE',  ( 11.20000000000000107, 20.49999999999998579, 36.34999999999999432 ) ) ;
#909 = DIRECTION ( 'NONE',  ( 1.000000000000000000, 0.000000000000000000, 0.000000000000000000 ) ) ;
#910 = CARTESIAN_POINT ( 'NONE',  ( -32.41320343559642225, 20.49999999999999289, -3.650000000000001243 ) ) ;
#911 = CARTESIAN_POINT ( 'NONE',  ( -11.19999999999999929, 26.50000000000000000, 93.35000000000000853 ) ) ;
#912 = VERTEX_POINT ( 'NONE', #492 ) ;
#913 = EDGE_CURVE ( 'NONE', #1278, #63, #297, .T. ) ;
#914 = PLANE ( 'NONE',  #353 ) ;
#915 = FACE_BOUND ( 'NONE', #669, .T. ) ;
#916 = DIRECTION ( 'NONE',  ( 0.000000000000000000, 0.000000000000000000, -1.000000000000000000 ) ) ;
#917 = LINE ( 'NONE', #481, #736 ) ;
#918 = VERTEX_POINT ( 'NONE', #198 ) ;
#919 = AXIS2_PLACEMENT_3D ( 'NONE', #635, #322, #738 ) ;
#920 = CIRCLE ( 'NONE', #339, 9.999999999999994671 ) ;
#921 = ORIENTED_EDGE ( 'NONE', *, *, #70, .F. ) ;
#922 = DIRECTION ( 'NONE',  ( -1.000000000000000000, -0.000000000000000000, -0.000000000000000000 ) ) ;
#923 = DIRECTION ( 'NONE',  ( -0.000000000000000000, 1.000000000000000000, 5.551115123125780730E-16 ) ) ;
#924 = CARTESIAN_POINT ( 'NONE',  ( -11.19999999999999929, -19.36205307206673609, -35.41589477751485759 ) ) ;
#925 = ORIENTED_EDGE ( 'NONE', *, *, #1175, .T. ) ;
#926 = ORIENTED_EDGE ( 'NONE', *, *, #1291, .T. ) ;
#927 = ORIENTED_EDGE ( 'NONE', *, *, #491, .T. ) ;
#928 = DIRECTION ( 'NONE',  ( -1.000000000000000000, -0.000000000000000000, -0.000000000000000000 ) ) ;
#929 = DIRECTION ( 'NONE',  ( 0.000000000000000000, -5.551115123125780730E-16, 1.000000000000000000 ) ) ;
#930 = CARTESIAN_POINT ( 'NONE',  ( -11.20000000000000107, -12.54477020648992891, 82.68018388569183230 ) ) ;
#931 = CIRCLE ( 'NONE', #212, 10.00000000000000178 ) ;
#932 = EDGE_LOOP ( 'NONE', ( #348, #1181, #664, #771 ) ) ;
#933 = AXIS2_PLACEMENT_3D ( 'NONE', #847, #225, #123 ) ;
#934 = EDGE_CURVE ( 'NONE', #633, #1183, #502, .T. ) ;
#935 = DIRECTION ( 'NONE',  ( -1.000000000000000000, -0.000000000000000000, -0.000000000000000000 ) ) ;
#936 = CARTESIAN_POINT ( 'NONE',  ( -11.20000000000000107, 26.49999999999999289, 97.84999999999999432 ) ) ;
#937 = PRODUCT ( 'Walker_Brake_Handle', 'Walker_Brake_Handle', '', ( #780 ) ) ;
#938 = CARTESIAN_POINT ( 'NONE',  ( -11.19999999999999929, -14.50000000000000000, 40.84999999999999432 ) ) ;
#939 = DIRECTION ( 'NONE',  ( 0.000000000000000000, -0.000000000000000000, -1.000000000000000000 ) ) ;
#940 = EDGE_CURVE ( 'NONE', #222, #53, #899, .T. ) ;
#941 = VECTOR ( 'NONE', #365, 1000.000000000000000 ) ;
#942 = EDGE_CURVE ( 'NONE', #1144, #202, #425, .T. ) ;
#943 = ORIENTED_EDGE ( 'NONE', *, *, #41, .F. ) ;
#944 = AXIS2_PLACEMENT_3D ( 'NONE', #729, #647, #642 ) ;
#945 = DIRECTION ( 'NONE',  ( 0.000000000000000000, 0.000000000000000000, -1.000000000000000000 ) ) ;
#946 = CARTESIAN_POINT ( 'NONE',  ( 11.19999999999999929, -14.50000000000000000, 40.84999999999999432 ) ) ;
#947 = DIRECTION ( 'NONE',  ( 0.000000000000000000, 0.000000000000000000, -1.000000000000000000 ) ) ;
#948 = AXIS2_PLACEMENT_3D ( 'NONE', #826, #1029, #1234 ) ;
#949 = ORIENTED_EDGE ( 'NONE', *, *, #1094, .T. ) ;
#950 = CARTESIAN_POINT ( 'NONE',  ( -11.19999999999999929, -14.49999999999991473, 52.84999999999999432 ) ) ;
#951 = DIRECTION ( 'NONE',  ( 0.000000000000000000, 0.000000000000000000, 1.000000000000000000 ) ) ;
#952 = FACE_OUTER_BOUND ( 'NONE', #332, .T. ) ;
#953 = PLANE ( 'NONE',  #1251 ) ;
#954 = ORIENTED_EDGE ( 'NONE', *, *, #362, .T. ) ;
#955 = EDGE_CURVE ( 'NONE', #1222, #907, #858, .T. ) ;
#956 = ADVANCED_FACE ( 'NONE', ( #303 ), #134, .F. ) ;
#957 = DIRECTION ( 'NONE',  ( 0.000000000000000000, -1.412257918027252025E-16, 1.000000000000000000 ) ) ;
#958 = DIRECTION ( 'NONE',  ( 1.000000000000000000, 0.000000000000000000, 0.000000000000000000 ) ) ;
#959 = EDGE_CURVE ( 'NONE', #428, #1268, #752, .T. ) ;
#960 = CARTESIAN_POINT ( 'NONE',  ( -11.20000000000000107, 14.49999999999998934, 20.84999999999999076 ) ) ;
#961 = FACE_OUTER_BOUND ( 'NONE', #1126, .T. ) ;
#962 = ORIENTED_EDGE ( 'NONE', *, *, #996, .T. ) ;
#963 = ORIENTED_EDGE ( 'NONE', *, *, #617, .F. ) ;
#964 = CIRCLE ( 'NONE', #247, 10.00000000000000178 ) ;
#965 = DIRECTION ( 'NONE',  ( 1.000000000000000000, 0.000000000000000000, -0.000000000000000000 ) ) ;
#966 = CARTESIAN_POINT ( 'NONE',  ( -11.19999999999999929, 19.36205307206672899, -35.41589477751486470 ) ) ;
#967 = VECTOR ( 'NONE', #213, 1000.000000000000000 ) ;
#968 = FACE_OUTER_BOUND ( 'NONE', #567, .T. ) ;
#969 = ORIENTED_EDGE ( 'NONE', *, *, #160, .F. ) ;
#970 = DIRECTION ( 'NONE',  ( 1.000000000000000000, 0.000000000000000000, 0.000000000000000000 ) ) ;
#971 = VERTEX_POINT ( 'NONE', #1146 ) ;
#972 = VECTOR ( 'NONE', #607, 1000.000000000000000 ) ;
#973 = CARTESIAN_POINT ( 'NONE',  ( 11.20000000000000107, 20.49999999999999645, -14.65000000000001634 ) ) ;
#974 = CARTESIAN_POINT ( 'NONE',  ( -11.20000000000000107, 20.49999999999999289, 5.349999999999982769 ) ) ;
#975 = ORIENTED_EDGE ( 'NONE', *, *, #995, .F. ) ;
#976 = CYLINDRICAL_SURFACE ( 'NONE', #169, 5.499999999999998224 ) ;
#977 = ORIENTED_EDGE ( 'NONE', *, *, #741, .F. ) ;
#978 = EDGE_CURVE ( 'NONE', #1093, #249, #338, .T. ) ;
#979 = ORIENTED_EDGE ( 'NONE', *, *, #1195, .T. ) ;
#980 = CARTESIAN_POINT ( 'NONE',  ( 11.20000000000000107, 14.00663171889838843, 48.33375492244385896 ) ) ;
#981 = EDGE_CURVE ( 'NONE', #1183, #732, #310, .T. ) ;
#982 = ORIENTED_EDGE ( 'NONE', *, *, #254, .T. ) ;
#983 = DIRECTION ( 'NONE',  ( 0.000000000000000000, -3.469446951953614189E-15, -1.000000000000000000 ) ) ;
#984 = VERTEX_POINT ( 'NONE', #1260 ) ;
#985 = DIRECTION ( 'NONE',  ( -1.000000000000000000, 0.000000000000000000, 0.000000000000000000 ) ) ;
#986 = ORIENTED_EDGE ( 'NONE', *, *, #1095, .T. ) ;
#987 = AXIS2_PLACEMENT_3D ( 'NONE', #488, #797, #1207 ) ;
#988 = ADVANCED_FACE ( 'NONE', ( #114 ), #205, .F. ) ;
#989 = DIRECTION ( 'NONE',  ( 1.000000000000000000, 0.000000000000000000, 0.000000000000000000 ) ) ;
#990 = VERTEX_POINT ( 'NONE', #107 ) ;
#991 = CARTESIAN_POINT ( 'NONE',  ( 80.97826680686709722, -8.923265113431819273, 73.35898756435227597 ) ) ;
#992 = PRODUCT_DEFINITION_FORMATION_WITH_SPECIFIED_SOURCE ( 'ANY', '', #937, .NOT_KNOWN. ) ;
#993 = EDGE_CURVE ( 'NONE', #1137, #428, #311, .T. ) ;
#994 = ORIENTED_EDGE ( 'NONE', *, *, #981, .T. ) ;
#995 = EDGE_CURVE ( 'NONE', #202, #633, #128, .T. ) ;
#996 = EDGE_CURVE ( 'NONE', #892, #1054, #399, .T. ) ;
#997 = ORIENTED_EDGE ( 'NONE', *, *, #798, .T. ) ;
#998 = PLANE ( 'NONE',  #1006 ) ;
#999 = EDGE_CURVE ( 'NONE', #367, #412, #122, .T. ) ;
#1000 = PLANE ( 'NONE',  #1184 ) ;
#1001 = ORIENTED_EDGE ( 'NONE', *, *, #755, .F. ) ;
#1002 = EDGE_LOOP ( 'NONE', ( #137, #1329, #1008, #672, #718, #539, #742, #726, #242, #1156, #139, #37, #550, #878, #55 ) ) ;
#1003 = LINE ( 'NONE', #383, #619 ) ;
#1004 = CARTESIAN_POINT ( 'NONE',  ( -11.19999999999999929, 26.50000000000000000, 87.34999999999999432 ) ) ;
#1005 = CARTESIAN_POINT ( 'NONE',  ( -11.20000000000000107, 33.49999999999999289, 92.84999999999996589 ) ) ;
#1006 = AXIS2_PLACEMENT_3D ( 'NONE', #586, #1303, #1205 ) ;
#1007 = ORIENTED_EDGE ( 'NONE', *, *, #741, .T. ) ;
#1008 = ORIENTED_EDGE ( 'NONE', *, *, #215, .F. ) ;
#1009 = DIRECTION ( 'NONE',  ( 0.000000000000000000, 0.000000000000000000, -1.000000000000000000 ) ) ;
#1010 = CARTESIAN_POINT ( 'NONE',  ( 11.19999999999999929, 26.50000000000000000, 52.84999999999999432 ) ) ;
#1011 = DIRECTION ( 'NONE',  ( -0.000000000000000000, 0.000000000000000000, -1.000000000000000000 ) ) ;
#1012 = ORIENTED_EDGE ( 'NONE', *, *, #270, .T. ) ;
#1013 = FACE_OUTER_BOUND ( 'NONE', #1202, .T. ) ;
#1014 = CARTESIAN_POINT ( 'NONE',  ( -11.19999999999999929, 0.000000000000000000, -52.85000000000001563 ) ) ;
#1015 = CARTESIAN_POINT ( 'NONE',  ( 11.20000000000000107, 33.49999999999999289, 87.85000000000002274 ) ) ;
#1016 = CARTESIAN_POINT ( 'NONE',  ( 19.68528137423858837, 26.50000000000000000, 87.34999999999999432 ) ) ;
#1017 = ORIENTED_EDGE ( 'NONE', *, *, #317, .T. ) ;
#1018 = AXIS2_PLACEMENT_3D ( 'NONE', #737, #534, #442 ) ;
#1019 = LINE ( 'NONE', #1318, #783 ) ;
#1020 = DIRECTION ( 'NONE',  ( 1.000000000000000000, 0.000000000000000000, 0.000000000000000000 ) ) ;
#1021 = CYLINDRICAL_SURFACE ( 'NONE', #511, 11.99999999999999645 ) ;
#1022 = CARTESIAN_POINT ( 'NONE',  ( -11.19999999999999929, 16.50000000000000000, -31.29140904853719363 ) ) ;
#1023 = ORIENTED_EDGE ( 'NONE', *, *, #254, .F. ) ;
#1024 = CIRCLE ( 'NONE', #575, 33.70628485236765215 ) ;
#1025 = ORIENTED_EDGE ( 'NONE', *, *, #1090, .T. ) ;
#1026 = DIRECTION ( 'NONE',  ( -1.000000000000000000, 0.000000000000000000, 0.000000000000000000 ) ) ;
#1027 = DIRECTION ( 'NONE',  ( 1.000000000000000000, 0.000000000000000000, 0.000000000000000000 ) ) ;
#1028 = DIRECTION ( 'NONE',  ( 1.000000000000000000, 0.000000000000000000, 0.000000000000000000 ) ) ;
#1029 = DIRECTION ( 'NONE',  ( 1.000000000000000000, -0.000000000000000000, -0.000000000000000000 ) ) ;
#1030 = VECTOR ( 'NONE', #782, 1000.000000000000000 ) ;
#1031 = VECTOR ( 'NONE', #601, 1000.000000000000000 ) ;
#1032 = VERTEX_POINT ( 'NONE', #224 ) ;
#1033 = ADVANCED_FACE ( 'NONE', ( #1232 ), #535, .F. ) ;
#1034 = VERTEX_POINT ( 'NONE', #936 ) ;
#1035 = EDGE_CURVE ( 'NONE', #412, #1204, #366, .T. ) ;
#1036 = CARTESIAN_POINT ( 'NONE',  ( -11.19999999999999929, 0.000000000000000000, -25.29375000000002061 ) ) ;
#1037 = DIRECTION ( 'NONE',  ( 0.000000000000000000, 0.000000000000000000, -1.000000000000000000 ) ) ;
#1038 = EDGE_CURVE ( 'NONE', #583, #880, #14, .T. ) ;
#1039 = CARTESIAN_POINT ( 'NONE',  ( 11.20000000000000107, 14.49999999999998934, 20.84999999999999076 ) ) ;
#1040 = CARTESIAN_POINT ( 'NONE',  ( 11.20000000000000107, 1.506631718898383543, 64.33375492244384475 ) ) ;
#1041 = VECTOR ( 'NONE', #90, 1000.000000000000000 ) ;
#1042 = CIRCLE ( 'NONE', #590, 11.99999999999999645 ) ;
#1043 = DIRECTION ( 'NONE',  ( 1.000000000000000000, -0.000000000000000000, -0.000000000000000000 ) ) ;
#1044 = DIRECTION ( 'NONE',  ( 0.000000000000000000, 0.000000000000000000, 1.000000000000000000 ) ) ;
#1045 = CARTESIAN_POINT ( 'NONE',  ( -11.20000000000000107, 28.49999999999996092, 97.84999999999999432 ) ) ;
#1046 = DIRECTION ( 'NONE',  ( -1.000000000000000000, 0.000000000000000000, 0.000000000000000000 ) ) ;
#1047 = ORIENTED_EDGE ( 'NONE', *, *, #1130, .T. ) ;
#1048 = PLANE ( 'NONE',  #697 ) ;
#1049 = DIRECTION ( 'NONE',  ( 0.000000000000000000, 0.000000000000000000, 1.000000000000000000 ) ) ;
#1050 = LINE ( 'NONE', #1159, #118 ) ;
#1051 = FACE_OUTER_BOUND ( 'NONE', #5, .T. ) ;
#1052 = VECTOR ( 'NONE', #384, 1000.000000000000000 ) ;
#1053 = EDGE_CURVE ( 'NONE', #112, #449, #27, .T. ) ;
#1054 = VERTEX_POINT ( 'NONE', #334 ) ;
#1055 = VECTOR ( 'NONE', #1106, 1000.000000000000000 ) ;
#1056 = CARTESIAN_POINT ( 'NONE',  ( 11.19999999999999929, 20.49999999999999645, -32.85000000000000142 ) ) ;
#1057 = DIRECTION ( 'NONE',  ( 1.000000000000000000, 0.000000000000000000, 0.000000000000000000 ) ) ;
#1058 = CARTESIAN_POINT ( 'NONE',  ( -11.19999999999999929, 20.49999999999999645, -32.85000000000000142 ) ) ;
#1059 = CYLINDRICAL_SURFACE ( 'NONE', #61, 10.00000000000000178 ) ;
#1060 = ORIENTED_EDGE ( 'NONE', *, *, #860, .F. ) ;
#1061 = VERTEX_POINT ( 'NONE', #751 ) ;
#1062 = DIRECTION ( 'NONE',  ( 0.000000000000000000, 0.000000000000000000, -1.000000000000000000 ) ) ;
#1063 = CARTESIAN_POINT ( 'NONE',  ( 11.19999999999999929, 26.50000000000000000, 90.34999999999999432 ) ) ;
#1064 = CARTESIAN_POINT ( 'NONE',  ( 11.19999999999999929, -8.499999999999998224, 34.84999999999999432 ) ) ;
#1065 = VERTEX_POINT ( 'NONE', #966 ) ;
#1066 = DIRECTION ( 'NONE',  ( 1.000000000000000000, 0.000000000000000000, 0.000000000000000000 ) ) ;
#1067 = ORIENTED_EDGE ( 'NONE', *, *, #1138, .F. ) ;
#1068 = AXIS2_PLACEMENT_3D ( 'NONE', #875, #668, #464 ) ;
#1069 = CARTESIAN_POINT ( 'NONE',  ( 11.20000000000000107, 14.00663171889838665, 64.33375492244384475 ) ) ;
#1070 = AXIS2_PLACEMENT_3D ( 'NONE', #831, #522, #1044 ) ;
#1071 = CARTESIAN_POINT ( 'NONE',  ( -11.19999999999999929, 20.49999999999999645, -32.85000000000000142 ) ) ;
#1072 = ORIENTED_EDGE ( 'NONE', *, *, #276, .F. ) ;
#1073 = CARTESIAN_POINT ( 'NONE',  ( 11.20000000000000107, 14.00663171889838665, 64.33375492244384475 ) ) ;
#1074 = ORIENTED_EDGE ( 'NONE', *, *, #698, .F. ) ;
#1075 = PRESENTATION_LAYER_ASSIGNMENT (  '', '', ( #627 ) ) ;
#1076 = CIRCLE ( 'NONE', #84, 7.499999999999999112 ) ;
#1077 = LINE ( 'NONE', #261, #1307 ) ;
#1078 = ADVANCED_FACE ( 'NONE', ( #758 ), #239, .T. ) ;
#1079 = ORIENTED_EDGE ( 'NONE', *, *, #661, .T. ) ;
#1080 = CARTESIAN_POINT ( 'NONE',  ( -11.20000000000000107, 13.87705723213738729, 79.85000000000000853 ) ) ;
#1081 = ORIENTED_EDGE ( 'NONE', *, *, #812, .F. ) ;
#1082 =( LENGTH_UNIT ( ) NAMED_UNIT ( * ) SI_UNIT ( .MILLI., .METRE. ) );
#1083 = ORIENTED_EDGE ( 'NONE', *, *, #1038, .F. ) ;
#1084 = DIRECTION ( 'NONE',  ( 0.000000000000000000, 0.000000000000000000, -1.000000000000000000 ) ) ;
#1085 = ORIENTED_EDGE ( 'NONE', *, *, #959, .F. ) ;
#1086 = LINE ( 'NONE', #889, #452 ) ;
#1087 = VECTOR ( 'NONE', #192, 1000.000000000000000 ) ;
#1088 = APPLICATION_PROTOCOL_DEFINITION ( 'draft international standard', 'automotive_design', 1998, #1306 ) ;
#1089 = ORIENTED_EDGE ( 'NONE', *, *, #1194, .F. ) ;
#1090 = EDGE_CURVE ( 'NONE', #12, #633, #857, .T. ) ;
#1091 = DIRECTION ( 'NONE',  ( 1.000000000000000000, -0.000000000000000000, -0.000000000000000000 ) ) ;
#1092 = EDGE_CURVE ( 'NONE', #1173, #68, #295, .T. ) ;
#1093 = VERTEX_POINT ( 'NONE', #1213 ) ;
#1094 = EDGE_CURVE ( 'NONE', #209, #367, #24, .T. ) ;
#1095 = EDGE_CURVE ( 'NONE', #827, #1187, #671, .T. ) ;
#1096 = CIRCLE ( 'NONE', #323, 5.499999999999998224 ) ;
#1097 = LINE ( 'NONE', #871, #483 ) ;
#1098 = EDGE_LOOP ( 'NONE', ( #997, #422, #690, #756, #453, #57, #1270, #591, #943, #603, #232, #262, #674, #149, #241, #83 ) ) ;
#1099 = LINE ( 'NONE', #1014, #76 ) ;
#1100 = VECTOR ( 'NONE', #772, 1000.000000000000000 ) ;
#1101 = LINE ( 'NONE', #173, #1052 ) ;
#1102 = ORIENTED_EDGE ( 'NONE', *, *, #842, .F. ) ;
#1103 = DIRECTION ( 'NONE',  ( 0.000000000000000000, -2.775557561562891745E-15, -1.000000000000000000 ) ) ;
#1104 = CARTESIAN_POINT ( 'NONE',  ( 80.97826680686709722, 26.49999999999999289, 97.84999999999999432 ) ) ;
#1105 = FACE_OUTER_BOUND ( 'NONE', #799, .T. ) ;
#1106 = DIRECTION ( 'NONE',  ( 1.000000000000000000, -0.000000000000000000, -0.000000000000000000 ) ) ;
#1107 = AXIS2_PLACEMENT_3D ( 'NONE', #329, #643, #1249 ) ;
#1108 = ORIENTED_EDGE ( 'NONE', *, *, #999, .T. ) ;
#1109 = CARTESIAN_POINT ( 'NONE',  ( -11.19999999999999929, 26.50000000000000000, 52.84999999999999432 ) ) ;
#1110 = CYLINDRICAL_SURFACE ( 'NONE', #552, 11.99999999999999645 ) ;
#1111 = CARTESIAN_POINT ( 'NONE',  ( -11.20000000000000107, -19.82922762023026664, 79.84999999999996589 ) ) ;
#1112 = CARTESIAN_POINT ( 'NONE',  ( -11.19999999999999929, 26.50000000000000000, 90.34999999999999432 ) ) ;
#1113 = CIRCLE ( 'NONE', #1134, 33.70628485236765215 ) ;
#1114 = ORIENTED_EDGE ( 'NONE', *, *, #456, .T. ) ;
#1115 = VECTOR ( 'NONE', #499, 1000.000000000000000 ) ;
#1116 = CARTESIAN_POINT ( 'NONE',  ( 11.19999999999999929, -26.50000000000000000, 40.84999999999990905 ) ) ;
#1117 = CARTESIAN_POINT ( 'NONE',  ( -11.19999999999999929, 0.000000000000000000, -52.85000000000001563 ) ) ;
#1118 = LINE ( 'NONE', #910, #868 ) ;
#1119 = CARTESIAN_POINT ( 'NONE',  ( 80.97826680686709722, 28.49999999999996092, 82.84999999999999432 ) ) ;
#1120 = AXIS2_PLACEMENT_3D ( 'NONE', #343, #40, #1165 ) ;
#1121 = ORIENTED_EDGE ( 'NONE', *, *, #1277, .T. ) ;
#1122 = ORIENTED_EDGE ( 'NONE', *, *, #141, .F. ) ;
#1123 = DIRECTION ( 'NONE',  ( 0.000000000000000000, -1.412257918027252025E-16, 1.000000000000000000 ) ) ;
#1124 = CARTESIAN_POINT ( 'NONE',  ( -11.19999999999999929, -16.50000000000000000, -31.29140904853719363 ) ) ;
#1125 = PLANE ( 'NONE',  #1309 ) ;
#1126 = EDGE_LOOP ( 'NONE', ( #446, #527, #236, #639 ) ) ;
#1127 = EDGE_LOOP ( 'NONE', ( #573, #793, #155, #189 ) ) ;
#1128 = CARTESIAN_POINT ( 'NONE',  ( 11.19999999999999929, 20.49999999999999645, -32.85000000000000142 ) ) ;
#1129 = CARTESIAN_POINT ( 'NONE',  ( -11.19999999999999929, -19.36205307206673254, -35.41589477751485759 ) ) ;
#1130 = EDGE_CURVE ( 'NONE', #227, #1192, #587, .T. ) ;
#1131 = CARTESIAN_POINT ( 'NONE',  ( -11.20000000000000107, 20.49999999999999645, -14.65000000000001634 ) ) ;
#1132 = DIRECTION ( 'NONE',  ( 0.000000000000000000, -1.000000000000000000, 0.000000000000000000 ) ) ;
#1133 = ORIENTED_EDGE ( 'NONE', *, *, #275, .T. ) ;
#1134 = AXIS2_PLACEMENT_3D ( 'NONE', #877, #263, #469 ) ;
#1135 = ADVANCED_FACE ( 'NONE', ( #390 ), #1000, .T. ) ;
#1136 = ADVANCED_FACE ( 'NONE', ( #1201 ), #703, .T. ) ;
#1137 = VERTEX_POINT ( 'NONE', #898 ) ;
#1138 = EDGE_CURVE ( 'NONE', #583, #990, #71, .T. ) ;
#1139 = LINE ( 'NONE', #142, #440 ) ;
#1140 = DIRECTION ( 'NONE',  ( 0.000000000000000000, 0.000000000000000000, -1.000000000000000000 ) ) ;
#1141 = FACE_OUTER_BOUND ( 'NONE', #264, .T. ) ;
#1142 = LINE ( 'NONE', #518, #711 ) ;
#1143 = VECTOR ( 'NONE', #662, 999.9999999999998863 ) ;
#1144 = VERTEX_POINT ( 'NONE', #182 ) ;
#1145 = CARTESIAN_POINT ( 'NONE',  ( -11.19999999999999929, -20.49999999999999645, 34.84999999999990905 ) ) ;
#1146 = CARTESIAN_POINT ( 'NONE',  ( 11.19999999999999929, -20.49999999999999645, 34.84999999999990905 ) ) ;
#1147 = CARTESIAN_POINT ( 'NONE',  ( -11.19999999999999929, 0.000000000000000000, -25.29375000000001705 ) ) ;
#1148 = AXIS2_PLACEMENT_3D ( 'NONE', #228, #856, #528 ) ;
#1149 = ORIENTED_EDGE ( 'NONE', *, *, #559, .T. ) ;
#1150 = DIRECTION ( 'NONE',  ( 1.000000000000000000, 0.000000000000000000, -0.000000000000000000 ) ) ;
#1151 = CARTESIAN_POINT ( 'NONE',  ( -11.19999999999999929, -20.49999999999999645, 34.84999999999990195 ) ) ;
#1152 = DIRECTION ( 'NONE',  ( 0.000000000000000000, 0.000000000000000000, -1.000000000000000000 ) ) ;
#1153 = EDGE_CURVE ( 'NONE', #561, #1187, #604, .T. ) ;
#1154 = DIRECTION ( 'NONE',  ( 1.000000000000000000, 0.000000000000000000, 0.000000000000000000 ) ) ;
#1155 = CIRCLE ( 'NONE', #447, 5.499999999999998224 ) ;
#1156 = ORIENTED_EDGE ( 'NONE', *, *, #97, .F. ) ;
#1157 = LINE ( 'NONE', #1056, #734 ) ;
#1158 = DIRECTION ( 'NONE',  ( 0.000000000000000000, 0.000000000000000000, -1.000000000000000000 ) ) ;
#1159 = CARTESIAN_POINT ( 'NONE',  ( 11.19999999999999929, 20.49999999999999645, -30.78296747958835766 ) ) ;
#1160 = PLANE ( 'NONE',  #229 ) ;
#1161 = ORIENTED_EDGE ( 'NONE', *, *, #717, .T. ) ;
#1162 = AXIS2_PLACEMENT_3D ( 'NONE', #650, #1154, #748 ) ;
#1163 = ORIENTED_EDGE ( 'NONE', *, *, #896, .F. ) ;
#1164 = CARTESIAN_POINT ( 'NONE',  ( -11.20000000000000107, 26.49999999999999289, 97.84999999999999432 ) ) ;
#1165 = DIRECTION ( 'NONE',  ( 0.000000000000000000, 0.000000000000000000, 1.000000000000000000 ) ) ;
#1166 = DIRECTION ( 'NONE',  ( -1.000000000000000000, -0.000000000000000000, -0.000000000000000000 ) ) ;
#1167 = EDGE_LOOP ( 'NONE', ( #921, #251, #105, #1163 ) ) ;
#1168 = UNCERTAINTY_MEASURE_WITH_UNIT (LENGTH_MEASURE( 1.000000000000000082E-05 ), #1082, 'distance_accuracy_value', 'NONE');
#1169 = VERTEX_POINT ( 'NONE', #1005 ) ;
#1170 = AXIS2_PLACEMENT_3D ( 'NONE', #204, #605, #99 ) ;
#1171 = CARTESIAN_POINT ( 'NONE',  ( -11.20000000000000107, 14.00663171889838665, 64.33375492244384475 ) ) ;
#1172 = CARTESIAN_POINT ( 'NONE',  ( 11.19999999999999929, -10.49999999999999645, -30.78296747958835766 ) ) ;
#1173 = VERTEX_POINT ( 'NONE', #82 ) ;
#1174 = DIRECTION ( 'NONE',  ( 0.000000000000000000, 0.000000000000000000, -1.000000000000000000 ) ) ;
#1175 = EDGE_CURVE ( 'NONE', #1268, #876, #21, .T. ) ;
#1176 = VERTEX_POINT ( 'NONE', #911 ) ;
#1177 = EDGE_CURVE ( 'NONE', #364, #1176, #405, .T. ) ;
#1178 = ADVANCED_FACE ( 'NONE', ( #709 ), #810, .T. ) ;
#1179 = AXIS2_PLACEMENT_3D ( 'NONE', #991, #873, #58 ) ;
#1180 = CARTESIAN_POINT ( 'NONE',  ( 80.97826680686709722, -18.54110379526645502, 70.62088985057260970 ) ) ;
#1181 = ORIENTED_EDGE ( 'NONE', *, *, #640, .T. ) ;
#1182 = LINE ( 'NONE', #582, #443 ) ;
#1183 = VERTEX_POINT ( 'NONE', #924 ) ;
#1184 = AXIS2_PLACEMENT_3D ( 'NONE', #3, #287, #608 ) ;
#1185 = DIRECTION ( 'NONE',  ( -1.000000000000000000, 0.000000000000000000, -0.000000000000000000 ) ) ;
#1186 = APPLICATION_PROTOCOL_DEFINITION ( 'draft international standard', 'automotive_design', 1998, #501 ) ;
#1187 = VERTEX_POINT ( 'NONE', #819 ) ;
#1188 = FACE_OUTER_BOUND ( 'NONE', #351, .T. ) ;
#1189 = ORIENTED_EDGE ( 'NONE', *, *, #2, .T. ) ;
#1190 = LINE ( 'NONE', #1180, #867 ) ;
#1191 = AXIS2_PLACEMENT_3D ( 'NONE', #641, #436, #945 ) ;
#1192 = VERTEX_POINT ( 'NONE', #1322 ) ;
#1193 = CYLINDRICAL_SURFACE ( 'NONE', #1238, 21.84827027621408035 ) ;
#1194 = EDGE_CURVE ( 'NONE', #209, #1204, #1304, .T. ) ;
#1195 = EDGE_CURVE ( 'NONE', #1173, #364, #194, .T. ) ;
#1196 = EDGE_CURVE ( 'NONE', #667, #892, #917, .T. ) ;
#1197 = EDGE_LOOP ( 'NONE', ( #274, #580, #733, #1297 ) ) ;
#1198 =( NAMED_UNIT ( * ) PLANE_ANGLE_UNIT ( ) SI_UNIT ( $, .RADIAN. ) );
#1199 = ORIENTED_EDGE ( 'NONE', *, *, #41, .T. ) ;
#1200 = LINE ( 'NONE', #891, #1100 ) ;
#1201 = FACE_OUTER_BOUND ( 'NONE', #50, .T. ) ;
#1202 = EDGE_LOOP ( 'NONE', ( #651, #588, #161, #489 ) ) ;
#1203 = VECTOR ( 'NONE', #923, 1000.000000000000000 ) ;
#1204 = VERTEX_POINT ( 'NONE', #1227 ) ;
#1205 = DIRECTION ( 'NONE',  ( 0.000000000000000000, 0.000000000000000000, -1.000000000000000000 ) ) ;
#1206 = CARTESIAN_POINT ( 'NONE',  ( -11.20000000000000107, 1.506631718898382877, 53.33375492244385185 ) ) ;
#1207 = DIRECTION ( 'NONE',  ( 0.000000000000000000, 0.000000000000000000, -1.000000000000000000 ) ) ;
#1208 = ORIENTED_EDGE ( 'NONE', *, *, #1177, .T. ) ;
#1209 = CARTESIAN_POINT ( 'NONE',  ( 11.19999999999999929, 26.50000000000000000, 93.35000000000000853 ) ) ;
#1210 = FACE_OUTER_BOUND ( 'NONE', #132, .T. ) ;
#1211 = CIRCLE ( 'NONE', #806, 21.84827027621408035 ) ;
#1212 = FACE_OUTER_BOUND ( 'NONE', #316, .T. ) ;
#1213 = CARTESIAN_POINT ( 'NONE',  ( 11.20000000000000107, 20.49999999999999645, -23.64999999999999858 ) ) ;
#1214 = VECTOR ( 'NONE', #525, 999.9999999999998863 ) ;
#1215 = ADVANCED_FACE ( 'NONE', ( #715 ), #1125, .T. ) ;
#1216 = VERTEX_POINT ( 'NONE', #688 ) ;
#1217 = EDGE_CURVE ( 'NONE', #197, #719, #1101, .T. ) ;
#1218 = VERTEX_POINT ( 'NONE', #1250 ) ;
#1219 = CARTESIAN_POINT ( 'NONE',  ( -11.20000000000000107, 20.49999999999998934, 16.34999999999999432 ) ) ;
#1220 = LINE ( 'NONE', #1, #1203 ) ;
#1221 = DIRECTION ( 'NONE',  ( 0.000000000000000000, 0.000000000000000000, 1.000000000000000000 ) ) ;
#1222 = VERTEX_POINT ( 'NONE', #1040 ) ;
#1223 = AXIS2_PLACEMENT_3D ( 'NONE', #1063, #143, #547 ) ;
#1224 = DIRECTION ( 'NONE',  ( 0.000000000000000000, -1.412257918027252025E-16, 1.000000000000000000 ) ) ;
#1225 = CARTESIAN_POINT ( 'NONE',  ( -11.20000000000000107, -18.54110379526644792, 70.62088985057260970 ) ) ;
#1226 = DIRECTION ( 'NONE',  ( 1.000000000000000000, 0.000000000000000000, 0.000000000000000000 ) ) ;
#1227 = CARTESIAN_POINT ( 'NONE',  ( -11.20000000000000107, 28.49999999999996092, 82.84999999999999432 ) ) ;
#1228 = AXIS2_PLACEMENT_3D ( 'NONE', #103, #1011, #88 ) ;
#1229 = ORIENTED_EDGE ( 'NONE', *, *, #1177, .F. ) ;
#1230 = ADVANCED_FACE ( 'NONE', ( #1051 ), #1160, .F. ) ;
#1231 = DIRECTION ( 'NONE',  ( -0.000000000000000000, -0.000000000000000000, 1.000000000000000000 ) ) ;
#1232 = FACE_OUTER_BOUND ( 'NONE', #768, .T. ) ;
#1233 = LINE ( 'NONE', #304, #1269 ) ;
#1234 = DIRECTION ( 'NONE',  ( 0.000000000000000000, 0.000000000000000000, -1.000000000000000000 ) ) ;
#1235 = ADVANCED_FACE ( 'NONE', ( #305 ), #439, .T. ) ;
#1236 = ORIENTED_EDGE ( 'NONE', *, *, #794, .F. ) ;
#1237 = ORIENTED_EDGE ( 'NONE', *, *, #996, .F. ) ;
#1238 = AXIS2_PLACEMENT_3D ( 'NONE', #375, #1066, #1174 ) ;
#1239 = DIRECTION ( 'NONE',  ( 1.000000000000000000, 0.000000000000000000, 0.000000000000000000 ) ) ;
#1240 = CARTESIAN_POINT ( 'NONE',  ( -11.19999999999999929, 20.49999999999999645, -32.85000000000000142 ) ) ;
#1241 = FACE_OUTER_BOUND ( 'NONE', #475, .T. ) ;
#1242 = LINE ( 'NONE', #9, #844 ) ;
#1243 = ORIENTED_EDGE ( 'NONE', *, *, #1092, .F. ) ;
#1244 = VECTOR ( 'NONE', #64, 1000.000000000000000 ) ;
#1245 = VERTEX_POINT ( 'NONE', #325 ) ;
#1246 = AXIS2_PLACEMENT_3D ( 'NONE', #106, #485, #289 ) ;
#1247 = LINE ( 'NONE', #546, #677 ) ;
#1248 = CARTESIAN_POINT ( 'NONE',  ( 11.20000000000000107, 1.506631718898382877, 58.83375492244385185 ) ) ;
#1249 = DIRECTION ( 'NONE',  ( 0.000000000000000000, 0.000000000000000000, 1.000000000000000000 ) ) ;
#1250 = CARTESIAN_POINT ( 'NONE',  ( 11.20000000000000107, 20.49999999999999289, -3.650000000000001243 ) ) ;
#1251 = AXIS2_PLACEMENT_3D ( 'NONE', #723, #1132, #939 ) ;
#1252 = ORIENTED_EDGE ( 'NONE', *, *, #660, .F. ) ;
#1253 = DIRECTION ( 'NONE',  ( 0.000000000000000000, 0.000000000000000000, 1.000000000000000000 ) ) ;
#1254 = DIRECTION ( 'NONE',  ( 0.000000000000000000, -1.412257918027252025E-16, 1.000000000000000000 ) ) ;
#1255 = CARTESIAN_POINT ( 'NONE',  ( 11.19999999999999929, 0.000000000000000000, -52.85000000000001563 ) ) ;
#1256 = EDGE_CURVE ( 'NONE', #245, #288, #1142, .T. ) ;
#1257 = VECTOR ( 'NONE', #1043, 1000.000000000000000 ) ;
#1258 = EDGE_LOOP ( 'NONE', ( #208, #854, #1274, #259 ) ) ;
#1259 = CARTESIAN_POINT ( 'NONE',  ( 11.19999999999999929, 0.000000000000000000, -25.29375000000002061 ) ) ;
#1260 = CARTESIAN_POINT ( 'NONE',  ( 11.19999999999999929, 19.36205307206672899, -35.41589477751486470 ) ) ;
#1261 = PLANE ( 'NONE',  #524 ) ;
#1262 = DIRECTION ( 'NONE',  ( 0.000000000000000000, -0.000000000000000000, 1.000000000000000000 ) ) ;
#1263 = VECTOR ( 'NONE', #78, 1000.000000000000000 ) ;
#1264 = VERTEX_POINT ( 'NONE', #231 ) ;
#1265 = CARTESIAN_POINT ( 'NONE',  ( -11.20000000000000107, -8.500000000000081712, 46.84999999999998721 ) ) ;
#1266 = DIRECTION ( 'NONE',  ( -1.000000000000000000, 0.000000000000000000, 0.000000000000000000 ) ) ;
#1267 = CYLINDRICAL_SURFACE ( 'NONE', #267, 27.55624999999999858 ) ;
#1268 = VERTEX_POINT ( 'NONE', #526 ) ;
#1269 = VECTOR ( 'NONE', #109, 1000.000000000000000 ) ;
#1270 = ORIENTED_EDGE ( 'NONE', *, *, #1035, .T. ) ;
#1271 = CARTESIAN_POINT ( 'NONE',  ( 37.14706149065825258, 14.00663171889838843, 53.33375492244385185 ) ) ;
#1272 = ADVANCED_FACE ( 'NONE', ( #124 ), #953, .F. ) ;
#1273 = PLANE ( 'NONE',  #75 ) ;
#1274 = ORIENTED_EDGE ( 'NONE', *, *, #717, .F. ) ;
#1275 = LINE ( 'NONE', #476, #666 ) ;
#1276 = EDGE_CURVE ( 'NONE', #918, #1054, #853, .T. ) ;
#1277 = EDGE_CURVE ( 'NONE', #1295, #912, #431, .T. ) ;
#1278 = VERTEX_POINT ( 'NONE', #337 ) ;
#1279 = CIRCLE ( 'NONE', #380, 7.500000000000000000 ) ;
#1280 = CARTESIAN_POINT ( 'NONE',  ( 11.20000000000000107, -12.54477020648992891, 82.68018388569183230 ) ) ;
#1281 = VERTEX_POINT ( 'NONE', #930 ) ;
#1282 = CARTESIAN_POINT ( 'NONE',  ( -11.20000000000000107, 20.49999999999999645, -23.64999999999999858 ) ) ;
#1283 = EDGE_LOOP ( 'NONE', ( #872, #1229 ) ) ;
#1284 = AXIS2_PLACEMENT_3D ( 'NONE', #424, #958, #745 ) ;
#1285 = DIRECTION ( 'NONE',  ( 0.000000000000000000, 8.673617379884033500E-16, -1.000000000000000000 ) ) ;
#1286 = ORIENTED_EDGE ( 'NONE', *, *, #765, .F. ) ;
#1287 = DIRECTION ( 'NONE',  ( 0.000000000000000000, 0.000000000000000000, 1.000000000000000000 ) ) ;
#1288 = VECTOR ( 'NONE', #136, 1000.000000000000000 ) ;
#1289 = ORIENTED_EDGE ( 'NONE', *, *, #955, .T. ) ;
#1290 = VECTOR ( 'NONE', #396, 1000.000000000000000 ) ;
#1291 = EDGE_CURVE ( 'NONE', #1218, #990, #1076, .T. ) ;
#1292 = FACE_OUTER_BOUND ( 'NONE', #42, .T. ) ;
#1293 = ORIENTED_EDGE ( 'NONE', *, *, #220, .F. ) ;
#1294 = DIRECTION ( 'NONE',  ( 1.000000000000000000, 0.000000000000000000, 0.000000000000000000 ) ) ;
#1295 = VERTEX_POINT ( 'NONE', #226 ) ;
#1296 = DIRECTION ( 'NONE',  ( 0.000000000000000000, -1.412257918027252025E-16, 1.000000000000000000 ) ) ;
#1297 = ORIENTED_EDGE ( 'NONE', *, *, #317, .F. ) ;
#1298 = DIRECTION ( 'NONE',  ( 0.000000000000000000, -1.000000000000000000, 0.000000000000000000 ) ) ;
#1299 = ORIENTED_EDGE ( 'NONE', *, *, #461, .F. ) ;
#1300 = AXIS2_PLACEMENT_3D ( 'NONE', #775, #579, #786 ) ;
#1301 = AXIS2_PLACEMENT_3D ( 'NONE', #903, #1312, #388 ) ;
#1302 = ORIENTED_EDGE ( 'NONE', *, *, #942, .F. ) ;
#1303 = DIRECTION ( 'NONE',  ( 1.000000000000000000, 0.000000000000000000, 0.000000000000000000 ) ) ;
#1304 = LINE ( 'NONE', #1119, #1290 ) ;
#1305 = EDGE_LOOP ( 'NONE', ( #533, #1299, #104, #811 ) ) ;
#1306 = APPLICATION_CONTEXT ( 'automotive_design' ) ;
#1307 = VECTOR ( 'NONE', #767, 1000.000000000000000 ) ;
#1308 = AXIS2_PLACEMENT_3D ( 'NONE', #1271, #929, #102 ) ;
#1309 = AXIS2_PLACEMENT_3D ( 'NONE', #615, #789, #272 ) ;
#1310 = DIRECTION ( 'NONE',  ( 0.000000000000000000, 0.000000000000000000, 1.000000000000000000 ) ) ;
#1311 = ADVANCED_FACE ( 'NONE', ( #961 ), #1059, .F. ) ;
#1312 = DIRECTION ( 'NONE',  ( -1.000000000000000000, -0.000000000000000000, -0.000000000000000000 ) ) ;
#1313 = CYLINDRICAL_SURFACE ( 'NONE', #503, 10.00000000000000178 ) ;
#1314 = CARTESIAN_POINT ( 'NONE',  ( -11.19999999999999929, 0.000000000000000000, -25.29375000000001705 ) ) ;
#1315 = ADVANCED_FACE ( 'NONE', ( #754 ), #214, .T. ) ;
#1316 = ORIENTED_EDGE ( 'NONE', *, *, #473, .T. ) ;
#1317 = ADVANCED_FACE ( 'NONE', ( #532 ), #841, .F. ) ;
#1318 = CARTESIAN_POINT ( 'NONE',  ( 11.20000000000000107, 26.49999999999999289, 97.84999999999999432 ) ) ;
#1319 = DIRECTION ( 'NONE',  ( 0.000000000000000000, -1.412257918027252025E-16, 1.000000000000000000 ) ) ;
#1320 = AXIS2_PLACEMENT_3D ( 'NONE', #750, #19, #845 ) ;
#1321 = CARTESIAN_POINT ( 'NONE',  ( -11.19999999999999929, 0.000000000000000000, -25.29375000000002061 ) ) ;
#1322 = CARTESIAN_POINT ( 'NONE',  ( 11.19999999999999929, 0.000000000000000000, -47.14202027621409741 ) ) ;
#1323 = ORIENTED_EDGE ( 'NONE', *, *, #359, .F. ) ;
#1324 = ORIENTED_EDGE ( 'NONE', *, *, #217, .T. ) ;
#1325 = FACE_BOUND ( 'NONE', #1002, .T. ) ;
#1326 = VECTOR ( 'NONE', #285, 1000.000000000000000 ) ;
#1327 = FACE_OUTER_BOUND ( 'NONE', #1305, .T. ) ;
#1328 = DIRECTION ( 'NONE',  ( -1.000000000000000000, 0.000000000000000000, 0.000000000000000000 ) ) ;
#1329 = ORIENTED_EDGE ( 'NONE', *, *, #515, .F. ) ;
#1330 = ORIENTED_EDGE ( 'NONE', *, *, #1217, .F. ) ;
#1331 = DIRECTION ( 'NONE',  ( 1.000000000000000000, 0.000000000000000000, 0.000000000000000000 ) ) ;
#1332 = EDGE_CURVE ( 'NONE', #912, #53, #1242, .T. ) ;
ENDSEC;
END-ISO-10303-21;
