ISO-10303-21;
HEADER;
FILE_DESCRIPTION (( 'STEP AP214' ),
    '1' );
FILE_NAME ('Walker_Central_Seat_Tubing.STEP',
    '2026-08-11T21:03:26',
    ( '' ),
    ( '' ),
    'SwSTEP 2.0',
    'SolidWorks 2023',
    '' );
FILE_SCHEMA (( 'AUTOMOTIVE_DESIGN' ));
ENDSEC;

DATA;
#1 = DIRECTION ( 'NONE',  ( 1.000000000000000000, 0.000000000000000000, 0.000000000000000000 ) ) ;
#2 = DIRECTION ( 'NONE',  ( -0.000000000000000000, -0.000000000000000000, -1.000000000000000000 ) ) ;
#3 = DIRECTION ( 'NONE',  ( 0.000000000000000000, 0.000000000000000000, -1.000000000000000000 ) ) ;
#4 = VERTEX_POINT ( 'NONE', #13 ) ;
#5 =( LENGTH_UNIT ( ) NAMED_UNIT ( * ) SI_UNIT ( .MILLI., .METRE. ) );
#6 = CIRCLE ( 'NONE', #88, 4.000000000000000000 ) ;
#7 = ORIENTED_EDGE ( 'NONE', *, *, #459, .T. ) ;
#8 = LINE ( 'NONE', #454, #411 ) ;
#9 = ORIENTED_EDGE ( 'NONE', *, *, #550, .F. ) ;
#10 = AXIS2_PLACEMENT_3D ( 'NONE', #268, #76, #560 ) ;
#11 = FACE_OUTER_BOUND ( 'NONE', #693, .T. ) ;
#12 = CARTESIAN_POINT ( 'NONE',  ( 141.6687908642747686, 3.275523063868200691, 3.780552888302707082 ) ) ;
#13 = CARTESIAN_POINT ( 'NONE',  ( -130.0000000000000000, 139.0000000000000000, 4.898587196589407898E-16 ) ) ;
#14 = CARTESIAN_POINT ( 'NONE',  ( 143.0000000000000284, 0.000000000000000000, 4.000000000000000000 ) ) ;
#15 = DIRECTION ( 'NONE',  ( 0.000000000000000000, 0.000000000000000000, 1.000000000000000000 ) ) ;
#16 = AXIS2_PLACEMENT_3D ( 'NONE', #413, #464, #512 ) ;
#17 = ORIENTED_EDGE ( 'NONE', *, *, #533, .F. ) ;
#18 = EDGE_CURVE ( 'NONE', #194, #676, #624, .T. ) ;
#19 = DIRECTION ( 'NONE',  ( 0.000000000000000000, 0.000000000000000000, 1.000000000000000000 ) ) ;
#20 = CARTESIAN_POINT ( 'NONE',  ( -143.6877521567650149, 3.075201088297625507, -3.942727795640613486 ) ) ;
#21 = VERTEX_POINT ( 'NONE', #617 ) ;
#22 = CARTESIAN_POINT ( 'NONE',  ( -143.5536661240729757, 3.047650908136843917, -3.963884981161968302 ) ) ;
#23 = DIRECTION ( 'NONE',  ( 0.000000000000000000, 0.000000000000000000, 1.000000000000000000 ) ) ;
#24 = CARTESIAN_POINT ( 'NONE',  ( -130.0000000000000000, 143.0000000000000284, 4.000000000000000000 ) ) ;
#25 = CARTESIAN_POINT ( 'NONE',  ( 144.3287279552223197, 3.274438690769771565, -3.781520482503495817 ) ) ;
#26 = EDGE_CURVE ( 'NONE', #689, #163, #273, .T. ) ;
#27 = PRODUCT_DEFINITION_SHAPE ( 'NONE', 'NONE',  #214 ) ;
#28 = LINE ( 'NONE', #93, #529 ) ;
#29 = VECTOR ( 'NONE', #126, 1000.000000000000000 ) ;
#30 = CARTESIAN_POINT ( 'NONE',  ( -145.4333174892820182, 3.859242166883696257, 3.184387067745286792 ) ) ;
#31 = CARTESIAN_POINT ( 'NONE',  ( -147.0000000000000284, 130.0000000000000000, 0.000000000000000000 ) ) ;
#32 = DIRECTION ( 'NONE',  ( 1.000000000000000000, 0.000000000000000000, 0.000000000000000000 ) ) ;
#33 = CARTESIAN_POINT ( 'NONE',  ( -146.8563515632200449, 4.885720189451539852, 1.096784972997931096 ) ) ;
#34 = CARTESIAN_POINT ( 'NONE',  ( 139.5615296394967402, 4.562185648439812446, -2.059670262565593823 ) ) ;
#35 = CARTESIAN_POINT ( 'NONE',  ( 220.0000000000000000, 0.000000000000000000, 0.000000000000000000 ) ) ;
#36 = B_SPLINE_CURVE_WITH_KNOTS ( 'NONE', 3,
 ( #257, #571, #674, #412, #361, #466, #25, #417, #90, #420, #83, #474, #86, #196, #678, #634, #366, #629, #581, #625, #531, #311, #469, #204, #140, #680, #259, #415, #357, #632, #148, #363, #579, #92, #313, #526, #37, #151, #95, #315, #61, #590 ),
 .UNSPECIFIED., .F., .F.,
 ( 4, 2, 2, 2, 2, 2, 2, 2, 2, 2, 2, 2, 2, 2, 2, 2, 2, 2, 2, 2, 4 ),
 ( 0.01326659922450029901, 0.01368086508040539800, 0.01409513093631049700, 0.01492366264812077133, 0.01575219435993104738, 0.01658072607174132171, 0.01740925778355159603, 0.01823778949536187383, 0.01906632120717214815, 0.01989485291898242247, 0.02030911877488755790, 0.02072338463079269680, 0.02155191634260297112, 0.02238044805441324545, 0.02320897976622351977, 0.02403751147803379409, 0.02486604318984406842, 0.02528030904574920384, 0.02569457490165434274, 0.02610884075755948164, 0.02652310661346461707 ),
 .UNSPECIFIED. ) ;
#37 = CARTESIAN_POINT ( 'NONE',  ( 143.9525543237197382, 3.145031059849232591, 3.887254887270172876 ) ) ;
#38 = ORIENTED_EDGE ( 'NONE', *, *, #245, .F. ) ;
#39 = AXIS2_PLACEMENT_3D ( 'NONE', #477, #316, #482 ) ;
#40 = EDGE_CURVE ( 'NONE', #621, #639, #75, .T. ) ;
#41 = AXIS2_PLACEMENT_3D ( 'NONE', #166, #601, #3 ) ;
#42 = CARTESIAN_POINT ( 'NONE',  ( 142.3122478432349567, 3.075201088297625507, -3.942727795640613486 ) ) ;
#43 = CARTESIAN_POINT ( 'NONE',  ( 130.0000000000000000, 143.0000000000000284, 4.000000000000000000 ) ) ;
#44 = ORIENTED_EDGE ( 'NONE', *, *, #418, .F. ) ;
#45 = CARTESIAN_POINT ( 'NONE',  ( -220.0000000000000000, 0.000000000000000000, -4.999999999999999112 ) ) ;
#46 = ORIENTED_EDGE ( 'NONE', *, *, #125, .T. ) ;
#47 = VECTOR ( 'NONE', #620, 1000.000000000000000 ) ;
#48 = CARTESIAN_POINT ( 'NONE',  ( -140.5692976475289413, 3.857613648551334595, -3.186316063011602306 ) ) ;
#49 = CARTESIAN_POINT ( 'NONE',  ( 143.0000000000000284, 130.0000000000000000, 4.000000000000000000 ) ) ;
#50 = CARTESIAN_POINT ( 'NONE',  ( -142.8596287236220235, 3.000000000000000000, 4.000000000000000000 ) ) ;
#51 = ADVANCED_FACE ( 'NONE', ( #239 ), #392, .T. ) ;
#52 = CIRCLE ( 'NONE', #576, 4.000000000000000000 ) ;
#53 = CARTESIAN_POINT ( 'NONE',  ( -141.9182528356836883, 3.178875589639553745, -3.860390451785502997 ) ) ;
#54 = FACE_BOUND ( 'NONE', #349, .T. ) ;
#55 = FACE_OUTER_BOUND ( 'NONE', #393, .T. ) ;
#56 = EDGE_LOOP ( 'NONE', ( #60, #198 ) ) ;
#57 = CARTESIAN_POINT ( 'NONE',  ( -220.0000000000000000, 0.000000000000000000, 0.000000000000000000 ) ) ;
#58 = CARTESIAN_POINT ( 'NONE',  ( 143.0000000000000284, 0.000000000000000000, 0.000000000000000000 ) ) ;
#59 = CARTESIAN_POINT ( 'NONE',  ( -139.0551699736101909, 4.955945523724328616, 0.6762096421107093303 ) ) ;
#60 = ORIENTED_EDGE ( 'NONE', *, *, #233, .T. ) ;
#61 = CARTESIAN_POINT ( 'NONE',  ( 143.1403712763781471, 3.000000000000000000, 4.000000000000000000 ) ) ;
#62 = ORIENTED_EDGE ( 'NONE', *, *, #375, .F. ) ;
#63 = EDGE_CURVE ( 'NONE', #109, #100, #294, .T. ) ;
#64 = SHAPE_DEFINITION_REPRESENTATION ( #27, #636 ) ;
#65 = CARTESIAN_POINT ( 'NONE',  ( -144.4515500177561478, 3.331103467481635771, -3.729500543218882580 ) ) ;
#66 = ORIENTED_EDGE ( 'NONE', *, *, #203, .F. ) ;
#67 = CARTESIAN_POINT ( 'NONE',  ( -143.0000000000000284, 130.0000000000000000, 0.000000000000000000 ) ) ;
#68 = LINE ( 'NONE', #136, #47 ) ;
#69 = AXIS2_PLACEMENT_3D ( 'NONE', #607, #615, #557 ) ;
#70 = EDGE_LOOP ( 'NONE', ( #344, #62, #17, #673, #7, #492 ) ) ;
#71 = CARTESIAN_POINT ( 'NONE',  ( 138.9995692876225633, 5.000344569746688173, -0.2698154387931099296 ) ) ;
#72 = PRESENTATION_LAYER_ASSIGNMENT (  '', '', ( #539 ) ) ;
#73 = EDGE_CURVE ( 'NONE', #85, #603, #8, .T. ) ;
#74 = CARTESIAN_POINT ( 'NONE',  ( -144.0823599900328418, 3.179035686113086179, 3.860263416202392328 ) ) ;
#75 = B_SPLINE_CURVE_WITH_KNOTS ( 'NONE', 3,
 ( #505, #399, #237, #74, #356, #305, #517, #30, #128, #252, #346, #293, #468, #310, #33, #521, #255, #89, #504, #192, #355, #508, #618, #659, #286, #668, #352, #343, #186, #65, #611, #292, #177, #20, #22, #396, #662, #232 ),
 .UNSPECIFIED., .F., .F.,
 ( 4, 2, 2, 2, 2, 2, 2, 2, 2, 2, 2, 2, 2, 2, 2, 2, 2, 2, 4 ),
 ( 0.000000000000000000, 0.0008291624515312689047, 0.001658324903062537376, 0.002487487354593806172, 0.003316649806125074752, 0.004145812257656343765, 0.004974974709187612344, 0.005804137160718881791, 0.006633299612250149503, 0.007462462063781418083, 0.008291624515312687529, 0.009120786966843956109, 0.009949949418375224688, 0.01077911186990649500, 0.01160827432143776358, 0.01202285554720339787, 0.01243743677296903216, 0.01285201799873466645, 0.01326659922450029901 ),
 .UNSPECIFIED. ) ;
#76 = DIRECTION ( 'NONE',  ( 1.000000000000000000, -0.000000000000000000, -0.000000000000000000 ) ) ;
#77 = VECTOR ( 'NONE', #326, 1000.000000000000000 ) ;
#78 = CARTESIAN_POINT ( 'NONE',  ( 143.0000000000000284, 130.0000000000000000, 0.000000000000000000 ) ) ;
#79 = CARTESIAN_POINT ( 'NONE',  ( 140.5666825107179818, 3.859242166883696257, 3.184387067745286792 ) ) ;
#80 = CARTESIAN_POINT ( 'NONE',  ( 130.0000000000000000, 143.0000000000000284, 0.000000000000000000 ) ) ;
#81 = ORIENTED_EDGE ( 'NONE', *, *, #233, .F. ) ;
#82 = EDGE_CURVE ( 'NONE', #639, #563, #68, .T. ) ;
#83 = CARTESIAN_POINT ( 'NONE',  ( 145.6217750223696328, 3.982045976329169346, -3.031291960237284311 ) ) ;
#84 = CARTESIAN_POINT ( 'NONE',  ( 143.0000000000000284, 0.000000000000000000, 0.000000000000000000 ) ) ;
#85 = VERTEX_POINT ( 'NONE', #289 ) ;
#86 = CARTESIAN_POINT ( 'NONE',  ( 146.1417567681385492, 4.342946469206554916, -2.488635069999090454 ) ) ;
#87 = DIRECTION ( 'NONE',  ( -1.000000000000000000, 0.000000000000000000, 0.000000000000000000 ) ) ;
#88 = AXIS2_PLACEMENT_3D ( 'NONE', #131, #449, #182 ) ;
#89 = CARTESIAN_POINT ( 'NONE',  ( -147.0004307123775220, 5.000344569746688173, -0.2698154387931099296 ) ) ;
#90 = CARTESIAN_POINT ( 'NONE',  ( 145.0205174794153038, 3.613220173170177407, -3.460987300625556706 ) ) ;
#91 = PLANE ( 'NONE',  #295 ) ;
#92 = CARTESIAN_POINT ( 'NONE',  ( 144.4533603614403603, 3.331892278647551997, 3.728798088732477201 ) ) ;
#93 = CARTESIAN_POINT ( 'NONE',  ( -228.4852813742386104, 3.673940397442059868E-16, 3.000000000000000444 ) ) ;
#94 = EDGE_CURVE ( 'NONE', #334, #545, #106, .T. ) ;
#95 = CARTESIAN_POINT ( 'NONE',  ( 143.5550147686273874, 3.047893697709244787, 3.963698799384440363 ) ) ;
#96 = LINE ( 'NONE', #99, #77 ) ;
#97 = CIRCLE ( 'NONE', #169, 4.000000000000000000 ) ;
#98 = DIRECTION ( 'NONE',  ( -0.000000000000000000, 0.000000000000000000, 1.000000000000000000 ) ) ;
#99 = CARTESIAN_POINT ( 'NONE',  ( -130.0000000000000000, 143.0000000000000284, -4.000000000000000000 ) ) ;
#100 = VERTEX_POINT ( 'NONE', #31 ) ;
#101 = EDGE_CURVE ( 'NONE', #545, #114, #515, .T. ) ;
#102 = PRESENTATION_STYLE_ASSIGNMENT (( #165 ) ) ;
#103 = CARTESIAN_POINT ( 'NONE',  ( -143.0000000000000284, 2.999999999999997780, -4.000000000000000000 ) ) ;
#104 = CIRCLE ( 'NONE', #593, 4.000000000000000000 ) ;
#105 = SURFACE_SIDE_STYLE ('',( #494 ) ) ;
#106 = B_SPLINE_CURVE_WITH_KNOTS ( 'NONE', 3,
 ( #565, #500, #345, #299, #12, #236, #247, #79, #450, #243, #183, #127, #456, #132, #561, #401, #405, #71, #511, #458, #154, #307, #34, #637, #250, #199, #145, #519, #303, #684, #577, #209, #687, #42, #573, #463, #253, #207 ),
 .UNSPECIFIED., .F., .F.,
 ( 4, 2, 2, 2, 2, 2, 2, 2, 2, 2, 2, 2, 2, 2, 2, 2, 2, 2, 4 ),
 ( 0.000000000000000000, 0.0008291624515312689047, 0.001658324903062537376, 0.002487487354593806172, 0.003316649806125074752, 0.004145812257656343765, 0.004974974709187612344, 0.005804137160718881791, 0.006633299612250149503, 0.007462462063781418083, 0.008291624515312687529, 0.009120786966843956109, 0.009949949418375224688, 0.01077911186990649500, 0.01160827432143776358, 0.01202285554720339787, 0.01243743677296903216, 0.01285201799873466645, 0.01326659922450029901 ),
 .UNSPECIFIED. ) ;
#107 = CARTESIAN_POINT ( 'NONE',  ( 220.0000000000000000, 6.123233995736765296E-16, 4.999999999999999112 ) ) ;
#108 = CARTESIAN_POINT ( 'NONE',  ( -130.0000000000000000, 143.0000000000000284, 0.000000000000000000 ) ) ;
#109 = VERTEX_POINT ( 'NONE', #408 ) ;
#110 = CIRCLE ( 'NONE', #506, 4.000000000000000000 ) ;
#111 = CARTESIAN_POINT ( 'NONE',  ( -228.4852813742386104, 0.000000000000000000, -3.000000000000000444 ) ) ;
#112 = DIRECTION ( 'NONE',  ( 0.000000000000000000, 0.000000000000000000, 1.000000000000000000 ) ) ;
#113 = CARTESIAN_POINT ( 'NONE',  ( -139.1388850928552472, 4.889484299416484880, 1.080539375767948673 ) ) ;
#114 = VERTEX_POINT ( 'NONE', #264 ) ;
#115 =( GEOMETRIC_REPRESENTATION_CONTEXT ( 3 ) GLOBAL_UNCERTAINTY_ASSIGNED_CONTEXT ( ( #263 ) ) GLOBAL_UNIT_ASSIGNED_CONTEXT ( ( #373, #422, #699 ) ) REPRESENTATION_CONTEXT ( 'NONE', 'WORKASPACE' ) );
#116 = CARTESIAN_POINT ( 'NONE',  ( -141.2004736563187066, 3.492094761346529630, -3.581496904505105938 ) ) ;
#117 = CARTESIAN_POINT ( 'NONE',  ( -142.7187918878918254, 3.010098437170559915, 3.992476870730842453 ) ) ;
#118 = ORIENTED_EDGE ( 'NONE', *, *, #514, .T. ) ;
#119 = EDGE_CURVE ( 'NONE', #545, #334, #36, .T. ) ;
#120 = ORIENTED_EDGE ( 'NONE', *, *, #82, .F. ) ;
#121 = CIRCLE ( 'NONE', #394, 4.000000000000000000 ) ;
#122 = LINE ( 'NONE', #14, #622 ) ;
#123 = CARTESIAN_POINT ( 'NONE',  ( -143.0000000000000284, 130.0000000000000000, 0.000000000000000000 ) ) ;
#124 = EDGE_LOOP ( 'NONE', ( #66, #341, #498, #575, #644 ) ) ;
#125 = EDGE_CURVE ( 'NONE', #669, #300, #332, .T. ) ;
#126 = DIRECTION ( 'NONE',  ( 0.000000000000000000, 1.000000000000000000, 0.000000000000000000 ) ) ;
#127 = CARTESIAN_POINT ( 'NONE',  ( 139.5666499726418408, 4.558323688469656965, 2.068121963917716855 ) ) ;
#128 = CARTESIAN_POINT ( 'NONE',  ( -145.6238458219639256, 3.983441693373432457, 3.029353048868984377 ) ) ;
#129 = DIRECTION ( 'NONE',  ( 1.000000000000000000, 0.000000000000000000, 0.000000000000000000 ) ) ;
#130 = ORIENTED_EDGE ( 'NONE', *, *, #329, .F. ) ;
#131 = CARTESIAN_POINT ( 'NONE',  ( -143.0000000000000284, 130.0000000000000000, 0.000000000000000000 ) ) ;
#132 = CARTESIAN_POINT ( 'NONE',  ( 139.2273123436578999, 4.819610040751460822, 1.355549200868892301 ) ) ;
#133 = CARTESIAN_POINT ( 'NONE',  ( 220.0000000000000000, 3.673940397442059868E-16, 3.000000000000000444 ) ) ;
#134 = ORIENTED_EDGE ( 'NONE', *, *, #119, .F. ) ;
#135 = CIRCLE ( 'NONE', #230, 17.00000000000001421 ) ;
#136 = CARTESIAN_POINT ( 'NONE',  ( -143.0000000000000284, 0.000000000000000000, -4.000000000000000000 ) ) ;
#137 = DIRECTION ( 'NONE',  ( 0.000000000000000000, 0.000000000000000000, 1.000000000000000000 ) ) ;
#138 = PRODUCT ( 'Walker_Central_Seat_Tubing', 'Walker_Central_Seat_Tubing', '', ( #535 ) ) ;
#139 = PRODUCT_RELATED_PRODUCT_CATEGORY ( 'part', '', ( #138 ) ) ;
#140 = CARTESIAN_POINT ( 'NONE',  ( 146.7793174477886282, 4.824808753157650010, 1.337166517813337174 ) ) ;
#141 = DIRECTION ( 'NONE',  ( 1.000000000000000000, -0.000000000000000000, -0.000000000000000000 ) ) ;
#142 = ORIENTED_EDGE ( 'NONE', *, *, #225, .T. ) ;
#143 = MECHANICAL_DESIGN_GEOMETRIC_PRESENTATION_REPRESENTATION (  '', ( #539 ), #595 ) ;
#144 = APPLICATION_CONTEXT ( 'automotive_design' ) ;
#145 = CARTESIAN_POINT ( 'NONE',  ( 140.5624085984007934, 3.861902044026039427, -3.181237793647757162 ) ) ;
#146 = FACE_BOUND ( 'NONE', #502, .T. ) ;
#147 = AXIS2_PLACEMENT_3D ( 'NONE', #391, #499, #610 ) ;
#148 = CARTESIAN_POINT ( 'NONE',  ( 145.4397895522208728, 3.863284288719246451, 3.179581540094895686 ) ) ;
#149 = EDGE_CURVE ( 'NONE', #100, #397, #660, .T. ) ;
#150 = CARTESIAN_POINT ( 'NONE',  ( -130.0000000000000000, 143.0000000000000284, 0.000000000000000000 ) ) ;
#151 = CARTESIAN_POINT ( 'NONE',  ( 143.6891334005778447, 3.075510603391131692, 3.942487216777112558 ) ) ;
#152 = MANIFOLD_SOLID_BREP ( 'Mirror1', #462 ) ;
#153 = CARTESIAN_POINT ( 'NONE',  ( -220.0000000000000000, 0.000000000000000000, 0.000000000000000000 ) ) ;
#154 = CARTESIAN_POINT ( 'NONE',  ( 139.2224034771878394, 4.823459661594748482, -1.341931507507402532 ) ) ;
#155 = DIRECTION ( 'NONE',  ( 0.000000000000000000, 0.000000000000000000, 1.000000000000000000 ) ) ;
#156 = EDGE_CURVE ( 'NONE', #441, #21, #135, .T. ) ;
#157 = CARTESIAN_POINT ( 'NONE',  ( -139.8582432318615645, 4.342946469206554916, -2.488635069999090454 ) ) ;
#158 = DIRECTION ( 'NONE',  ( 0.000000000000000000, 0.000000000000000000, -1.000000000000000000 ) ) ;
#159 = CARTESIAN_POINT ( 'NONE',  ( -140.3688661763980576, 3.988241927462422787, 3.023125340592297761 ) ) ;
#160 = ORIENTED_EDGE ( 'NONE', *, *, #338, .F. ) ;
#161 = CARTESIAN_POINT ( 'NONE',  ( -139.4432464588607843, 4.652518143106338044, -1.849363275601701773 ) ) ;
#162 = FACE_OUTER_BOUND ( 'NONE', #208, .T. ) ;
#163 = VERTEX_POINT ( 'NONE', #226 ) ;
#164 = AXIS2_PLACEMENT_3D ( 'NONE', #67, #176, #339 ) ;
#165 = SURFACE_STYLE_USAGE ( .BOTH. , #105 ) ;
#166 = CARTESIAN_POINT ( 'NONE',  ( -130.0000000000000000, 143.0000000000000284, 0.000000000000000000 ) ) ;
#167 = AXIS2_PLACEMENT_3D ( 'NONE', #347, #558, #15 ) ;
#168 = ORIENTED_EDGE ( 'NONE', *, *, #26, .F. ) ;
#169 = AXIS2_PLACEMENT_3D ( 'NONE', #242, #667, #340 ) ;
#170 = CARTESIAN_POINT ( 'NONE',  ( -142.3144058027955339, 3.074704485794595765, -3.943115321505993531 ) ) ;
#171 = CARTESIAN_POINT ( 'NONE',  ( -220.0000000000000000, 0.000000000000000000, 0.000000000000000000 ) ) ;
#172 = ADVANCED_FACE ( 'NONE', ( #690 ), #325, .T. ) ;
#173 = ORIENTED_EDGE ( 'NONE', *, *, #125, .F. ) ;
#174 = CARTESIAN_POINT ( 'NONE',  ( 143.0000000000000284, 2.999999999999999112, 4.000000000000000000 ) ) ;
#175 = EDGE_LOOP ( 'NONE', ( #134, #583, #178, #228, #184 ) ) ;
#176 = DIRECTION ( 'NONE',  ( 0.000000000000000000, -1.000000000000000000, 0.000000000000000000 ) ) ;
#177 = CARTESIAN_POINT ( 'NONE',  ( -143.9511577542305361, 3.144608048352746543, -3.887596227261663540 ) ) ;
#178 = ORIENTED_EDGE ( 'NONE', *, *, #375, .T. ) ;
#179 = EDGE_CURVE ( 'NONE', #669, #598, #654, .T. ) ;
#180 = CIRCLE ( 'NONE', #612, 4.000000000000000000 ) ;
#181 = APPLICATION_CONTEXT ( 'automotive_design' ) ;
#182 = DIRECTION ( 'NONE',  ( 0.000000000000000000, 0.000000000000000000, 1.000000000000000000 ) ) ;
#183 = CARTESIAN_POINT ( 'NONE',  ( 139.8570519331296111, 4.343793847496436378, 2.487347646983551819 ) ) ;
#184 = ORIENTED_EDGE ( 'NONE', *, *, #389, .F. ) ;
#185 = CYLINDRICAL_SURFACE ( 'NONE', #69, 4.000000000000000000 ) ;
#186 = CARTESIAN_POINT ( 'NONE',  ( -144.8024993612655749, 3.493710831686621443, -3.579899869592457318 ) ) ;
#187 = ORIENTED_EDGE ( 'NONE', *, *, #471, .T. ) ;
#188 = CIRCLE ( 'NONE', #200, 4.000000000000000000 ) ;
#189 = CARTESIAN_POINT ( 'NONE',  ( -130.0000000000000000, 143.0000000000000284, 0.000000000000000000 ) ) ;
#190 = DIRECTION ( 'NONE',  ( 0.000000000000000000, 0.000000000000000000, 1.000000000000000000 ) ) ;
#191 = ORIENTED_EDGE ( 'NONE', *, *, #609, .T. ) ;
#192 = CARTESIAN_POINT ( 'NONE',  ( -146.8596616667750823, 4.888335280915361736, -1.085693590945538967 ) ) ;
#193 = ADVANCED_FACE ( 'NONE', ( #335 ), #195, .T. ) ;
#194 = VERTEX_POINT ( 'NONE', #212 ) ;
#195 = TOROIDAL_SURFACE ( 'NONE', #587, 13.00000000000001066, 4.000000000000000000 ) ;
#196 = CARTESIAN_POINT ( 'NONE',  ( 146.4301366585763731, 4.555917683711962596, -2.073186582356659979 ) ) ;
#197 = CARTESIAN_POINT ( 'NONE',  ( 143.0000000000000284, 130.0000000000000000, 0.000000000000000000 ) ) ;
#198 = ORIENTED_EDGE ( 'NONE', *, *, #308, .T. ) ;
#199 = CARTESIAN_POINT ( 'NONE',  ( 140.3711476589862173, 3.986735041704445592, -3.025095999976753269 ) ) ;
#200 = AXIS2_PLACEMENT_3D ( 'NONE', #108, #476, #155 ) ;
#201 = DIRECTION ( 'NONE',  ( -0.000000000000000000, -0.000000000000000000, -1.000000000000000000 ) ) ;
#202 = AXIS2_PLACEMENT_3D ( 'NONE', #534, #283, #443 ) ;
#203 = EDGE_CURVE ( 'NONE', #639, #621, #522, .T. ) ;
#204 = CARTESIAN_POINT ( 'NONE',  ( 146.8611149071447528, 4.889484299416484880, 1.080539375767948673 ) ) ;
#205 = DIRECTION ( 'NONE',  ( 0.000000000000000000, 0.000000000000000000, -1.000000000000000000 ) ) ;
#206 = CIRCLE ( 'NONE', #147, 4.000000000000000000 ) ;
#207 = CARTESIAN_POINT ( 'NONE',  ( 143.0000000000000284, 2.999999999999997780, -4.000000000000000000 ) ) ;
#208 = EDGE_LOOP ( 'NONE', ( #651, #278, #627, #406, #589, #160 ) ) ;
#209 = CARTESIAN_POINT ( 'NONE',  ( 141.9188505727498466, 3.186761540544595928, -3.853346989357958385 ) ) ;
#210 = CARTESIAN_POINT ( 'NONE',  ( 220.0000000000000000, 0.000000000000000000, 0.000000000000000000 ) ) ;
#211 = ADVANCED_FACE ( 'NONE', ( #162 ), #298, .T. ) ;
#212 = CARTESIAN_POINT ( 'NONE',  ( -130.0000000000000000, 143.0000000000000284, 4.000000000000000000 ) ) ;
#213 = CYLINDRICAL_SURFACE ( 'NONE', #350, 4.000000000000000000 ) ;
#214 = PRODUCT_DEFINITION ( 'UNKNOWN', '', #241, #640 ) ;
#215 = TOROIDAL_SURFACE ( 'NONE', #39, 13.00000000000001066, 4.000000000000000000 ) ;
#216 = ORIENTED_EDGE ( 'NONE', *, *, #550, .T. ) ;
#217 = CARTESIAN_POINT ( 'NONE',  ( -139.2298308561627493, 4.817634761235968455, -1.362521524383647931 ) ) ;
#218 = DIRECTION ( 'NONE',  ( -1.000000000000000000, 0.000000000000000000, 0.000000000000000000 ) ) ;
#219 = CARTESIAN_POINT ( 'NONE',  ( -143.0000000000000284, 130.0000000000000000, 0.000000000000000000 ) ) ;
#220 = ORIENTED_EDGE ( 'NONE', *, *, #18, .F. ) ;
#221 = DIRECTION ( 'NONE',  ( 0.000000000000000000, 0.000000000000000000, -1.000000000000000000 ) ) ;
#222 = DIRECTION ( 'NONE',  ( 0.000000000000000000, 0.000000000000000000, -1.000000000000000000 ) ) ;
#223 = FACE_OUTER_BOUND ( 'NONE', #554, .T. ) ;
#224 = ORIENTED_EDGE ( 'NONE', *, *, #40, .F. ) ;
#225 = EDGE_CURVE ( 'NONE', #598, #669, #635, .T. ) ;
#226 = CARTESIAN_POINT ( 'NONE',  ( 139.0000000000000000, 130.0000000000000000, -4.898587196589407898E-16 ) ) ;
#227 = DIRECTION ( 'NONE',  ( 0.000000000000000000, 0.000000000000000000, -1.000000000000000000 ) ) ;
#228 = ORIENTED_EDGE ( 'NONE', *, *, #429, .T. ) ;
#229 = AXIS2_PLACEMENT_3D ( 'NONE', #333, #691, #486 ) ;
#230 = AXIS2_PLACEMENT_3D ( 'NONE', #385, #368, #585 ) ;
#231 = ORIENTED_EDGE ( 'NONE', *, *, #94, .F. ) ;
#232 = CARTESIAN_POINT ( 'NONE',  ( -143.0000000000000284, 2.999999999999997780, -4.000000000000000000 ) ) ;
#233 = EDGE_CURVE ( 'NONE', #671, #603, #390, .T. ) ;
#234 = ORIENTED_EDGE ( 'NONE', *, *, #602, .T. ) ;
#235 = CARTESIAN_POINT ( 'NONE',  ( 130.0000000000000000, 143.0000000000000284, 0.000000000000000000 ) ) ;
#236 = CARTESIAN_POINT ( 'NONE',  ( 141.2006430714806129, 3.492079457158063338, 3.581481892747905516 ) ) ;
#237 = CARTESIAN_POINT ( 'NONE',  ( -143.5529038785561227, 3.039813718713534119, 3.970822848172915087 ) ) ;
#238 = AXIS2_PLACEMENT_3D ( 'NONE', #540, #2, #265 ) ;
#239 = FACE_OUTER_BOUND ( 'NONE', #124, .T. ) ;
#240 = ORIENTED_EDGE ( 'NONE', *, *, #389, .T. ) ;
#241 = PRODUCT_DEFINITION_FORMATION_WITH_SPECIFIED_SOURCE ( 'ANY', '', #138, .NOT_KNOWN. ) ;
#242 = CARTESIAN_POINT ( 'NONE',  ( 143.0000000000000284, 130.0000000000000000, 0.000000000000000000 ) ) ;
#243 = CARTESIAN_POINT ( 'NONE',  ( 140.0219324820492375, 4.225177744017597270, 2.681913617299399810 ) ) ;
#244 = ORIENTED_EDGE ( 'NONE', *, *, #73, .F. ) ;
#245 = EDGE_CURVE ( 'NONE', #397, #510, #188, .T. ) ;
#246 = AXIS2_PLACEMENT_3D ( 'NONE', #171, #544, #439 ) ;
#247 = CARTESIAN_POINT ( 'NONE',  ( 140.9781520871237319, 3.613943148668735450, 3.460272535229981017 ) ) ;
#248 = DIRECTION ( 'NONE',  ( -1.000000000000000000, 0.000000000000000000, 0.000000000000000000 ) ) ;
#249 = EDGE_LOOP ( 'NONE', ( #290, #322, #282, #387, #569, #168 ) ) ;
#250 = CARTESIAN_POINT ( 'NONE',  ( 140.0160865375976869, 4.229294410774254942, -2.675505725806459623 ) ) ;
#251 = CYLINDRICAL_SURFACE ( 'NONE', #330, 4.000000000000000000 ) ;
#252 = CARTESIAN_POINT ( 'NONE',  ( -145.9780675179507625, 4.225177744017597270, 2.681913617299399810 ) ) ;
#253 = CARTESIAN_POINT ( 'NONE',  ( 142.8609743624030273, 3.000000000000000000, -4.000000000000001776 ) ) ;
#254 = DIRECTION ( 'NONE',  ( 0.000000000000000000, 0.000000000000000000, 1.000000000000000000 ) ) ;
#255 = CARTESIAN_POINT ( 'NONE',  ( -146.9995593289760052, 4.999647463337905329, 0.2824383641525317068 ) ) ;
#256 = ADVANCED_FACE ( 'NONE', ( #223 ), #548, .F. ) ;
#257 = CARTESIAN_POINT ( 'NONE',  ( 143.0000000000000284, 2.999999999999997780, -4.000000000000000000 ) ) ;
#258 = DIRECTION ( 'NONE',  ( 0.000000000000000000, -1.000000000000000000, 0.000000000000000000 ) ) ;
#259 = CARTESIAN_POINT ( 'NONE',  ( 146.4406519226488967, 4.563831283500352498, 2.056062497548426737 ) ) ;
#260 = FACE_OUTER_BOUND ( 'NONE', #455, .T. ) ;
#261 = AXIS2_PLACEMENT_3D ( 'NONE', #547, #218, #112 ) ;
#262 = VERTEX_POINT ( 'NONE', #491 ) ;
#263 = UNCERTAINTY_MEASURE_WITH_UNIT (LENGTH_MEASURE( 1.000000000000000082E-05 ), #373, 'distance_accuracy_value', 'NONE');
#264 = CARTESIAN_POINT ( 'NONE',  ( 143.0000000000000284, 130.0000000000000000, -4.000000000000000000 ) ) ;
#265 = DIRECTION ( 'NONE',  ( -1.000000000000000000, 0.000000000000000000, 0.000000000000000000 ) ) ;
#266 = CARTESIAN_POINT ( 'NONE',  ( 220.0000000000000000, 0.000000000000000000, -3.000000000000000444 ) ) ;
#267 = FACE_OUTER_BOUND ( 'NONE', #70, .T. ) ;
#268 = CARTESIAN_POINT ( 'NONE',  ( -228.4852813742386104, 0.000000000000000000, 0.000000000000000000 ) ) ;
#269 = VECTOR ( 'NONE', #648, 1000.000000000000000 ) ;
#270 = ORIENTED_EDGE ( 'NONE', *, *, #225, .F. ) ;
#271 =( NAMED_UNIT ( * ) SI_UNIT ( $, .STERADIAN. ) SOLID_ANGLE_UNIT ( ) );
#272 = CARTESIAN_POINT ( 'NONE',  ( 220.0000000000000000, 0.000000000000000000, -4.999999999999999112 ) ) ;
#273 = CIRCLE ( 'NONE', #359, 4.000000000000000000 ) ;
#274 = CARTESIAN_POINT ( 'NONE',  ( -140.9744496037695285, 3.615971078978434505, 3.458244846966264774 ) ) ;
#275 = FILL_AREA_STYLE_COLOUR ( '', #448 ) ;
#276 = DIRECTION ( 'NONE',  ( 1.000000000000000000, 0.000000000000000000, 0.000000000000000000 ) ) ;
#277 = DIRECTION ( 'NONE',  ( 1.000000000000000000, -0.000000000000000000, -0.000000000000000000 ) ) ;
#278 = ORIENTED_EDGE ( 'NONE', *, *, #149, .T. ) ;
#279 = EDGE_CURVE ( 'NONE', #100, #563, #421, .T. ) ;
#280 = CARTESIAN_POINT ( 'NONE',  ( -220.0000000000000000, 0.000000000000000000, -3.000000000000000444 ) ) ;
#281 = DIRECTION ( 'NONE',  ( 0.000000000000000000, 0.000000000000000000, -1.000000000000000000 ) ) ;
#282 = ORIENTED_EDGE ( 'NONE', *, *, #418, .T. ) ;
#283 = DIRECTION ( 'NONE',  ( -0.000000000000000000, -0.000000000000000000, -1.000000000000000000 ) ) ;
#284 = DIRECTION ( 'NONE',  ( 0.000000000000000000, 0.000000000000000000, 1.000000000000000000 ) ) ;
#285 = VERTEX_POINT ( 'NONE', #45 ) ;
#286 = CARTESIAN_POINT ( 'NONE',  ( -145.9839134624023700, 4.229294410774254942, -2.675505725806459623 ) ) ;
#287 = ORIENTED_EDGE ( 'NONE', *, *, #493, .F. ) ;
#288 = DIRECTION ( 'NONE',  ( 0.000000000000000000, 0.000000000000000000, -1.000000000000000000 ) ) ;
#289 = CARTESIAN_POINT ( 'NONE',  ( -220.0000000000000000, 6.123233995736765296E-16, 4.999999999999999112 ) ) ;
#290 = ORIENTED_EDGE ( 'NONE', *, *, #429, .F. ) ;
#291 = AXIS2_PLACEMENT_3D ( 'NONE', #123, #497, #190 ) ;
#292 = CARTESIAN_POINT ( 'NONE',  ( -144.0811494272501818, 3.186761540544595928, -3.853346989357958385 ) ) ;
#293 = CARTESIAN_POINT ( 'NONE',  ( -146.4333500273582160, 4.558323688469656965, 2.068121963917716855 ) ) ;
#294 = CIRCLE ( 'NONE', #291, 4.000000000000000000 ) ;
#295 = AXIS2_PLACEMENT_3D ( 'NONE', #312, #470, #205 ) ;
#296 = APPLICATION_PROTOCOL_DEFINITION ( 'draft international standard', 'automotive_design', 1998, #181 ) ;
#297 = DIRECTION ( 'NONE',  ( 1.000000000000000000, -0.000000000000000000, -0.000000000000000000 ) ) ;
#298 = TOROIDAL_SURFACE ( 'NONE', #683, 13.00000000000001066, 4.000000000000000000 ) ;
#299 = CARTESIAN_POINT ( 'NONE',  ( 141.9176400099671866, 3.179035686113086179, 3.860263416202392328 ) ) ;
#300 = VERTEX_POINT ( 'NONE', #266 ) ;
#301 = ADVANCED_FACE ( 'NONE', ( #55 ), #487, .T. ) ;
#302 = DIRECTION ( 'NONE',  ( 1.000000000000000000, 0.000000000000000000, 0.000000000000000000 ) ) ;
#303 = CARTESIAN_POINT ( 'NONE',  ( 141.1975006387344820, 3.493710831686621443, -3.579899869592457318 ) ) ;
#304 = CARTESIAN_POINT ( 'NONE',  ( -130.0000000000000000, 143.0000000000000284, 0.000000000000000000 ) ) ;
#305 = CARTESIAN_POINT ( 'NONE',  ( -144.7993569285195576, 3.492079457158063338, 3.581481892747905516 ) ) ;
#306 = AXIS2_PLACEMENT_3D ( 'NONE', #35, #248, #460 ) ;
#307 = CARTESIAN_POINT ( 'NONE',  ( 139.4338028268355458, 4.659752128145367323, -1.831189062362903686 ) ) ;
#308 = EDGE_CURVE ( 'NONE', #603, #671, #317, .T. ) ;
#309 = DIRECTION ( 'NONE',  ( 0.000000000000000000, 0.000000000000000000, 1.000000000000000000 ) ) ;
#310 = CARTESIAN_POINT ( 'NONE',  ( -146.7726876563421854, 4.819610040751460822, 1.355549200868892301 ) ) ;
#311 = CARTESIAN_POINT ( 'NONE',  ( 146.9660420320877563, 4.972868389487000940, 0.5381385403827051439 ) ) ;
#312 = CARTESIAN_POINT ( 'NONE',  ( 220.0000000000000000, 0.000000000000000000, 0.000000000000000000 ) ) ;
#313 = CARTESIAN_POINT ( 'NONE',  ( 144.3327277633837866, 3.280656057263071190, 3.773730985316248621 ) ) ;
#314 = FACE_OUTER_BOUND ( 'NONE', #331, .T. ) ;
#315 = CARTESIAN_POINT ( 'NONE',  ( 143.2812081121081746, 3.010098437170559915, 3.992476870730842453 ) ) ;
#316 = DIRECTION ( 'NONE',  ( -0.000000000000000000, 0.000000000000000000, 1.000000000000000000 ) ) ;
#317 = CIRCLE ( 'NONE', #404, 4.999999999999999112 ) ;
#318 = ADVANCED_FACE ( 'NONE', ( #588 ), #321, .F. ) ;
#319 =( NAMED_UNIT ( * ) PLANE_ANGLE_UNIT ( ) SI_UNIT ( $, .RADIAN. ) );
#320 = APPLICATION_PROTOCOL_DEFINITION ( 'draft international standard', 'automotive_design', 1998, #144 ) ;
#321 = CYLINDRICAL_SURFACE ( 'NONE', #10, 3.000000000000000444 ) ;
#322 = ORIENTED_EDGE ( 'NONE', *, *, #156, .T. ) ;
#323 = CARTESIAN_POINT ( 'NONE',  ( -142.8610801185086530, 2.999999999999999112, -4.000000000000000888 ) ) ;
#324 = CIRCLE ( 'NONE', #164, 4.000000000000000000 ) ;
#325 = CYLINDRICAL_SURFACE ( 'NONE', #672, 4.999999999999999112 ) ;
#326 = DIRECTION ( 'NONE',  ( 1.000000000000000000, 0.000000000000000000, 0.000000000000000000 ) ) ;
#327 = VECTOR ( 'NONE', #302, 1000.000000000000000 ) ;
#328 = CARTESIAN_POINT ( 'NONE',  ( -130.0000000000000000, 130.0000000000000000, 0.000000000000000000 ) ) ;
#329 = EDGE_CURVE ( 'NONE', #676, #488, #104, .T. ) ;
#330 = AXIS2_PLACEMENT_3D ( 'NONE', #84, #578, #681 ) ;
#331 = EDGE_LOOP ( 'NONE', ( #402, #337 ) ) ;
#332 = LINE ( 'NONE', #111, #269 ) ;
#333 = CARTESIAN_POINT ( 'NONE',  ( 130.0000000000000000, 130.0000000000000000, -4.898587196589412829E-16 ) ) ;
#334 = VERTEX_POINT ( 'NONE', #174 ) ;
#335 = FACE_OUTER_BOUND ( 'NONE', #249, .T. ) ;
#336 = CARTESIAN_POINT ( 'NONE',  ( -140.0138493060231042, 4.230875138952428394, 2.673023766354265973 ) ) ;
#337 = ORIENTED_EDGE ( 'NONE', *, *, #471, .F. ) ;
#338 = EDGE_CURVE ( 'NONE', #563, #445, #324, .T. ) ;
#339 = DIRECTION ( 'NONE',  ( 0.000000000000000000, 0.000000000000000000, 1.000000000000000000 ) ) ;
#340 = DIRECTION ( 'NONE',  ( 0.000000000000000000, 0.000000000000000000, 1.000000000000000000 ) ) ;
#341 = ORIENTED_EDGE ( 'NONE', *, *, #82, .T. ) ;
#342 = CARTESIAN_POINT ( 'NONE',  ( -130.0000000000000000, 147.0000000000000284, 0.000000000000000000 ) ) ;
#343 = CARTESIAN_POINT ( 'NONE',  ( -145.0238060958230335, 3.615000230980967011, -3.459239024322096956 ) ) ;
#344 = ORIENTED_EDGE ( 'NONE', *, *, #156, .F. ) ;
#345 = CARTESIAN_POINT ( 'NONE',  ( 142.4470961214439626, 3.039813718713534119, 3.970822848172915087 ) ) ;
#346 = CARTESIAN_POINT ( 'NONE',  ( -146.1429480668704741, 4.343793847496436378, 2.487347646983551819 ) ) ;
#347 = CARTESIAN_POINT ( 'NONE',  ( -143.0000000000000284, 0.000000000000000000, 0.000000000000000000 ) ) ;
#348 = ADVANCED_FACE ( 'NONE', ( #11 ), #185, .T. ) ;
#349 = EDGE_LOOP ( 'NONE', ( #388, #686 ) ) ;
#350 = AXIS2_PLACEMENT_3D ( 'NONE', #58, #543, #490 ) ;
#351 = DIRECTION ( 'NONE',  ( 0.000000000000000000, 1.000000000000000000, 0.000000000000000000 ) ) ;
#352 = CARTESIAN_POINT ( 'NONE',  ( -145.4375914015992350, 3.861902044026039427, -3.181237793647757162 ) ) ;
#353 = DIRECTION ( 'NONE',  ( 1.000000000000000000, -0.000000000000000000, -0.000000000000000000 ) ) ;
#354 = ORIENTED_EDGE ( 'NONE', *, *, #18, .T. ) ;
#355 = CARTESIAN_POINT ( 'NONE',  ( -146.7775965228122175, 4.823459661594748482, -1.341931507507402532 ) ) ;
#356 = CARTESIAN_POINT ( 'NONE',  ( -144.3312091357253166, 3.275523063868200691, 3.780552888302707082 ) ) ;
#357 = CARTESIAN_POINT ( 'NONE',  ( 145.9861506939770379, 4.230875138952428394, 2.673023766354265973 ) ) ;
#358 = EDGE_LOOP ( 'NONE', ( #244, #187, #216, #608 ) ) ;
#359 = AXIS2_PLACEMENT_3D ( 'NONE', #78, #513, #137 ) ;
#360 = CIRCLE ( 'NONE', #403, 4.000000000000000000 ) ;
#361 = CARTESIAN_POINT ( 'NONE',  ( 143.6855941972044377, 3.074704485794595765, -3.943115321505993531 ) ) ;
#362 = FACE_OUTER_BOUND ( 'NONE', #56, .T. ) ;
#363 = CARTESIAN_POINT ( 'NONE',  ( 145.0255503962304999, 3.615971078978434505, 3.458244846966264774 ) ) ;
#364 = DIRECTION ( 'NONE',  ( 1.000000000000000000, 0.000000000000000000, 0.000000000000000000 ) ) ;
#365 = EDGE_LOOP ( 'NONE', ( #619, #354, #44, #655, #528, #38 ) ) ;
#366 = CARTESIAN_POINT ( 'NONE',  ( 146.8543787864520027, 4.884160922045889031, -1.103757370740694688 ) ) ;
#367 = ADVANCED_FACE ( 'NONE', ( #503 ), #446, .T. ) ;
#368 = DIRECTION ( 'NONE',  ( -0.000000000000000000, 0.000000000000000000, 1.000000000000000000 ) ) ;
#369 = DIRECTION ( 'NONE',  ( 0.000000000000000000, 0.000000000000000000, 1.000000000000000000 ) ) ;
#370 = DIRECTION ( 'NONE',  ( 1.000000000000000000, -0.000000000000000000, -0.000000000000000000 ) ) ;
#371 = EDGE_LOOP ( 'NONE', ( #701, #142, #46, #484 ) ) ;
#372 = CARTESIAN_POINT ( 'NONE',  ( -139.1456212135479689, 4.884160922045889031, -1.103757370740694688 ) ) ;
#373 =( LENGTH_UNIT ( ) NAMED_UNIT ( * ) SI_UNIT ( .MILLI., .METRE. ) );
#374 = DIRECTION ( 'NONE',  ( 0.000000000000000000, 0.000000000000000000, -1.000000000000000000 ) ) ;
#375 = EDGE_CURVE ( 'NONE', #114, #441, #206, .T. ) ;
#376 = CARTESIAN_POINT ( 'NONE',  ( -139.0008974236073129, 4.999282062402293114, -0.2890033169715773842 ) ) ;
#377 = DIRECTION ( 'NONE',  ( 0.000000000000000000, 0.000000000000000000, 1.000000000000000000 ) ) ;
#378 = DIRECTION ( 'NONE',  ( 0.000000000000000000, -1.000000000000000000, 0.000000000000000000 ) ) ;
#379 = AXIS2_PLACEMENT_3D ( 'NONE', #219, #378, #382 ) ;
#380 = VECTOR ( 'NONE', #473, 1000.000000000000000 ) ;
#381 = ORIENTED_EDGE ( 'NONE', *, *, #26, .T. ) ;
#382 = DIRECTION ( 'NONE',  ( 0.000000000000000000, 0.000000000000000000, 1.000000000000000000 ) ) ;
#383 = AXIS2_PLACEMENT_3D ( 'NONE', #520, #32, #574 ) ;
#384 = ORIENTED_EDGE ( 'NONE', *, *, #453, .T. ) ;
#385 = CARTESIAN_POINT ( 'NONE',  ( 130.0000000000000000, 130.0000000000000000, 0.000000000000000000 ) ) ;
#386 = CARTESIAN_POINT ( 'NONE',  ( -139.0062821569997027, 4.994968751491009051, 0.2632494623595949546 ) ) ;
#387 = ORIENTED_EDGE ( 'NONE', *, *, #329, .T. ) ;
#388 = ORIENTED_EDGE ( 'NONE', *, *, #40, .T. ) ;
#389 = EDGE_CURVE ( 'NONE', #334, #689, #122, .T. ) ;
#390 = CIRCLE ( 'NONE', #553, 4.999999999999999112 ) ;
#391 = CARTESIAN_POINT ( 'NONE',  ( 143.0000000000000284, 130.0000000000000000, 0.000000000000000000 ) ) ;
#392 = CYLINDRICAL_SURFACE ( 'NONE', #167, 4.000000000000000000 ) ;
#393 = EDGE_LOOP ( 'NONE', ( #220, #537, #287, #234, #566, #130 ) ) ;
#394 = AXIS2_PLACEMENT_3D ( 'NONE', #197, #258, #254 ) ;
#395 = CARTESIAN_POINT ( 'NONE',  ( -143.0000000000000284, 0.000000000000000000, 4.000000000000000000 ) ) ;
#396 = CARTESIAN_POINT ( 'NONE',  ( -143.2799892715599697, 3.009987354310647234, -3.992560122106960208 ) ) ;
#397 = VERTEX_POINT ( 'NONE', #342 ) ;
#398 = EDGE_CURVE ( 'NONE', #445, #109, #6, .T. ) ;
#399 = CARTESIAN_POINT ( 'NONE',  ( -143.2809562747862628, 2.999999999999998668, 4.000000000000000888 ) ) ;
#400 = LINE ( 'NONE', #395, #29 ) ;
#401 = CARTESIAN_POINT ( 'NONE',  ( 139.0304652012063968, 4.975542272888267448, 0.5631857041068673020 ) ) ;
#402 = ORIENTED_EDGE ( 'NONE', *, *, #698, .F. ) ;
#403 = AXIS2_PLACEMENT_3D ( 'NONE', #564, #507, #19 ) ;
#404 = AXIS2_PLACEMENT_3D ( 'NONE', #210, #370, #227 ) ;
#405 = CARTESIAN_POINT ( 'NONE',  ( 139.0004406710240232, 4.999647463337905329, 0.2824383641525317068 ) ) ;
#406 = ORIENTED_EDGE ( 'NONE', *, *, #493, .T. ) ;
#407 = EDGE_CURVE ( 'NONE', #621, #109, #400, .T. ) ;
#408 = CARTESIAN_POINT ( 'NONE',  ( -143.0000000000000284, 130.0000000000000000, 4.000000000000000000 ) ) ;
#409 = CARTESIAN_POINT ( 'NONE',  ( -220.0000000000000000, 0.000000000000000000, -4.999999999999999112 ) ) ;
#410 = ORIENTED_EDGE ( 'NONE', *, *, #501, .T. ) ;
#411 = VECTOR ( 'NONE', #616, 1000.000000000000000 ) ;
#412 = CARTESIAN_POINT ( 'NONE',  ( 143.5493191560559012, 3.046882745980567631, -3.964473710582922195 ) ) ;
#413 = CARTESIAN_POINT ( 'NONE',  ( -220.0000000000000000, 0.000000000000000000, 0.000000000000000000 ) ) ;
#414 = AXIS2_PLACEMENT_3D ( 'NONE', #427, #642, #158 ) ;
#415 = CARTESIAN_POINT ( 'NONE',  ( 146.1506168963135224, 4.349351349197411842, 2.477719075947915073 ) ) ;
#416 = CARTESIAN_POINT ( 'NONE',  ( 130.0000000000000000, 143.0000000000000284, 0.000000000000000000 ) ) ;
#417 = CARTESIAN_POINT ( 'NONE',  ( 144.7995263436813218, 3.492094761346529630, -3.581496904505105938 ) ) ;
#418 = EDGE_CURVE ( 'NONE', #21, #676, #360, .T. ) ;
#419 = CARTESIAN_POINT ( 'NONE',  ( -139.0000000000000000, 130.0000000000000000, 4.898587196589407898E-16 ) ) ;
#420 = CARTESIAN_POINT ( 'NONE',  ( 145.4307023524710871, 3.857613648551334595, -3.186316063011602306 ) ) ;
#421 = CIRCLE ( 'NONE', #379, 4.000000000000000000 ) ;
#422 =( NAMED_UNIT ( * ) PLANE_ANGLE_UNIT ( ) SI_UNIT ( $, .RADIAN. ) );
#423 = CARTESIAN_POINT ( 'NONE',  ( -139.5593480773511601, 4.563831283500352498, 2.056062497548426737 ) ) ;
#424 = ORIENTED_EDGE ( 'NONE', *, *, #407, .T. ) ;
#425 = CARTESIAN_POINT ( 'NONE',  ( -143.0000000000000284, 2.999999999999997780, -4.000000000000000000 ) ) ;
#426 = CIRCLE ( 'NONE', #306, 3.000000000000000444 ) ;
#427 = CARTESIAN_POINT ( 'NONE',  ( -220.0000000000000000, 0.000000000000000000, 0.000000000000000000 ) ) ;
#428 = CARTESIAN_POINT ( 'NONE',  ( -142.3108665994222122, 3.075510603391131692, 3.942487216777112558 ) ) ;
#429 = EDGE_CURVE ( 'NONE', #441, #689, #97, .T. ) ;
#430 = CARTESIAN_POINT ( 'NONE',  ( -139.0314049329343504, 4.974790336217940201, -0.5698853889837453002 ) ) ;
#431 = CARTESIAN_POINT ( 'NONE',  ( -130.0000000000000000, 143.0000000000000284, 0.000000000000000000 ) ) ;
#432 = CARTESIAN_POINT ( 'NONE',  ( -141.9173937340179918, 3.187252296556799092, 3.852943357186329187 ) ) ;
#433 = ORIENTED_EDGE ( 'NONE', *, *, #119, .T. ) ;
#434 = CARTESIAN_POINT ( 'NONE',  ( -138.9995815297928061, 5.000334775543700871, 0.1254517702456619810 ) ) ;
#435 = CARTESIAN_POINT ( 'NONE',  ( -220.0000000000000000, 3.673940397442059868E-16, 3.000000000000000444 ) ) ;
#436 = CARTESIAN_POINT ( 'NONE',  ( -139.2206825522114286, 4.824808753157650010, 1.337166517813337174 ) ) ;
#437 = ORIENTED_EDGE ( 'NONE', *, *, #628, .T. ) ;
#438 = DIRECTION ( 'NONE',  ( -1.000000000000000000, -0.000000000000000000, -0.000000000000000000 ) ) ;
#439 = DIRECTION ( 'NONE',  ( 0.000000000000000000, 0.000000000000000000, -1.000000000000000000 ) ) ;
#440 = CIRCLE ( 'NONE', #472, 4.000000000000000000 ) ;
#441 = VERTEX_POINT ( 'NONE', #613 ) ;
#442 = AXIS2_PLACEMENT_3D ( 'NONE', #57, #438, #480 ) ;
#443 = DIRECTION ( 'NONE',  ( -1.000000000000000000, 0.000000000000000000, 0.000000000000000000 ) ) ;
#444 = ADVANCED_FACE ( 'NONE', ( #260 ), #251, .T. ) ;
#445 = VERTEX_POINT ( 'NONE', #419 ) ;
#446 = CYLINDRICAL_SURFACE ( 'NONE', #567, 4.000000000000000000 ) ;
#447 = ORIENTED_EDGE ( 'NONE', *, *, #73, .T. ) ;
#448 = COLOUR_RGB ( '',0.7921568627450980005, 0.8196078431372548767, 0.9333333333333333481 ) ;
#449 = DIRECTION ( 'NONE',  ( 0.000000000000000000, -1.000000000000000000, 0.000000000000000000 ) ) ;
#450 = CARTESIAN_POINT ( 'NONE',  ( 140.3761541780361028, 3.983441693373432457, 3.029353048868984377 ) ) ;
#451 = VERTEX_POINT ( 'NONE', #133 ) ;
#452 = CIRCLE ( 'NONE', #682, 4.000000000000000000 ) ;
#453 = EDGE_CURVE ( 'NONE', #598, #451, #28, .T. ) ;
#454 = CARTESIAN_POINT ( 'NONE',  ( -220.0000000000000000, 6.123233995736765296E-16, 4.999999999999999112 ) ) ;
#455 = EDGE_LOOP ( 'NONE', ( #559, #231, #240, #381, #606 ) ) ;
#456 = CARTESIAN_POINT ( 'NONE',  ( 139.4399061297470723, 4.655076493207022104, 1.842937172906334187 ) ) ;
#457 = ORIENTED_EDGE ( 'NONE', *, *, #398, .F. ) ;
#458 = CARTESIAN_POINT ( 'NONE',  ( 139.1403383332249462, 4.888335280915361736, -1.085693590945538967 ) ) ;
#459 = EDGE_CURVE ( 'NONE', #488, #262, #52, .T. ) ;
#460 = DIRECTION ( 'NONE',  ( 0.000000000000000000, 0.000000000000000000, 1.000000000000000000 ) ) ;
#461 = EDGE_LOOP ( 'NONE', ( #664, #646, #457, #697, #118, #191 ) ) ;
#462 = CLOSED_SHELL ( 'NONE', ( #193, #211, #647, #256, #367, #51, #666, #172, #525, #301, #556, #348, #318, #570, #657, #444 ) ) ;
#463 = CARTESIAN_POINT ( 'NONE',  ( 142.7200107284401156, 3.009987354310647234, -3.992560122106960208 ) ) ;
#464 = DIRECTION ( 'NONE',  ( 1.000000000000000000, 0.000000000000000000, 0.000000000000000000 ) ) ;
#465 = ORIENTED_EDGE ( 'NONE', *, *, #279, .T. ) ;
#466 = CARTESIAN_POINT ( 'NONE',  ( 144.0817471643162833, 3.178875589639553745, -3.860390451785502997 ) ) ;
#467 = CARTESIAN_POINT ( 'NONE',  ( -143.0000000000000284, 130.0000000000000000, -4.000000000000000000 ) ) ;
#468 = CARTESIAN_POINT ( 'NONE',  ( -146.5600938702529845, 4.655076493207022104, 1.842937172906334187 ) ) ;
#469 = CARTESIAN_POINT ( 'NONE',  ( 146.9448300263898659, 4.955945523724328616, 0.6762096421107093303 ) ) ;
#470 = DIRECTION ( 'NONE',  ( -1.000000000000000000, 0.000000000000000000, 0.000000000000000000 ) ) ;
#471 = EDGE_CURVE ( 'NONE', #85, #285, #495, .T. ) ;
#472 = AXIS2_PLACEMENT_3D ( 'NONE', #431, #475, #377 ) ;
#473 = DIRECTION ( 'NONE',  ( 0.000000000000000000, 1.000000000000000000, 0.000000000000000000 ) ) ;
#474 = CARTESIAN_POINT ( 'NONE',  ( 145.9786361574823559, 4.225548396165789811, -2.681447716711859108 ) ) ;
#475 = DIRECTION ( 'NONE',  ( -1.000000000000000000, 0.000000000000000000, 0.000000000000000000 ) ) ;
#476 = DIRECTION ( 'NONE',  ( -1.000000000000000000, 0.000000000000000000, 0.000000000000000000 ) ) ;
#477 = CARTESIAN_POINT ( 'NONE',  ( 130.0000000000000000, 130.0000000000000000, 0.000000000000000000 ) ) ;
#478 = CARTESIAN_POINT ( 'NONE',  ( 220.0000000000000000, 0.000000000000000000, 0.000000000000000000 ) ) ;
#479 = ORIENTED_EDGE ( 'NONE', *, *, #179, .F. ) ;
#480 = DIRECTION ( 'NONE',  ( 0.000000000000000000, 0.000000000000000000, -1.000000000000000000 ) ) ;
#481 = AXIS2_PLACEMENT_3D ( 'NONE', #679, #201, #630 ) ;
#482 = DIRECTION ( 'NONE',  ( 1.000000000000000000, 0.000000000000000000, 0.000000000000000000 ) ) ;
#483 = CARTESIAN_POINT ( 'NONE',  ( -228.4852813742386104, 0.000000000000000000, 0.000000000000000000 ) ) ;
#484 = ORIENTED_EDGE ( 'NONE', *, *, #628, .F. ) ;
#485 = CARTESIAN_POINT ( 'NONE',  ( -140.3782249776304241, 3.982045976329169346, -3.031291960237284311 ) ) ;
#486 = DIRECTION ( 'NONE',  ( 1.000000000000000000, 0.000000000000000000, 0.000000000000000000 ) ) ;
#487 = CYLINDRICAL_SURFACE ( 'NONE', #41, 4.000000000000000000 ) ;
#488 = VERTEX_POINT ( 'NONE', #685 ) ;
#489 = CARTESIAN_POINT ( 'NONE',  ( 130.0000000000000000, 130.0000000000000000, 0.000000000000000000 ) ) ;
#490 = DIRECTION ( 'NONE',  ( 0.000000000000000000, 0.000000000000000000, 1.000000000000000000 ) ) ;
#491 = CARTESIAN_POINT ( 'NONE',  ( 130.0000000000000000, 143.0000000000000284, -4.000000000000000000 ) ) ;
#492 = ORIENTED_EDGE ( 'NONE', *, *, #584, .T. ) ;
#493 = EDGE_CURVE ( 'NONE', #510, #4, #110, .T. ) ;
#494 = SURFACE_STYLE_FILL_AREA ( #656 ) ;
#495 = CIRCLE ( 'NONE', #16, 4.999999999999999112 ) ;
#496 = ORIENTED_EDGE ( 'NONE', *, *, #698, .T. ) ;
#497 = DIRECTION ( 'NONE',  ( 0.000000000000000000, -1.000000000000000000, 0.000000000000000000 ) ) ;
#498 = ORIENTED_EDGE ( 'NONE', *, *, #338, .T. ) ;
#499 = DIRECTION ( 'NONE',  ( 0.000000000000000000, -1.000000000000000000, 0.000000000000000000 ) ) ;
#500 = CARTESIAN_POINT ( 'NONE',  ( 142.7190437252138224, 2.999999999999998668, 4.000000000000000888 ) ) ;
#501 = EDGE_CURVE ( 'NONE', #300, #451, #426, .T. ) ;
#502 = EDGE_LOOP ( 'NONE', ( #410, #437 ) ) ;
#503 = FACE_OUTER_BOUND ( 'NONE', #365, .T. ) ;
#504 = CARTESIAN_POINT ( 'NONE',  ( -146.9719744342528713, 4.977490787839504272, -0.5469349586879214131 ) ) ;
#505 = CARTESIAN_POINT ( 'NONE',  ( -143.0000000000000284, 2.999999999999999112, 4.000000000000000000 ) ) ;
#506 = AXIS2_PLACEMENT_3D ( 'NONE', #150, #568, #23 ) ;
#507 = DIRECTION ( 'NONE',  ( 1.000000000000000000, -0.000000000000000000, -0.000000000000000000 ) ) ;
#508 = CARTESIAN_POINT ( 'NONE',  ( -146.5661971731644542, 4.659752128145367323, -1.831189062362903686 ) ) ;
#509 = AXIS2_PLACEMENT_3D ( 'NONE', #582, #369, #586 ) ;
#510 = VERTEX_POINT ( 'NONE', #670 ) ;
#511 = CARTESIAN_POINT ( 'NONE',  ( 139.0280255657471571, 4.977490787839504272, -0.5469349586879214131 ) ) ;
#512 = DIRECTION ( 'NONE',  ( 0.000000000000000000, 0.000000000000000000, -1.000000000000000000 ) ) ;
#513 = DIRECTION ( 'NONE',  ( 0.000000000000000000, -1.000000000000000000, 0.000000000000000000 ) ) ;
#514 = EDGE_CURVE ( 'NONE', #4, #194, #180, .T. ) ;
#515 = LINE ( 'NONE', #523, #380 ) ;
#516 = DIRECTION ( 'NONE',  ( 0.000000000000000000, 0.000000000000000000, 1.000000000000000000 ) ) ;
#517 = CARTESIAN_POINT ( 'NONE',  ( -145.0218479128763533, 3.613943148668735450, 3.460272535229981017 ) ) ;
#518 = TOROIDAL_SURFACE ( 'NONE', #481, 13.00000000000001066, 4.000000000000000000 ) ;
#519 = CARTESIAN_POINT ( 'NONE',  ( 140.9761939041770233, 3.615000230980967011, -3.459239024322096956 ) ) ;
#520 = CARTESIAN_POINT ( 'NONE',  ( -220.0000000000000000, 0.000000000000000000, 0.000000000000000000 ) ) ;
#521 = CARTESIAN_POINT ( 'NONE',  ( -146.9695347987936884, 4.975542272888267448, 0.5631857041068673020 ) ) ;
#522 = B_SPLINE_CURVE_WITH_KNOTS ( 'NONE', 3,
 ( #425, #323, #538, #594, #170, #53, #604, #116, #551, #48, #485, #641, #157, #695, #161, #217, #372, #430, #376, #434, #386, #700, #59, #113, #436, #536, #423, #653, #336, #159, #592, #274, #541, #597, #638, #432, #650, #428, #605, #117, #50, #692 ),
 .UNSPECIFIED., .F., .F.,
 ( 4, 2, 2, 2, 2, 2, 2, 2, 2, 2, 2, 2, 2, 2, 2, 2, 2, 2, 2, 2, 4 ),
 ( 0.01326659922450029901, 0.01368086508040539800, 0.01409513093631049700, 0.01492366264812077133, 0.01575219435993104738, 0.01658072607174132171, 0.01740925778355159603, 0.01823778949536187383, 0.01906632120717214815, 0.01989485291898242247, 0.02030911877488755790, 0.02072338463079269680, 0.02155191634260297112, 0.02238044805441324545, 0.02320897976622351977, 0.02403751147803379409, 0.02486604318984406842, 0.02528030904574920384, 0.02569457490165434274, 0.02610884075755948164, 0.02652310661346461707 ),
 .UNSPECIFIED. ) ;
#523 = CARTESIAN_POINT ( 'NONE',  ( 143.0000000000000284, 0.000000000000000000, -4.000000000000000000 ) ) ;
#524 = FACE_BOUND ( 'NONE', #658, .T. ) ;
#525 = ADVANCED_FACE ( 'NONE', ( #524, #314 ), #675, .F. ) ;
#526 = CARTESIAN_POINT ( 'NONE',  ( 144.0826062659821787, 3.187252296556799092, 3.852943357186329187 ) ) ;
#527 = CARTESIAN_POINT ( 'NONE',  ( 143.0000000000000284, 2.999999999999997780, -4.000000000000000000 ) ) ;
#528 = ORIENTED_EDGE ( 'NONE', *, *, #602, .F. ) ;
#529 = VECTOR ( 'NONE', #141, 1000.000000000000000 ) ;
#530 = UNCERTAINTY_MEASURE_WITH_UNIT (LENGTH_MEASURE( 1.000000000000000082E-05 ), #5, 'distance_accuracy_value', 'NONE');
#531 = CARTESIAN_POINT ( 'NONE',  ( 146.9937178430002973, 4.994968751491009051, 0.2632494623595949546 ) ) ;
#532 = CYLINDRICAL_SURFACE ( 'NONE', #663, 4.999999999999999112 ) ;
#533 = EDGE_CURVE ( 'NONE', #163, #114, #121, .T. ) ;
#534 = CARTESIAN_POINT ( 'NONE',  ( -130.0000000000000000, 130.0000000000000000, 0.000000000000000000 ) ) ;
#535 = PRODUCT_CONTEXT ( 'NONE', #144, 'mechanical' ) ;
#536 = CARTESIAN_POINT ( 'NONE',  ( -139.4318725259818450, 4.661230825032204095, 1.827490354742624445 ) ) ;
#537 = ORIENTED_EDGE ( 'NONE', *, *, #514, .F. ) ;
#538 = CARTESIAN_POINT ( 'NONE',  ( -142.7234661389727535, 3.009686679513140284, -3.992785038142971032 ) ) ;
#539 = STYLED_ITEM ( 'NONE', ( #102 ), #152 ) ;
#540 = CARTESIAN_POINT ( 'NONE',  ( -130.0000000000000000, 130.0000000000000000, 4.898587196589412829E-16 ) ) ;
#541 = CARTESIAN_POINT ( 'NONE',  ( -141.1955514166751868, 3.494715146486613300, 3.578928808610443379 ) ) ;
#542 = CIRCLE ( 'NONE', #238, 9.000000000000007105 ) ;
#543 = DIRECTION ( 'NONE',  ( 0.000000000000000000, 1.000000000000000000, 0.000000000000000000 ) ) ;
#544 = DIRECTION ( 'NONE',  ( -1.000000000000000000, -0.000000000000000000, -0.000000000000000000 ) ) ;
#545 = VERTEX_POINT ( 'NONE', #527 ) ;
#546 = DIRECTION ( 'NONE',  ( 1.000000000000000000, 0.000000000000000000, 0.000000000000000000 ) ) ;
#547 = CARTESIAN_POINT ( 'NONE',  ( 220.0000000000000000, 0.000000000000000000, 0.000000000000000000 ) ) ;
#548 = CYLINDRICAL_SURFACE ( 'NONE', #562, 3.000000000000000444 ) ;
#549 = ORIENTED_EDGE ( 'NONE', *, *, #501, .F. ) ;
#550 = EDGE_CURVE ( 'NONE', #285, #671, #623, .T. ) ;
#551 = CARTESIAN_POINT ( 'NONE',  ( -140.9794825205847530, 3.613220173170177407, -3.460987300625556706 ) ) ;
#552 = DIRECTION ( 'NONE',  ( -1.000000000000000000, 0.000000000000000000, 0.000000000000000000 ) ) ;
#553 = AXIS2_PLACEMENT_3D ( 'NONE', #478, #277, #374 ) ;
#554 = EDGE_LOOP ( 'NONE', ( #572, #384, #549, #173 ) ) ;
#555 = EDGE_LOOP ( 'NONE', ( #614, #433 ) ) ;
#556 = ADVANCED_FACE ( 'NONE', ( #626 ), #518, .T. ) ;
#557 = DIRECTION ( 'NONE',  ( 0.000000000000000000, 0.000000000000000000, 1.000000000000000000 ) ) ;
#558 = DIRECTION ( 'NONE',  ( 0.000000000000000000, 1.000000000000000000, 0.000000000000000000 ) ) ;
#559 = ORIENTED_EDGE ( 'NONE', *, *, #101, .F. ) ;
#560 = DIRECTION ( 'NONE',  ( 0.000000000000000000, 0.000000000000000000, -1.000000000000000000 ) ) ;
#561 = CARTESIAN_POINT ( 'NONE',  ( 139.1436484367799551, 4.885720189451539852, 1.096784972997931096 ) ) ;
#562 = AXIS2_PLACEMENT_3D ( 'NONE', #483, #696, #281 ) ;
#563 = VERTEX_POINT ( 'NONE', #467 ) ;
#564 = CARTESIAN_POINT ( 'NONE',  ( 130.0000000000000000, 143.0000000000000284, 0.000000000000000000 ) ) ;
#565 = CARTESIAN_POINT ( 'NONE',  ( 143.0000000000000284, 2.999999999999999112, 4.000000000000000000 ) ) ;
#566 = ORIENTED_EDGE ( 'NONE', *, *, #459, .F. ) ;
#567 = AXIS2_PLACEMENT_3D ( 'NONE', #189, #129, #288 ) ;
#568 = DIRECTION ( 'NONE',  ( -1.000000000000000000, 0.000000000000000000, 0.000000000000000000 ) ) ;
#569 = ORIENTED_EDGE ( 'NONE', *, *, #688, .F. ) ;
#570 = ADVANCED_FACE ( 'NONE', ( #146, #362 ), #91, .F. ) ;
#571 = CARTESIAN_POINT ( 'NONE',  ( 143.1389198814913755, 2.999999999999999112, -4.000000000000000888 ) ) ;
#572 = ORIENTED_EDGE ( 'NONE', *, *, #179, .T. ) ;
#573 = CARTESIAN_POINT ( 'NONE',  ( 142.4463338759270528, 3.047650908136843917, -3.963884981161968302 ) ) ;
#574 = DIRECTION ( 'NONE',  ( 0.000000000000000000, 0.000000000000000000, -1.000000000000000000 ) ) ;
#575 = ORIENTED_EDGE ( 'NONE', *, *, #398, .T. ) ;
#576 = AXIS2_PLACEMENT_3D ( 'NONE', #80, #353, #309 ) ;
#577 = CARTESIAN_POINT ( 'NONE',  ( 141.6689995604341732, 3.279958414732622618, -3.774335032070268436 ) ) ;
#578 = DIRECTION ( 'NONE',  ( 0.000000000000000000, 1.000000000000000000, 0.000000000000000000 ) ) ;
#579 = CARTESIAN_POINT ( 'NONE',  ( 144.8044485833248416, 3.494715146486613300, 3.578928808610443379 ) ) ;
#580 = DIRECTION ( 'NONE',  ( 0.000000000000000000, 0.000000000000000000, 1.000000000000000000 ) ) ;
#581 = CARTESIAN_POINT ( 'NONE',  ( 146.9991025763928292, 4.999282062402293114, -0.2890033169715773842 ) ) ;
#582 = CARTESIAN_POINT ( 'NONE',  ( 0.000000000000000000, 0.000000000000000000, 0.000000000000000000 ) ) ;
#583 = ORIENTED_EDGE ( 'NONE', *, *, #101, .T. ) ;
#584 = EDGE_CURVE ( 'NONE', #262, #21, #452, .T. ) ;
#585 = DIRECTION ( 'NONE',  ( 1.000000000000000000, 0.000000000000000000, 0.000000000000000000 ) ) ;
#586 = DIRECTION ( 'NONE',  ( 1.000000000000000000, 0.000000000000000000, 0.000000000000000000 ) ) ;
#587 = AXIS2_PLACEMENT_3D ( 'NONE', #489, #98, #1 ) ;
#588 = FACE_OUTER_BOUND ( 'NONE', #371, .T. ) ;
#589 = ORIENTED_EDGE ( 'NONE', *, *, #677, .F. ) ;
#590 = CARTESIAN_POINT ( 'NONE',  ( 143.0000000000000284, 2.999999999999999112, 4.000000000000000000 ) ) ;
#591 = FACE_OUTER_BOUND ( 'NONE', #175, .T. ) ;
#592 = CARTESIAN_POINT ( 'NONE',  ( -140.5602104477792409, 3.863284288719246451, 3.179581540094895686 ) ) ;
#593 = AXIS2_PLACEMENT_3D ( 'NONE', #235, #297, #284 ) ;
#594 = CARTESIAN_POINT ( 'NONE',  ( -142.4506808439441841, 3.046882745980567631, -3.964473710582922195 ) ) ;
#595 =( GEOMETRIC_REPRESENTATION_CONTEXT ( 3 ) GLOBAL_UNCERTAINTY_ASSIGNED_CONTEXT ( ( #530 ) ) GLOBAL_UNIT_ASSIGNED_CONTEXT ( ( #5, #319, #271 ) ) REPRESENTATION_CONTEXT ( 'NONE', 'WORKASPACE' ) );
#596 = CARTESIAN_POINT ( 'NONE',  ( -143.0000000000000284, 2.999999999999999112, 4.000000000000000000 ) ) ;
#597 = CARTESIAN_POINT ( 'NONE',  ( -141.5466396385595544, 3.331892278647551997, 3.728798088732477201 ) ) ;
#598 = VERTEX_POINT ( 'NONE', #435 ) ;
#599 = VECTOR ( 'NONE', #364, 1000.000000000000000 ) ;
#600 = FACE_BOUND ( 'NONE', #555, .T. ) ;
#601 = DIRECTION ( 'NONE',  ( 1.000000000000000000, 0.000000000000000000, 0.000000000000000000 ) ) ;
#602 = EDGE_CURVE ( 'NONE', #510, #262, #96, .T. ) ;
#603 = VERTEX_POINT ( 'NONE', #107 ) ;
#604 = CARTESIAN_POINT ( 'NONE',  ( -141.6712720447776803, 3.274438690769771565, -3.781520482503495817 ) ) ;
#605 = CARTESIAN_POINT ( 'NONE',  ( -142.4449852313726126, 3.047893697709244787, 3.963698799384440363 ) ) ;
#606 = ORIENTED_EDGE ( 'NONE', *, *, #533, .T. ) ;
#607 = CARTESIAN_POINT ( 'NONE',  ( -143.0000000000000284, 0.000000000000000000, 0.000000000000000000 ) ) ;
#608 = ORIENTED_EDGE ( 'NONE', *, *, #308, .F. ) ;
#609 = EDGE_CURVE ( 'NONE', #194, #397, #440, .T. ) ;
#610 = DIRECTION ( 'NONE',  ( 0.000000000000000000, 0.000000000000000000, 1.000000000000000000 ) ) ;
#611 = CARTESIAN_POINT ( 'NONE',  ( -144.3310004395659121, 3.279958414732622618, -3.774335032070268436 ) ) ;
#612 = AXIS2_PLACEMENT_3D ( 'NONE', #304, #87, #516 ) ;
#613 = CARTESIAN_POINT ( 'NONE',  ( 147.0000000000000284, 130.0000000000000000, 0.000000000000000000 ) ) ;
#614 = ORIENTED_EDGE ( 'NONE', *, *, #94, .T. ) ;
#615 = DIRECTION ( 'NONE',  ( 0.000000000000000000, 1.000000000000000000, 0.000000000000000000 ) ) ;
#616 = DIRECTION ( 'NONE',  ( 1.000000000000000000, 0.000000000000000000, 0.000000000000000000 ) ) ;
#617 = CARTESIAN_POINT ( 'NONE',  ( 130.0000000000000000, 147.0000000000000284, 0.000000000000000000 ) ) ;
#618 = CARTESIAN_POINT ( 'NONE',  ( -146.4384703605032882, 4.562185648439812446, -2.059670262565593823 ) ) ;
#619 = ORIENTED_EDGE ( 'NONE', *, *, #609, .F. ) ;
#620 = DIRECTION ( 'NONE',  ( 0.000000000000000000, 1.000000000000000000, 0.000000000000000000 ) ) ;
#621 = VERTEX_POINT ( 'NONE', #596 ) ;
#622 = VECTOR ( 'NONE', #351, 1000.000000000000000 ) ;
#623 = LINE ( 'NONE', #409, #599 ) ;
#624 = LINE ( 'NONE', #24, #327 ) ;
#625 = CARTESIAN_POINT ( 'NONE',  ( 147.0004184702071939, 5.000334775543700871, 0.1254517702456619810 ) ) ;
#626 = FACE_OUTER_BOUND ( 'NONE', #461, .T. ) ;
#627 = ORIENTED_EDGE ( 'NONE', *, *, #245, .T. ) ;
#628 = EDGE_CURVE ( 'NONE', #451, #300, #652, .T. ) ;
#629 = CARTESIAN_POINT ( 'NONE',  ( 146.9685950670657917, 4.974790336217940201, -0.5698853889837453002 ) ) ;
#630 = DIRECTION ( 'NONE',  ( -1.000000000000000000, 0.000000000000000000, 0.000000000000000000 ) ) ;
#631 = CIRCLE ( 'NONE', #414, 4.999999999999999112 ) ;
#632 = CARTESIAN_POINT ( 'NONE',  ( 145.6311338236019992, 3.988241927462422787, 3.023125340592297761 ) ) ;
#633 = DIRECTION ( 'NONE',  ( 1.000000000000000000, -0.000000000000000000, -0.000000000000000000 ) ) ;
#634 = CARTESIAN_POINT ( 'NONE',  ( 146.7701691438372222, 4.817634761235968455, -1.362521524383647931 ) ) ;
#635 = CIRCLE ( 'NONE', #246, 3.000000000000000444 ) ;
#636 = ADVANCED_BREP_SHAPE_REPRESENTATION ( 'Walker_Central_Seat_Tubing', ( #152, #509 ), #115 ) ;
#637 = CARTESIAN_POINT ( 'NONE',  ( 139.8516234409954677, 4.347727501587492327, -2.480533219545143719 ) ) ;
#638 = CARTESIAN_POINT ( 'NONE',  ( -141.6672722366161565, 3.280656057263071190, 3.773730985316248621 ) ) ;
#639 = VERTEX_POINT ( 'NONE', #103 ) ;
#640 = PRODUCT_DEFINITION_CONTEXT ( 'detailed design', #181, 'design' ) ;
#641 = CARTESIAN_POINT ( 'NONE',  ( -140.0213638425176157, 4.225548396165789811, -2.681447716711859108 ) ) ;
#642 = DIRECTION ( 'NONE',  ( 1.000000000000000000, 0.000000000000000000, 0.000000000000000000 ) ) ;
#643 = DIRECTION ( 'NONE',  ( -0.000000000000000000, -0.000000000000000000, -1.000000000000000000 ) ) ;
#644 = ORIENTED_EDGE ( 'NONE', *, *, #407, .F. ) ;
#645 = CARTESIAN_POINT ( 'NONE',  ( -220.0000000000000000, 0.000000000000000000, 0.000000000000000000 ) ) ;
#646 = ORIENTED_EDGE ( 'NONE', *, *, #63, .F. ) ;
#647 = ADVANCED_FACE ( 'NONE', ( #591 ), #213, .T. ) ;
#648 = DIRECTION ( 'NONE',  ( 1.000000000000000000, -0.000000000000000000, -0.000000000000000000 ) ) ;
#649 = FACE_OUTER_BOUND ( 'NONE', #665, .T. ) ;
#650 = CARTESIAN_POINT ( 'NONE',  ( -142.0474456762803186, 3.145031059849232591, 3.887254887270172876 ) ) ;
#651 = ORIENTED_EDGE ( 'NONE', *, *, #279, .F. ) ;
#652 = CIRCLE ( 'NONE', #261, 3.000000000000000444 ) ;
#653 = CARTESIAN_POINT ( 'NONE',  ( -139.8493831036865629, 4.349351349197411842, 2.477719075947915073 ) ) ;
#654 = CIRCLE ( 'NONE', #442, 3.000000000000000444 ) ;
#655 = ORIENTED_EDGE ( 'NONE', *, *, #584, .F. ) ;
#656 = FILL_AREA_STYLE ('',( #275 ) ) ;
#657 = ADVANCED_FACE ( 'NONE', ( #267 ), #215, .T. ) ;
#658 = EDGE_LOOP ( 'NONE', ( #479, #270 ) ) ;
#659 = CARTESIAN_POINT ( 'NONE',  ( -146.1483765590045607, 4.347727501587492327, -2.480533219545143719 ) ) ;
#660 = CIRCLE ( 'NONE', #202, 17.00000000000001421 ) ;
#661 = ORIENTED_EDGE ( 'NONE', *, *, #63, .T. ) ;
#662 = CARTESIAN_POINT ( 'NONE',  ( -143.1390256375971433, 3.000000000000000000, -4.000000000000001776 ) ) ;
#663 = AXIS2_PLACEMENT_3D ( 'NONE', #153, #276, #222 ) ;
#664 = ORIENTED_EDGE ( 'NONE', *, *, #149, .F. ) ;
#665 = EDGE_LOOP ( 'NONE', ( #496, #447, #81, #9 ) ) ;
#666 = ADVANCED_FACE ( 'NONE', ( #54, #600, #649 ), #532, .T. ) ;
#667 = DIRECTION ( 'NONE',  ( 0.000000000000000000, -1.000000000000000000, 0.000000000000000000 ) ) ;
#668 = CARTESIAN_POINT ( 'NONE',  ( -145.6288523410138396, 3.986735041704445592, -3.025095999976753269 ) ) ;
#669 = VERTEX_POINT ( 'NONE', #280 ) ;
#670 = CARTESIAN_POINT ( 'NONE',  ( -130.0000000000000000, 143.0000000000000284, -4.000000000000000000 ) ) ;
#671 = VERTEX_POINT ( 'NONE', #272 ) ;
#672 = AXIS2_PLACEMENT_3D ( 'NONE', #645, #546, #221 ) ;
#673 = ORIENTED_EDGE ( 'NONE', *, *, #688, .T. ) ;
#674 = CARTESIAN_POINT ( 'NONE',  ( 143.2765338610272750, 3.009686679513140284, -3.992785038142971032 ) ) ;
#675 = PLANE ( 'NONE',  #383 ) ;
#676 = VERTEX_POINT ( 'NONE', #43 ) ;
#677 = EDGE_CURVE ( 'NONE', #445, #4, #542, .T. ) ;
#678 = CARTESIAN_POINT ( 'NONE',  ( 146.5567535411392726, 4.652518143106338044, -1.849363275601701773 ) ) ;
#679 = CARTESIAN_POINT ( 'NONE',  ( -130.0000000000000000, 130.0000000000000000, 0.000000000000000000 ) ) ;
#680 = CARTESIAN_POINT ( 'NONE',  ( 146.5681274740182403, 4.661230825032204095, 1.827490354742624445 ) ) ;
#681 = DIRECTION ( 'NONE',  ( 0.000000000000000000, 0.000000000000000000, 1.000000000000000000 ) ) ;
#682 = AXIS2_PLACEMENT_3D ( 'NONE', #416, #633, #580 ) ;
#683 = AXIS2_PLACEMENT_3D ( 'NONE', #328, #643, #552 ) ;
#684 = CARTESIAN_POINT ( 'NONE',  ( 141.5484499822439375, 3.331103467481635771, -3.729500543218882580 ) ) ;
#685 = CARTESIAN_POINT ( 'NONE',  ( 130.0000000000000000, 139.0000000000000000, -4.898587196589407898E-16 ) ) ;
#686 = ORIENTED_EDGE ( 'NONE', *, *, #203, .T. ) ;
#687 = CARTESIAN_POINT ( 'NONE',  ( 142.0488422457694924, 3.144608048352746543, -3.887596227261663540 ) ) ;
#688 = EDGE_CURVE ( 'NONE', #163, #488, #694, .T. ) ;
#689 = VERTEX_POINT ( 'NONE', #49 ) ;
#690 = FACE_OUTER_BOUND ( 'NONE', #358, .T. ) ;
#691 = DIRECTION ( 'NONE',  ( -0.000000000000000000, 0.000000000000000000, 1.000000000000000000 ) ) ;
#692 = CARTESIAN_POINT ( 'NONE',  ( -143.0000000000000284, 2.999999999999999112, 4.000000000000000000 ) ) ;
#693 = EDGE_LOOP ( 'NONE', ( #120, #224, #424, #661, #465 ) ) ;
#694 = CIRCLE ( 'NONE', #229, 9.000000000000007105 ) ;
#695 = CARTESIAN_POINT ( 'NONE',  ( -139.5698633414235985, 4.555917683711962596, -2.073186582356659979 ) ) ;
#696 = DIRECTION ( 'NONE',  ( 1.000000000000000000, -0.000000000000000000, -0.000000000000000000 ) ) ;
#697 = ORIENTED_EDGE ( 'NONE', *, *, #677, .T. ) ;
#698 = EDGE_CURVE ( 'NONE', #285, #85, #631, .T. ) ;
#699 =( NAMED_UNIT ( * ) SI_UNIT ( $, .STERADIAN. ) SOLID_ANGLE_UNIT ( ) );
#700 = CARTESIAN_POINT ( 'NONE',  ( -139.0339579679123290, 4.972868389487000940, 0.5381385403827051439 ) ) ;
#701 = ORIENTED_EDGE ( 'NONE', *, *, #453, .F. ) ;
ENDSEC;
END-ISO-10303-21;
