ISO-10303-21;
HEADER;
FILE_DESCRIPTION (( 'STEP AP214' ),
    '1' );
FILE_NAME ('Walker_Rear_to_Center_Beam.STEP',
    '2026-08-11T21:06:14',
    ( '' ),
    ( '' ),
    'SwSTEP 2.0',
    'SolidWorks 2023',
    '' );
FILE_SCHEMA (( 'AUTOMOTIVE_DESIGN' ));
ENDSEC;

DATA;
#1 = DIRECTION ( 'NONE',  ( -1.000000000000000000, -0.000000000000000000, -0.000000000000000000 ) ) ;
#2 = ORIENTED_EDGE ( 'NONE', *, *, #220, .F. ) ;
#3 = DIRECTION ( 'NONE',  ( 0.000000000000000000, 0.000000000000000000, -1.000000000000000000 ) ) ;
#4 = VERTEX_POINT ( 'NONE', #390 ) ;
#5 = ADVANCED_FACE ( 'NONE', ( #139 ), #212, .F. ) ;
#6 = DIRECTION ( 'NONE',  ( 0.000000000000000000, 0.000000000000000000, -1.000000000000000000 ) ) ;
#7 = ORIENTED_EDGE ( 'NONE', *, *, #429, .F. ) ;
#8 = AXIS2_PLACEMENT_3D ( 'NONE', #291, #218, #403 ) ;
#9 = EDGE_CURVE ( 'NONE', #89, #312, #329, .T. ) ;
#10 = DIRECTION ( 'NONE',  ( -1.000000000000000000, -0.000000000000000000, -0.000000000000000000 ) ) ;
#11 = ORIENTED_EDGE ( 'NONE', *, *, #121, .F. ) ;
#12 = MANIFOLD_SOLID_BREP ( 'Boss-Extrude1', #368 ) ;
#13 = DIRECTION ( 'NONE',  ( -1.000000000000000000, -0.000000000000000000, -0.000000000000000000 ) ) ;
#14 = EDGE_CURVE ( 'NONE', #364, #233, #24, .T. ) ;
#15 = VERTEX_POINT ( 'NONE', #98 ) ;
#16 = CARTESIAN_POINT ( 'NONE',  ( 3.000000000000000000, -0.09999999999999863165, 57.50000000000000000 ) ) ;
#17 = EDGE_CURVE ( 'NONE', #205, #239, #321, .T. ) ;
#18 = VERTEX_POINT ( 'NONE', #425 ) ;
#19 = VECTOR ( 'NONE', #148, 1000.000000000000000 ) ;
#20 = DIRECTION ( 'NONE',  ( 0.000000000000000000, 0.000000000000000000, 1.000000000000000000 ) ) ;
#21 = VERTEX_POINT ( 'NONE', #248 ) ;
#22 = FACE_OUTER_BOUND ( 'NONE', #383, .T. ) ;
#23 = ORIENTED_EDGE ( 'NONE', *, *, #280, .T. ) ;
#24 = LINE ( 'NONE', #102, #232 ) ;
#25 = DIRECTION ( 'NONE',  ( 0.000000000000000000, -0.000000000000000000, -1.000000000000000000 ) ) ;
#26 = CIRCLE ( 'NONE', #95, 8.000000000000000000 ) ;
#27 = VERTEX_POINT ( 'NONE', #178 ) ;
#28 = CARTESIAN_POINT ( 'NONE',  ( 3.000000000000000000, -0.09999999999999766020, 49.50000000000000711 ) ) ;
#29 = ORIENTED_EDGE ( 'NONE', *, *, #155, .F. ) ;
#30 = VERTEX_POINT ( 'NONE', #431 ) ;
#31 = APPLICATION_PROTOCOL_DEFINITION ( 'draft international standard', 'automotive_design', 1998, #340 ) ;
#32 = CARTESIAN_POINT ( 'NONE',  ( 3.000000000000000000, 0.1000000000000011297, -49.50000000000001421 ) ) ;
#33 = EDGE_CURVE ( 'NONE', #239, #131, #347, .T. ) ;
#34 = CARTESIAN_POINT ( 'NONE',  ( 0.000000000000000000, 8.100000000000003197, 49.50000000000000711 ) ) ;
#35 = PRODUCT_DEFINITION_SHAPE ( 'NONE', 'NONE',  #473 ) ;
#36 = DIRECTION ( 'NONE',  ( 0.000000000000000000, 0.000000000000000000, -1.000000000000000000 ) ) ;
#37 = ORIENTED_EDGE ( 'NONE', *, *, #372, .T. ) ;
#38 = CARTESIAN_POINT ( 'NONE',  ( 0.000000000000000000, 0.1000000000000011297, 49.50000000000000711 ) ) ;
#39 = AXIS2_PLACEMENT_3D ( 'NONE', #108, #1, #225 ) ;
#40 = EDGE_LOOP ( 'NONE', ( #374, #341, #169, #464 ) ) ;
#41 = CARTESIAN_POINT ( 'NONE',  ( 3.000000000000000000, 8.100000000000003197, -49.50000000000001421 ) ) ;
#42 = EDGE_LOOP ( 'NONE', ( #2, #138, #237, #246, #74, #82, #332, #157 ) ) ;
#43 = LINE ( 'NONE', #441, #468 ) ;
#44 = VERTEX_POINT ( 'NONE', #210 ) ;
#45 = DIRECTION ( 'NONE',  ( -1.000000000000000000, -0.000000000000000000, -0.000000000000000000 ) ) ;
#46 = ORIENTED_EDGE ( 'NONE', *, *, #297, .T. ) ;
#47 = CARTESIAN_POINT ( 'NONE',  ( 3.000000000000000000, -8.099999999999994316, 49.50000000000000711 ) ) ;
#48 = EDGE_LOOP ( 'NONE', ( #161, #29, #133, #351 ) ) ;
#49 = FACE_OUTER_BOUND ( 'NONE', #48, .T. ) ;
#50 = EDGE_LOOP ( 'NONE', ( #37, #99, #69, #209 ) ) ;
#51 = CARTESIAN_POINT ( 'NONE',  ( 0.000000000000000000, 8.100000000000003197, -49.50000000000001421 ) ) ;
#52 = ORIENTED_EDGE ( 'NONE', *, *, #286, .F. ) ;
#53 =( GEOMETRIC_REPRESENTATION_CONTEXT ( 3 ) GLOBAL_UNCERTAINTY_ASSIGNED_CONTEXT ( ( #447 ) ) GLOBAL_UNIT_ASSIGNED_CONTEXT ( ( #427, #355, #324 ) ) REPRESENTATION_CONTEXT ( 'NONE', 'WORKASPACE' ) );
#54 = LINE ( 'NONE', #373, #195 ) ;
#55 = ORIENTED_EDGE ( 'NONE', *, *, #115, .F. ) ;
#56 = EDGE_CURVE ( 'NONE', #328, #364, #67, .T. ) ;
#57 =( LENGTH_UNIT ( ) NAMED_UNIT ( * ) SI_UNIT ( .MILLI., .METRE. ) );
#58 = SURFACE_STYLE_USAGE ( .BOTH. , #462 ) ;
#59 = ADVANCED_FACE ( 'NONE', ( #316 ), #137, .F. ) ;
#60 =( NAMED_UNIT ( * ) SI_UNIT ( $, .STERADIAN. ) SOLID_ANGLE_UNIT ( ) );
#61 = EDGE_CURVE ( 'NONE', #435, #312, #394, .T. ) ;
#62 = DIRECTION ( 'NONE',  ( 1.000000000000000000, 0.000000000000000000, 0.000000000000000000 ) ) ;
#63 = VECTOR ( 'NONE', #128, 1000.000000000000000 ) ;
#64 = ORIENTED_EDGE ( 'NONE', *, *, #9, .T. ) ;
#65 = AXIS2_PLACEMENT_3D ( 'NONE', #120, #45, #20 ) ;
#66 = CYLINDRICAL_SURFACE ( 'NONE', #113, 7.999999999999992895 ) ;
#67 = LINE ( 'NONE', #216, #147 ) ;
#68 = PLANE ( 'NONE',  #174 ) ;
#69 = ORIENTED_EDGE ( 'NONE', *, *, #143, .F. ) ;
#70 = EDGE_CURVE ( 'NONE', #310, #44, #411, .T. ) ;
#71 = AXIS2_PLACEMENT_3D ( 'NONE', #446, #450, #192 ) ;
#72 = DIRECTION ( 'NONE',  ( -1.000000000000000000, -0.000000000000000000, -0.000000000000000000 ) ) ;
#73 = CARTESIAN_POINT ( 'NONE',  ( 0.000000000000000000, -0.09999999999999729938, 46.50000000000000000 ) ) ;
#74 = ORIENTED_EDGE ( 'NONE', *, *, #280, .F. ) ;
#75 = DIRECTION ( 'NONE',  ( 1.000000000000000000, 0.000000000000000000, 0.000000000000000000 ) ) ;
#76 = ADVANCED_FACE ( 'NONE', ( #330 ), #257, .T. ) ;
#77 = CARTESIAN_POINT ( 'NONE',  ( 3.000000000000000000, -0.09999999999999766020, 52.50000000000002132 ) ) ;
#78 = VECTOR ( 'NONE', #173, 1000.000000000000000 ) ;
#79 = ADVANCED_FACE ( 'NONE', ( #438, #295, #258 ), #366, .F. ) ;
#80 = CARTESIAN_POINT ( 'NONE',  ( 0.000000000000000000, -0.09999999999999766020, 49.50000000000000711 ) ) ;
#81 = CARTESIAN_POINT ( 'NONE',  ( 3.000000000000000000, -0.09999999999999766020, 49.50000000000000711 ) ) ;
#82 = ORIENTED_EDGE ( 'NONE', *, *, #14, .F. ) ;
#83 = EDGE_CURVE ( 'NONE', #159, #364, #26, .T. ) ;
#84 = PRODUCT_DEFINITION_CONTEXT ( 'detailed design', #340, 'design' ) ;
#85 = LINE ( 'NONE', #407, #283 ) ;
#86 = ORIENTED_EDGE ( 'NONE', *, *, #404, .T. ) ;
#87 = CIRCLE ( 'NONE', #243, 3.000000000000009770 ) ;
#88 = DIRECTION ( 'NONE',  ( 0.000000000000000000, 0.000000000000000000, -1.000000000000000000 ) ) ;
#89 = VERTEX_POINT ( 'NONE', #73 ) ;
#90 = CARTESIAN_POINT ( 'NONE',  ( 3.000000000000000000, 0.1000000000000021011, -57.49999999999999289 ) ) ;
#91 = ORIENTED_EDGE ( 'NONE', *, *, #17, .T. ) ;
#92 = DIRECTION ( 'NONE',  ( -1.000000000000000000, -0.000000000000000000, -0.000000000000000000 ) ) ;
#93 = EDGE_CURVE ( 'NONE', #27, #293, #382, .T. ) ;
#94 = EDGE_LOOP ( 'NONE', ( #415, #278, #194, #336 ) ) ;
#95 = AXIS2_PLACEMENT_3D ( 'NONE', #38, #75, #36 ) ;
#96 = CARTESIAN_POINT ( 'NONE',  ( 0.000000000000000000, -8.099999999999994316, 49.50000000000000711 ) ) ;
#97 = CIRCLE ( 'NONE', #445, 3.000000000000009770 ) ;
#98 = CARTESIAN_POINT ( 'NONE',  ( 3.000000000000000000, -8.099999999999994316, 49.50000000000000711 ) ) ;
#99 = ORIENTED_EDGE ( 'NONE', *, *, #200, .F. ) ;
#100 = ADVANCED_FACE ( 'NONE', ( #183 ), #116, .F. ) ;
#101 =( NAMED_UNIT ( * ) PLANE_ANGLE_UNIT ( ) SI_UNIT ( $, .RADIAN. ) );
#102 = CARTESIAN_POINT ( 'NONE',  ( 0.000000000000000000, 0.1000000000000001582, 57.50000000000000000 ) ) ;
#103 = DIRECTION ( 'NONE',  ( 0.000000000000000000, 0.000000000000000000, -1.000000000000000000 ) ) ;
#104 = AXIS2_PLACEMENT_3D ( 'NONE', #416, #377, #271 ) ;
#105 = DIRECTION ( 'NONE',  ( -1.000000000000000000, -0.000000000000000000, -0.000000000000000000 ) ) ;
#106 = CARTESIAN_POINT ( 'NONE',  ( 0.000000000000000000, -0.09999999999999766020, -49.50000000000001421 ) ) ;
#107 = DIRECTION ( 'NONE',  ( -1.000000000000000000, -0.000000000000000000, -0.000000000000000000 ) ) ;
#108 = CARTESIAN_POINT ( 'NONE',  ( 3.000000000000000000, -0.09999999999999766020, -49.50000000000001421 ) ) ;
#109 = AXIS2_PLACEMENT_3D ( 'NONE', #81, #277, #266 ) ;
#110 = CARTESIAN_POINT ( 'NONE',  ( 3.000000000000000000, -0.09999999999999766020, -49.50000000000001421 ) ) ;
#111 = PRODUCT ( 'Walker_Rear_to_Center_Beam', 'Walker_Rear_to_Center_Beam', '', ( #406 ) ) ;
#112 = ORIENTED_EDGE ( 'NONE', *, *, #325, .T. ) ;
#113 = AXIS2_PLACEMENT_3D ( 'NONE', #215, #424, #132 ) ;
#114 = LINE ( 'NONE', #223, #338 ) ;
#115 = EDGE_CURVE ( 'NONE', #44, #310, #206, .T. ) ;
#116 = PLANE ( 'NONE',  #140 ) ;
#117 = ORIENTED_EDGE ( 'NONE', *, *, #115, .T. ) ;
#118 = DIRECTION ( 'NONE',  ( -1.000000000000000000, -0.000000000000000000, -0.000000000000000000 ) ) ;
#119 = ORIENTED_EDGE ( 'NONE', *, *, #93, .T. ) ;
#120 = CARTESIAN_POINT ( 'NONE',  ( 3.000000000000000000, -0.09999999999999766020, 49.50000000000000711 ) ) ;
#121 = EDGE_CURVE ( 'NONE', #439, #89, #327, .T. ) ;
#122 = SHAPE_DEFINITION_REPRESENTATION ( #35, #170 ) ;
#123 = CARTESIAN_POINT ( 'NONE',  ( 0.000000000000000000, -0.09999999999999863165, 57.50000000000000000 ) ) ;
#124 = ORIENTED_EDGE ( 'NONE', *, *, #235, .T. ) ;
#125 = CARTESIAN_POINT ( 'NONE',  ( 3.000000000000000000, 0.1000000000000021011, -57.49999999999999289 ) ) ;
#126 = ORIENTED_EDGE ( 'NONE', *, *, #471, .T. ) ;
#127 = CIRCLE ( 'NONE', #453, 8.000000000000000000 ) ;
#128 = DIRECTION ( 'NONE',  ( -1.000000000000000000, -0.000000000000000000, -0.000000000000000000 ) ) ;
#129 = ORIENTED_EDGE ( 'NONE', *, *, #331, .T. ) ;
#130 = DIRECTION ( 'NONE',  ( -1.000000000000000000, -0.000000000000000000, -0.000000000000000000 ) ) ;
#131 = VERTEX_POINT ( 'NONE', #41 ) ;
#132 = DIRECTION ( 'NONE',  ( 0.000000000000000000, 0.000000000000000000, 1.000000000000000000 ) ) ;
#133 = ORIENTED_EDGE ( 'NONE', *, *, #235, .F. ) ;
#134 = AXIS2_PLACEMENT_3D ( 'NONE', #110, #188, #186 ) ;
#135 = CIRCLE ( 'NONE', #397, 8.000000000000000000 ) ;
#136 = DIRECTION ( 'NONE',  ( 1.000000000000000000, 0.000000000000000000, 0.000000000000000000 ) ) ;
#137 = CYLINDRICAL_SURFACE ( 'NONE', #308, 3.000000000000009770 ) ;
#138 = ORIENTED_EDGE ( 'NONE', *, *, #325, .F. ) ;
#139 = FACE_OUTER_BOUND ( 'NONE', #264, .T. ) ;
#140 = AXIS2_PLACEMENT_3D ( 'NONE', #395, #296, #254 ) ;
#141 = CARTESIAN_POINT ( 'NONE',  ( 3.000000000000000000, 8.100000000000003197, 49.50000000000000711 ) ) ;
#142 = EDGE_LOOP ( 'NONE', ( #230, #64 ) ) ;
#143 = EDGE_CURVE ( 'NONE', #4, #205, #217, .T. ) ;
#144 = LINE ( 'NONE', #432, #356 ) ;
#145 = EDGE_CURVE ( 'NONE', #131, #349, #333, .T. ) ;
#146 = CARTESIAN_POINT ( 'NONE',  ( 3.000000000000000000, 0.1000000000000011297, -49.50000000000001421 ) ) ;
#147 = VECTOR ( 'NONE', #322, 1000.000000000000000 ) ;
#148 = DIRECTION ( 'NONE',  ( -1.000000000000000000, -0.000000000000000000, -0.000000000000000000 ) ) ;
#149 = VECTOR ( 'NONE', #130, 1000.000000000000000 ) ;
#150 = EDGE_CURVE ( 'NONE', #408, #21, #114, .T. ) ;
#151 = AXIS2_PLACEMENT_3D ( 'NONE', #422, #459, #213 ) ;
#152 = DIRECTION ( 'NONE',  ( 1.000000000000000000, 0.000000000000000000, 0.000000000000000000 ) ) ;
#153 = CARTESIAN_POINT ( 'NONE',  ( 3.000000000000000000, 8.100000000000003197, -49.50000000000001421 ) ) ;
#154 = ORIENTED_EDGE ( 'NONE', *, *, #337, .F. ) ;
#155 = EDGE_CURVE ( 'NONE', #4, #21, #43, .T. ) ;
#156 = LINE ( 'NONE', #16, #149 ) ;
#157 = ORIENTED_EDGE ( 'NONE', *, *, #399, .F. ) ;
#158 = LINE ( 'NONE', #236, #289 ) ;
#159 = VERTEX_POINT ( 'NONE', #34 ) ;
#160 = CARTESIAN_POINT ( 'NONE',  ( 0.000000000000000000, -0.09999999999999766020, 49.50000000000000711 ) ) ;
#161 = ORIENTED_EDGE ( 'NONE', *, *, #150, .T. ) ;
#162 = PLANE ( 'NONE',  #71 ) ;
#163 = ORIENTED_EDGE ( 'NONE', *, *, #70, .F. ) ;
#164 = AXIS2_PLACEMENT_3D ( 'NONE', #400, #365, #434 ) ;
#165 = ADVANCED_FACE ( 'NONE', ( #472 ), #263, .F. ) ;
#166 = FACE_OUTER_BOUND ( 'NONE', #367, .T. ) ;
#167 = ORIENTED_EDGE ( 'NONE', *, *, #286, .T. ) ;
#168 = PRODUCT_RELATED_PRODUCT_CATEGORY ( 'part', '', ( #111 ) ) ;
#169 = ORIENTED_EDGE ( 'NONE', *, *, #33, .F. ) ;
#170 = ADVANCED_BREP_SHAPE_REPRESENTATION ( 'Walker_Rear_to_Center_Beam', ( #12, #317 ), #196 ) ;
#171 = CARTESIAN_POINT ( 'NONE',  ( 0.000000000000000000, 8.100000000000003197, 49.50000000000000711 ) ) ;
#172 = DIRECTION ( 'NONE',  ( 0.000000000000000000, 0.000000000000000000, 1.000000000000000000 ) ) ;
#173 = DIRECTION ( 'NONE',  ( -0.000000000000000000, -0.000000000000000000, 1.000000000000000000 ) ) ;
#174 = AXIS2_PLACEMENT_3D ( 'NONE', #358, #393, #279 ) ;
#175 = DIRECTION ( 'NONE',  ( 0.000000000000000000, -1.000000000000000000, 0.000000000000000000 ) ) ;
#176 = CARTESIAN_POINT ( 'NONE',  ( 3.000000000000000000, -0.09999999999999766020, 52.50000000000002132 ) ) ;
#177 = DIRECTION ( 'NONE',  ( 0.000000000000000000, 0.000000000000000000, -1.000000000000000000 ) ) ;
#178 = CARTESIAN_POINT ( 'NONE',  ( 3.000000000000000000, 0.1000000000000014905, -52.50000000000002842 ) ) ;
#179 = EDGE_CURVE ( 'NONE', #312, #89, #87, .T. ) ;
#180 = COLOUR_RGB ( '',0.7921568627450980005, 0.8196078431372548767, 0.9333333333333333481 ) ;
#181 = CARTESIAN_POINT ( 'NONE',  ( 0.000000000000000000, 0.1000000000000011297, -49.50000000000001421 ) ) ;
#182 = VERTEX_POINT ( 'NONE', #335 ) ;
#183 = FACE_OUTER_BOUND ( 'NONE', #410, .T. ) ;
#184 = EDGE_LOOP ( 'NONE', ( #117, #189 ) ) ;
#185 = AXIS2_PLACEMENT_3D ( 'NONE', #385, #392, #360 ) ;
#186 = DIRECTION ( 'NONE',  ( 0.000000000000000000, 0.000000000000000000, -1.000000000000000000 ) ) ;
#187 = ORIENTED_EDGE ( 'NONE', *, *, #200, .T. ) ;
#188 = DIRECTION ( 'NONE',  ( 1.000000000000000000, 0.000000000000000000, 0.000000000000000000 ) ) ;
#189 = ORIENTED_EDGE ( 'NONE', *, *, #70, .T. ) ;
#190 = DIRECTION ( 'NONE',  ( 0.000000000000000000, 0.000000000000000000, -1.000000000000000000 ) ) ;
#191 = EDGE_LOOP ( 'NONE', ( #11, #304, #273, #455 ) ) ;
#192 = DIRECTION ( 'NONE',  ( 0.000000000000000000, -0.000000000000000000, 1.000000000000000000 ) ) ;
#193 = AXIS2_PLACEMENT_3D ( 'NONE', #302, #339, #6 ) ;
#194 = ORIENTED_EDGE ( 'NONE', *, *, #404, .F. ) ;
#195 = VECTOR ( 'NONE', #208, 1000.000000000000000 ) ;
#196 =( GEOMETRIC_REPRESENTATION_CONTEXT ( 3 ) GLOBAL_UNCERTAINTY_ASSIGNED_CONTEXT ( ( #203 ) ) GLOBAL_UNIT_ASSIGNED_CONTEXT ( ( #57, #101, #60 ) ) REPRESENTATION_CONTEXT ( 'NONE', 'WORKASPACE' ) );
#197 = CARTESIAN_POINT ( 'NONE',  ( 0.000000000000000000, -0.09999999999999766020, 52.50000000000002132 ) ) ;
#198 = ORIENTED_EDGE ( 'NONE', *, *, #56, .T. ) ;
#199 = DIRECTION ( 'NONE',  ( -1.000000000000000000, -0.000000000000000000, -0.000000000000000000 ) ) ;
#200 = EDGE_CURVE ( 'NONE', #205, #182, #144, .T. ) ;
#201 = ORIENTED_EDGE ( 'NONE', *, *, #337, .T. ) ;
#202 = APPLICATION_CONTEXT ( 'automotive_design' ) ;
#203 = UNCERTAINTY_MEASURE_WITH_UNIT (LENGTH_MEASURE( 1.000000000000000082E-05 ), #57, 'distance_accuracy_value', 'NONE');
#204 = CYLINDRICAL_SURFACE ( 'NONE', #65, 3.000000000000009770 ) ;
#205 = VERTEX_POINT ( 'NONE', #326 ) ;
#206 = CIRCLE ( 'NONE', #294, 3.000000000000009770 ) ;
#207 = AXIS2_PLACEMENT_3D ( 'NONE', #456, #10, #448 ) ;
#208 = DIRECTION ( 'NONE',  ( -0.000000000000000000, 1.000000000000000000, 6.938893903907270030E-14 ) ) ;
#209 = ORIENTED_EDGE ( 'NONE', *, *, #155, .T. ) ;
#210 = CARTESIAN_POINT ( 'NONE',  ( 0.000000000000000000, 0.1000000000000011297, -46.50000000000000711 ) ) ;
#211 = APPLICATION_PROTOCOL_DEFINITION ( 'draft international standard', 'automotive_design', 1998, #202 ) ;
#212 = CYLINDRICAL_SURFACE ( 'NONE', #249, 3.000000000000009770 ) ;
#213 = DIRECTION ( 'NONE',  ( 0.000000000000000000, 0.000000000000000000, -1.000000000000000000 ) ) ;
#214 = FILL_AREA_STYLE_COLOUR ( '', #180 ) ;
#215 = CARTESIAN_POINT ( 'NONE',  ( 3.000000000000000000, 0.1000000000000011297, -49.50000000000001421 ) ) ;
#216 = CARTESIAN_POINT ( 'NONE',  ( 3.000000000000000000, 0.1000000000000021011, 57.50000000000000711 ) ) ;
#217 = CIRCLE ( 'NONE', #134, 7.999999999999992895 ) ;
#218 = DIRECTION ( 'NONE',  ( 0.000000000000000000, 0.000000000000000000, -1.000000000000000000 ) ) ;
#219 = ORIENTED_EDGE ( 'NONE', *, *, #429, .T. ) ;
#220 = EDGE_CURVE ( 'NONE', #466, #349, #475, .T. ) ;
#221 = CARTESIAN_POINT ( 'NONE',  ( 3.000000000000000000, -0.09999999999999729938, 46.50000000000000000 ) ) ;
#222 = ORIENTED_EDGE ( 'NONE', *, *, #471, .F. ) ;
#223 = CARTESIAN_POINT ( 'NONE',  ( 0.000000000000000000, -8.099999999999996092, 49.50000000000000711 ) ) ;
#224 = AXIS2_PLACEMENT_3D ( 'NONE', #146, #152, #369 ) ;
#225 = DIRECTION ( 'NONE',  ( 0.000000000000000000, 0.000000000000000000, 1.000000000000000000 ) ) ;
#226 = DIRECTION ( 'NONE',  ( 1.000000000000000000, 0.000000000000000000, 0.000000000000000000 ) ) ;
#227 = ADVANCED_FACE ( 'NONE', ( #49 ), #162, .F. ) ;
#228 = ORIENTED_EDGE ( 'NONE', *, *, #303, .F. ) ;
#229 = CARTESIAN_POINT ( 'NONE',  ( 3.000000000000000000, 0.1000000000000021011, 57.50000000000000711 ) ) ;
#230 = ORIENTED_EDGE ( 'NONE', *, *, #179, .T. ) ;
#231 = DIRECTION ( 'NONE',  ( 0.000000000000000000, 0.000000000000000000, 1.000000000000000000 ) ) ;
#232 = VECTOR ( 'NONE', #175, 1000.000000000000000 ) ;
#233 = VERTEX_POINT ( 'NONE', #123 ) ;
#234 = AXIS2_PLACEMENT_3D ( 'NONE', #28, #314, #318 ) ;
#235 = EDGE_CURVE ( 'NONE', #15, #4, #275, .T. ) ;
#236 = CARTESIAN_POINT ( 'NONE',  ( 3.000000000000000000, 8.100000000000003197, 49.50000000000000711 ) ) ;
#237 = ORIENTED_EDGE ( 'NONE', *, *, #372, .F. ) ;
#238 = CARTESIAN_POINT ( 'NONE',  ( 3.000000000000000000, -0.09999999999999766020, 49.50000000000000711 ) ) ;
#239 = VERTEX_POINT ( 'NONE', #125 ) ;
#240 = CARTESIAN_POINT ( 'NONE',  ( 3.000000000000000000, 0.1000000000000011297, -46.50000000000000711 ) ) ;
#241 = EDGE_CURVE ( 'NONE', #30, #159, #158, .T. ) ;
#242 = EDGE_LOOP ( 'NONE', ( #267, #451 ) ) ;
#243 = AXIS2_PLACEMENT_3D ( 'NONE', #80, #226, #190 ) ;
#244 = DIRECTION ( 'NONE',  ( 0.000000000000000000, -1.000000000000000000, 0.000000000000000000 ) ) ;
#245 = CARTESIAN_POINT ( 'NONE',  ( 3.000000000000000000, 0.1000000000000021011, -57.49999999999999289 ) ) ;
#246 = ORIENTED_EDGE ( 'NONE', *, *, #150, .F. ) ;
#247 = CARTESIAN_POINT ( 'NONE',  ( 0.000000000000000000, 0.000000000000000000, 0.000000000000000000 ) ) ;
#248 = CARTESIAN_POINT ( 'NONE',  ( 0.000000000000000000, -8.099999999999996092, -49.50000000000001421 ) ) ;
#249 = AXIS2_PLACEMENT_3D ( 'NONE', #32, #105, #172 ) ;
#250 = DIRECTION ( 'NONE',  ( 0.000000000000000000, 0.000000000000000000, -1.000000000000000000 ) ) ;
#251 = SURFACE_STYLE_FILL_AREA ( #423 ) ;
#252 = FACE_BOUND ( 'NONE', #142, .T. ) ;
#253 = DIRECTION ( 'NONE',  ( 0.000000000000000000, 0.000000000000000000, 1.000000000000000000 ) ) ;
#254 = DIRECTION ( 'NONE',  ( 0.000000000000000000, -1.000000000000000000, -6.938893903907270030E-14 ) ) ;
#255 = EDGE_CURVE ( 'NONE', #439, #435, #272, .T. ) ;
#256 = STYLED_ITEM ( 'NONE', ( #281 ), #12 ) ;
#257 = CYLINDRICAL_SURFACE ( 'NONE', #39, 7.999999999999992895 ) ;
#258 = FACE_BOUND ( 'NONE', #315, .T. ) ;
#259 = DIRECTION ( 'NONE',  ( 0.000000000000000000, 0.000000000000000000, -1.000000000000000000 ) ) ;
#260 = ORIENTED_EDGE ( 'NONE', *, *, #56, .F. ) ;
#261 = EDGE_CURVE ( 'NONE', #239, #466, #379, .T. ) ;
#262 = CIRCLE ( 'NONE', #104, 3.000000000000009770 ) ;
#263 = PLANE ( 'NONE',  #8 ) ;
#264 = EDGE_LOOP ( 'NONE', ( #52, #119, #219, #163 ) ) ;
#265 = VECTOR ( 'NONE', #354, 1000.000000000000000 ) ;
#266 = DIRECTION ( 'NONE',  ( 0.000000000000000000, 0.000000000000000000, 1.000000000000000000 ) ) ;
#267 = ORIENTED_EDGE ( 'NONE', *, *, #313, .F. ) ;
#268 = CARTESIAN_POINT ( 'NONE',  ( 3.000000000000000000, -8.099999999999996092, 49.50000000000000711 ) ) ;
#269 = EDGE_LOOP ( 'NONE', ( #334, #306, #154, #198 ) ) ;
#270 = ADVANCED_FACE ( 'NONE', ( #409 ), #346, .F. ) ;
#271 = DIRECTION ( 'NONE',  ( 0.000000000000000000, 0.000000000000000000, -1.000000000000000000 ) ) ;
#272 = CIRCLE ( 'NONE', #193, 3.000000000000009770 ) ;
#273 = ORIENTED_EDGE ( 'NONE', *, *, #61, .T. ) ;
#274 = CIRCLE ( 'NONE', #151, 8.000000000000000000 ) ;
#275 = LINE ( 'NONE', #268, #396 ) ;
#276 = ORIENTED_EDGE ( 'NONE', *, *, #313, .T. ) ;
#277 = DIRECTION ( 'NONE',  ( -1.000000000000000000, -0.000000000000000000, -0.000000000000000000 ) ) ;
#278 = ORIENTED_EDGE ( 'NONE', *, *, #241, .F. ) ;
#279 = DIRECTION ( 'NONE',  ( 0.000000000000000000, 0.000000000000000000, 1.000000000000000000 ) ) ;
#280 = EDGE_CURVE ( 'NONE', #233, #408, #127, .T. ) ;
#281 = PRESENTATION_STYLE_ASSIGNMENT (( #58 ) ) ;
#282 = AXIS2_PLACEMENT_3D ( 'NONE', #181, #292, #231 ) ;
#283 = VECTOR ( 'NONE', #199, 1000.000000000000000 ) ;
#284 = FACE_BOUND ( 'NONE', #184, .T. ) ;
#285 = DIRECTION ( 'NONE',  ( -0.000000000000000000, 1.000000000000000000, 6.938893903907270030E-14 ) ) ;
#286 = EDGE_CURVE ( 'NONE', #27, #310, #85, .T. ) ;
#287 = CARTESIAN_POINT ( 'NONE',  ( 3.000000000000000000, 8.100000000000003197, 49.50000000000000711 ) ) ;
#288 = DIRECTION ( 'NONE',  ( 1.000000000000000000, 0.000000000000000000, 0.000000000000000000 ) ) ;
#289 = VECTOR ( 'NONE', #13, 1000.000000000000000 ) ;
#290 = LINE ( 'NONE', #171, #78 ) ;
#291 = CARTESIAN_POINT ( 'NONE',  ( 3.000000000000000000, 0.1000000000000001582, 57.50000000000000000 ) ) ;
#292 = DIRECTION ( 'NONE',  ( 1.000000000000000000, 0.000000000000000000, -0.000000000000000000 ) ) ;
#293 = VERTEX_POINT ( 'NONE', #240 ) ;
#294 = AXIS2_PLACEMENT_3D ( 'NONE', #363, #440, #259 ) ;
#295 = FACE_BOUND ( 'NONE', #242, .T. ) ;
#296 = DIRECTION ( 'NONE',  ( 0.000000000000000000, -6.938893903907270030E-14, 1.000000000000000000 ) ) ;
#297 = EDGE_CURVE ( 'NONE', #18, #15, #135, .T. ) ;
#298 = DIRECTION ( 'NONE',  ( 0.000000000000000000, 0.000000000000000000, -1.000000000000000000 ) ) ;
#299 = ORIENTED_EDGE ( 'NONE', *, *, #467, .T. ) ;
#300 = AXIS2_PLACEMENT_3D ( 'NONE', #387, #288, #177 ) ;
#301 = CARTESIAN_POINT ( 'NONE',  ( 3.000000000000000000, 0.1000000000000001582, 57.50000000000000000 ) ) ;
#302 = CARTESIAN_POINT ( 'NONE',  ( 3.000000000000000000, -0.09999999999999766020, 49.50000000000000711 ) ) ;
#303 = EDGE_CURVE ( 'NONE', #15, #408, #454, .T. ) ;
#304 = ORIENTED_EDGE ( 'NONE', *, *, #255, .T. ) ;
#305 = DIRECTION ( 'NONE',  ( 0.000000000000000000, 0.000000000000000000, -1.000000000000000000 ) ) ;
#306 = ORIENTED_EDGE ( 'NONE', *, *, #331, .F. ) ;
#307 = DIRECTION ( 'NONE',  ( 1.000000000000000000, 0.000000000000000000, 0.000000000000000000 ) ) ;
#308 = AXIS2_PLACEMENT_3D ( 'NONE', #469, #107, #253 ) ;
#309 = VECTOR ( 'NONE', #371, 1000.000000000000000 ) ;
#310 = VERTEX_POINT ( 'NONE', #381 ) ;
#311 = CYLINDRICAL_SURFACE ( 'NONE', #207, 8.000000000000000000 ) ;
#312 = VERTEX_POINT ( 'NONE', #197 ) ;
#313 = EDGE_CURVE ( 'NONE', #435, #439, #262, .T. ) ;
#314 = DIRECTION ( 'NONE',  ( -1.000000000000000000, -0.000000000000000000, -0.000000000000000000 ) ) ;
#315 = EDGE_LOOP ( 'NONE', ( #370, #417 ) ) ;
#316 = FACE_OUTER_BOUND ( 'NONE', #442, .T. ) ;
#317 = AXIS2_PLACEMENT_3D ( 'NONE', #247, #389, #433 ) ;
#318 = DIRECTION ( 'NONE',  ( 0.000000000000000000, 0.000000000000000000, 1.000000000000000000 ) ) ;
#319 = ORIENTED_EDGE ( 'NONE', *, *, #179, .F. ) ;
#320 = CARTESIAN_POINT ( 'NONE',  ( 3.000000000000000000, -0.09999999999999729938, 46.50000000000000000 ) ) ;
#321 = LINE ( 'NONE', #245, #323 ) ;
#322 = DIRECTION ( 'NONE',  ( -1.000000000000000000, -0.000000000000000000, -0.000000000000000000 ) ) ;
#323 = VECTOR ( 'NONE', #285, 1000.000000000000000 ) ;
#324 =( NAMED_UNIT ( * ) SI_UNIT ( $, .STERADIAN. ) SOLID_ANGLE_UNIT ( ) );
#325 = EDGE_CURVE ( 'NONE', #182, #466, #54, .T. ) ;
#326 = CARTESIAN_POINT ( 'NONE',  ( 3.000000000000000000, -0.09999999999999766020, -57.50000000000000711 ) ) ;
#327 = LINE ( 'NONE', #221, #421 ) ;
#328 = VERTEX_POINT ( 'NONE', #229 ) ;
#329 = CIRCLE ( 'NONE', #300, 3.000000000000009770 ) ;
#330 = FACE_OUTER_BOUND ( 'NONE', #50, .T. ) ;
#331 = EDGE_CURVE ( 'NONE', #18, #233, #156, .T. ) ;
#332 = ORIENTED_EDGE ( 'NONE', *, *, #83, .F. ) ;
#333 = LINE ( 'NONE', #153, #19 ) ;
#334 = ORIENTED_EDGE ( 'NONE', *, *, #14, .T. ) ;
#335 = CARTESIAN_POINT ( 'NONE',  ( 0.000000000000000000, -0.09999999999999766020, -57.50000000000000711 ) ) ;
#336 = ORIENTED_EDGE ( 'NONE', *, *, #145, .T. ) ;
#337 = EDGE_CURVE ( 'NONE', #328, #18, #344, .T. ) ;
#338 = VECTOR ( 'NONE', #298, 1000.000000000000000 ) ;
#339 = DIRECTION ( 'NONE',  ( 1.000000000000000000, 0.000000000000000000, 0.000000000000000000 ) ) ;
#340 = APPLICATION_CONTEXT ( 'automotive_design' ) ;
#341 = ORIENTED_EDGE ( 'NONE', *, *, #145, .F. ) ;
#342 = DIRECTION ( 'NONE',  ( 0.000000000000000000, -1.000000000000000000, 0.000000000000000000 ) ) ;
#343 = EDGE_LOOP ( 'NONE', ( #276, #378, #319, #449 ) ) ;
#344 = LINE ( 'NONE', #301, #412 ) ;
#345 = ORIENTED_EDGE ( 'NONE', *, *, #33, .T. ) ;
#346 = CYLINDRICAL_SURFACE ( 'NONE', #109, 3.000000000000009770 ) ;
#347 = CIRCLE ( 'NONE', #185, 7.999999999999992895 ) ;
#348 = VECTOR ( 'NONE', #92, 1000.000000000000000 ) ;
#349 = VERTEX_POINT ( 'NONE', #51 ) ;
#350 = CARTESIAN_POINT ( 'NONE',  ( 0.000000000000000000, 0.1000000000000021011, -57.49999999999999289 ) ) ;
#351 = ORIENTED_EDGE ( 'NONE', *, *, #303, .T. ) ;
#352 = CARTESIAN_POINT ( 'NONE',  ( 3.000000000000000000, 0.1000000000000011297, -49.50000000000001421 ) ) ;
#353 = ADVANCED_FACE ( 'NONE', ( #413 ), #204, .F. ) ;
#354 = DIRECTION ( 'NONE',  ( -1.000000000000000000, -0.000000000000000000, -0.000000000000000000 ) ) ;
#355 =( NAMED_UNIT ( * ) PLANE_ANGLE_UNIT ( ) SI_UNIT ( $, .RADIAN. ) );
#356 = VECTOR ( 'NONE', #72, 1000.000000000000000 ) ;
#357 = LINE ( 'NONE', #287, #428 ) ;
#358 = CARTESIAN_POINT ( 'NONE',  ( 0.000000000000000000, 0.1000000000000011297, -49.50000000000001421 ) ) ;
#359 = ORIENTED_EDGE ( 'NONE', *, *, #297, .F. ) ;
#360 = DIRECTION ( 'NONE',  ( 0.000000000000000000, 0.000000000000000000, 1.000000000000000000 ) ) ;
#361 = PRESENTATION_LAYER_ASSIGNMENT (  '', '', ( #256 ) ) ;
#362 = ADVANCED_FACE ( 'NONE', ( #166 ), #311, .T. ) ;
#363 = CARTESIAN_POINT ( 'NONE',  ( 0.000000000000000000, 0.1000000000000011297, -49.50000000000001421 ) ) ;
#364 = VERTEX_POINT ( 'NONE', #463 ) ;
#365 = DIRECTION ( 'NONE',  ( -1.000000000000000000, -0.000000000000000000, 0.000000000000000000 ) ) ;
#366 = PLANE ( 'NONE',  #164 ) ;
#367 = EDGE_LOOP ( 'NONE', ( #380, #260, #222, #460 ) ) ;
#368 = CLOSED_SHELL ( 'NONE', ( #59, #270, #79, #458, #452, #444, #362, #165, #388, #227, #76, #100, #353, #5 ) ) ;
#369 = DIRECTION ( 'NONE',  ( 0.000000000000000000, 0.000000000000000000, -1.000000000000000000 ) ) ;
#370 = ORIENTED_EDGE ( 'NONE', *, *, #467, .F. ) ;
#371 = DIRECTION ( 'NONE',  ( -1.000000000000000000, -0.000000000000000000, -0.000000000000000000 ) ) ;
#372 = EDGE_CURVE ( 'NONE', #21, #182, #414, .T. ) ;
#373 = CARTESIAN_POINT ( 'NONE',  ( 0.000000000000000000, 0.1000000000000021011, -57.49999999999999289 ) ) ;
#374 = ORIENTED_EDGE ( 'NONE', *, *, #220, .T. ) ;
#375 = DIRECTION ( 'NONE',  ( 0.000000000000000000, 0.000000000000000000, -1.000000000000000000 ) ) ;
#376 = EDGE_LOOP ( 'NONE', ( #345, #86, #126, #201, #46, #124, #419, #91 ) ) ;
#377 = DIRECTION ( 'NONE',  ( 1.000000000000000000, 0.000000000000000000, 0.000000000000000000 ) ) ;
#378 = ORIENTED_EDGE ( 'NONE', *, *, #121, .T. ) ;
#379 = LINE ( 'NONE', #90, #63 ) ;
#380 = ORIENTED_EDGE ( 'NONE', *, *, #83, .T. ) ;
#381 = CARTESIAN_POINT ( 'NONE',  ( 0.000000000000000000, 0.1000000000000014905, -52.50000000000002842 ) ) ;
#382 = CIRCLE ( 'NONE', #224, 3.000000000000009770 ) ;
#383 = EDGE_LOOP ( 'NONE', ( #23, #228, #359, #129 ) ) ;
#384 = CARTESIAN_POINT ( 'NONE',  ( 3.000000000000000000, 0.1000000000000011297, -46.50000000000000711 ) ) ;
#385 = CARTESIAN_POINT ( 'NONE',  ( 3.000000000000000000, 0.1000000000000011297, -49.50000000000001421 ) ) ;
#386 = PLANE ( 'NONE',  #402 ) ;
#387 = CARTESIAN_POINT ( 'NONE',  ( 0.000000000000000000, -0.09999999999999766020, 49.50000000000000711 ) ) ;
#388 = ADVANCED_FACE ( 'NONE', ( #22 ), #391, .T. ) ;
#389 = DIRECTION ( 'NONE',  ( 0.000000000000000000, 0.000000000000000000, 1.000000000000000000 ) ) ;
#390 = CARTESIAN_POINT ( 'NONE',  ( 3.000000000000000000, -8.099999999999996092, -49.50000000000001421 ) ) ;
#391 = CYLINDRICAL_SURFACE ( 'NONE', #234, 8.000000000000000000 ) ;
#392 = DIRECTION ( 'NONE',  ( 1.000000000000000000, 0.000000000000000000, -0.000000000000000000 ) ) ;
#393 = DIRECTION ( 'NONE',  ( -1.000000000000000000, -0.000000000000000000, 0.000000000000000000 ) ) ;
#394 = LINE ( 'NONE', #77, #309 ) ;
#395 = CARTESIAN_POINT ( 'NONE',  ( 3.000000000000000000, 0.1000000000000021011, -57.49999999999999289 ) ) ;
#396 = VECTOR ( 'NONE', #88, 1000.000000000000000 ) ;
#397 = AXIS2_PLACEMENT_3D ( 'NONE', #238, #418, #375 ) ;
#398 = CARTESIAN_POINT ( 'NONE',  ( 0.000000000000000000, 0.1000000000000011297, -49.50000000000001421 ) ) ;
#399 = EDGE_CURVE ( 'NONE', #349, #159, #290, .T. ) ;
#400 = CARTESIAN_POINT ( 'NONE',  ( 3.000000000000000000, 0.1000000000000011297, -49.50000000000001421 ) ) ;
#401 = DIRECTION ( 'NONE',  ( 1.000000000000000000, 0.000000000000000000, 0.000000000000000000 ) ) ;
#402 = AXIS2_PLACEMENT_3D ( 'NONE', #141, #244, #25 ) ;
#403 = DIRECTION ( 'NONE',  ( -1.000000000000000000, 0.000000000000000000, -0.000000000000000000 ) ) ;
#404 = EDGE_CURVE ( 'NONE', #131, #30, #357, .T. ) ;
#405 = ORIENTED_EDGE ( 'NONE', *, *, #261, .F. ) ;
#406 = PRODUCT_CONTEXT ( 'NONE', #202, 'mechanical' ) ;
#407 = CARTESIAN_POINT ( 'NONE',  ( 3.000000000000000000, 0.1000000000000014905, -52.50000000000002842 ) ) ;
#408 = VERTEX_POINT ( 'NONE', #96 ) ;
#409 = FACE_OUTER_BOUND ( 'NONE', #343, .T. ) ;
#410 = EDGE_LOOP ( 'NONE', ( #112, #405, #457, #187 ) ) ;
#411 = CIRCLE ( 'NONE', #443, 3.000000000000009770 ) ;
#412 = VECTOR ( 'NONE', #342, 1000.000000000000000 ) ;
#413 = FACE_OUTER_BOUND ( 'NONE', #191, .T. ) ;
#414 = CIRCLE ( 'NONE', #470, 7.999999999999992895 ) ;
#415 = ORIENTED_EDGE ( 'NONE', *, *, #399, .T. ) ;
#416 = CARTESIAN_POINT ( 'NONE',  ( 3.000000000000000000, -0.09999999999999766020, 49.50000000000000711 ) ) ;
#417 = ORIENTED_EDGE ( 'NONE', *, *, #93, .F. ) ;
#418 = DIRECTION ( 'NONE',  ( 1.000000000000000000, 0.000000000000000000, 0.000000000000000000 ) ) ;
#419 = ORIENTED_EDGE ( 'NONE', *, *, #143, .T. ) ;
#420 = DIRECTION ( 'NONE',  ( -0.000000000000000000, -0.000000000000000000, 1.000000000000000000 ) ) ;
#421 = VECTOR ( 'NONE', #474, 1000.000000000000000 ) ;
#422 = CARTESIAN_POINT ( 'NONE',  ( 3.000000000000000000, 0.1000000000000011297, 49.50000000000000711 ) ) ;
#423 = FILL_AREA_STYLE ('',( #214 ) ) ;
#424 = DIRECTION ( 'NONE',  ( -1.000000000000000000, -0.000000000000000000, -0.000000000000000000 ) ) ;
#425 = CARTESIAN_POINT ( 'NONE',  ( 3.000000000000000000, -0.09999999999999863165, 57.50000000000000000 ) ) ;
#426 = LINE ( 'NONE', #384, #265 ) ;
#427 =( LENGTH_UNIT ( ) NAMED_UNIT ( * ) SI_UNIT ( .MILLI., .METRE. ) );
#428 = VECTOR ( 'NONE', #420, 1000.000000000000000 ) ;
#429 = EDGE_CURVE ( 'NONE', #293, #44, #426, .T. ) ;
#430 = FACE_OUTER_BOUND ( 'NONE', #94, .T. ) ;
#431 = CARTESIAN_POINT ( 'NONE',  ( 3.000000000000000000, 8.100000000000003197, 49.50000000000000711 ) ) ;
#432 = CARTESIAN_POINT ( 'NONE',  ( 3.000000000000000000, -0.09999999999999766020, -57.50000000000000711 ) ) ;
#433 = DIRECTION ( 'NONE',  ( 1.000000000000000000, 0.000000000000000000, 0.000000000000000000 ) ) ;
#434 = DIRECTION ( 'NONE',  ( 0.000000000000000000, 0.000000000000000000, 1.000000000000000000 ) ) ;
#435 = VERTEX_POINT ( 'NONE', #176 ) ;
#436 = MECHANICAL_DESIGN_GEOMETRIC_PRESENTATION_REPRESENTATION (  '', ( #256 ), #53 ) ;
#437 = PRODUCT_DEFINITION_FORMATION_WITH_SPECIFIED_SOURCE ( 'ANY', '', #111, .NOT_KNOWN. ) ;
#438 = FACE_OUTER_BOUND ( 'NONE', #376, .T. ) ;
#439 = VERTEX_POINT ( 'NONE', #320 ) ;
#440 = DIRECTION ( 'NONE',  ( 1.000000000000000000, 0.000000000000000000, 0.000000000000000000 ) ) ;
#441 = CARTESIAN_POINT ( 'NONE',  ( 3.000000000000000000, -8.099999999999996092, -49.50000000000001421 ) ) ;
#442 = EDGE_LOOP ( 'NONE', ( #299, #167, #55, #7 ) ) ;
#443 = AXIS2_PLACEMENT_3D ( 'NONE', #398, #401, #3 ) ;
#444 = ADVANCED_FACE ( 'NONE', ( #430 ), #386, .F. ) ;
#445 = AXIS2_PLACEMENT_3D ( 'NONE', #352, #62, #103 ) ;
#446 = CARTESIAN_POINT ( 'NONE',  ( 3.000000000000000000, -8.099999999999996092, 49.50000000000000711 ) ) ;
#447 = UNCERTAINTY_MEASURE_WITH_UNIT (LENGTH_MEASURE( 1.000000000000000082E-05 ), #427, 'distance_accuracy_value', 'NONE');
#448 = DIRECTION ( 'NONE',  ( 0.000000000000000000, 0.000000000000000000, 1.000000000000000000 ) ) ;
#449 = ORIENTED_EDGE ( 'NONE', *, *, #61, .F. ) ;
#450 = DIRECTION ( 'NONE',  ( -0.000000000000000000, 1.000000000000000000, 0.000000000000000000 ) ) ;
#451 = ORIENTED_EDGE ( 'NONE', *, *, #255, .F. ) ;
#452 = ADVANCED_FACE ( 'NONE', ( #465 ), #66, .T. ) ;
#453 = AXIS2_PLACEMENT_3D ( 'NONE', #160, #307, #305 ) ;
#454 = LINE ( 'NONE', #47, #348 ) ;
#455 = ORIENTED_EDGE ( 'NONE', *, *, #9, .F. ) ;
#456 = CARTESIAN_POINT ( 'NONE',  ( 3.000000000000000000, 0.1000000000000011297, 49.50000000000000711 ) ) ;
#457 = ORIENTED_EDGE ( 'NONE', *, *, #17, .F. ) ;
#458 = ADVANCED_FACE ( 'NONE', ( #252, #461, #284 ), #68, .T. ) ;
#459 = DIRECTION ( 'NONE',  ( 1.000000000000000000, 0.000000000000000000, 0.000000000000000000 ) ) ;
#460 = ORIENTED_EDGE ( 'NONE', *, *, #241, .T. ) ;
#461 = FACE_OUTER_BOUND ( 'NONE', #42, .T. ) ;
#462 = SURFACE_SIDE_STYLE ('',( #251 ) ) ;
#463 = CARTESIAN_POINT ( 'NONE',  ( 0.000000000000000000, 0.1000000000000021011, 57.50000000000000711 ) ) ;
#464 = ORIENTED_EDGE ( 'NONE', *, *, #261, .T. ) ;
#465 = FACE_OUTER_BOUND ( 'NONE', #40, .T. ) ;
#466 = VERTEX_POINT ( 'NONE', #350 ) ;
#467 = EDGE_CURVE ( 'NONE', #293, #27, #97, .T. ) ;
#468 = VECTOR ( 'NONE', #118, 1000.000000000000000 ) ;
#469 = CARTESIAN_POINT ( 'NONE',  ( 3.000000000000000000, 0.1000000000000011297, -49.50000000000001421 ) ) ;
#470 = AXIS2_PLACEMENT_3D ( 'NONE', #106, #136, #250 ) ;
#471 = EDGE_CURVE ( 'NONE', #30, #328, #274, .T. ) ;
#472 = FACE_OUTER_BOUND ( 'NONE', #269, .T. ) ;
#473 = PRODUCT_DEFINITION ( 'UNKNOWN', '', #437, #84 ) ;
#474 = DIRECTION ( 'NONE',  ( -1.000000000000000000, -0.000000000000000000, -0.000000000000000000 ) ) ;
#475 = CIRCLE ( 'NONE', #282, 7.999999999999992895 ) ;
ENDSEC;
END-ISO-10303-21;
