ISO-10303-21;
HEADER;
FILE_DESCRIPTION (( 'STEP AP214' ),
    '1' );
FILE_NAME ('Walker_Center_Folding_Beam_Connector.STEP',
    '2026-08-11T21:02:01',
    ( '' ),
    ( '' ),
    'SwSTEP 2.0',
    'SolidWorks 2023',
    '' );
FILE_SCHEMA (( 'AUTOMOTIVE_DESIGN' ));
ENDSEC;

DATA;
#1 = VERTEX_POINT ( 'NONE', #117 ) ;
#2 = DIRECTION ( 'NONE',  ( 0.000000000000000000, 1.000000000000000000, 0.000000000000000000 ) ) ;
#3 = EDGE_LOOP ( 'NONE', ( #671, #225, #536, #126 ) ) ;
#4 = ORIENTED_EDGE ( 'NONE', *, *, #468, .T. ) ;
#5 = CARTESIAN_POINT ( 'NONE',  ( -20.00000000000000000, 11.50000000000000000, -6.400000000000000355 ) ) ;
#6 = ORIENTED_EDGE ( 'NONE', *, *, #476, .T. ) ;
#7 = AXIS2_PLACEMENT_3D ( 'NONE', #131, #280, #29 ) ;
#8 = CARTESIAN_POINT ( 'NONE',  ( -41.93376392687766696, 9.000000000000000000, 3.900000000000000355 ) ) ;
#9 = CARTESIAN_POINT ( 'NONE',  ( -14.99999999999999467, -6.500000000000000888, 3.899999999999999911 ) ) ;
#10 = VERTEX_POINT ( 'NONE', #229 ) ;
#11 = ORIENTED_EDGE ( 'NONE', *, *, #345, .T. ) ;
#12 = ADVANCED_FACE ( 'NONE', ( #582 ), #638, .T. ) ;
#13 = DIRECTION ( 'NONE',  ( 0.000000000000000000, 0.000000000000000000, 1.000000000000000000 ) ) ;
#14 = DIRECTION ( 'NONE',  ( 1.000000000000000000, 0.000000000000000000, 0.000000000000000000 ) ) ;
#15 = VERTEX_POINT ( 'NONE', #266 ) ;
#16 = ORIENTED_EDGE ( 'NONE', *, *, #598, .F. ) ;
#17 = ADVANCED_FACE ( 'NONE', ( #542 ), #180, .F. ) ;
#18 = DIRECTION ( 'NONE',  ( 0.000000000000000000, 1.000000000000000000, 0.000000000000000000 ) ) ;
#19 = ORIENTED_EDGE ( 'NONE', *, *, #283, .F. ) ;
#20 = CARTESIAN_POINT ( 'NONE',  ( 20.00000000000000000, 11.50000000000000000, 6.400000000000000355 ) ) ;
#21 = CIRCLE ( 'NONE', #77, 4.999999999999999112 ) ;
#22 = AXIS2_PLACEMENT_3D ( 'NONE', #76, #237, #81 ) ;
#23 = LINE ( 'NONE', #136, #302 ) ;
#24 = VERTEX_POINT ( 'NONE', #480 ) ;
#25 = DIRECTION ( 'NONE',  ( 0.000000000000000000, 0.000000000000000000, 1.000000000000000000 ) ) ;
#26 = CARTESIAN_POINT ( 'NONE',  ( 20.00000000000000000, 11.50000000000000000, 3.899999999999999911 ) ) ;
#27 = PLANE ( 'NONE',  #22 ) ;
#28 = PRODUCT_DEFINITION ( 'UNKNOWN', '', #606, #507 ) ;
#29 = DIRECTION ( 'NONE',  ( 0.000000000000000000, 1.000000000000000000, 0.000000000000000000 ) ) ;
#30 = FACE_OUTER_BOUND ( 'NONE', #265, .T. ) ;
#31 = AXIS2_PLACEMENT_3D ( 'NONE', #150, #636, #374 ) ;
#32 = VECTOR ( 'NONE', #509, 1000.000000000000000 ) ;
#33 = CARTESIAN_POINT ( 'NONE',  ( 0.000000000000000000, 1.499999999999999556, -3.900000000000000799 ) ) ;
#34 = DIRECTION ( 'NONE',  ( 0.000000000000000000, 0.000000000000000000, 1.000000000000000000 ) ) ;
#35 = EDGE_CURVE ( 'NONE', #278, #99, #490, .T. ) ;
#36 = CARTESIAN_POINT ( 'NONE',  ( -20.00000000000000000, 9.000000000000000000, 3.900000000000000355 ) ) ;
#37 = EDGE_CURVE ( 'NONE', #173, #457, #107, .T. ) ;
#38 = LINE ( 'NONE', #256, #565 ) ;
#39 = ORIENTED_EDGE ( 'NONE', *, *, #288, .F. ) ;
#40 = EDGE_CURVE ( 'NONE', #414, #532, #174, .T. ) ;
#41 = VECTOR ( 'NONE', #442, 1000.000000000000000 ) ;
#42 = DIRECTION ( 'NONE',  ( -0.000000000000000000, -0.000000000000000000, 1.000000000000000000 ) ) ;
#43 = ADVANCED_FACE ( 'NONE', ( #315 ), #527, .T. ) ;
#44 = SURFACE_STYLE_FILL_AREA ( #514 ) ;
#45 = ORIENTED_EDGE ( 'NONE', *, *, #289, .T. ) ;
#46 = DIRECTION ( 'NONE',  ( -3.016910393003142859E-16, 1.000000000000000000, -0.000000000000000000 ) ) ;
#47 = ORIENTED_EDGE ( 'NONE', *, *, #641, .T. ) ;
#48 = DIRECTION ( 'NONE',  ( -0.000000000000000000, -0.000000000000000000, 1.000000000000000000 ) ) ;
#49 = AXIS2_PLACEMENT_3D ( 'NONE', #54, #13, #627 ) ;
#50 = ORIENTED_EDGE ( 'NONE', *, *, #644, .F. ) ;
#51 = PLANE ( 'NONE',  #181 ) ;
#52 = AXIS2_PLACEMENT_3D ( 'NONE', #9, #68, #276 ) ;
#53 = VERTEX_POINT ( 'NONE', #373 ) ;
#54 = CARTESIAN_POINT ( 'NONE',  ( 0.000000000000000000, 0.000000000000000000, 0.000000000000000000 ) ) ;
#55 = CARTESIAN_POINT ( 'NONE',  ( -14.99999999999999467, -6.500000000000000888, -6.400000000000000355 ) ) ;
#56 = ORIENTED_EDGE ( 'NONE', *, *, #471, .T. ) ;
#57 = DIRECTION ( 'NONE',  ( 0.000000000000000000, 0.000000000000000000, 1.000000000000000000 ) ) ;
#58 = LINE ( 'NONE', #267, #466 ) ;
#59 = ORIENTED_EDGE ( 'NONE', *, *, #660, .T. ) ;
#60 = ORIENTED_EDGE ( 'NONE', *, *, #191, .T. ) ;
#61 = EDGE_CURVE ( 'NONE', #457, #184, #176, .T. ) ;
#62 = LINE ( 'NONE', #677, #666 ) ;
#63 = VECTOR ( 'NONE', #146, 1000.000000000000000 ) ;
#64 = VERTEX_POINT ( 'NONE', #537 ) ;
#65 = CIRCLE ( 'NONE', #481, 5.000000000000000000 ) ;
#66 = ORIENTED_EDGE ( 'NONE', *, *, #255, .T. ) ;
#67 =( LENGTH_UNIT ( ) NAMED_UNIT ( * ) SI_UNIT ( .MILLI., .METRE. ) );
#68 = DIRECTION ( 'NONE',  ( -0.000000000000000000, 2.115516434118057770E-17, -1.000000000000000000 ) ) ;
#69 = ORIENTED_EDGE ( 'NONE', *, *, #210, .F. ) ;
#70 = PLANE ( 'NONE',  #538 ) ;
#71 = CARTESIAN_POINT ( 'NONE',  ( 20.00000000000000000, 9.000000000000000000, -3.900000000000000355 ) ) ;
#72 = ORIENTED_EDGE ( 'NONE', *, *, #648, .F. ) ;
#73 = EDGE_LOOP ( 'NONE', ( #423, #69, #252, #161 ) ) ;
#74 = DIRECTION ( 'NONE',  ( 0.000000000000000000, 2.115516434118057770E-17, 1.000000000000000000 ) ) ;
#75 = ORIENTED_EDGE ( 'NONE', *, *, #551, .T. ) ;
#76 = CARTESIAN_POINT ( 'NONE',  ( -20.00000000000000000, 11.50000000000000000, -6.400000000000000355 ) ) ;
#77 = AXIS2_PLACEMENT_3D ( 'NONE', #477, #361, #530 ) ;
#78 = LINE ( 'NONE', #449, #389 ) ;
#79 = ADVANCED_FACE ( 'NONE', ( #326 ), #70, .T. ) ;
#80 = CARTESIAN_POINT ( 'NONE',  ( 20.00000000000000711, -6.499999999999999112, -6.400000000000000355 ) ) ;
#81 = DIRECTION ( 'NONE',  ( 3.016910393003142859E-16, -1.000000000000000000, 0.000000000000000000 ) ) ;
#82 = CARTESIAN_POINT ( 'NONE',  ( 20.00000000000000000, 11.50000000000000000, -3.900000000000000355 ) ) ;
#83 = FACE_OUTER_BOUND ( 'NONE', #417, .T. ) ;
#84 = AXIS2_PLACEMENT_3D ( 'NONE', #602, #386, #553 ) ;
#85 = ADVANCED_FACE ( 'NONE', ( #83 ), #27, .T. ) ;
#86 = VECTOR ( 'NONE', #665, 1000.000000000000000 ) ;
#87 = LINE ( 'NONE', #296, #357 ) ;
#88 = CARTESIAN_POINT ( 'NONE',  ( 20.00000000000000711, -6.499999999999998224, -3.899999999999999911 ) ) ;
#89 = EDGE_CURVE ( 'NONE', #372, #113, #595, .T. ) ;
#90 = DIRECTION ( 'NONE',  ( 1.000000000000000000, 0.000000000000000000, 0.000000000000000000 ) ) ;
#91 = EDGE_CURVE ( 'NONE', #113, #106, #439, .T. ) ;
#92 = ORIENTED_EDGE ( 'NONE', *, *, #574, .F. ) ;
#93 = ADVANCED_FACE ( 'NONE', ( #245, #30 ), #185, .T. ) ;
#94 = CARTESIAN_POINT ( 'NONE',  ( -41.93376392687766696, -11.50000000000000000, -3.899999999999999911 ) ) ;
#95 = VERTEX_POINT ( 'NONE', #450 ) ;
#96 = VECTOR ( 'NONE', #364, 1000.000000000000000 ) ;
#97 = VECTOR ( 'NONE', #446, 1000.000000000000000 ) ;
#98 = CARTESIAN_POINT ( 'NONE',  ( -41.93376392687766696, 9.000000000000000000, 3.900000000000000355 ) ) ;
#99 = VERTEX_POINT ( 'NONE', #291 ) ;
#100 = LINE ( 'NONE', #662, #413 ) ;
#101 = ORIENTED_EDGE ( 'NONE', *, *, #663, .T. ) ;
#102 = LINE ( 'NONE', #635, #455 ) ;
#103 = ORIENTED_EDGE ( 'NONE', *, *, #108, .T. ) ;
#104 = ADVANCED_FACE ( 'NONE', ( #597, #188 ), #393, .F. ) ;
#105 = AXIS2_PLACEMENT_3D ( 'NONE', #282, #57, #124 ) ;
#106 = VERTEX_POINT ( 'NONE', #652 ) ;
#107 = LINE ( 'NONE', #429, #177 ) ;
#108 = EDGE_CURVE ( 'NONE', #1, #589, #618, .T. ) ;
#109 = VECTOR ( 'NONE', #543, 1000.000000000000000 ) ;
#110 = CARTESIAN_POINT ( 'NONE',  ( -20.00000000000000000, 11.50000000000000000, -6.400000000000000355 ) ) ;
#111 = ORIENTED_EDGE ( 'NONE', *, *, #166, .T. ) ;
#112 = CIRCLE ( 'NONE', #263, 3.000000000000000444 ) ;
#113 = VERTEX_POINT ( 'NONE', #287 ) ;
#114 = ADVANCED_FACE ( 'NONE', ( #548, #499 ), #447, .F. ) ;
#115 = DIRECTION ( 'NONE',  ( 1.000000000000000000, 0.000000000000000000, 0.000000000000000000 ) ) ;
#116 = ORIENTED_EDGE ( 'NONE', *, *, #570, .T. ) ;
#117 = CARTESIAN_POINT ( 'NONE',  ( 3.000000000000000444, 1.499999999999999556, 6.399999999999999467 ) ) ;
#118 = APPLICATION_CONTEXT ( 'automotive_design' ) ;
#119 = DIRECTION ( 'NONE',  ( -0.000000000000000000, -0.000000000000000000, -1.000000000000000000 ) ) ;
#120 = CARTESIAN_POINT ( 'NONE',  ( -20.00000000000000000, 11.50000000000000000, 3.899999999999999911 ) ) ;
#121 = VECTOR ( 'NONE', #657, 1000.000000000000000 ) ;
#122 = ORIENTED_EDGE ( 'NONE', *, *, #568, .T. ) ;
#123 = AXIS2_PLACEMENT_3D ( 'NONE', #397, #343, #307 ) ;
#124 = DIRECTION ( 'NONE',  ( 1.000000000000000000, 0.000000000000000000, 0.000000000000000000 ) ) ;
#125 = LINE ( 'NONE', #328, #97 ) ;
#126 = ORIENTED_EDGE ( 'NONE', *, *, #37, .F. ) ;
#127 = ORIENTED_EDGE ( 'NONE', *, *, #108, .F. ) ;
#128 = CARTESIAN_POINT ( 'NONE',  ( 15.00000000000000711, -11.50000000000000000, 3.899999999999999911 ) ) ;
#129 = ORIENTED_EDGE ( 'NONE', *, *, #234, .T. ) ;
#130 = CYLINDRICAL_SURFACE ( 'NONE', #556, 3.000000000000000444 ) ;
#131 = CARTESIAN_POINT ( 'NONE',  ( 0.000000000000000000, 1.499999999999999556, -3.900000000000000799 ) ) ;
#132 = AXIS2_PLACEMENT_3D ( 'NONE', #342, #25, #388 ) ;
#133 = ADVANCED_FACE ( 'NONE', ( #655 ), #130, .F. ) ;
#134 = AXIS2_PLACEMENT_3D ( 'NONE', #33, #244, #199 ) ;
#135 = DIRECTION ( 'NONE',  ( 0.000000000000000000, 0.000000000000000000, 1.000000000000000000 ) ) ;
#136 = CARTESIAN_POINT ( 'NONE',  ( -14.99999999999999467, -11.50000000000000000, -6.400000000000000355 ) ) ;
#137 = CARTESIAN_POINT ( 'NONE',  ( 0.000000000000000000, 0.000000000000000000, 6.400000000000000355 ) ) ;
#138 = ADVANCED_FACE ( 'NONE', ( #604 ), #334, .T. ) ;
#139 = DIRECTION ( 'NONE',  ( -0.000000000000000000, -0.000000000000000000, 1.000000000000000000 ) ) ;
#140 = EDGE_CURVE ( 'NONE', #318, #99, #555, .T. ) ;
#141 = DIRECTION ( 'NONE',  ( 0.000000000000000000, 0.000000000000000000, 1.000000000000000000 ) ) ;
#142 = VECTOR ( 'NONE', #628, 1000.000000000000000 ) ;
#143 = FACE_OUTER_BOUND ( 'NONE', #422, .T. ) ;
#144 = ORIENTED_EDGE ( 'NONE', *, *, #644, .T. ) ;
#145 = FACE_OUTER_BOUND ( 'NONE', #262, .T. ) ;
#146 = DIRECTION ( 'NONE',  ( 3.016910393003142859E-16, -1.000000000000000000, -2.115516434118057770E-17 ) ) ;
#147 = VERTEX_POINT ( 'NONE', #344 ) ;
#148 = UNCERTAINTY_MEASURE_WITH_UNIT (LENGTH_MEASURE( 1.000000000000000082E-05 ), #620, 'distance_accuracy_value', 'NONE');
#149 = CARTESIAN_POINT ( 'NONE',  ( 3.000000000000000444, 1.499999999999999556, 3.900000000000000799 ) ) ;
#150 = CARTESIAN_POINT ( 'NONE',  ( 15.00000000000000355, -6.500000000000000000, 6.400000000000000355 ) ) ;
#151 = ORIENTED_EDGE ( 'NONE', *, *, #210, .T. ) ;
#152 = CIRCLE ( 'NONE', #539, 3.000000000000000444 ) ;
#153 = CARTESIAN_POINT ( 'NONE',  ( -3.000000000000000444, 1.500000000000000000, 6.399999999999999467 ) ) ;
#154 = CARTESIAN_POINT ( 'NONE',  ( -41.93376392687766696, 9.000000000000000000, -3.900000000000000355 ) ) ;
#155 = VERTEX_POINT ( 'NONE', #88 ) ;
#156 = EDGE_CURVE ( 'NONE', #435, #646, #297, .T. ) ;
#157 = ORIENTED_EDGE ( 'NONE', *, *, #348, .T. ) ;
#158 = LINE ( 'NONE', #309, #163 ) ;
#159 = CARTESIAN_POINT ( 'NONE',  ( 20.00000000000000000, 9.000000000000000000, -3.900000000000000355 ) ) ;
#160 = EDGE_CURVE ( 'NONE', #113, #533, #503, .T. ) ;
#161 = ORIENTED_EDGE ( 'NONE', *, *, #404, .F. ) ;
#162 = ORIENTED_EDGE ( 'NONE', *, *, #476, .F. ) ;
#163 = VECTOR ( 'NONE', #171, 1000.000000000000000 ) ;
#164 = CARTESIAN_POINT ( 'NONE',  ( 15.00000000000000355, -6.500000000000000000, -6.400000000000000355 ) ) ;
#165 = ORIENTED_EDGE ( 'NONE', *, *, #428, .F. ) ;
#166 = EDGE_CURVE ( 'NONE', #184, #318, #615, .T. ) ;
#167 = AXIS2_PLACEMENT_3D ( 'NONE', #381, #214, #324 ) ;
#168 = DIRECTION ( 'NONE',  ( 1.000000000000000000, -0.000000000000000000, 0.000000000000000000 ) ) ;
#169 = EDGE_CURVE ( 'NONE', #278, #479, #200, .T. ) ;
#170 = AXIS2_PLACEMENT_3D ( 'NONE', #193, #339, #135 ) ;
#171 = DIRECTION ( 'NONE',  ( 3.016910393003142859E-16, -1.000000000000000000, -2.115516434118057770E-17 ) ) ;
#172 = CARTESIAN_POINT ( 'NONE',  ( -20.00000000000000000, 8.999999999999998224, -3.900000000000000355 ) ) ;
#173 = VERTEX_POINT ( 'NONE', #352 ) ;
#174 = LINE ( 'NONE', #631, #96 ) ;
#175 = ORIENTED_EDGE ( 'NONE', *, *, #451, .T. ) ;
#176 = LINE ( 'NONE', #377, #492 ) ;
#177 = VECTOR ( 'NONE', #634, 1000.000000000000000 ) ;
#178 = EDGE_LOOP ( 'NONE', ( #4, #157 ) ) ;
#179 = PRODUCT ( 'Walker_Center_Folding_Beam_Connector', 'Walker_Center_Folding_Beam_Connector', '', ( #322 ) ) ;
#180 = CYLINDRICAL_SURFACE ( 'NONE', #586, 3.000000000000000444 ) ;
#181 = AXIS2_PLACEMENT_3D ( 'NONE', #5, #2, #588 ) ;
#182 = MANIFOLD_SOLID_BREP ( 'Cut-Extrude2', #312 ) ;
#183 = PLANE ( 'NONE',  #619 ) ;
#184 = VERTEX_POINT ( 'NONE', #172 ) ;
#185 = PLANE ( 'NONE',  #294 ) ;
#186 = PRODUCT_DEFINITION_SHAPE ( 'NONE', 'NONE',  #28 ) ;
#187 = CARTESIAN_POINT ( 'NONE',  ( -19.99999999999999289, -6.500000000000002665, -3.899999999999999911 ) ) ;
#188 = FACE_OUTER_BOUND ( 'NONE', #579, .T. ) ;
#189 = DIRECTION ( 'NONE',  ( -0.000000000000000000, -0.000000000000000000, 1.000000000000000000 ) ) ;
#190 = CARTESIAN_POINT ( 'NONE',  ( 0.000000000000000000, 1.499999999999999556, -14.88528137423857522 ) ) ;
#191 = EDGE_CURVE ( 'NONE', #532, #435, #270, .T. ) ;
#192 = CIRCLE ( 'NONE', #123, 5.000000000000000000 ) ;
#193 = CARTESIAN_POINT ( 'NONE',  ( 0.000000000000000000, 9.000000000000000000, 3.900000000000000355 ) ) ;
#194 = CARTESIAN_POINT ( 'NONE',  ( -20.00000000000000000, 11.50000000000000000, -3.900000000000000355 ) ) ;
#195 = LINE ( 'NONE', #337, #109 ) ;
#196 = DIRECTION ( 'NONE',  ( 1.000000000000000000, 0.000000000000000000, 0.000000000000000000 ) ) ;
#197 = CARTESIAN_POINT ( 'NONE',  ( 0.000000000000000000, 1.499999999999999556, 6.399999999999999467 ) ) ;
#198 = AXIS2_PLACEMENT_3D ( 'NONE', #332, #189, #390 ) ;
#199 = DIRECTION ( 'NONE',  ( 0.000000000000000000, 1.000000000000000000, 0.000000000000000000 ) ) ;
#200 = LINE ( 'NONE', #405, #63 ) ;
#201 = ORIENTED_EDGE ( 'NONE', *, *, #330, .T. ) ;
#202 = CARTESIAN_POINT ( 'NONE',  ( -20.00000000000000000, 9.000000000000000000, 3.900000000000000355 ) ) ;
#203 = PRODUCT_RELATED_PRODUCT_CATEGORY ( 'part', '', ( #179 ) ) ;
#204 = ORIENTED_EDGE ( 'NONE', *, *, #398, .T. ) ;
#205 = DIRECTION ( 'NONE',  ( 0.000000000000000000, -1.000000000000000000, 0.000000000000000000 ) ) ;
#206 = EDGE_LOOP ( 'NONE', ( #19, #461, #358, #465 ) ) ;
#207 = AXIS2_PLACEMENT_3D ( 'NONE', #433, #218, #472 ) ;
#208 = VECTOR ( 'NONE', #46, 1000.000000000000000 ) ;
#209 = FACE_OUTER_BOUND ( 'NONE', #578, .T. ) ;
#210 = EDGE_CURVE ( 'NONE', #106, #385, #583, .T. ) ;
#211 = ORIENTED_EDGE ( 'NONE', *, *, #258, .F. ) ;
#212 = ADVANCED_FACE ( 'NONE', ( #426 ), #316, .T. ) ;
#213 = DIRECTION ( 'NONE',  ( 1.000000000000000000, -0.000000000000000000, 0.000000000000000000 ) ) ;
#214 = DIRECTION ( 'NONE',  ( 1.000000000000000000, 3.016910393003142859E-16, -0.000000000000000000 ) ) ;
#215 = ORIENTED_EDGE ( 'NONE', *, *, #304, .F. ) ;
#216 = EDGE_CURVE ( 'NONE', #24, #173, #412, .T. ) ;
#217 = DIRECTION ( 'NONE',  ( -3.016910393003142859E-16, 1.000000000000000000, -2.115516434118057770E-17 ) ) ;
#218 = DIRECTION ( 'NONE',  ( 0.000000000000000000, 0.000000000000000000, 1.000000000000000000 ) ) ;
#219 = DIRECTION ( 'NONE',  ( 1.000000000000000000, -0.000000000000000000, -0.000000000000000000 ) ) ;
#220 = VECTOR ( 'NONE', #34, 1000.000000000000000 ) ;
#221 = AXIS2_PLACEMENT_3D ( 'NONE', #94, #508, #253 ) ;
#222 = ORIENTED_EDGE ( 'NONE', *, *, #238, .T. ) ;
#223 = ORIENTED_EDGE ( 'NONE', *, *, #91, .F. ) ;
#224 = DIRECTION ( 'NONE',  ( 3.016910393003142859E-16, -1.000000000000000000, 0.000000000000000000 ) ) ;
#225 = ORIENTED_EDGE ( 'NONE', *, *, #551, .F. ) ;
#226 = ORIENTED_EDGE ( 'NONE', *, *, #279, .T. ) ;
#227 = CARTESIAN_POINT ( 'NONE',  ( -20.00000000000000000, 9.000000000000000000, 3.900000000000000355 ) ) ;
#228 = ORIENTED_EDGE ( 'NONE', *, *, #660, .F. ) ;
#229 = CARTESIAN_POINT ( 'NONE',  ( 3.000000000000000444, 1.499999999999999556, -6.399999999999999467 ) ) ;
#230 = DIRECTION ( 'NONE',  ( -3.016910393003142859E-16, 1.000000000000000000, 0.000000000000000000 ) ) ;
#231 = EDGE_LOOP ( 'NONE', ( #431, #526, #637, #103 ) ) ;
#232 = ADVANCED_FACE ( 'NONE', ( #540 ), #639, .T. ) ;
#233 = AXIS2_PLACEMENT_3D ( 'NONE', #531, #313, #264 ) ;
#234 = EDGE_CURVE ( 'NONE', #385, #646, #402, .T. ) ;
#235 = DIRECTION ( 'NONE',  ( -0.000000000000000000, -0.000000000000000000, -1.000000000000000000 ) ) ;
#236 = VECTOR ( 'NONE', #224, 1000.000000000000000 ) ;
#237 = DIRECTION ( 'NONE',  ( -1.000000000000000000, -3.016910393003142859E-16, 0.000000000000000000 ) ) ;
#238 = EDGE_CURVE ( 'NONE', #155, #420, #58, .T. ) ;
#239 = CARTESIAN_POINT ( 'NONE',  ( 0.000000000000000000, 1.499999999999999556, 3.900000000000000799 ) ) ;
#240 = ADVANCED_FACE ( 'NONE', ( #478 ), #51, .T. ) ;
#241 = FACE_OUTER_BOUND ( 'NONE', #470, .T. ) ;
#242 = VECTOR ( 'NONE', #141, 1000.000000000000000 ) ;
#243 = DIRECTION ( 'NONE',  ( 1.000000000000000000, 0.000000000000000000, 0.000000000000000000 ) ) ;
#244 = DIRECTION ( 'NONE',  ( -0.000000000000000000, -2.115516434118057770E-17, -1.000000000000000000 ) ) ;
#245 = FACE_BOUND ( 'NONE', #401, .T. ) ;
#246 = DIRECTION ( 'NONE',  ( 0.000000000000000000, 0.000000000000000000, 1.000000000000000000 ) ) ;
#247 = DIRECTION ( 'NONE',  ( -3.016910393003142859E-16, 1.000000000000000000, -0.000000000000000000 ) ) ;
#248 = DIRECTION ( 'NONE',  ( 0.000000000000000000, -0.000000000000000000, 1.000000000000000000 ) ) ;
#249 = ORIENTED_EDGE ( 'NONE', *, *, #396, .T. ) ;
#250 = DIRECTION ( 'NONE',  ( 1.000000000000000000, 0.000000000000000000, 0.000000000000000000 ) ) ;
#251 = SURFACE_SIDE_STYLE ('',( #44 ) ) ;
#252 = ORIENTED_EDGE ( 'NONE', *, *, #529, .F. ) ;
#253 = DIRECTION ( 'NONE',  ( 0.000000000000000000, 1.000000000000000000, -2.115516434118057770E-17 ) ) ;
#254 = ORIENTED_EDGE ( 'NONE', *, *, #160, .F. ) ;
#255 = EDGE_CURVE ( 'NONE', #10, #523, #310, .T. ) ;
#256 = CARTESIAN_POINT ( 'NONE',  ( -3.000000000000000444, 1.500000000000000000, -14.88528137423857522 ) ) ;
#257 = ORIENTED_EDGE ( 'NONE', *, *, #160, .T. ) ;
#258 = EDGE_CURVE ( 'NONE', #642, #633, #371, .T. ) ;
#259 = AXIS2_PLACEMENT_3D ( 'NONE', #55, #272, #482 ) ;
#260 = VECTOR ( 'NONE', #261, 1000.000000000000000 ) ;
#261 = DIRECTION ( 'NONE',  ( -0.000000000000000000, -0.000000000000000000, 1.000000000000000000 ) ) ;
#262 = EDGE_LOOP ( 'NONE', ( #427, #622, #484, #486, #354, #669 ) ) ;
#263 = AXIS2_PLACEMENT_3D ( 'NONE', #469, #319, #577 ) ;
#264 = DIRECTION ( 'NONE',  ( 1.000000000000000000, 0.000000000000000000, 0.000000000000000000 ) ) ;
#265 = EDGE_LOOP ( 'NONE', ( #317, #325, #299, #144, #569, #60 ) ) ;
#266 = CARTESIAN_POINT ( 'NONE',  ( 20.00000000000000000, 9.000000000000000000, -6.400000000000000355 ) ) ;
#267 = CARTESIAN_POINT ( 'NONE',  ( 20.00000000000000711, -6.499999999999999112, -6.400000000000000355 ) ) ;
#268 = ORIENTED_EDGE ( 'NONE', *, *, #448, .F. ) ;
#269 = DIRECTION ( 'NONE',  ( -0.000000000000000000, -0.000000000000000000, 1.000000000000000000 ) ) ;
#270 = CIRCLE ( 'NONE', #31, 5.000000000000000888 ) ;
#271 = AXIS2_PLACEMENT_3D ( 'NONE', #98, #359, #248 ) ;
#272 = DIRECTION ( 'NONE',  ( 0.000000000000000000, -0.000000000000000000, -1.000000000000000000 ) ) ;
#273 = ORIENTED_EDGE ( 'NONE', *, *, #376, .T. ) ;
#274 = DIRECTION ( 'NONE',  ( 0.000000000000000000, 0.000000000000000000, -1.000000000000000000 ) ) ;
#275 =( NAMED_UNIT ( * ) SI_UNIT ( $, .STERADIAN. ) SOLID_ANGLE_UNIT ( ) );
#276 = DIRECTION ( 'NONE',  ( 0.000000000000000000, -1.000000000000000000, 0.000000000000000000 ) ) ;
#277 = ORIENTED_EDGE ( 'NONE', *, *, #156, .F. ) ;
#278 = VERTEX_POINT ( 'NONE', #227 ) ;
#279 = EDGE_CURVE ( 'NONE', #566, #479, #495, .T. ) ;
#280 = DIRECTION ( 'NONE',  ( -0.000000000000000000, -2.115516434118057770E-17, -1.000000000000000000 ) ) ;
#281 = EDGE_LOOP ( 'NONE', ( #215, #175, #249, #438 ) ) ;
#282 = CARTESIAN_POINT ( 'NONE',  ( -14.99999999999999467, -6.500000000000000888, -6.400000000000000355 ) ) ;
#283 = EDGE_CURVE ( 'NONE', #420, #369, #440, .T. ) ;
#284 = CIRCLE ( 'NONE', #445, 3.000000000000000444 ) ;
#285 = CYLINDRICAL_SURFACE ( 'NONE', #198, 3.000000000000000444 ) ;
#286 = ORIENTED_EDGE ( 'NONE', *, *, #283, .T. ) ;
#287 = CARTESIAN_POINT ( 'NONE',  ( -20.00000000000000000, 11.50000000000000000, -3.900000000000000355 ) ) ;
#288 = EDGE_CURVE ( 'NONE', #642, #10, #112, .T. ) ;
#289 = EDGE_CURVE ( 'NONE', #533, #173, #535, .T. ) ;
#290 = DIRECTION ( 'NONE',  ( 1.000000000000000000, 3.016910393003142859E-16, -0.000000000000000000 ) ) ;
#291 = CARTESIAN_POINT ( 'NONE',  ( 20.00000000000000000, 9.000000000000000000, 3.900000000000000355 ) ) ;
#292 = CARTESIAN_POINT ( 'NONE',  ( 20.00000000000000000, 11.50000000000000000, -6.400000000000000355 ) ) ;
#293 = CARTESIAN_POINT ( 'NONE',  ( -41.93376392687766696, -11.50000000000000000, -3.899999999999999911 ) ) ;
#294 = AXIS2_PLACEMENT_3D ( 'NONE', #137, #443, #243 ) ;
#295 = DIRECTION ( 'NONE',  ( 1.000000000000000000, 0.000000000000000000, 0.000000000000000000 ) ) ;
#296 = CARTESIAN_POINT ( 'NONE',  ( 20.00000000000000000, 11.50000000000000000, -6.400000000000000355 ) ) ;
#297 = LINE ( 'NONE', #20, #673 ) ;
#298 = CARTESIAN_POINT ( 'NONE',  ( 15.00000000000000355, -11.50000000000000000, 6.400000000000000355 ) ) ;
#299 = ORIENTED_EDGE ( 'NONE', *, *, #428, .T. ) ;
#300 = CARTESIAN_POINT ( 'NONE',  ( -14.99999999999999467, -11.50000000000000000, -6.400000000000000355 ) ) ;
#301 = FILL_AREA_STYLE_COLOUR ( '', #378 ) ;
#302 = VECTOR ( 'NONE', #235, 1000.000000000000000 ) ;
#303 = ORIENTED_EDGE ( 'NONE', *, *, #502, .F. ) ;
#304 = EDGE_CURVE ( 'NONE', #375, #532, #62, .T. ) ;
#305 = CARTESIAN_POINT ( 'NONE',  ( 0.000000000000000000, 1.499999999999999556, 3.900000000000000799 ) ) ;
#306 = EDGE_LOOP ( 'NONE', ( #268, #39 ) ) ;
#307 = DIRECTION ( 'NONE',  ( 0.000000000000000000, 1.000000000000000000, 0.000000000000000000 ) ) ;
#308 = EDGE_LOOP ( 'NONE', ( #116, #204 ) ) ;
#309 = CARTESIAN_POINT ( 'NONE',  ( 20.00000000000000711, -11.50000000000000711, 3.899999999999999911 ) ) ;
#310 = LINE ( 'NONE', #521, #260 ) ;
#311 = ORIENTED_EDGE ( 'NONE', *, *, #345, .F. ) ;
#312 = CLOSED_SHELL ( 'NONE', ( #594, #133, #79, #353, #327, #85, #240, #104, #93, #520, #524, #114, #12, #138, #232, #212, #43, #335, #17, #380 ) ) ;
#313 = DIRECTION ( 'NONE',  ( 0.000000000000000000, 0.000000000000000000, 1.000000000000000000 ) ) ;
#314 = EDGE_LOOP ( 'NONE', ( #360, #226, #382, #494, #59, #56 ) ) ;
#315 = FACE_OUTER_BOUND ( 'NONE', #593, .T. ) ;
#316 = CYLINDRICAL_SURFACE ( 'NONE', #207, 5.000000000000000888 ) ;
#317 = ORIENTED_EDGE ( 'NONE', *, *, #156, .T. ) ;
#318 = VERTEX_POINT ( 'NONE', #159 ) ;
#319 = DIRECTION ( 'NONE',  ( 0.000000000000000000, -0.000000000000000000, -1.000000000000000000 ) ) ;
#320 = ORIENTED_EDGE ( 'NONE', *, *, #348, .F. ) ;
#321 = DIRECTION ( 'NONE',  ( -3.016910393003142859E-16, 1.000000000000000000, -2.115516434118057770E-17 ) ) ;
#322 = PRODUCT_CONTEXT ( 'NONE', #346, 'mechanical' ) ;
#323 = AXIS2_PLACEMENT_3D ( 'NONE', #392, #603, #596 ) ;
#324 = DIRECTION ( 'NONE',  ( 0.000000000000000000, 1.000000000000000000, 0.000000000000000000 ) ) ;
#325 = ORIENTED_EDGE ( 'NONE', *, *, #404, .T. ) ;
#326 = FACE_OUTER_BOUND ( 'NONE', #362, .T. ) ;
#327 = ADVANCED_FACE ( 'NONE', ( #419 ), #624, .T. ) ;
#328 = CARTESIAN_POINT ( 'NONE',  ( -41.93376392687766696, -11.50000000000000000, 3.899999999999999911 ) ) ;
#329 = ORIENTED_EDGE ( 'NONE', *, *, #448, .T. ) ;
#330 = EDGE_CURVE ( 'NONE', #369, #147, #195, .T. ) ;
#331 = ORIENTED_EDGE ( 'NONE', *, *, #289, .F. ) ;
#332 = CARTESIAN_POINT ( 'NONE',  ( 0.000000000000000000, 1.499999999999999556, -14.88528137423857522 ) ) ;
#333 = ORIENTED_EDGE ( 'NONE', *, *, #663, .F. ) ;
#334 = CYLINDRICAL_SURFACE ( 'NONE', #132, 4.999999999999999112 ) ;
#335 = ADVANCED_FACE ( 'NONE', ( #488 ), #601, .T. ) ;
#336 = VECTOR ( 'NONE', #505, 1000.000000000000000 ) ;
#337 = CARTESIAN_POINT ( 'NONE',  ( 15.00000000000000355, -11.50000000000000000, -6.400000000000000355 ) ) ;
#338 = DIRECTION ( 'NONE',  ( 0.000000000000000000, -2.115516434118057770E-17, 1.000000000000000000 ) ) ;
#339 = DIRECTION ( 'NONE',  ( -1.000000000000000000, 0.000000000000000000, -0.000000000000000000 ) ) ;
#340 = CARTESIAN_POINT ( 'NONE',  ( -19.99999999999999289, -11.50000000000000000, -6.400000000000000355 ) ) ;
#341 = LINE ( 'NONE', #293, #336 ) ;
#342 = CARTESIAN_POINT ( 'NONE',  ( -14.99999999999999467, -6.500000000000000888, -6.400000000000000355 ) ) ;
#343 = DIRECTION ( 'NONE',  ( 0.000000000000000000, 2.115516434118057770E-17, 1.000000000000000000 ) ) ;
#344 = CARTESIAN_POINT ( 'NONE',  ( 15.00000000000000711, -11.50000000000000000, -3.899999999999999911 ) ) ;
#345 = EDGE_CURVE ( 'NONE', #15, #372, #632, .T. ) ;
#346 = APPLICATION_CONTEXT ( 'automotive_design' ) ;
#347 = CARTESIAN_POINT ( 'NONE',  ( 0.000000000000000000, 1.499999999999999556, -14.88528137423857522 ) ) ;
#348 = EDGE_CURVE ( 'NONE', #633, #523, #513, .T. ) ;
#349 = EDGE_CURVE ( 'NONE', #147, #155, #399, .T. ) ;
#350 = EDGE_LOOP ( 'NONE', ( #406, #122, #47, #571 ) ) ;
#351 = PLANE ( 'NONE',  #221 ) ;
#352 = CARTESIAN_POINT ( 'NONE',  ( -19.99999999999999289, -6.500000000000002665, -6.400000000000000355 ) ) ;
#353 = ADVANCED_FACE ( 'NONE', ( #651 ), #183, .T. ) ;
#354 = ORIENTED_EDGE ( 'NONE', *, *, #648, .T. ) ;
#355 = PLANE ( 'NONE',  #271 ) ;
#356 = PRESENTATION_STYLE_ASSIGNMENT (( #668 ) ) ;
#357 = VECTOR ( 'NONE', #246, 1000.000000000000000 ) ;
#358 = ORIENTED_EDGE ( 'NONE', *, *, #349, .F. ) ;
#359 = DIRECTION ( 'NONE',  ( 0.000000000000000000, 1.000000000000000000, 0.000000000000000000 ) ) ;
#360 = ORIENTED_EDGE ( 'NONE', *, *, #396, .F. ) ;
#361 = DIRECTION ( 'NONE',  ( -0.000000000000000000, 0.000000000000000000, 1.000000000000000000 ) ) ;
#362 = EDGE_LOOP ( 'NONE', ( #573, #75, #584, #201 ) ) ;
#363 = ORIENTED_EDGE ( 'NONE', *, *, #376, .F. ) ;
#364 = DIRECTION ( 'NONE',  ( 0.000000000000000000, 0.000000000000000000, 1.000000000000000000 ) ) ;
#365 = CIRCLE ( 'NONE', #323, 3.000000000000000444 ) ;
#366 = CARTESIAN_POINT ( 'NONE',  ( 20.00000000000000000, 9.000000000000000000, 6.400000000000000355 ) ) ;
#367 = DIRECTION ( 'NONE',  ( -0.000000000000000000, -0.000000000000000000, -1.000000000000000000 ) ) ;
#368 = ORIENTED_EDGE ( 'NONE', *, *, #598, .T. ) ;
#369 = VERTEX_POINT ( 'NONE', #394 ) ;
#370 =( NAMED_UNIT ( * ) PLANE_ANGLE_UNIT ( ) SI_UNIT ( $, .RADIAN. ) );
#371 = LINE ( 'NONE', #430, #142 ) ;
#372 = VERTEX_POINT ( 'NONE', #82 ) ;
#373 = CARTESIAN_POINT ( 'NONE',  ( -14.99999999999999289, -11.50000000000000000, -3.899999999999999911 ) ) ;
#374 = DIRECTION ( 'NONE',  ( 1.000000000000000000, 0.000000000000000000, 0.000000000000000000 ) ) ;
#375 = VERTEX_POINT ( 'NONE', #437 ) ;
#376 = EDGE_CURVE ( 'NONE', #479, #517, #78, .T. ) ;
#377 = CARTESIAN_POINT ( 'NONE',  ( -19.99999999999999289, -11.49999999999999289, -3.899999999999999911 ) ) ;
#378 = COLOUR_RGB ( '',0.7921568627450980005, 0.8196078431372548767, 0.9333333333333333481 ) ;
#379 = VECTOR ( 'NONE', #119, 1000.000000000000000 ) ;
#380 = ADVANCED_FACE ( 'NONE', ( #241 ), #285, .F. ) ;
#381 = CARTESIAN_POINT ( 'NONE',  ( 20.00000000000000000, 9.000000000000000000, 3.900000000000000355 ) ) ;
#382 = ORIENTED_EDGE ( 'NONE', *, *, #169, .F. ) ;
#383 = ORIENTED_EDGE ( 'NONE', *, *, #61, .T. ) ;
#384 = DIRECTION ( 'NONE',  ( 0.000000000000000000, -1.000000000000000000, 0.000000000000000000 ) ) ;
#385 = VERTEX_POINT ( 'NONE', #26 ) ;
#386 = DIRECTION ( 'NONE',  ( -0.000000000000000000, 0.000000000000000000, 1.000000000000000000 ) ) ;
#387 = CARTESIAN_POINT ( 'NONE',  ( 0.000000000000000000, 9.000000000000000000, 6.400000000000000355 ) ) ;
#388 = DIRECTION ( 'NONE',  ( 1.000000000000000000, 0.000000000000000000, 0.000000000000000000 ) ) ;
#389 = VECTOR ( 'NONE', #549, 1000.000000000000000 ) ;
#390 = DIRECTION ( 'NONE',  ( 1.000000000000000000, 0.000000000000000000, 0.000000000000000000 ) ) ;
#391 = DIRECTION ( 'NONE',  ( 0.000000000000000000, -1.000000000000000000, -2.115516434118057770E-17 ) ) ;
#392 = CARTESIAN_POINT ( 'NONE',  ( 0.000000000000000000, 1.499999999999999556, -6.399999999999999467 ) ) ;
#393 = PLANE ( 'NONE',  #84 ) ;
#394 = CARTESIAN_POINT ( 'NONE',  ( 15.00000000000000355, -11.50000000000000000, -6.400000000000000355 ) ) ;
#395 = CARTESIAN_POINT ( 'NONE',  ( -41.93376392687766696, -11.50000000000000000, 3.899999999999999911 ) ) ;
#396 = EDGE_CURVE ( 'NONE', #566, #414, #125, .T. ) ;
#397 = CARTESIAN_POINT ( 'NONE',  ( -14.99999999999999467, -6.500000000000000888, -3.899999999999999911 ) ) ;
#398 = EDGE_CURVE ( 'NONE', #541, #562, #491, .T. ) ;
#399 = CIRCLE ( 'NONE', #575, 5.000000000000000000 ) ;
#400 = AXIS2_PLACEMENT_3D ( 'NONE', #576, #168, #274 ) ;
#401 = EDGE_LOOP ( 'NONE', ( #127, #515 ) ) ;
#402 = CIRCLE ( 'NONE', #167, 2.500000000000000444 ) ;
#403 = DIRECTION ( 'NONE',  ( 1.000000000000000000, 0.000000000000000000, 0.000000000000000000 ) ) ;
#404 = EDGE_CURVE ( 'NONE', #646, #64, #493, .T. ) ;
#405 = CARTESIAN_POINT ( 'NONE',  ( -19.99999999999999289, -11.49999999999999289, 3.899999999999999911 ) ) ;
#406 = ORIENTED_EDGE ( 'NONE', *, *, #398, .F. ) ;
#407 = ADVANCED_BREP_SHAPE_REPRESENTATION ( 'Walker_Center_Folding_Beam_Connector', ( #182, #49 ), #630 ) ;
#408 = CARTESIAN_POINT ( 'NONE',  ( -3.000000000000000444, 1.500000000000000000, 3.900000000000000799 ) ) ;
#409 = DIRECTION ( 'NONE',  ( -1.000000000000000000, -3.016910393003142859E-16, 0.000000000000000000 ) ) ;
#410 = ORIENTED_EDGE ( 'NONE', *, *, #140, .F. ) ;
#411 = DIRECTION ( 'NONE',  ( 0.000000000000000000, -1.000000000000000000, 0.000000000000000000 ) ) ;
#412 = CIRCLE ( 'NONE', #259, 4.999999999999999112 ) ;
#413 = VECTOR ( 'NONE', #403, 1000.000000000000000 ) ;
#414 = VERTEX_POINT ( 'NONE', #128 ) ;
#415 = UNCERTAINTY_MEASURE_WITH_UNIT (LENGTH_MEASURE( 1.000000000000000082E-05 ), #67, 'distance_accuracy_value', 'NONE');
#416 = SHAPE_DEFINITION_REPRESENTATION ( #186, #407 ) ;
#417 = EDGE_LOOP ( 'NONE', ( #223, #257, #45, #510, #383, #6, #629, #273, #165, #459 ) ) ;
#418 = CARTESIAN_POINT ( 'NONE',  ( 20.00000000000000711, -6.499999999999999112, -6.400000000000000355 ) ) ;
#419 = FACE_OUTER_BOUND ( 'NONE', #281, .T. ) ;
#420 = VERTEX_POINT ( 'NONE', #80 ) ;
#421 =( NAMED_UNIT ( * ) SI_UNIT ( $, .STERADIAN. ) SOLID_ANGLE_UNIT ( ) );
#422 = EDGE_LOOP ( 'NONE', ( #111, #474, #625, #162 ) ) ;
#423 = ORIENTED_EDGE ( 'NONE', *, *, #234, .F. ) ;
#424 = AXIS2_PLACEMENT_3D ( 'NONE', #456, #409, #659 ) ;
#425 = AXIS2_PLACEMENT_3D ( 'NONE', #202, #614, #411 ) ;
#426 = FACE_OUTER_BOUND ( 'NONE', #544, .T. ) ;
#427 = ORIENTED_EDGE ( 'NONE', *, *, #61, .F. ) ;
#428 = EDGE_CURVE ( 'NONE', #64, #517, #654, .T. ) ;
#429 = CARTESIAN_POINT ( 'NONE',  ( -19.99999999999999289, -6.500000000000002665, -6.400000000000000355 ) ) ;
#430 = CARTESIAN_POINT ( 'NONE',  ( -3.000000000000000444, 1.500000000000000000, -14.88528137423857522 ) ) ;
#431 = ORIENTED_EDGE ( 'NONE', *, *, #568, .F. ) ;
#432 = ORIENTED_EDGE ( 'NONE', *, *, #216, .T. ) ;
#433 = CARTESIAN_POINT ( 'NONE',  ( 15.00000000000000355, -6.500000000000000000, -6.400000000000000355 ) ) ;
#434 = ORIENTED_EDGE ( 'NONE', *, *, #255, .F. ) ;
#435 = VERTEX_POINT ( 'NONE', #649 ) ;
#436 = PRESENTATION_LAYER_ASSIGNMENT (  '', '', ( #599 ) ) ;
#437 = CARTESIAN_POINT ( 'NONE',  ( -14.99999999999999467, -11.50000000000000000, 6.400000000000000355 ) ) ;
#438 = ORIENTED_EDGE ( 'NONE', *, *, #40, .T. ) ;
#439 = LINE ( 'NONE', #550, #220 ) ;
#440 = CIRCLE ( 'NONE', #528, 5.000000000000000888 ) ;
#441 = DIRECTION ( 'NONE',  ( 0.000000000000000000, 1.000000000000000000, 0.000000000000000000 ) ) ;
#442 = DIRECTION ( 'NONE',  ( -1.000000000000000000, 0.000000000000000000, -0.000000000000000000 ) ) ;
#443 = DIRECTION ( 'NONE',  ( -0.000000000000000000, 0.000000000000000000, 1.000000000000000000 ) ) ;
#444 = MECHANICAL_DESIGN_GEOMETRIC_PRESENTATION_REPRESENTATION (  '', ( #599 ), #564 ) ;
#445 = AXIS2_PLACEMENT_3D ( 'NONE', #305, #557, #617 ) ;
#446 = DIRECTION ( 'NONE',  ( 1.000000000000000000, -0.000000000000000000, -0.000000000000000000 ) ) ;
#447 = PLANE ( 'NONE',  #608 ) ;
#448 = EDGE_CURVE ( 'NONE', #10, #642, #365, .T. ) ;
#449 = CARTESIAN_POINT ( 'NONE',  ( -19.99999999999999289, -6.500000000000002665, -6.400000000000000355 ) ) ;
#450 = CARTESIAN_POINT ( 'NONE',  ( 20.00000000000000711, -6.499999999999998224, 3.899999999999999911 ) ) ;
#451 = EDGE_CURVE ( 'NONE', #375, #566, #23, .T. ) ;
#452 = CARTESIAN_POINT ( 'NONE',  ( -3.000000000000000444, 1.500000000000000000, -3.900000000000000799 ) ) ;
#453 = EDGE_CURVE ( 'NONE', #53, #147, #341, .T. ) ;
#454 = CARTESIAN_POINT ( 'NONE',  ( -3.000000000000000444, 1.500000000000000000, -6.399999999999999467 ) ) ;
#455 = VECTOR ( 'NONE', #217, 1000.000000000000000 ) ;
#456 = CARTESIAN_POINT ( 'NONE',  ( -20.00000000000000000, 9.000000000000000000, -3.900000000000000355 ) ) ;
#457 = VERTEX_POINT ( 'NONE', #187 ) ;
#458 = DIRECTION ( 'NONE',  ( -0.000000000000000000, 2.115516434118057770E-17, -1.000000000000000000 ) ) ;
#459 = ORIENTED_EDGE ( 'NONE', *, *, #529, .T. ) ;
#460 = CARTESIAN_POINT ( 'NONE',  ( -19.99999999999999289, -6.500000000000002665, 3.899999999999999911 ) ) ;
#461 = ORIENTED_EDGE ( 'NONE', *, *, #238, .F. ) ;
#462 = LINE ( 'NONE', #672, #653 ) ;
#463 = VECTOR ( 'NONE', #580, 1000.000000000000000 ) ;
#464 = AXIS2_PLACEMENT_3D ( 'NONE', #239, #592, #384 ) ;
#465 = ORIENTED_EDGE ( 'NONE', *, *, #330, .F. ) ;
#466 = VECTOR ( 'NONE', #367, 1000.000000000000000 ) ;
#467 = LINE ( 'NONE', #418, #379 ) ;
#468 = EDGE_CURVE ( 'NONE', #523, #633, #587, .T. ) ;
#469 = CARTESIAN_POINT ( 'NONE',  ( 0.000000000000000000, 1.499999999999999556, -6.399999999999999467 ) ) ;
#470 = EDGE_LOOP ( 'NONE', ( #211, #610, #66, #320 ) ) ;
#471 = EDGE_CURVE ( 'NONE', #95, #414, #65, .T. ) ;
#472 = DIRECTION ( 'NONE',  ( 1.000000000000000000, 0.000000000000000000, 0.000000000000000000 ) ) ;
#473 = ORIENTED_EDGE ( 'NONE', *, *, #574, .T. ) ;
#474 = ORIENTED_EDGE ( 'NONE', *, *, #140, .T. ) ;
#475 = AXIS2_PLACEMENT_3D ( 'NONE', #71, #290, #441 ) ;
#476 = EDGE_CURVE ( 'NONE', #184, #278, #563, .T. ) ;
#477 = CARTESIAN_POINT ( 'NONE',  ( -14.99999999999999467, -6.500000000000000888, 6.400000000000000355 ) ) ;
#478 = FACE_OUTER_BOUND ( 'NONE', #675, .T. ) ;
#479 = VERTEX_POINT ( 'NONE', #460 ) ;
#480 = CARTESIAN_POINT ( 'NONE',  ( -14.99999999999999467, -11.50000000000000000, -6.400000000000000355 ) ) ;
#481 = AXIS2_PLACEMENT_3D ( 'NONE', #567, #458, #205 ) ;
#482 = DIRECTION ( 'NONE',  ( 1.000000000000000000, 8.673617379884037444E-16, 0.000000000000000000 ) ) ;
#483 = ORIENTED_EDGE ( 'NONE', *, *, #667, .F. ) ;
#484 = ORIENTED_EDGE ( 'NONE', *, *, #453, .T. ) ;
#485 = DIRECTION ( 'NONE',  ( 0.000000000000000000, -0.000000000000000000, -1.000000000000000000 ) ) ;
#486 = ORIENTED_EDGE ( 'NONE', *, *, #349, .T. ) ;
#487 = ORIENTED_EDGE ( 'NONE', *, *, #40, .F. ) ;
#488 = FACE_OUTER_BOUND ( 'NONE', #73, .T. ) ;
#489 = ORIENTED_EDGE ( 'NONE', *, *, #667, .T. ) ;
#490 = LINE ( 'NONE', #8, #522 ) ;
#491 = CIRCLE ( 'NONE', #464, 3.000000000000000444 ) ;
#492 = VECTOR ( 'NONE', #321, 1000.000000000000000 ) ;
#493 = LINE ( 'NONE', #387, #41 ) ;
#494 = ORIENTED_EDGE ( 'NONE', *, *, #35, .T. ) ;
#495 = CIRCLE ( 'NONE', #52, 4.999999999999999112 ) ;
#496 = CARTESIAN_POINT ( 'NONE',  ( 0.000000000000000000, 1.499999999999999556, 6.399999999999999467 ) ) ;
#497 = AXIS2_PLACEMENT_3D ( 'NONE', #546, #656, #552 ) ;
#498 = CARTESIAN_POINT ( 'NONE',  ( 15.00000000000000355, -6.500000000000000000, -3.899999999999999911 ) ) ;
#499 = FACE_OUTER_BOUND ( 'NONE', #314, .T. ) ;
#500 = CARTESIAN_POINT ( 'NONE',  ( -20.00000000000000000, 11.50000000000000000, 6.400000000000000355 ) ) ;
#501 = DIRECTION ( 'NONE',  ( 0.000000000000000000, -1.000000000000000000, 0.000000000000000000 ) ) ;
#502 = EDGE_CURVE ( 'NONE', #24, #369, #100, .T. ) ;
#503 = CIRCLE ( 'NONE', #424, 2.500000000000000444 ) ;
#504 = CIRCLE ( 'NONE', #425, 2.500000000000000444 ) ;
#505 = DIRECTION ( 'NONE',  ( 1.000000000000000000, -0.000000000000000000, -0.000000000000000000 ) ) ;
#506 = EDGE_CURVE ( 'NONE', #457, #53, #192, .T. ) ;
#507 = PRODUCT_DEFINITION_CONTEXT ( 'detailed design', #118, 'design' ) ;
#508 = DIRECTION ( 'NONE',  ( 0.000000000000000000, -2.115516434118057770E-17, -1.000000000000000000 ) ) ;
#509 = DIRECTION ( 'NONE',  ( 0.000000000000000000, 0.000000000000000000, 1.000000000000000000 ) ) ;
#510 = ORIENTED_EDGE ( 'NONE', *, *, #37, .T. ) ;
#511 = FACE_BOUND ( 'NONE', #178, .T. ) ;
#512 = VECTOR ( 'NONE', #612, 1000.000000000000000 ) ;
#513 = CIRCLE ( 'NONE', #7, 3.000000000000000888 ) ;
#514 = FILL_AREA_STYLE ('',( #301 ) ) ;
#515 = ORIENTED_EDGE ( 'NONE', *, *, #641, .F. ) ;
#516 = CARTESIAN_POINT ( 'NONE',  ( 20.00000000000000000, 11.50000000000000000, -6.400000000000000355 ) ) ;
#517 = VERTEX_POINT ( 'NONE', #611 ) ;
#518 = CARTESIAN_POINT ( 'NONE',  ( -14.99999999999999289, -11.50000000000000000, 3.899999999999999911 ) ) ;
#519 = ORIENTED_EDGE ( 'NONE', *, *, #89, .F. ) ;
#520 = ADVANCED_FACE ( 'NONE', ( #511, #145 ), #351, .F. ) ;
#521 = CARTESIAN_POINT ( 'NONE',  ( 3.000000000000000444, 1.499999999999999556, -14.88528137423857522 ) ) ;
#522 = VECTOR ( 'NONE', #219, 1000.000000000000000 ) ;
#523 = VERTEX_POINT ( 'NONE', #658 ) ;
#524 = ADVANCED_FACE ( 'NONE', ( #143 ), #355, .F. ) ;
#525 =( NAMED_UNIT ( * ) PLANE_ANGLE_UNIT ( ) SI_UNIT ( $, .RADIAN. ) );
#526 = ORIENTED_EDGE ( 'NONE', *, *, #570, .F. ) ;
#527 = CYLINDRICAL_SURFACE ( 'NONE', #400, 2.500000000000000000 ) ;
#528 = AXIS2_PLACEMENT_3D ( 'NONE', #164, #485, #115 ) ;
#529 = EDGE_CURVE ( 'NONE', #64, #106, #504, .T. ) ;
#530 = DIRECTION ( 'NONE',  ( 1.000000000000000000, 0.000000000000000000, 0.000000000000000000 ) ) ;
#531 = CARTESIAN_POINT ( 'NONE',  ( 15.00000000000000355, -6.500000000000000000, -6.400000000000000355 ) ) ;
#532 = VERTEX_POINT ( 'NONE', #298 ) ;
#533 = VERTEX_POINT ( 'NONE', #561 ) ;
#534 = LINE ( 'NONE', #676, #674 ) ;
#535 = LINE ( 'NONE', #110, #236 ) ;
#536 = ORIENTED_EDGE ( 'NONE', *, *, #506, .F. ) ;
#537 = CARTESIAN_POINT ( 'NONE',  ( -20.00000000000000000, 9.000000000000000000, 6.400000000000000355 ) ) ;
#538 = AXIS2_PLACEMENT_3D ( 'NONE', #340, #501, #558 ) ;
#539 = AXIS2_PLACEMENT_3D ( 'NONE', #197, #559, #90 ) ;
#540 = FACE_OUTER_BOUND ( 'NONE', #206, .T. ) ;
#541 = VERTEX_POINT ( 'NONE', #408 ) ;
#542 = FACE_OUTER_BOUND ( 'NONE', #231, .T. ) ;
#543 = DIRECTION ( 'NONE',  ( 0.000000000000000000, 0.000000000000000000, 1.000000000000000000 ) ) ;
#544 = EDGE_LOOP ( 'NONE', ( #585, #483, #626, #487 ) ) ;
#545 = DIRECTION ( 'NONE',  ( 1.000000000000000000, 0.000000000000000000, 0.000000000000000000 ) ) ;
#546 = CARTESIAN_POINT ( 'NONE',  ( -19.99999999999999289, -11.50000000000000000, -6.400000000000000355 ) ) ;
#547 = ORIENTED_EDGE ( 'NONE', *, *, #468, .F. ) ;
#548 = FACE_BOUND ( 'NONE', #308, .T. ) ;
#549 = DIRECTION ( 'NONE',  ( 0.000000000000000000, 0.000000000000000000, 1.000000000000000000 ) ) ;
#550 = CARTESIAN_POINT ( 'NONE',  ( -20.00000000000000000, 11.50000000000000000, -6.400000000000000355 ) ) ;
#551 = EDGE_CURVE ( 'NONE', #53, #24, #605, .T. ) ;
#552 = DIRECTION ( 'NONE',  ( 0.000000000000000000, -0.000000000000000000, -1.000000000000000000 ) ) ;
#553 = DIRECTION ( 'NONE',  ( 1.000000000000000000, 0.000000000000000000, 0.000000000000000000 ) ) ;
#554 = DIRECTION ( 'NONE',  ( 3.016910393003142859E-16, -1.000000000000000000, 0.000000000000000000 ) ) ;
#555 = LINE ( 'NONE', #607, #242 ) ;
#556 = AXIS2_PLACEMENT_3D ( 'NONE', #190, #650, #295 ) ;
#557 = DIRECTION ( 'NONE',  ( 0.000000000000000000, -2.115516434118057770E-17, 1.000000000000000000 ) ) ;
#558 = DIRECTION ( 'NONE',  ( 0.000000000000000000, -0.000000000000000000, -1.000000000000000000 ) ) ;
#559 = DIRECTION ( 'NONE',  ( -0.000000000000000000, 0.000000000000000000, 1.000000000000000000 ) ) ;
#560 = EDGE_LOOP ( 'NONE', ( #473, #11, #368, #129, #277, #489, #228, #410, #72, #222 ) ) ;
#561 = CARTESIAN_POINT ( 'NONE',  ( -20.00000000000000000, 9.000000000000000000, -6.400000000000000355 ) ) ;
#562 = VERTEX_POINT ( 'NONE', #149 ) ;
#563 = LINE ( 'NONE', #36, #32 ) ;
#564 =( GEOMETRIC_REPRESENTATION_CONTEXT ( 3 ) GLOBAL_UNCERTAINTY_ASSIGNED_CONTEXT ( ( #148 ) ) GLOBAL_UNIT_ASSIGNED_CONTEXT ( ( #620, #525, #421 ) ) REPRESENTATION_CONTEXT ( 'NONE', 'WORKASPACE' ) );
#565 = VECTOR ( 'NONE', #48, 1000.000000000000000 ) ;
#566 = VERTEX_POINT ( 'NONE', #518 ) ;
#567 = CARTESIAN_POINT ( 'NONE',  ( 15.00000000000000355, -6.500000000000000000, 3.899999999999999911 ) ) ;
#568 = EDGE_CURVE ( 'NONE', #541, #589, #38, .T. ) ;
#569 = ORIENTED_EDGE ( 'NONE', *, *, #304, .T. ) ;
#570 = EDGE_CURVE ( 'NONE', #562, #541, #284, .T. ) ;
#571 = ORIENTED_EDGE ( 'NONE', *, *, #591, .F. ) ;
#572 = APPLICATION_PROTOCOL_DEFINITION ( 'draft international standard', 'automotive_design', 1998, #118 ) ;
#573 = ORIENTED_EDGE ( 'NONE', *, *, #453, .F. ) ;
#574 = EDGE_CURVE ( 'NONE', #420, #15, #670, .T. ) ;
#575 = AXIS2_PLACEMENT_3D ( 'NONE', #498, #74, #18 ) ;
#576 = CARTESIAN_POINT ( 'NONE',  ( -20.00000000000000000, 9.000000000000000000, -3.900000000000000355 ) ) ;
#577 = DIRECTION ( 'NONE',  ( 1.000000000000000000, 0.000000000000000000, 0.000000000000000000 ) ) ;
#578 = EDGE_LOOP ( 'NONE', ( #329, #621, #547, #434 ) ) ;
#579 = EDGE_LOOP ( 'NONE', ( #331, #101, #92, #286, #303, #432 ) ) ;
#580 = DIRECTION ( 'NONE',  ( 1.000000000000000000, -0.000000000000000000, -0.000000000000000000 ) ) ;
#581 = ORIENTED_EDGE ( 'NONE', *, *, #91, .T. ) ;
#582 = FACE_OUTER_BOUND ( 'NONE', #3, .T. ) ;
#583 = LINE ( 'NONE', #120, #463 ) ;
#584 = ORIENTED_EDGE ( 'NONE', *, *, #502, .T. ) ;
#585 = ORIENTED_EDGE ( 'NONE', *, *, #471, .F. ) ;
#586 = AXIS2_PLACEMENT_3D ( 'NONE', #590, #269, #545 ) ;
#587 = CIRCLE ( 'NONE', #134, 3.000000000000000888 ) ;
#588 = DIRECTION ( 'NONE',  ( 0.000000000000000000, -0.000000000000000000, 1.000000000000000000 ) ) ;
#589 = VERTEX_POINT ( 'NONE', #153 ) ;
#590 = CARTESIAN_POINT ( 'NONE',  ( 0.000000000000000000, 1.499999999999999556, -14.88528137423857522 ) ) ;
#591 = EDGE_CURVE ( 'NONE', #562, #1, #462, .T. ) ;
#592 = DIRECTION ( 'NONE',  ( 0.000000000000000000, -2.115516434118057770E-17, 1.000000000000000000 ) ) ;
#593 = EDGE_LOOP ( 'NONE', ( #311, #333, #254, #519 ) ) ;
#594 = ADVANCED_FACE ( 'NONE', ( #209 ), #609, .F. ) ;
#595 = LINE ( 'NONE', #194, #121 ) ;
#596 = DIRECTION ( 'NONE',  ( 1.000000000000000000, 0.000000000000000000, 0.000000000000000000 ) ) ;
#597 = FACE_BOUND ( 'NONE', #306, .T. ) ;
#598 = EDGE_CURVE ( 'NONE', #372, #385, #87, .T. ) ;
#599 = STYLED_ITEM ( 'NONE', ( #356 ), #182 ) ;
#600 = VECTOR ( 'NONE', #554, 1000.000000000000000 ) ;
#601 = CYLINDRICAL_SURFACE ( 'NONE', #170, 2.500000000000000000 ) ;
#602 = CARTESIAN_POINT ( 'NONE',  ( 0.000000000000000000, 0.000000000000000000, -6.400000000000000355 ) ) ;
#603 = DIRECTION ( 'NONE',  ( 0.000000000000000000, -0.000000000000000000, -1.000000000000000000 ) ) ;
#604 = FACE_OUTER_BOUND ( 'NONE', #640, .T. ) ;
#605 = LINE ( 'NONE', #300, #86 ) ;
#606 = PRODUCT_DEFINITION_FORMATION_WITH_SPECIFIED_SOURCE ( 'ANY', '', #179, .NOT_KNOWN. ) ;
#607 = CARTESIAN_POINT ( 'NONE',  ( 20.00000000000000000, 9.000000000000000000, 3.900000000000000355 ) ) ;
#608 = AXIS2_PLACEMENT_3D ( 'NONE', #395, #338, #391 ) ;
#609 = CYLINDRICAL_SURFACE ( 'NONE', #661, 3.000000000000000444 ) ;
#610 = ORIENTED_EDGE ( 'NONE', *, *, #288, .T. ) ;
#611 = CARTESIAN_POINT ( 'NONE',  ( -19.99999999999999289, -6.500000000000002665, 6.400000000000000355 ) ) ;
#612 = DIRECTION ( 'NONE',  ( 1.000000000000000000, -0.000000000000000000, -0.000000000000000000 ) ) ;
#613 = ORIENTED_EDGE ( 'NONE', *, *, #451, .F. ) ;
#614 = DIRECTION ( 'NONE',  ( -1.000000000000000000, -3.016910393003142859E-16, 0.000000000000000000 ) ) ;
#615 = LINE ( 'NONE', #154, #512 ) ;
#616 = ORIENTED_EDGE ( 'NONE', *, *, #89, .T. ) ;
#617 = DIRECTION ( 'NONE',  ( 0.000000000000000000, -1.000000000000000000, 0.000000000000000000 ) ) ;
#618 = CIRCLE ( 'NONE', #643, 3.000000000000000444 ) ;
#619 = AXIS2_PLACEMENT_3D ( 'NONE', #292, #645, #230 ) ;
#620 =( LENGTH_UNIT ( ) NAMED_UNIT ( * ) SI_UNIT ( .MILLI., .METRE. ) );
#621 = ORIENTED_EDGE ( 'NONE', *, *, #258, .T. ) ;
#622 = ORIENTED_EDGE ( 'NONE', *, *, #506, .T. ) ;
#623 = APPLICATION_PROTOCOL_DEFINITION ( 'draft international standard', 'automotive_design', 1998, #346 ) ;
#624 = PLANE ( 'NONE',  #497 ) ;
#625 = ORIENTED_EDGE ( 'NONE', *, *, #35, .F. ) ;
#626 = ORIENTED_EDGE ( 'NONE', *, *, #191, .F. ) ;
#627 = DIRECTION ( 'NONE',  ( 1.000000000000000000, 0.000000000000000000, 0.000000000000000000 ) ) ;
#628 = DIRECTION ( 'NONE',  ( -0.000000000000000000, -0.000000000000000000, 1.000000000000000000 ) ) ;
#629 = ORIENTED_EDGE ( 'NONE', *, *, #169, .T. ) ;
#630 =( GEOMETRIC_REPRESENTATION_CONTEXT ( 3 ) GLOBAL_UNCERTAINTY_ASSIGNED_CONTEXT ( ( #415 ) ) GLOBAL_UNIT_ASSIGNED_CONTEXT ( ( #67, #370, #275 ) ) REPRESENTATION_CONTEXT ( 'NONE', 'WORKASPACE' ) );
#631 = CARTESIAN_POINT ( 'NONE',  ( 15.00000000000000355, -11.50000000000000000, -6.400000000000000355 ) ) ;
#632 = CIRCLE ( 'NONE', #475, 2.500000000000000444 ) ;
#633 = VERTEX_POINT ( 'NONE', #452 ) ;
#634 = DIRECTION ( 'NONE',  ( 0.000000000000000000, 0.000000000000000000, 1.000000000000000000 ) ) ;
#635 = CARTESIAN_POINT ( 'NONE',  ( 20.00000000000000711, -11.50000000000000711, -3.899999999999999911 ) ) ;
#636 = DIRECTION ( 'NONE',  ( -0.000000000000000000, 0.000000000000000000, 1.000000000000000000 ) ) ;
#637 = ORIENTED_EDGE ( 'NONE', *, *, #591, .T. ) ;
#638 = CYLINDRICAL_SURFACE ( 'NONE', #105, 4.999999999999999112 ) ;
#639 = CYLINDRICAL_SURFACE ( 'NONE', #233, 5.000000000000000888 ) ;
#640 = EDGE_LOOP ( 'NONE', ( #664, #613, #50, #363 ) ) ;
#641 = EDGE_CURVE ( 'NONE', #589, #1, #152, .T. ) ;
#642 = VERTEX_POINT ( 'NONE', #454 ) ;
#643 = AXIS2_PLACEMENT_3D ( 'NONE', #496, #647, #196 ) ;
#644 = EDGE_CURVE ( 'NONE', #517, #375, #21, .T. ) ;
#645 = DIRECTION ( 'NONE',  ( 1.000000000000000000, 3.016910393003142859E-16, -0.000000000000000000 ) ) ;
#646 = VERTEX_POINT ( 'NONE', #366 ) ;
#647 = DIRECTION ( 'NONE',  ( -0.000000000000000000, 0.000000000000000000, 1.000000000000000000 ) ) ;
#648 = EDGE_CURVE ( 'NONE', #155, #318, #102, .T. ) ;
#649 = CARTESIAN_POINT ( 'NONE',  ( 20.00000000000000711, -6.499999999999999112, 6.400000000000000355 ) ) ;
#650 = DIRECTION ( 'NONE',  ( -0.000000000000000000, -0.000000000000000000, 1.000000000000000000 ) ) ;
#651 = FACE_OUTER_BOUND ( 'NONE', #560, .T. ) ;
#652 = CARTESIAN_POINT ( 'NONE',  ( -20.00000000000000000, 11.50000000000000000, 3.899999999999999911 ) ) ;
#653 = VECTOR ( 'NONE', #42, 1000.000000000000000 ) ;
#654 = LINE ( 'NONE', #500, #600 ) ;
#655 = FACE_OUTER_BOUND ( 'NONE', #350, .T. ) ;
#656 = DIRECTION ( 'NONE',  ( 0.000000000000000000, -1.000000000000000000, 0.000000000000000000 ) ) ;
#657 = DIRECTION ( 'NONE',  ( -1.000000000000000000, 0.000000000000000000, -0.000000000000000000 ) ) ;
#658 = CARTESIAN_POINT ( 'NONE',  ( 3.000000000000000444, 1.499999999999999556, -3.900000000000000799 ) ) ;
#659 = DIRECTION ( 'NONE',  ( 0.000000000000000000, -1.000000000000000000, 0.000000000000000000 ) ) ;
#660 = EDGE_CURVE ( 'NONE', #99, #95, #158, .T. ) ;
#661 = AXIS2_PLACEMENT_3D ( 'NONE', #347, #139, #250 ) ;
#662 = CARTESIAN_POINT ( 'NONE',  ( -19.99999999999999289, -11.50000000000000000, -6.400000000000000355 ) ) ;
#663 = EDGE_CURVE ( 'NONE', #533, #15, #534, .T. ) ;
#664 = ORIENTED_EDGE ( 'NONE', *, *, #279, .F. ) ;
#665 = DIRECTION ( 'NONE',  ( -0.000000000000000000, -0.000000000000000000, -1.000000000000000000 ) ) ;
#666 = VECTOR ( 'NONE', #14, 1000.000000000000000 ) ;
#667 = EDGE_CURVE ( 'NONE', #435, #95, #467, .T. ) ;
#668 = SURFACE_STYLE_USAGE ( .BOTH. , #251 ) ;
#669 = ORIENTED_EDGE ( 'NONE', *, *, #166, .F. ) ;
#670 = LINE ( 'NONE', #516, #208 ) ;
#671 = ORIENTED_EDGE ( 'NONE', *, *, #216, .F. ) ;
#672 = CARTESIAN_POINT ( 'NONE',  ( 3.000000000000000444, 1.499999999999999556, -14.88528137423857522 ) ) ;
#673 = VECTOR ( 'NONE', #247, 1000.000000000000000 ) ;
#674 = VECTOR ( 'NONE', #213, 1000.000000000000000 ) ;
#675 = EDGE_LOOP ( 'NONE', ( #16, #616, #581, #151 ) ) ;
#676 = CARTESIAN_POINT ( 'NONE',  ( 20.00000000000000000, 9.000000000000000000, -6.400000000000000355 ) ) ;
#677 = CARTESIAN_POINT ( 'NONE',  ( -19.99999999999999289, -11.50000000000000000, 6.400000000000000355 ) ) ;
ENDSEC;
END-ISO-10303-21;
